<svg xmlns="http://www.w3.org/2000/svg" fill="none" viewBox="0 0 799 559">
  <path fill="#0552CE" d="M596.515 96.705C568.098 39.487 507.735 0 437.861 0c-87.435 0-159.965 61.834-173.658 142.864-55.661.966-100.478 45.016-100.478 99.224 0 54.813 45.821 99.246 102.344 99.246h322.617c69.729 0 126.257-54.816 126.257-122.435 0-65.068-52.346-118.272-118.428-122.194Z"/>
  <path fill="#061857" d="M174.43 558.945a.65.65 0 0 1-.629-.545L142.86 391.171H31.724c-.355 0-.642-.301-.642-.674 0-.372.287-.673.642-.673h111.665c.307 0 .571.229.63.545l31.042 167.774c.068.365-.16.718-.508.789a.571.571 0 0 1-.123.013Z"/>
  <path fill="#061857" d="M62.712 558.949a.65.65 0 0 1-.63-.546L31.04 390.629c-.067-.365.16-.718.508-.789a.645.645 0 0 1 .752.533l31.043 167.774c.067.365-.16.718-.508.789a.574.574 0 0 1-.123.013Z"/>
  <path fill="#061857" d="M.643 558.948a.574.574 0 0 1-.123-.012c-.349-.071-.576-.424-.508-.789l31.042-167.774a.647.647 0 0 1 .752-.533c.348.071.576.424.508.789L1.272 558.403a.65.65 0 0 1-.63.545ZM112.31 558.948a.57.57 0 0 1-.123-.012c-.348-.071-.576-.424-.508-.789l31.042-167.774a.646.646 0 0 1 .752-.533c.348.071.576.424.508.789l-31.042 167.774a.65.65 0 0 1-.629.545Z"/>
  <path fill="#F3F3F3" d="M148.562 383.625H25.041v6.876h123.521v-6.876Z"/>
  <path fill="#061857" d="M148.562 391.172H25.042c-.356 0-.643-.301-.643-.673v-6.877c0-.372.287-.673.642-.673h123.521c.355 0 .642.301.642.673v6.877c0 .372-.287.673-.642.673Zm-122.879-1.347H147.92v-5.529H25.683v5.529Z"/>
  <path fill="#F3F3F3" d="M137.352 451.008H13.832v6.876h123.52v-6.876Z"/>
  <path fill="#061857" d="M137.353 458.559H13.831c-.354 0-.641-.302-.641-.674v-6.876c0-.372.287-.673.641-.673h123.522c.355 0 .642.301.642.673v6.876c0 .372-.287.674-.642.674Zm-122.88-1.347h122.238v-5.53H14.473v5.53Z"/>
  <path fill="#F3F3F3" d="M126.143 518.391H2.623v6.876h123.52v-6.876Z"/>
  <path fill="#061857" d="M126.144 525.941H2.622c-.354 0-.642-.301-.642-.673v-6.876c0-.372.288-.673.642-.673h123.522c.354 0 .641.301.641.673v6.876c0 .372-.287.673-.641.673Zm-122.88-1.346h122.238v-5.53H3.264v5.53Z"/>
  <path fill="#F3F3F3" d="M25.968 241.875c-1.501-10.391-4.98-15.977.5-34.754 5.481-18.777 13.885-33.723 13.885-33.723l55.738 19.143 1.044 13.142 56.252 54.2c9.987 9.624 13.475 24.604 8.84 37.972l-21.583 62.253 7.58 13.167c1.563 2.716-.301 6.182-3.326 6.182H94.212c-5.744 0-9.793-5.915-7.957-11.624l25.151-78.184-36.895-35.046-4.35 169.575 11.412 21.669c1.206 2.289-.373 5.095-2.866 5.095H25.762c-4.825 0-8.673-4.224-8.454-9.279l8.66-199.788Z"/>
  <path fill="#061857" d="M78.707 451.617H25.76c-2.511 0-4.849-1.049-6.582-2.952-1.735-1.904-2.627-4.401-2.513-7.031l8.657-199.721c-.3-2.057-.68-3.94-1.047-5.762-1.462-7.241-2.842-14.081 1.578-29.225 5.44-18.638 13.86-33.717 13.945-33.867a.625.625 0 0 1 .753-.298l55.738 19.142a.667.667 0 0 1 .44.584l1.024 12.88 56.067 54.023c10.212 9.84 13.748 25.029 9.008 38.697l-21.477 61.951 7.421 12.892a4.893 4.893 0 0 1 .067 4.787c-.814 1.512-2.287 2.415-3.943 2.415H94.212c-2.948 0-5.624-1.44-7.343-3.951-1.719-2.511-2.164-5.631-1.222-8.56l25.016-77.766-35.548-33.768-4.31 167.928 11.33 21.509a4.242 4.242 0 0 1-.055 4.072c-.712 1.265-1.973 2.021-3.373 2.021ZM40.648 174.211c-1.45 2.675-8.706 16.459-13.567 33.109-4.322 14.812-3.037 21.179-1.55 28.552.376 1.86.764 3.783 1.07 5.905a.698.698 0 0 1 .007.131l-8.66 199.788c-.097 2.259.669 4.403 2.158 6.038 1.49 1.635 3.498 2.536 5.655 2.536h52.946c.941 0 1.789-.507 2.267-1.357a2.852 2.852 0 0 0 .037-2.738l-11.413-21.669a.698.698 0 0 1-.08-.344l4.35-169.575a.675.675 0 0 1 .39-.601.619.619 0 0 1 .683.12l36.895 35.047c.19.18.26.46.178.714l-25.151 78.184c-.808 2.513-.426 5.19 1.05 7.344 1.474 2.155 3.77 3.391 6.299 3.391h50.685c1.186 0 2.242-.647 2.825-1.73a3.503 3.503 0 0 0-.048-3.43l-7.581-13.168a.704.704 0 0 1-.053-.578l21.583-62.253c4.562-13.155 1.158-27.775-8.671-37.246l-56.252-54.2a.684.684 0 0 1-.205-.439l-1.009-12.698-54.838-18.833Z"/>
  <path fill="#061857" d="M94.183 364.82c-.99 0-1.981-.006-2.974-.021-.355-.005-.638-.311-.633-.682a.666.666 0 0 1 .65-.664c24.72.354 49.066-3.962 49.309-4.006.357-.061.681.183.741.549.06.367-.175.715-.524.778-.234.042-22.795 4.046-46.57 4.046ZM27.173 438.176a.653.653 0 0 1-.637-.594c-.042-.369.21-.704.562-.748 26.02-3.231 42.576-13.139 42.74-13.238a.624.624 0 0 1 .877.245.691.691 0 0 1-.234.92c-.167.101-16.952 10.146-43.233 13.411a.64.64 0 0 1-.075.004ZM72.073 253.453a.62.62 0 0 1-.403-.15c-.147-.125-14.742-12.548-20.977-20.541-6.344-8.132-6.077-20.373-6.063-20.89.01-.365.296-.653.641-.653h.02c.354.011.633.321.623.693-.004.121-.264 12.26 5.773 19.998 6.151 7.886 20.645 20.223 20.79 20.346a.696.696 0 0 1 .095.947.63.63 0 0 1-.5.25Z"/>
  <path fill="#F3F3F3" d="M125.818 70.754s.036 6.654-1.229 14.015c-1.266 7.36-2.792 10.865-6.308 11.334-3.517.468-5.488.76-5.488.76l-.544 7.524-14.204.842 3.87-23.174 6.336-11.222 17.567-.08Z"/>
  <path fill="#061857" d="M98.046 105.904a.63.63 0 0 1-.48-.226.697.697 0 0 1-.153-.564l3.87-23.174a.707.707 0 0 1 .081-.227l6.335-11.222a.638.638 0 0 1 .55-.33l17.566-.079h.003c.353 0 .64.3.642.67 0 .066.022 6.801-1.239 14.138-1.222 7.109-2.737 11.333-6.859 11.882-2.466.33-4.171.57-4.967.685l-.506 6.983a.659.659 0 0 1-.604.621l-14.203.841-.036.002Zm4.482-23.61-3.71 22.216 12.833-.76.503-6.937a.661.661 0 0 1 .55-.615s1.974-.292 5.496-.762c2.95-.393 4.456-3.215 5.757-10.785 1.012-5.88 1.184-11.357 1.213-13.22l-16.552.075-6.09 10.788Z"/>
  <path fill="#061857" d="M114.136 84.72a.651.651 0 0 1-.631-.554c-.135-.796-.417-1.33-.836-1.587-.565-.348-1.273-.114-1.28-.112a.635.635 0 0 1-.817-.415.681.681 0 0 1 .396-.857c.051-.018 1.261-.447 2.35.222.758.465 1.247 1.31 1.451 2.512.062.366-.17.716-.519.781a.61.61 0 0 1-.114.01Z"/>
  <path fill="#061857" d="M105.187 97.707c.428-.289 5.676-3.964 8.143-9.505 0 0-2.758 2.31-4.651-1.363-1.894-3.673.461-8.313 4.206-8.622 3.745-.31 4.24 4.436 4.24 4.436s2.686-1.245 2.706-4.56c0 0 1.531 1.505 2.842-1.287 0 0 3.245 1.045 5.8-2.777 2.555-3.823.929-8.438-3.207-8.373 0 0 .628-6.266-6.417-9.949-7.045-3.682-10.876 2.4-10.876 2.4s-1.821-4.737-10.151-.757-4.623 10.998-4.623 10.998-2.946 3.58-2.683 8.736c.262 5.156 5.6 10.69 5.6 10.69s-.832 4.754 1.094 7.198c1.926 2.445 7.977 2.736 7.977 2.736Z"/>
  <path fill="#FC6E56" d="m100.421 110.419 41.631 16.803 42.797-27.128 10.648 33.66s-45.047 38.182-58.704 41.582c-13.657 3.4-54.939-21.484-54.939-21.484l18.567-43.433Z"/>
  <path fill="#F3F3F3" d="M179.521 98.034c.061-.298.15-8.976 1.01-12.718.861-3.742 6.555-.189 7.275 7.428.72 7.617-8.285 5.29-8.285 5.29Z"/>
  <path fill="#061857" d="M182.372 99.043c-1.595 0-2.901-.329-3.004-.356a.672.672 0 0 1-.481-.758c.011-.119.022-.5.04-1.064.084-2.596.282-8.674.98-11.707.308-1.343 1.198-2.082 2.389-2.008 2.551.184 5.631 4.057 6.148 9.528.205 2.17-.304 3.827-1.513 4.925-1.256 1.142-3.039 1.44-4.559 1.44Zm-2.181-1.555c1.213.221 4.259.59 5.901-.904.875-.796 1.236-2.065 1.074-3.773-.504-5.336-3.451-8.208-4.959-8.318-.207-.013-.814-.057-1.053.98-.667 2.901-.861 8.883-.944 11.437l-.019.578Z"/>
  <path fill="#F3F3F3" d="M289.956 193.647c2.638-8.65-1.903-17.907-10.141-20.677a15.255 15.255 0 0 0-1.849-.482 70.352 70.352 0 0 0-1.578-19.948c.59-.229 1.175-.485 1.748-.795 7.691-4.157 10.715-14.073 6.755-22.148-3.961-8.075-13.406-11.25-21.097-7.092-.573.309-1.112.66-1.632 1.031a64.79 64.79 0 0 0-14.551-12.934c.263-.6.504-1.216.7-1.86 2.638-8.65-1.902-17.907-10.141-20.677-8.239-2.77-17.056 1.997-19.694 10.646a17.094 17.094 0 0 0-.459 1.941 61.004 61.004 0 0 0-19 1.655 17.137 17.137 0 0 0-.758-1.835c-3.961-8.074-13.406-11.25-21.097-7.092-7.691 4.157-10.715 14.074-6.755 22.149.295.601.63 1.166.983 1.712a66.428 66.428 0 0 0-12.32 15.276 15.471 15.471 0 0 0-1.771-.735c-8.239-2.77-17.056 1.997-19.694 10.646-2.638 8.65 1.902 17.907 10.141 20.677.615.206 1.231.358 1.849.482a70.346 70.346 0 0 0 1.577 19.948c-.59.229-1.174.485-1.747.795-7.691 4.157-10.716 14.074-6.755 22.148 3.96 8.075 13.405 11.25 21.097 7.093.573-.31 1.111-.661 1.631-1.032a64.862 64.862 0 0 0 14.551 12.935c-.262.6-.503 1.215-.7 1.86-2.638 8.649 1.903 17.906 10.141 20.676 8.239 2.77 17.057-1.997 19.695-10.646.196-.645.34-1.293.459-1.941a61.01 61.01 0 0 0 19-1.655c.218.619.463 1.233.758 1.835 3.96 8.074 13.406 11.25 21.096 7.092 7.691-4.157 10.716-14.074 6.755-22.148a16.463 16.463 0 0 0-.983-1.713 66.38 66.38 0 0 0 12.32-15.276c.571.275 1.157.528 1.772.735 8.239 2.77 17.056-1.997 19.694-10.646Zm-48.472-16.296c-4.899 16.063-21.274 24.915-36.574 19.771-15.3-5.144-23.732-22.335-18.833-38.398 4.899-16.063 21.273-24.914 36.573-19.771 15.3 5.144 23.733 22.335 18.834 38.398Z"/>
  <path fill="#061857" d="M194.185 249.477c-1.672 0-3.352-.273-4.991-.824-8.562-2.879-13.298-12.534-10.556-21.523.136-.445.301-.904.499-1.393a65.44 65.44 0 0 1-13.85-12.312c-.425.285-.83.531-1.225.746-3.873 2.093-8.29 2.478-12.438 1.083-4.148-1.394-7.531-4.402-9.525-8.467-4.116-8.391-.962-18.733 7.032-23.054.394-.213.82-.416 1.29-.614a71.059 71.059 0 0 1-1.501-18.989 14.264 14.264 0 0 1-1.369-.383c-8.563-2.878-13.299-12.533-10.557-21.522.108-.354.467-.554.807-.436a.68.68 0 0 1 .415.846c-2.525 8.282 1.838 17.178 9.727 19.83.531.179 1.094.325 1.773.462a.668.668 0 0 1 .52.706 69.617 69.617 0 0 0 1.561 19.748.679.679 0 0 1-.401.786c-.638.248-1.186.498-1.677.763-7.365 3.981-10.271 13.509-6.478 21.242 1.837 3.745 4.953 6.515 8.775 7.799 3.82 1.286 7.889.931 11.457-.997a15.068 15.068 0 0 0 1.565-.99.62.62 0 0 1 .844.114c4.164 5 9.011 9.308 14.405 12.804a.692.692 0 0 1 .246.854 16.443 16.443 0 0 0-.672 1.784c-2.526 8.283 1.837 17.179 9.726 19.831 3.821 1.283 7.89.93 11.457-.999 3.568-1.928 6.206-5.2 7.43-9.212a16.47 16.47 0 0 0 .439-1.863.663.663 0 0 1 .674-.545 60.345 60.345 0 0 0 18.809-1.638.637.637 0 0 1 .75.422c.233.661.471 1.237.727 1.761 1.837 3.745 4.953 6.515 8.774 7.799 3.821 1.285 7.89.93 11.458-.998 7.364-3.98 10.27-13.51 6.478-21.242a15.905 15.905 0 0 0-.944-1.643.697.697 0 0 1 .11-.884 65.743 65.743 0 0 0 12.195-15.123.626.626 0 0 1 .815-.258c.619.298 1.175.529 1.699.705 3.822 1.286 7.891.93 11.458-.998s6.205-5.2 7.429-9.212c2.525-8.282-1.837-17.178-9.726-19.83a14.25 14.25 0 0 0-1.774-.462.668.668 0 0 1-.519-.706 69.628 69.628 0 0 0-1.561-19.748.678.678 0 0 1 .402-.786 14.618 14.618 0 0 0 1.675-.763c7.364-3.98 10.27-13.51 6.478-21.242-1.836-3.745-4.953-6.515-8.774-7.8-3.823-1.284-7.891-.929-11.457.998a14.93 14.93 0 0 0-1.566.99.621.621 0 0 1-.844-.114 64.167 64.167 0 0 0-14.405-12.805.692.692 0 0 1-.246-.853c.283-.646.503-1.23.673-1.784 2.525-8.282-1.838-17.178-9.727-19.83-3.821-1.284-7.889-.93-11.457.998-3.567 1.928-6.206 5.2-7.429 9.212a16.44 16.44 0 0 0-.44 1.862.65.65 0 0 1-.673.545 60.316 60.316 0 0 0-18.81 1.638.639.639 0 0 1-.75-.421 16.54 16.54 0 0 0-.726-1.76c-1.838-3.745-4.954-6.515-8.775-7.8-3.821-1.285-7.89-.931-11.458.998-5.875 3.176-9.06 9.898-7.925 16.727.06.366-.173.715-.523.779-.354.063-.682-.182-.742-.548-1.232-7.412 2.226-14.708 8.602-18.155 3.872-2.092 8.289-2.476 12.437-1.084 4.148 1.395 7.531 4.402 9.525 8.467.203.415.397.862.585 1.354a61.664 61.664 0 0 1 18.085-1.575c.109-.52.23-.994.365-1.438 1.328-4.354 4.192-7.904 8.064-9.998 3.873-2.093 8.29-2.478 12.438-1.084 8.562 2.879 13.297 12.534 10.556 21.524-.136.445-.3.904-.499 1.392a65.439 65.439 0 0 1 13.851 12.312c.427-.287.831-.532 1.226-.745 3.872-2.094 8.29-2.478 12.437-1.084 4.148 1.395 7.53 4.401 9.524 8.467 4.116 8.391.962 18.734-7.032 23.054-.396.214-.822.417-1.289.614a71.032 71.032 0 0 1 1.5 18.989c.498.114.943.239 1.37.383 8.562 2.878 13.298 12.533 10.556 21.522-1.328 4.355-4.191 7.906-8.063 9.999-3.873 2.092-8.29 2.478-12.438 1.083a14.642 14.642 0 0 1-1.325-.523 67.057 67.057 0 0 1-11.727 14.541c.275.451.505.869.71 1.287 4.117 8.392.962 18.735-7.031 23.055-3.872 2.093-8.289 2.478-12.437 1.084-4.148-1.395-7.531-4.402-9.525-8.467a16.517 16.517 0 0 1-.585-1.354 61.697 61.697 0 0 1-18.085 1.575c-.109.521-.23.995-.365 1.437-1.327 4.355-4.192 7.906-8.064 9.999a15.608 15.608 0 0 1-7.447 1.908Zm19.63-50.21c-3.049 0-6.113-.498-9.1-1.503-15.613-5.249-24.248-22.853-19.249-39.244 2.421-7.94 7.643-14.414 14.703-18.231 7.061-3.817 15.115-4.519 22.678-1.975 15.612 5.248 24.247 22.853 19.248 39.243-2.421 7.94-7.643 14.415-14.703 18.231-4.272 2.31-8.908 3.479-13.577 3.479Zm-.067-61.109c-4.469 0-8.903 1.119-12.99 3.328-6.756 3.652-11.752 9.847-14.07 17.445-4.782 15.683 3.48 32.529 18.419 37.551 7.237 2.432 14.942 1.761 21.697-1.89 6.756-3.652 11.752-9.848 14.069-17.445 4.783-15.684-3.479-32.529-18.419-37.551a27.272 27.272 0 0 0-8.706-1.438Z"/>
  <path fill="#FC6E56" d="m96.466 99.283 22.166 5.708c10.61 4.121 14.115 10.469 14.962 16.99l11.852 39.181 29.783 1.55.255 32.341-41.977.701c-13.316.182-22.204-6.446-24.73-16.681l-2.183-6.083-5.109 31.051c-.199 1.665-1.714 2.794-3.28 2.444l-65.302-14.627c-1.796-.402-2.71-2.512-1.816-4.194l32.657-68.563c3.874-7.296 15.9-20.302 32.722-19.818Z"/>
  <path fill="#061857" d="M105.989 172.659a.653.653 0 0 1-.637-.597l-3.147-28.828c-.04-.368.213-.702.565-.744.348-.047.67.222.711.592l3.146 28.827c.041.369-.212.703-.564.745a.613.613 0 0 1-.074.005ZM144.298 161.555h-.016l-9.743-.251c-.355-.009-.635-.318-.627-.69.009-.371.321-.67.658-.657l9.743.252c.355.009.635.318.627.689-.009.367-.295.657-.642.657Z"/>
  <path fill="#F3F3F3" d="M174.715 163.309s2.107.4 4.847-1.639c2.74-2.04 2.486-4.822 4.02-7.992 1.534-3.17 4.813-2.149 5.3-.175.487 1.973-.35 7.092-.35 7.092s3.851-.233 5.117 1.27c1.267 1.503.66 3.528-.1 4.577 0 0 3.384-.265 4.045 2.413.746 3.021-2.269 5.201-2.269 5.201s2.252.822 2.393 3.47c.186 3.477-3.131 4.612-3.131 4.612s1.726 1.179.524 4.242c-.843 2.149-9.518 7.119-19.707 8.135-10.19 1.017-.689-31.206-.689-31.206Z"/>
  <path fill="#061857" d="M175.403 195.187a.653.653 0 0 1-.638-.61c-.034-.37.225-.699.578-.734 10.105-1.008 18.49-5.978 19.174-7.722.968-2.466-.238-3.389-.29-3.427a.7.7 0 0 1-.271-.655.666.666 0 0 1 .432-.544c.114-.039 2.844-1.029 2.69-3.934a3.253 3.253 0 0 0-1.968-2.872.672.672 0 0 1-.42-.548.684.684 0 0 1 .271-.641c.025-.018 2.633-1.957 2.011-4.479-.521-2.109-3.345-1.911-3.376-1.91a.64.64 0 0 1-.612-.35.702.702 0 0 1 .053-.729c.608-.837 1.144-2.521.131-3.723-.769-.913-3.225-1.123-4.6-1.044a.66.66 0 0 1-.516-.223.701.701 0 0 1-.153-.562c.226-1.385.732-5.308.362-6.811-.17-.684-.87-1.246-1.666-1.336-.995-.106-1.88.488-2.441 1.647-.501 1.035-.804 2.034-1.098 2.999-.588 1.936-1.144 3.765-3.123 5.238-2.928 2.179-5.238 1.772-5.333 1.753-.349-.066-.58-.417-.517-.782a.646.646 0 0 1 .742-.544c.088.015 1.919.295 4.364-1.525 1.629-1.213 2.077-2.685 2.644-4.549.295-.969.628-2.068 1.176-3.199.805-1.661 2.19-2.55 3.724-2.377 1.329.151 2.468 1.112 2.77 2.337.399 1.617-.001 5.016-.219 6.573 1.292.013 3.753.217 4.845 1.513 1.119 1.327 1.077 3.03.51 4.392 1.384.19 3.095.925 3.576 2.875.593 2.405-.812 4.295-1.757 5.249.785.566 1.8 1.658 1.901 3.553.135 2.544-1.415 4.13-2.708 4.886.479.775.882 2.149.053 4.262-1.049 2.673-10.213 7.549-20.24 8.549a.426.426 0 0 1-.061.004Z"/>
  <path fill="#061857" d="M183.891 162.825a.646.646 0 0 1-.611-.467c-.108-.354.077-.733.415-.847l4.49-1.514a.638.638 0 0 1 .808.435c.108.354-.077.733-.415.847l-4.491 1.514a.61.61 0 0 1-.196.032Z"/>
  <path fill="#F3F3F3" d="M190.168 87.283s-6.659 7.218-6.386 9.522c.34 2.88 4.014 2.936 5.889 1.328 0 0-2.653 3.773-.192 5.831 1.683 1.406 5.046-.087 5.046-.087s-.298 2.673 1.302 3.524c2.886 1.534 5.502-1.797 5.502-1.797s.512 2.794 3.787 1.905c3.276-.889 8.414-7.692 7.184-10.198-1.23-2.507-4.624-1.036-4.624-1.036s.205-5.114-5.153-3.183c0 0-.311-5.963-5.736-4.124 0 0-1.577-7.452-6.619-1.685Z"/>
  <path fill="#061857" d="M197.417 108.486a3.949 3.949 0 0 1-1.88-.485c-1.27-.675-1.595-2.163-1.662-3.176-1.223.382-3.414.819-4.797-.335-1.57-1.313-1.464-3.25-.908-4.829-1.041.297-2.158.279-3.072-.105-1.112-.468-1.806-1.415-1.954-2.669-.295-2.492 5.395-8.808 6.556-10.067 1.682-1.922 3.246-2.697 4.639-2.302 1.686.474 2.544 2.528 2.888 3.62 1.519-.384 2.803-.207 3.823.528 1.311.945 1.813 2.568 2.002 3.555 1.586-.43 2.858-.279 3.792.452.946.74 1.287 1.89 1.409 2.699 1.483-.391 3.634-.373 4.617 1.63.432.88.324 2.088-.318 3.592-1.275 2.985-4.657 6.855-7.275 7.566-1.272.346-2.341.237-3.183-.322a3.18 3.18 0 0 1-.98-1.052c-.774.722-2.115 1.7-3.697 1.7Zm-2.893-5.283a.62.62 0 0 1 .385.135.69.69 0 0 1 .253.617c-.002.02-.204 2.228.955 2.845 2.396 1.275 4.693-1.596 4.716-1.625a.62.62 0 0 1 .654-.224.66.66 0 0 1 .472.525c.001.003.166.798.834 1.233.527.343 1.256.392 2.162.148 2.008-.545 5.19-3.92 6.426-6.813.454-1.065.581-1.95.348-2.426-.944-1.924-3.694-.772-3.81-.721a.616.616 0 0 1-.612-.072.684.684 0 0 1-.273-.579c.001-.014.045-1.715-.963-2.498-.714-.555-1.839-.56-3.34-.02a.611.611 0 0 1-.568-.078.68.68 0 0 1-.282-.522c-.001-.022-.148-2.342-1.563-3.356-.815-.582-1.935-.638-3.334-.164a.616.616 0 0 1-.516-.056.674.674 0 0 1-.308-.438c-.171-.797-.891-2.942-2.156-3.296-1.12-.314-2.447.871-3.363 1.919-.004.004-.009.008-.012.013-2.676 2.901-6.372 7.604-6.211 8.971.091.767.48 1.3 1.158 1.585 1.083.456 2.703.15 3.687-.695a.62.62 0 0 1 .848.034.698.698 0 0 1 .076.886c-.093.133-2.255 3.279-.309 4.905 1.136.949 3.559.191 4.396-.18a.624.624 0 0 1 .25-.053Z"/>
  <path fill="#061857" d="M189.67 98.808a.622.622 0 0 1-.411-.157.695.695 0 0 1-.081-.948l5.174-6.504a.62.62 0 0 1 .904-.085.696.696 0 0 1 .082.948l-5.175 6.504a.628.628 0 0 1-.493.242ZM194.524 104.552a.619.619 0 0 1-.402-.15.695.695 0 0 1-.097-.946l6.177-8.037a.62.62 0 0 1 .902-.101.696.696 0 0 1 .097.947l-6.177 8.036a.628.628 0 0 1-.5.251ZM201.328 106.277a.62.62 0 0 1-.383-.133.695.695 0 0 1-.131-.942l4.499-6.337a.623.623 0 0 1 .899-.138.695.695 0 0 1 .131.942l-4.5 6.337a.629.629 0 0 1-.515.271ZM138.543 139.134a.647.647 0 0 1-.612-.47l-3.836-12.646a.682.682 0 0 1 .417-.846.637.637 0 0 1 .806.438l3.837 12.647a.681.681 0 0 1-.418.845.593.593 0 0 1-.194.032Z"/>
  <path fill="#F3F3F3" d="m549.598 361.426-50.279 112.408c-6.843 15.299-11.089 31.733-12.548 48.562l-3.113 35.915h70.726l-1.595-56.333 57.963-130.513-61.154-10.039Z"/>
  <path fill="#061857" d="M483.659 558.982a.598.598 0 0 1-.059-.003c-.353-.034-.613-.362-.581-.732l3.113-35.914c1.47-16.958 5.712-33.372 12.606-48.787l50.279-112.408a.636.636 0 0 1 .681-.38l61.154 10.04a.645.645 0 0 1 .467.349.7.7 0 0 1 .015.601l-57.898 130.368 1.591 56.173c.01.371-.269.681-.623.693h-.02c-.345 0-.631-.289-.641-.654l-1.596-56.332a.704.704 0 0 1 .061-.304L609.81 371.99l-59.835-9.823L499.9 474.118c-6.831 15.272-11.033 31.536-12.489 48.337l-3.113 35.914a.655.655 0 0 1-.639.613Z"/>
  <path fill="#F3F3F3" d="m641.063 365.348-7.711 121.31 46.53 71.671h-82.956l-18.885-45.419c-7.83-18.834-10.733-39.516-8.409-59.917l10.809-94.895 60.622 7.25Z"/>
  <path fill="#061857" d="M596.926 559.002a.642.642 0 0 1-.589-.404l-18.885-45.42c-7.868-18.925-10.793-39.764-8.458-60.264l4.693-41.199a10.125 10.125 0 0 0-1.045-5.784l-1.694-3.302a.69.69 0 0 1 .262-.912.627.627 0 0 1 .869.274l1.694 3.302a11.532 11.532 0 0 1 1.189 6.581l-4.693 41.199c-2.308 20.263.583 40.861 8.361 59.568l18.884 45.419a.686.686 0 0 1-.332.886.616.616 0 0 1-.256.056ZM679.883 559.002a.634.634 0 0 1-.531-.295l-46.53-71.67a.7.7 0 0 1-.111-.423l7.711-121.31a.659.659 0 0 1 .683-.627c.354.025.621.345.598.716l-7.696 121.079 46.405 71.478c.2.307.124.726-.169.935a.616.616 0 0 1-.36.117Z"/>
  <path fill="#FC6E56" d="M518.054 259.886s97.254-19.638 121.834-14.234c24.579 5.403 29.541 41.229 23.528 74.296l-9.708 11.078s-6.93 33.168-9.454 41.213c-3.643 11.611-80.358 12.265-85.971 7.359-5.614-4.906 6.606-77.513 6.606-77.513s-66.424 8.34-113.669-13.247c-15.083-6.892-7.542-35.33-7.542-35.33l74.376 6.378Z"/>
  <path fill="#061857" d="M631.414 290.776a.592.592 0 0 1-.11-.01c-.349-.063-.583-.411-.523-.778l2.889-17.534c.06-.367.392-.613.742-.549.349.063.583.411.523.777l-2.889 17.535a.651.651 0 0 1-.632.559Z"/>
  <path fill="#F3F3F3" d="M598.249 389.911c9.499-10.888 8.795-27.789-1.572-37.75a25.881 25.881 0 0 0-2.417-2.03 112.622 112.622 0 0 0 10.597-30.57c1.019.082 2.048.121 3.095.072 14.046-.655 24.936-13.137 24.322-27.88-.615-14.742-12.5-26.162-26.547-25.507a24.528 24.528 0 0 0-3.077.359 111.512 111.512 0 0 0-13.098-29.464 26.376 26.376 0 0 0 2.238-2.247c9.499-10.888 8.795-27.789-1.573-37.75-10.367-9.961-26.471-9.21-35.969 1.677a26.8 26.8 0 0 0-1.936 2.538c-9.247-5.276-19.067-8.977-29.119-11.1.079-1.069.116-2.15.07-3.249-.614-14.742-12.499-26.162-26.546-25.507-14.047.655-24.937 13.138-24.322 27.88.046 1.099.173 2.171.341 3.229-9.838 3.05-19.312 7.651-28.084 13.768a26.367 26.367 0 0 0-2.139-2.348c-10.367-9.961-26.471-9.21-35.97 1.678-9.498 10.887-8.794 27.789 1.573 37.75a25.716 25.716 0 0 0 2.417 2.029 112.64 112.64 0 0 0-10.597 30.571 24.301 24.301 0 0 0-3.095-.072c-14.047.655-24.937 13.137-24.322 27.879.614 14.743 12.499 26.163 26.546 25.507a24.32 24.32 0 0 0 3.077-.358 111.515 111.515 0 0 0 13.099 29.464 26.24 26.24 0 0 0-2.239 2.247c-9.498 10.888-8.794 27.789 1.573 37.75 10.367 9.961 26.471 9.21 35.97-1.678a26.83 26.83 0 0 0 1.935-2.538c9.248 5.277 19.068 8.978 29.119 11.101a28.259 28.259 0 0 0-.07 3.248c.615 14.743 12.5 26.163 26.547 25.507 14.047-.655 24.936-13.137 24.322-27.879a27.995 27.995 0 0 0-.341-3.229c9.837-3.051 19.311-7.651 28.084-13.768a26.506 26.506 0 0 0 2.139 2.348c10.367 9.961 26.471 9.21 35.969-1.678Zm-60.993-58.606c-17.639 20.22-47.546 21.614-66.799 3.116-19.252-18.499-20.56-49.886-2.921-70.106 17.64-20.219 47.547-21.613 66.799-3.115 19.252 18.499 20.56 49.886 2.921 70.105Z"/>
  <path fill="#061857" d="M506.918 434.816c-6.533 0-12.738-2.525-17.586-7.183-5.141-4.939-8.139-11.685-8.444-18.995a27.577 27.577 0 0 1 .032-2.736c-9.863-2.141-19.362-5.763-28.251-10.77a25.762 25.762 0 0 1-1.651 2.12c-4.709 5.399-11.139 8.551-18.104 8.876-6.973.329-13.632-2.216-18.773-7.156-10.61-10.196-11.334-27.557-1.612-38.701a25.62 25.62 0 0 1 1.867-1.913 112.166 112.166 0 0 1-12.709-28.586c-.935.146-1.788.236-2.593.274-6.958.32-13.632-2.217-18.773-7.156-5.14-4.939-8.138-11.685-8.443-18.995-.63-15.089 10.556-27.91 24.935-28.581a23.499 23.499 0 0 1 2.606.032 113.336 113.336 0 0 1 10.282-29.66 25.487 25.487 0 0 1-2.019-1.731c-10.611-10.196-11.335-27.557-1.612-38.701 4.709-5.398 11.139-8.551 18.104-8.875 6.972-.322 13.632 2.217 18.773 7.156a25.369 25.369 0 0 1 1.82 1.957c8.437-5.815 17.598-10.307 27.247-13.358a27.39 27.39 0 0 1-.26-2.723c-.629-15.09 10.557-27.912 24.935-28.582 6.961-.33 13.632 2.217 18.772 7.156 5.141 4.94 8.139 11.685 8.444 18.994.035.85.025 1.75-.033 2.737 9.863 2.141 19.363 5.763 28.252 10.769a26.356 26.356 0 0 1 1.65-2.119c4.71-5.399 11.14-8.551 18.105-8.876 6.961-.331 13.631 2.217 18.772 7.156 10.611 10.196 11.335 27.557 1.613 38.701a25.447 25.447 0 0 1-1.867 1.913c1.738 2.78 3.371 5.67 4.859 8.599a.69.69 0 0 1-.266.911.63.63 0 0 1-.868-.278 110.147 110.147 0 0 0-5.105-8.98.696.696 0 0 1 .117-.883c.85-.764 1.564-1.48 2.182-2.191 9.245-10.596 8.558-27.104-1.532-36.799-4.888-4.696-11.228-7.119-17.848-6.804-6.623.309-12.736 3.306-17.215 8.439a26.005 26.005 0 0 0-1.886 2.476.62.62 0 0 1-.829.199c-9.084-5.183-18.821-8.895-28.94-11.031a.67.67 0 0 1-.513-.713 27.27 27.27 0 0 0 .069-3.167c-.29-6.95-3.141-13.364-8.028-18.06-4.888-4.696-11.226-7.117-17.849-6.803-13.671.637-24.307 12.828-23.709 27.177.04.959.149 1.989.333 3.148a.675.675 0 0 1-.451.756c-9.904 3.071-19.294 7.675-27.911 13.684a.622.622 0 0 1-.843-.123 25.074 25.074 0 0 0-2.085-2.289c-4.887-4.697-11.223-7.124-17.848-6.804-6.623.309-12.736 3.306-17.214 8.439-9.245 10.597-8.557 27.104 1.533 36.799a25.02 25.02 0 0 0 2.357 1.979c.263.198.345.57.19.869a111.924 111.924 0 0 0-10.532 30.382.648.648 0 0 1-.679.538 23.648 23.648 0 0 0-3.016-.071c-13.672.638-24.308 12.829-23.71 27.177.29 6.951 3.141 13.365 8.029 18.061 4.887 4.697 11.22 7.11 17.848 6.804a23.66 23.66 0 0 0 3-.351.645.645 0 0 1 .721.474 110.81 110.81 0 0 0 13.018 29.283.696.696 0 0 1-.117.883 25.815 25.815 0 0 0-2.184 2.19c-9.243 10.597-8.556 27.105 1.534 36.8 4.887 4.695 11.21 7.116 17.848 6.803 6.622-.309 12.736-3.306 17.214-8.439a26.054 26.054 0 0 0 1.887-2.476.622.622 0 0 1 .829-.199c9.084 5.183 18.821 8.895 28.939 11.032a.668.668 0 0 1 .513.712 27.436 27.436 0 0 0-.068 3.166c.29 6.951 3.141 13.365 8.028 18.062 4.887 4.695 11.215 7.116 17.849 6.803 13.67-.638 24.306-12.829 23.709-27.178a27.318 27.318 0 0 0-.333-3.148.676.676 0 0 1 .451-.756c9.906-3.073 19.296-7.676 27.911-13.683a.62.62 0 0 1 .843.123c.73.894 1.412 1.643 2.085 2.289 4.886 4.696 11.229 7.119 17.848 6.803 6.623-.309 12.736-3.306 17.214-8.439a26.193 26.193 0 0 0 4.244-6.689.628.628 0 0 1 .852-.33.688.688 0 0 1 .314.894 27.513 27.513 0 0 1-4.463 7.034c-4.709 5.399-11.139 8.551-18.104 8.875-6.967.321-13.632-2.216-18.773-7.155a25.77 25.77 0 0 1-1.82-1.957c-8.435 5.813-17.597 10.304-27.247 13.357.139.981.225 1.876.26 2.723.629 15.09-10.557 27.912-24.935 28.582-.396.018-.792.027-1.186.027Zm-4.607-86.712c-11.994 0-23.386-4.636-32.287-13.188-19.482-18.72-20.81-50.595-2.961-71.056 8.647-9.912 20.451-15.699 33.24-16.295 12.785-.602 25.028 4.069 34.466 13.137 19.483 18.72 20.811 50.596 2.961 71.056-8.647 9.912-20.452 15.699-33.24 16.295a46.69 46.69 0 0 1-2.179.051Zm.169-99.243c-.705 0-1.411.016-2.12.049-12.446.58-23.934 6.213-32.35 15.859-17.371 19.913-16.08 50.936 2.882 69.154 9.184 8.824 21.085 13.355 33.541 12.785 12.446-.58 23.934-6.212 32.35-15.859 17.372-19.913 16.08-50.936-2.882-69.154-8.661-8.323-19.749-12.834-31.421-12.834Z"/>
  <path fill="#F3F3F3" d="M405.51 251.788s-2.4-2.102-.659-5.038c1.727-2.911 12.298-.48 13.258 3.33.96 3.811-3.96 4.731-4.8 4.468 0 0 3.086 2.345 3.566 5.892.48 3.548-3.326 3.568-4.526 3.7 0 0 2.64 1.92.877 5.618-.793 1.664-4.601 1.831-4.601 1.831s2.13 3.643-1.11 4.825c-3.24 1.183-9.147-.778-10.947-4.326-1.8-3.548 2.379-3.455 2.697-3.827 0 0-3.835-3.596-3.475-6.487.36-2.89 4.894-2.505 4.894-2.505s-3.814-2.225-2.614-5.378c1.2-3.154 7.44-2.103 7.44-2.103Z"/>
  <path fill="#061857" d="M405.364 277.424c-3.443 0-7.789-1.918-9.363-5.019-.558-1.101-.67-2.051-.332-2.825.446-1.022 1.525-1.425 2.365-1.648-1.172-1.302-3.171-3.908-2.88-6.244.263-2.117 2.187-2.809 3.705-3.021-1.174-1.194-2.162-2.986-1.385-5.025.976-2.566 4.536-2.781 6.612-2.672-.583-1.147-.846-2.778.22-4.574 1.18-1.991 4.772-1.659 6.261-1.425 3.469.546 7.503 2.325 8.162 4.938.361 1.434.044 2.709-.918 3.686-.802.815-1.945 1.303-2.932 1.526 1.002 1.084 2.317 2.904 2.631 5.225.15 1.112-.053 2.043-.604 2.768-.794 1.043-2.124 1.405-3.199 1.561.748 1.169 1.214 3.033.093 5.385-.685 1.437-2.898 1.94-4.202 2.114.28.767.535 1.89.182 2.927-.31.91-1.001 1.565-2.055 1.95-.692.252-1.498.373-2.361.373Zm-5.21-17.498c-1.057 0-3.51.19-3.728 1.937-.259 2.082 2.27 4.963 3.267 5.897a.687.687 0 0 1 .212.464.694.694 0 0 1-.162.487c-.205.24-.496.309-.977.423-.622.148-1.663.396-1.93 1.007-.202.463.051 1.143.298 1.631 1.672 3.294 7.238 5.077 10.169 4.007.678-.247 1.093-.617 1.268-1.131.39-1.145-.484-2.692-.493-2.707a.703.703 0 0 1-.02-.668.643.643 0 0 1 .54-.356c1.12-.051 3.583-.474 4.054-1.459 1.497-3.14-.58-4.7-.669-4.765a.689.689 0 0 1-.256-.721.654.654 0 0 1 .555-.502l.346-.032c.894-.077 2.557-.222 3.275-1.165.326-.428.436-.997.336-1.737-.435-3.212-3.279-5.421-3.308-5.443a.693.693 0 0 1-.197-.843.63.63 0 0 1 .758-.346c.383.097 2.397-.184 3.469-1.321.591-.628.764-1.39.527-2.33-.417-1.653-3.54-3.388-7.111-3.951-2.464-.388-4.466-.064-4.982.805-1.429 2.411.446 4.095.526 4.165.222.194.293.52.173.796a.64.64 0 0 1-.686.386c-1.595-.269-5.916-.484-6.742 1.688-.979 2.573 2.297 4.52 2.33 4.54.264.153.389.48.302.783-.088.302-.343.501-.666.476-.008 0-.192-.015-.478-.015Z"/>
  <path fill="#061857" d="M413.308 255.224a.638.638 0 0 1-.213-.038l-6.112-2.261a.684.684 0 0 1-.392-.859.637.637 0 0 1 .82-.411l6.111 2.26c.334.124.51.509.392.86a.645.645 0 0 1-.606.449ZM412.348 264.813a.625.625 0 0 1-.244-.051l-8.959-3.865a.686.686 0 0 1-.35-.879.635.635 0 0 1 .839-.367l8.959 3.866a.685.685 0 0 1 .349.879.642.642 0 0 1-.594.417ZM408.625 272.262a.629.629 0 0 1-.199-.033l-6.822-2.329a.68.68 0 0 1-.412-.849.637.637 0 0 1 .809-.432l6.822 2.329a.68.68 0 0 1 .412.849.645.645 0 0 1-.61.465Z"/>
  <path fill="#F3F3F3" d="M570.621 289.587s-3.207-1.187-5.66-1.781c-2.452-.594-8.301-9.498-9.81-12.071-1.51-2.572-4.34-1.781-4.528 1.385-.189 3.166 1.509 9.499 1.509 9.499s-7.169-3.562-9.056-2.375c-1.887 1.187-1.509 4.749 1.698 6.926 0 0-4.698-1.378-5.283 1.979-.543 3.121 3.81 6.531 3.81 6.531s-1.924.602-2.112 2.769c-.245 2.825 3.585 5.343 3.585 5.343s-2.075 1.583-.943 4.156c1.132 2.572 8.301 9.3 21.131 12.071 12.829 2.77 5.659-34.432 5.659-34.432Z"/>
  <path fill="#061857" d="M566.273 324.84c-.46 0-.941-.054-1.441-.162-12.577-2.716-20.264-9.447-21.585-12.448-.828-1.883-.204-3.441.522-4.355-1.167-.924-3.431-3.049-3.219-5.487.129-1.484.921-2.359 1.593-2.84-1.305-1.215-3.743-3.885-3.283-6.52.166-.96.625-1.692 1.363-2.176.746-.488 1.671-.633 2.504-.633h.019c-.943-1.137-1.474-2.463-1.453-3.744.02-1.217.549-2.24 1.453-2.808 1.673-1.054 6.108.709 8.423 1.757-.495-2.074-1.328-5.992-1.187-8.345.107-1.797.993-3.127 2.311-3.473 1.266-.332 2.568.351 3.404 1.776 2.265 3.861 7.494 11.305 9.409 11.768 2.459.596 5.596 1.753 5.729 1.802a.665.665 0 0 1 .416.501c.212 1.104 5.135 27.106-1.249 33.778-1.025 1.07-2.275 1.609-3.729 1.609Zm-23.548-33.275c-.652 0-1.328.105-1.823.431-.424.278-.679.695-.78 1.274-.386 2.217 2.441 4.99 3.563 5.871a.69.69 0 0 1 .248.657.664.664 0 0 1-.448.527c-.059.019-1.512.515-1.657 2.185-.171 1.98 2.314 4.072 3.286 4.711a.681.681 0 0 1 .301.548.69.69 0 0 1-.264.568c-.165.128-1.613 1.34-.738 3.329.938 2.133 7.583 8.866 20.678 11.693 1.656.358 2.966.004 4.004-1.082 5.51-5.758 1.553-28.936.967-32.181-.891-.319-3.322-1.168-5.245-1.634-3.184-.77-10.146-12.258-10.214-12.374-.533-.91-1.302-1.357-1.999-1.175-.756.198-1.27 1.06-1.341 2.25-.18 3.014 1.47 9.211 1.487 9.274a.695.695 0 0 1-.204.696.617.617 0 0 1-.689.094c-2.849-1.414-7.356-3.098-8.451-2.406-.523.329-.817.925-.829 1.677-.018 1.138.641 2.815 2.545 4.107a.69.69 0 0 1 .236.841.633.633 0 0 1-.756.373 7.334 7.334 0 0 0-1.877-.254Z"/>
  <path fill="#FC6E56" d="m569.366 287.379-6.715 38.322 79.064 12.22c10.694 1.291 20.388-6.685 21.738-17.886 1.368-11.348-6.338-21.694-17.168-23.047l-76.919-9.609Z"/>
  <path fill="#061857" d="M646.286 297.662a.485.485 0 0 1-.076-.005l-14.304-1.787c-.352-.044-.604-.379-.562-.748.042-.369.36-.637.714-.589l14.303 1.787c.353.044.604.379.562.748a.653.653 0 0 1-.637.594ZM643.96 338.729a19.33 19.33 0 0 1-2.318-.139l-40.059-6.191c-.351-.054-.594-.397-.542-.764.052-.368.374-.627.729-.568l40.039 6.188c3.021.367 6.001-.02 8.842-1.143a.632.632 0 0 1 .827.393.683.683 0 0 1-.375.867 19.46 19.46 0 0 1-7.143 1.357Z"/>
  <path fill="#F3F3F3" d="m635.947 227.254 3.94 18.395-21.351 17.595 5.084-17.728-.848-14.695 13.175-3.567Z"/>
  <path fill="#061857" d="M639.887 246.323a.649.649 0 0 1-.626-.526l-3.794-17.716-12.023 3.255.817 14.14c.021.371-.249.69-.602.712-.342.031-.658-.259-.68-.631l-.848-14.694a.67.67 0 0 1 .48-.693l13.176-3.567a.615.615 0 0 1 .495.078.674.674 0 0 1 .292.427l3.94 18.395c.077.362-.14.722-.486.804a.622.622 0 0 1-.141.016Z"/>
  <path fill="#061857" d="M642.406 225.281s6.916-1.903 9.41-8.919c2.495-7.016-6.576-5.827-6.576-5.827s3.629-7.848-.453-11.297c-4.082-3.449-7.37 1.07-7.37 1.07s-.227-7.611-6.349-11.059c-6.123-3.449-12.699 4.162-14.853 10.227s-.113 13.2 4.989 16.648c5.102 3.449 6.576 11.654 11.224 12.368 4.649.713 9.978-3.211 9.978-3.211Z"/>
  <path fill="#F3F3F3" d="M635.377 223.973c.227-.356 2.608-3.092 6.35-1.546 3.741 1.546.34 10.703-5.556 8.681 0 0-.907 4.638-4.195 5.708-3.288 1.071-13.379 1.784-15.647-2.735-2.267-4.519 2.399-15.715 3.921-20.046 1.522-4.332 3.903-4.332 3.903-4.332s3.288 4.876 8.276 4.995c0 0-1.474 4.637-1.02 7.61.454 2.973 3.968 1.665 3.968 1.665Z"/>
  <path fill="#061857" d="M625.687 238.27c-3.99 0-8.419-.869-9.926-3.874-2.13-4.245 1.218-13.331 3.219-18.759.256-.695.484-1.314.667-1.834 1.657-4.717 4.39-4.772 4.505-4.772.208 0 .403.106.523.284.032.046 3.172 4.601 7.768 4.711a.633.633 0 0 1 .51.286.699.699 0 0 1 .085.6c-.014.045-1.419 4.518-.996 7.292.083.545.291.915.637 1.132.674.421 1.772.222 2.311.061a5.927 5.927 0 0 1 6.971-1.595c1.813.749 2.465 3.066 1.583 5.633-.989 2.883-3.639 5.234-6.918 4.501-.411 1.422-1.627 4.602-4.461 5.525-1.248.406-3.762.809-6.478.809Zm-1.813-27.838c-.59.171-1.985.883-3.022 3.837-.185.525-.416 1.151-.674 1.853-1.796 4.874-5.139 13.944-3.281 17.647 2.052 4.09 11.865 3.39 14.887 2.406 2.893-.942 3.749-5.158 3.757-5.201a.669.669 0 0 1 .307-.446.617.617 0 0 1 .521-.058c2.936 1.006 5.148-1.105 5.967-3.491.535-1.558.481-3.376-.845-3.924-3.487-1.441-5.563 1.267-5.582 1.295a.675.675 0 0 1-.318.259c-.217.081-2.157.762-3.565-.113-.471-.294-1.071-.893-1.252-2.079-.359-2.357.396-5.6.806-7.106-4.07-.498-6.883-3.794-7.706-4.879Z"/>
  <path fill="#061857" d="M637.531 227.499a.615.615 0 0 1-.31-.084.69.69 0 0 1-.252-.912c.529-1.01 2.02-2.694 3.88-1.839.326.15.474.546.332.887a.631.631 0 0 1-.846.347c-1.25-.57-2.202 1.18-2.242 1.255a.639.639 0 0 1-.562.346ZM798.359 421.746H657.852c-.355 0-.642-.301-.642-.673 0-.373.287-.674.642-.674h139.865V44.139H688.022c-.355 0-.642-.3-.642-.673 0-.372.287-.673.642-.673h110.337c.354 0 .641.301.641.673v377.607c0 .372-.287.673-.641.673ZM672.988 51.594c-4.221 0-7.654-3.6-7.654-8.027s3.433-8.028 7.654-8.028c4.22 0 7.654 3.601 7.654 8.028 0 4.426-3.434 8.027-7.654 8.027Zm0-14.708c-3.512 0-6.37 2.997-6.37 6.681s2.858 6.68 6.37 6.68c3.513 0 6.37-2.996 6.37-6.68 0-3.684-2.857-6.681-6.37-6.681Z"/>
  <path fill="#C4E3F7" d="M651.32 46.072c1.318-3.819-.565-8.036-4.207-9.418-3.641-1.383-7.661.592-8.98 4.411-1.318 3.82.565 8.036 4.206 9.42 3.642 1.382 7.662-.593 8.981-4.413Z"/>
  <path fill="#1088FF" d="M623.288 45.257c.89-3.953-1.444-7.914-5.213-8.848-3.769-.933-7.546 1.515-8.436 5.468-.889 3.953 1.445 7.915 5.214 8.848 3.769.933 7.545-1.515 8.435-5.468Z"/>
  <path fill="#061857" d="M671.404 14.022H547.5c-.355 0-.642-.3-.642-.673 0-.372.287-.673.642-.673h123.904c.355 0 .642.3.642.673 0 .372-.287.673-.642.673ZM374.938 463.848c-4.22 0-7.654-3.601-7.654-8.028 0-4.426 3.434-8.027 7.654-8.027 4.221 0 7.654 3.601 7.654 8.027 0 4.427-3.433 8.028-7.654 8.028Zm0-14.708c-3.512 0-6.37 2.996-6.37 6.68 0 3.684 2.858 6.682 6.37 6.682 3.513 0 6.37-2.998 6.37-6.682s-2.857-6.68-6.37-6.68Z"/>
  <path fill="#C4E3F7" d="M405.884 462.615c3.578-1.555 5.277-5.857 3.795-9.609-1.482-3.753-5.584-5.535-9.162-3.981-3.578 1.555-5.277 5.857-3.795 9.61 1.482 3.752 5.584 5.534 9.162 3.98Z"/>
  <path fill="#FC6E56" d="M434.146 462.615c3.578-1.555 5.277-5.857 3.795-9.609-1.482-3.753-5.584-5.535-9.162-3.981-3.578 1.555-5.277 5.857-3.795 9.61 1.482 3.752 5.584 5.534 9.162 3.98Z"/>
  <path fill="#061857" d="M353.776 457.522H173.82c-.355 0-.642-.301-.642-.673 0-.372.287-.673.642-.673h179.956c.354 0 .642.301.642.673 0 .372-.288.673-.642.673Z"/>
</svg>
