<svg xmlns="http://www.w3.org/2000/svg" fill="none" viewBox="0 0 816 878">
  <path fill="#1088FF" d="M366.5 0C174.582 0 19 157.238 19 351.2V878h695V351.2C714 157.238 558.42 0 366.5 0Z"/>
  <g clip-path="url(#clip0_2_2)">
    <path fill="#061857" d="M6.586 734.261a.655.655 0 0 1-.631-.832l67.739-240.971a.656.656 0 0 1 1.26.354L7.217 733.783a.655.655 0 0 1-.63.478Z"/>
    <path fill="#061857" d="M6.412 738.538c3.18 0 5.756-2.57 5.756-5.74 0-3.17-2.577-5.74-5.756-5.74-3.18 0-5.757 2.57-5.757 5.74 0 3.17 2.578 5.74 5.757 5.74ZM209.661 728.521a.655.655 0 0 1-.621-.45L131.412 492.84a.654.654 0 1 1 1.244-.41l77.627 235.231a.655.655 0 0 1-.622.86Z"/>
    <path fill="#061857" d="M216.945 732.71c0 3.17-2.578 5.74-5.757 5.74s-5.756-2.57-5.756-5.74c0-3.17 2.577-5.74 5.756-5.74 3.179 0 5.757 2.57 5.757 5.74ZM198.246 693.958H17.915a.654.654 0 1 1 0-1.309h180.331a.655.655 0 1 1 0 1.309Z"/>
    <path fill="#F3F3F3" d="M62.804 483.196h80.749c6.555 0 11.868 5.298 11.868 11.833 0 6.536-5.313 11.834-11.868 11.834H62.804c-6.554 0-11.867-5.298-11.867-11.834 0-6.535 5.313-11.833 11.867-11.833Z"/>
    <path fill="#061857" d="M143.553 507.517H62.804c-6.905 0-12.523-5.602-12.523-12.488 0-6.886 5.618-12.488 12.523-12.488h80.749c6.905 0 12.523 5.602 12.523 12.488 0 6.886-5.618 12.488-12.523 12.488ZM62.804 483.85c-6.183 0-11.213 5.015-11.213 11.179 0 6.164 5.03 11.179 11.213 11.179h80.749c6.183 0 11.213-5.015 11.213-11.179 0-6.164-5.03-11.179-11.213-11.179H62.804ZM261.954 469.75a.655.655 0 0 1-.655-.655v-49.39H.655a.654.654 0 1 1 0-1.309h261.299c.362 0 .655.293.655.655v50.044a.655.655 0 0 1-.655.655Z"/>
    <path fill="#F3F3F3" d="M144.681 669.223c-.555-1.336-1.247-2.605-2.194-3.729-3.606-4.278-8.365-7.316-13.018-10.331-4.261-2.761-18.837-14.237-23.137-16.94-6.804-4.277-14.722-8.84-18.852-15.998l-8.29 10.8a13.607 13.607 0 0 0 1.164 17.906l57.56 55.643c2.825 2.832 7.668.724 7.503-3.266l-1.383-33.49c.209-.188.426-.388.647-.595Z"/>
    <path fill="#F3F3F3" d="m88.14 623.87-8.95 9.155a13.606 13.606 0 0 0 1.164 17.905l57.56 55.644c2.825 2.832 7.668.724 7.503-3.266l-1.383-33.49-55.893-45.948Z"/>
    <path fill="#061857" d="M140.991 708.537c-1.299 0-2.556-.515-3.54-1.501l-57.552-55.635c-5.043-5.054-5.567-13.122-1.228-18.775a.536.536 0 0 1 .051-.058l8.951-9.156a.655.655 0 1 1 .936.915l-8.923 9.127c-3.915 5.133-3.431 12.44 1.132 17.014l57.552 55.636c1.339 1.342 3.028 1.289 4.163.792 1.129-.494 2.308-1.689 2.231-3.561l-1.384-33.49a.655.655 0 0 1 .628-.681.666.666 0 0 1 .681.627l1.383 33.49c.088 2.117-1.067 3.962-3.014 4.814a5.154 5.154 0 0 1-2.067.442Z"/>
    <path fill="#F3F3F3" d="M213.589 519.823c-26.302-28.209-62.992-61.899-80.569-79.633-5.404-5.452-16.312-7.157-24-7.034-12.661.2-32.871-.185-45.702-.486-6.476-.152-9.003 10.503-8.67 16.95.999 19.341 6.994 32.2 21.465 45.126l74.878 66.883-62.85 62.241c1.118 1.534 1.346 1.752 2.55 3.2 8.794 10.582 30.073 28.156 41.723 35.459 3.928 2.461 7.971 4.733 12.089 6.859 12.618-11.685 46.088-55.037 69.149-85.546 13.794-18.25 15.544-47.28-.063-64.019Z"/>
    <path fill="#061857" d="M144.503 670.043a.661.661 0 0 1-.301-.073c-4.389-2.266-8.359-4.519-12.136-6.887-11.629-7.289-32.902-24.792-41.88-35.594l-.642-.769a35.906 35.906 0 0 1-1.932-2.465.654.654 0 0 1 .068-.85l62.355-61.751-74.358-66.42c-14.582-13.024-20.662-25.804-21.683-45.58-.266-5.152 1.186-12.138 4.477-15.522 1.408-1.447 3.047-2.16 4.861-2.116 14.03.329 33.344.681 45.677.485 8.243-.121 18.996 1.7 24.475 7.229 6.128 6.181 14.462 14.191 24.114 23.466 17.523 16.841 39.332 37.8 56.47 56.181 14.961 16.046 15.009 45.142.106 64.86-24.738 32.729-56.83 74.153-69.226 85.632a.658.658 0 0 1-.445.174Zm-55.5-46.105c.633.854.95 1.231 1.545 1.941l.647.773c8.902 10.714 30.019 28.083 41.567 35.322 3.628 2.274 7.437 4.443 11.632 6.621 12.563-11.841 44.25-52.754 68.735-85.147 14.537-19.234 14.529-47.576-.019-63.179-17.113-18.354-38.908-39.299-56.42-56.129-9.658-9.28-17.998-17.296-24.136-23.489-5.195-5.242-15.899-6.963-23.524-6.841-12.356.196-31.688-.156-45.728-.485-1.428-.022-2.748.544-3.891 1.719-2.998 3.082-4.354 9.793-4.109 14.542 1.001 19.384 6.959 31.909 21.247 44.672l74.878 66.883a.656.656 0 0 1 .025.954l-62.449 61.843Z"/>
    <path fill="#F3F3F3" d="M279.419 711.708a11.979 11.979 0 0 1-2.698-2.474l-141.66-176.84c-9.018-11.257-26.633.034-20.095 12.881l94.29 185.27c.184.362.379.719.603 1.058a16.043 16.043 0 0 0 13.381 7.179l86.472.001c14.663 0-13.002-16.517-30.293-27.075Z"/>
    <path fill="#061857" d="M310.638 739.437H223.24c-5.796 0-11.263-3.068-14.268-8.008l-3.872-6.367a.654.654 0 0 1 1.119-.68l3.872 6.366c2.769 4.552 7.807 7.38 13.149 7.38h87.398c1.192 0 1.858-.795 2.083-1.54.225-.741.115-1.768-.87-2.426l-34.337-22.938a.654.654 0 1 1 .728-1.089l34.337 22.938c1.302.87 1.85 2.399 1.396 3.895-.456 1.5-1.765 2.469-3.337 2.469Z"/>
    <path fill="#F3F3F3" d="M206.036 724.495c14.426-2.716 68.877-14.298 71.266-14.768-8.573-14.182-104.947-187.746-141.146-260.107l-76.04-19.677c-5.962 1.218-7.52 18.033-7.197 24.089.9 16.887 8.075 32.833 16.895 47.335l135.758 223.211c.155-.028.309-.054.464-.083Z"/>
    <path fill="#061857" d="M205.573 725.233a.656.656 0 0 1-.56-.314L69.253 501.708c-10.804-17.767-16.203-32.905-16.988-47.641-.27-5.058.919-23.376 7.72-24.765a.67.67 0 0 1 .295.008l76.041 19.676a.655.655 0 0 1 .421.341c35.284 70.533 132.081 245.109 141.121 260.062a.653.653 0 0 1-.434.981c-.577.113-4.189.874-9.657 2.027-16.454 3.468-50.692 10.685-61.615 12.741l-.464.084a.705.705 0 0 1-.12.011ZM60.106 430.617c-5.314 1.358-6.85 17.425-6.532 23.381.773 14.511 6.111 29.455 16.8 47.029l135.525 222.827.014-.002s.001 0 0 0c10.909-2.054 45.14-9.269 61.59-12.736 4.178-.881 7.274-1.534 8.765-1.844-11.494-19.444-105.698-189.444-140.564-259.093l-75.598-19.562Z"/>
    <path fill="#061857" d="M157.521 646.227a.656.656 0 0 1-.56-.314l-30-49.327a.655.655 0 1 1 1.119-.68l30 49.326a.655.655 0 0 1-.559.995ZM124.488 239.72a11.445 11.445 0 0 0 .029 16.291c4.549 4.491 11.909 4.478 16.441-.029a11.446 11.446 0 0 0-.03-16.291c-4.548-4.491-11.909-4.477-16.44.029ZM90.71 245.161a11.446 11.446 0 0 0 .03 16.291c4.548 4.49 11.909 4.477 16.44-.03a11.445 11.445 0 0 0-.029-16.291c-4.548-4.49-11.909-4.477-16.44.03Z"/>
    <path fill="#061857" d="M91.892 230.34a11.446 11.446 0 0 0 .03 16.291c4.548 4.49 11.908 4.477 16.44-.029a11.447 11.447 0 0 0-.03-16.292c-4.548-4.49-11.908-4.477-16.44.03Z"/>
    <path fill="#061857" d="M105.191 222.858a11.445 11.445 0 0 0 .03 16.291c4.548 4.49 11.908 4.477 16.44-.03a11.445 11.445 0 0 0-.03-16.291c-4.548-4.49-11.908-4.477-16.44.03Z"/>
    <path fill="#061857" d="M116.661 227.601a11.445 11.445 0 0 0 .029 16.291c4.548 4.49 11.909 4.477 16.441-.03a11.446 11.446 0 0 0-.03-16.291c-4.548-4.49-11.909-4.477-16.44.03Z"/>
    <path fill="#F3F3F3" d="m100.325 267.874-4.708 31.454-2.653.146s6.028 18.784 21.723 21.379c15.694 2.596 14.054-15.447 14.054-15.447l-9.197-4.162 3.138-25.348-22.357-8.022Z"/>
    <path fill="#061857" d="M119.545 301.899a.655.655 0 0 1-.65-.735l3.073-24.829-21.114-7.576-4.59 30.666a.656.656 0 0 1-1.296-.194l4.709-31.454a.657.657 0 0 1 .869-.52l22.357 8.023a.654.654 0 0 1 .429.696l-3.138 25.348a.655.655 0 0 1-.649.575Z"/>
    <path fill="#F3F3F3" d="M100.732 262.438c-.763-1.774-3.216-2.375-4.95-1.525-1.735.849-2.746 2.769-2.999 4.683-.34 2.583.6 5.363 2.617 7.013 2.017 1.651 5.095 1.984 7.296.588 4.062 4.329 9.799 8.536 15.723 8.935 3.331.224 6.878-.336 9.468-2.441 1.806-1.467 3.008-3.581 3.691-5.805.683-2.224.881-4.567.951-6.892a65.517 65.517 0 0 0-2.477-19.889c-.298-1.043-.635-2.105-1.31-2.954-.953-1.199-2.454-1.817-3.925-2.249-3.357-.987-6.973-1.256-10.365-.4-3.393.856-6.54 2.899-8.401 5.861-1.784 2.84-5.319 15.075-5.319 15.075Z"/>
    <path fill="#061857" d="M119.774 282.833c-.489 0-.958-.018-1.399-.048-6.775-.456-12.68-5.523-15.8-8.765-2.339 1.198-5.445.852-7.59-.904-2.113-1.728-3.232-4.714-2.85-7.605.312-2.37 1.568-4.309 3.358-5.186 1.093-.535 2.452-.593 3.634-.156a4.09 4.09 0 0 1 1.351.814c.964-3.237 3.535-11.607 5.019-13.968 1.863-2.966 5.069-5.207 8.795-6.148 3.282-.828 6.986-.688 10.71.407 1.391.409 3.131 1.06 4.254 2.47.746.94 1.114 2.087 1.426 3.181a65.95 65.95 0 0 1 2.502 20.088c-.064 2.125-.23 4.625-.98 7.066-.79 2.571-2.139 4.688-3.903 6.12-2.583 2.099-5.859 2.634-8.527 2.634Zm-17.077-10.29c.175 0 .349.071.477.206 2.88 3.07 8.695 8.286 15.289 8.73 2.608.176 6.286-.08 9.012-2.295 1.973-1.603 2.979-3.87 3.477-5.49.704-2.292.861-4.683.922-6.72a64.644 64.644 0 0 0-2.452-19.69c-.287-1.007-.595-1.974-1.192-2.725-.894-1.123-2.392-1.674-3.598-2.029-3.498-1.029-6.964-1.165-10.019-.393-3.403.859-6.321 2.89-8.007 5.574-1.716 2.731-5.21 14.788-5.245 14.909a.654.654 0 0 1-.588.472.645.645 0 0 1-.643-.395c-.25-.583-.769-1.045-1.458-1.3-.853-.316-1.826-.276-2.602.104-1.644.805-2.44 2.688-2.637 4.181-.324 2.452.611 4.973 2.382 6.421 1.868 1.529 4.616 1.757 6.53.542a.656.656 0 0 1 .352-.102Z"/>
    <path fill="#061857" d="M99.714 269.722a.655.655 0 0 1-.647-.553c-.216-1.386-1.241-2.657-2.549-3.164a.655.655 0 0 1 .473-1.221c1.757.681 3.08 2.323 3.371 4.182a.655.655 0 0 1-.648.756ZM117.56 237.949c-8.185 0-14.82 7.267-14.82 16.231 0 .806.056 1.598.159 2.372l3.192-7.323 25.67.309c-1.824-6.702-7.49-11.589-14.201-11.589Z"/>
    <path fill="#0552CE" d="m42.728 373.512 4.313 44 37.587.435-41.9-44.435Z"/>
    <path fill="#0552CE" d="M156.382 305.539a35.856 35.856 0 0 0-9.12-2.041l-24.58-2.254-1.817-6.96-4.781 5.386-3.448-4.256-18.777-6.431-3.87 10.687s-21.32-1.597-42.213 7.122c-26.87 11.214-20.324 50.618-12.166 65.768 8.157 15.15 22.71 66.463 64.71 65.276 13.21-.373 31.727-2.29 45.725-3.941 11.369-1.341 14.34-5.832 14.4-17.247l-.032-41.136-4.031-69.973Z"/>
    <path fill="#F3F3F3" d="M109.746 310.662a.664.664 0 0 1-.181-.025 84.488 84.488 0 0 1-19.846-8.609.654.654 0 1 1 .672-1.124 83.201 83.201 0 0 0 18.94 8.3l1.419-4.101a.656.656 0 0 1 1.239.428l-1.624 4.691a.655.655 0 0 1-.619.44ZM140.798 396.522l-22.21-88.971-.248-6.209-2.26.183-3.146.256 1.675 6.482 8.962 90.629 11.434 12.729 5.793-15.099Z"/>
    <path fill="#0552CE" d="M153.819 304.708s6.626 1.582 11.912 6.011c5.113 4.284 31.646 35.75 42.248 46.552 10.46-7.32 20.942-14.836 31.376-20.625-.095 5.539-.07 13.242 6.305 22.839 3.933 5.921 13.668 12.29 18.99 11.478-9.562 9.073-12.083 14.008-26.316 25.582-7.931 6.45-13.262 11.674-20.82 14.455-7.555 2.781-13.96 2.775-21.302-.525-7.342-3.3-13.542-8.723-18.903-14.715-13.526-15.118-25.533-22.702-28.12-42.753-1.294-10.026 2.404-32.028 4.163-41.988.241-1.363.467-6.311.467-6.311Z"/>
    <path fill="#F3F3F3" d="M198.019 364.274a.654.654 0 0 1-.3-1.238 46.146 46.146 0 0 0 7.488-4.8.655.655 0 0 1 .811 1.029 47.588 47.588 0 0 1-7.701 4.937.664.664 0 0 1-.298.072Z"/>
    <path fill="#061857" d="m136.156 492.013 73.743.132 36.122-88.073h-72.905l-36.96 87.941Z"/>
    <path fill="#F3F3F3" d="m139.901 429.104 14.218 2.235 10.884-1.87-2.455 6.3s32.13-1.856 32.12 4.596c-.007 4.188-7.577 4.625-7.577 4.625s9.424.522 8.927 4.312c-.496 3.79-12.053 4.308-12.053 4.308s7.867-.941 7.603 3.869c-.263 4.811-22.932 4.568-22.932 4.568s15.577-1.643 15.401 2.37c-.226 5.171-33.039 9.017-56.415 1.543 0 0 3.438-22.343 12.279-36.856Z"/>
    <path fill="#061857" d="M154.118 437.053a.655.655 0 0 1-.103-1.301c.131-.021 3.252-.512 7.762-.512.371 0 .707.276.707.655a.655.655 0 0 1-.655.654h-.05c-4.401 0-7.525.491-7.557.496a.607.607 0 0 1-.104.008ZM156.309 431.437a.657.657 0 0 1-.642-.524.656.656 0 0 1 .512-.772l8.271-1.678a.654.654 0 1 1 .261 1.283l-8.271 1.678a.654.654 0 0 1-.131.013ZM173.352 454.277c-1.67 0-3.249-.031-4.618-.112a.655.655 0 1 1 .076-1.307c3.928.233 9.659.047 14.265-.101 1.047-.034 2.043-.066 2.951-.092a.666.666 0 0 1 .673.637.655.655 0 0 1-.637.672c-.907.025-1.899.057-2.945.091-3.041.098-6.571.212-9.765.212ZM168.386 462.774a68.11 68.11 0 0 1-3.924-.096.654.654 0 1 1 .077-1.306c3.322.196 8.178.039 12.081-.086.891-.029 1.737-.056 2.51-.078.335-.023.663.275.673.636a.655.655 0 0 1-.637.673c-.771.021-1.615.048-2.504.077-2.577.083-5.568.18-8.276.18ZM171.92 445.755c-.543 0-1.07-.001-1.578-.004a.656.656 0 0 1 .004-1.309h.004c2.867.016 6.362-.018 9.742-.052 2.621-.026 5.144-.043 7.122-.05a.656.656 0 0 1 0 1.31c-1.984-.005-4.494.023-7.109.049-2.788.028-5.654.056-8.185.056Z"/>
    <path fill="#F3F3F3" d="M128.657 466.281s8.833 3.388 19.274 3.388l-19.274-3.388Z"/>
    <path fill="#061857" d="M147.932 470.323c-10.442 0-19.419-3.396-19.509-3.431a.654.654 0 1 1 .47-1.222c.087.033 8.848 3.344 19.039 3.344a.654.654 0 1 1 0 1.309Z"/>
    <path fill="#0552CE" d="m82.315 346.71 8.389 51.383 49.197 31.011-12.279 36.856-65.484-27.414c-13.06-6.548-22.081-19.052-24.157-33.48l-9.018-55.382 53.352-2.974Z"/>
    <path fill="#F3F3F3" d="M138.678 429.143a.658.658 0 0 1-.334-.092l-50.15-29.82a.655.655 0 0 1-.308-.443l-8.322-44.869a.655.655 0 0 1 1.288-.238l8.267 44.576 49.895 29.669a.654.654 0 0 1-.336 1.217ZM245.252 359.87c-6.417-9.57-6.647-17.73-5.898-23.224 3.397-2.012 8.28-4.638 11.723-6.531 13.277-7.301 28.642-13.037 43.393-9.539 2.628.623 5.308 1.611 7.091 3.634 1.784 2.024 2.343 5.322.62 7.396-3.859 4.644-12.435-1.509-17.245 2.145 4.844.113 8.418 6.186 6.153 10.458 2.432 2.796 1.606 7.735-1.604 9.594.34 2.991-1.326 6.109-4.005 7.498-2.678 1.388-6.195.955-8.455-1.041-4.071 3.908-8.517 7.499-12.886 11.073-5.679-.719-13.845-3.944-18.887-11.463Z"/>
    <path fill="#061857" d="M265.019 371.269a.655.655 0 0 1-.416-1.162l.891-.728c3.92-3.203 7.305-5.97 11.078-9.591a.653.653 0 0 1 .887-.019c2.046 1.809 5.295 2.208 7.72.951 2.426-1.258 3.963-4.136 3.655-6.843a.655.655 0 0 1 .323-.641c1.361-.788 2.309-2.242 2.6-3.99.291-1.745-.133-3.424-1.163-4.608a.653.653 0 0 1-.084-.736c.955-1.8.809-4.095-.39-6.139-1.204-2.055-3.148-3.31-5.2-3.357a.654.654 0 0 1-.381-1.176c2.524-1.916 5.845-1.395 9.055-.893 3.243.508 6.307.988 8.082-1.149 1.548-1.862.891-4.847-.606-6.545-1.828-2.073-4.729-2.951-6.751-3.43-12.082-2.864-26.122.235-42.926 9.475-.853.469-1.769.968-2.715 1.484-2.825 1.54-6.028 3.285-8.574 4.792a.654.654 0 1 1-.668-1.126c2.567-1.52 5.78-3.271 8.615-4.816.945-.515 1.859-1.013 2.71-1.481 17.104-9.404 31.451-12.544 43.86-9.602 2.197.521 5.357 1.485 7.431 3.839 1.894 2.148 2.648 5.821.632 8.247-2.25 2.708-5.83 2.147-9.292 1.606-2.237-.351-4.53-.71-6.416-.167 1.713.59 3.234 1.864 4.274 3.637 1.346 2.295 1.563 4.886.609 7.02 1.086 1.448 1.519 3.368 1.19 5.34-.33 1.981-1.37 3.665-2.878 4.684.184 3.143-1.577 6.28-4.389 7.737-2.757 1.428-6.256 1.105-8.723-.75-3.642 3.463-6.939 6.158-10.736 9.261l-.89.728a.655.655 0 0 1-.414.148Z"/>
    <path fill="#F3F3F3" d="m247.92 358.546 129.981-74.531a.983.983 0 0 0 .367-1.335.988.988 0 0 0-1.339-.378l-131.677 71.519 2.668 4.725Z"/>
    <path fill="#061857" d="m247.673 359.442-3.319-5.879 132.262-71.837a1.647 1.647 0 0 1 2.222.632c.44.78.166 1.778-.612 2.224l-130.553 74.86Zm-1.524-5.364 2.017 3.572 114.17-65.465 15.238-8.738a.33.33 0 0 0-.328-.572l-131.097 71.203Z"/>
    <path fill="#061857" d="M278.091 351.231a7.68 7.68 0 0 1-2.464-.383c-1.996-.669-3.938-2.614-3.786-5.034a.656.656 0 0 1 1.308.081c-.11 1.744 1.41 3.214 2.895 3.712 1.464.491 3.24.407 5.428-.258a20.953 20.953 0 0 0 8.471-4.989.655.655 0 0 1 .912.94 22.274 22.274 0 0 1-9.002 5.302c-1.38.419-2.627.629-3.762.629Z"/>
    <path fill="#061857" d="M280.391 357.543c-1.887 0-3.626-.502-4.97-1.465-2.272-1.629-3.238-4.706-2.197-7.005a.655.655 0 1 1 1.193.54c-.792 1.75-.016 4.122 1.768 5.401 1.583 1.136 3.868 1.501 6.263 1.002 2.127-.442 4.044-1.413 6.329-2.636a.655.655 0 1 1 .618 1.154c-1.87 1.001-4.199 2.248-6.68 2.764-.788.164-1.568.245-2.324.245Z"/>
    <path fill="#061857" d="M277.5 360.915a.648.648 0 0 1-.311-.079c-1.858-1.006-2.965-3.247-2.631-5.329a.654.654 0 1 1 1.293.207c-.248 1.551.577 3.221 1.962 3.971a.653.653 0 0 1-.313 1.23Z"/>
    <path fill="#F3F3F3" d="M264.457 330.248c5.365-.601 15.864-2.746 19.487-3.477 2.037-.411 4.316.219 4.542 2.887.207 2.45-1.278 4.642-2.552 5.191-.951.408-7.307 3.444-16.207 5.2-4.505.889-9.746 1.048-19.953-2.391l14.683-7.41Z"/>
    <path fill="#061857" d="M261.955 344.417a.654.654 0 0 1-.316-1.228c.545-.299 1.102-.62 1.67-.948 2.617-1.51 5.584-3.222 8.892-3.58 9.485-1.026 13.219-3.526 14.68-5.443 1.035-1.356 1.092-2.628.958-3.456-.147-.907-.517-1.572-1.102-1.977-.656-.454-1.601-.586-2.663-.372-.903.182-1.852.481-2.95.828-3.224 1.017-7.234 2.285-13.39 1.653a.654.654 0 0 1-.586-.717.662.662 0 0 1 .719-.585c5.883.601 9.754-.619 12.863-1.6 1.087-.343 2.113-.667 3.084-.863 1.414-.285 2.718-.08 3.669.58.889.615 1.443 1.572 1.649 2.844.175 1.081.108 2.733-1.209 4.459-2.352 3.085-7.594 5.087-15.582 5.951-3.032.328-5.75 1.896-8.378 3.412a91.26 91.26 0 0 1-1.694.962.649.649 0 0 1-.314.08Z"/>
    <path fill="#061857" d="M669.634 469.75H321.573a.655.655 0 1 1 0-1.309h347.406V220.509H276.881v94.423a.655.655 0 1 1-1.31 0v-95.078c0-.361.293-.654.655-.654h393.408c.362 0 .655.293.655.654v249.241a.655.655 0 0 1-.655.655Z"/>
    <path fill="#C4E3F7" d="M597.748 249.26H332.955v121.496h264.793V249.26Z"/>
    <path fill="#F3F3F3" d="M572.307 284.112H448.358a.655.655 0 1 1 0-1.309h123.949a.654.654 0 1 1 0 1.309ZM572.307 310.662H448.358a.654.654 0 1 1 0-1.309h123.949a.654.654 0 1 1 0 1.309ZM572.307 337.213H448.358a.655.655 0 0 1 0-1.31h123.949a.654.654 0 1 1 0 1.31ZM396.478 310.007v-39.028c-21.032 0-38.082 17.474-38.082 39.028 0 21.555 17.05 39.029 38.082 39.029s38.082-17.474 38.082-39.029c0-6.515-1.56-12.656-4.315-18.056l-33.767 18.056Z"/>
    <path fill="#F3F3F3" d="m430.245 291.951-33.767-20.972c-21.032 0-38.082 17.474-38.082 39.028 0 21.555 17.05 39.029 38.082 39.029s38.082-17.474 38.082-39.029c0-6.515-1.56-12.656-4.315-18.056Z"/>
    <path fill="#CFF558" d="M430.246 291.951c-6.359-12.464-19.093-20.972-33.767-20.972v39.028l33.767-18.056Z"/>
    <path fill="#C4E3F7" d="M396.478 328.637c10.102 0 18.291-8.341 18.291-18.629 0-10.289-8.189-18.63-18.291-18.63-10.101 0-18.29 8.341-18.29 18.63 0 10.288 8.189 18.629 18.29 18.629Z"/>
    <path fill="#061857" d="M490.645 399.032h-82.298a.654.654 0 1 1 0-1.309h82.298a.655.655 0 1 1 0 1.309ZM490.645 413.005h-82.298a.655.655 0 1 1 0-1.309h82.298a.654.654 0 1 1 0 1.309ZM490.645 426.977h-82.298a.654.654 0 1 1 0-1.309h82.298a.655.655 0 1 1 0 1.309Z"/>
    <path fill="#C4E3F7" d="M400.06 393.499H286.022v51.625H400.06v-51.625Z"/>
    <path fill="#FC6E56" d="M400.494 370.899H285.068a4.259 4.259 0 0 0-4.26 4.258v16.776a4.259 4.259 0 0 0 4.26 4.258h115.426a4.26 4.26 0 0 0 4.26-4.258v-16.776a4.26 4.26 0 0 0-4.26-4.258Z"/>
    <path fill="#F3F3F3" d="M396.595 374.558H326.6a3.463 3.463 0 0 0-3.464 3.462v11.575a3.463 3.463 0 0 0 3.464 3.463h69.995a3.463 3.463 0 0 0 3.464-3.463V378.02a3.463 3.463 0 0 0-3.464-3.462Z"/>
    <path fill="#C4E3F7" d="M334.123 386.795a2.751 2.751 0 1 0-2.752-2.751 2.751 2.751 0 0 0 2.752 2.751ZM342.918 386.795a2.751 2.751 0 1 0-2.752-2.751 2.751 2.751 0 0 0 2.752 2.751ZM354.465 384.044a2.748 2.748 0 0 1-2.752 2.744 2.748 2.748 0 0 1-2.752-2.744 2.748 2.748 0 0 1 2.752-2.744 2.748 2.748 0 0 1 2.752 2.744Z"/>
    <path fill="#F3F3F3" d="M290.543 393.058a.565.565 0 0 1-.564-.562V375.12a.565.565 0 0 1 1.128 0v17.376a.565.565 0 0 1-.564.562ZM299.203 393.058a.565.565 0 0 1-.564-.562V375.12a.564.564 0 0 1 1.127 0v17.376a.565.565 0 0 1-.563.562ZM307.938 393.058a.565.565 0 0 1-.564-.562V375.12a.564.564 0 0 1 1.127 0v17.376a.564.564 0 0 1-.563.562ZM316.364 393.058a.565.565 0 0 1-.564-.562V375.12a.564.564 0 0 1 1.127 0v17.376a.565.565 0 0 1-.563.562Z"/>
    <path fill="#FC6E56" d="M400.494 399.309H285.068a4.26 4.26 0 0 0-4.26 4.258v16.776a4.259 4.259 0 0 0 4.26 4.258h115.426a4.26 4.26 0 0 0 4.26-4.258v-16.776a4.26 4.26 0 0 0-4.26-4.258Z"/>
    <path fill="#F3F3F3" d="M396.595 403.1H326.6a3.463 3.463 0 0 0-3.464 3.463v11.575a3.464 3.464 0 0 0 3.464 3.463h69.995a3.464 3.464 0 0 0 3.464-3.463v-11.575a3.463 3.463 0 0 0-3.464-3.463Z"/>
    <path fill="#C4E3F7" d="M334.123 415.338a2.752 2.752 0 1 0 0-5.503 2.752 2.752 0 0 0 0 5.503ZM342.918 415.338a2.752 2.752 0 1 0 0-5.503 2.752 2.752 0 0 0 0 5.503ZM354.465 412.587a2.748 2.748 0 0 1-2.752 2.744 2.748 2.748 0 0 1-2.752-2.744 2.748 2.748 0 0 1 2.752-2.744 2.748 2.748 0 0 1 2.752 2.744Z"/>
    <path fill="#F3F3F3" d="M290.543 421.469a.566.566 0 0 1-.564-.563v-17.375c0-.309.254-.563.564-.563.309 0 .564.254.564.563v17.375c0 .31-.254.563-.564.563ZM299.203 421.469a.565.565 0 0 1-.564-.563v-17.375c0-.309.253-.563.563-.563.309 0 .564.254.564.563v17.375c0 .31-.254.563-.563.563ZM307.938 421.469a.565.565 0 0 1-.564-.563v-17.375c0-.309.253-.563.563-.563.31 0 .564.254.564.563v17.375c0 .31-.253.563-.563.563ZM316.364 421.469a.565.565 0 0 1-.564-.563v-17.375c0-.309.253-.563.563-.563.309 0 .564.254.564.563v17.375c0 .31-.254.563-.563.563Z"/>
    <path fill="#FC6E56" d="M400.494 428.066H285.068a4.259 4.259 0 0 0-4.26 4.258V449.1a4.259 4.259 0 0 0 4.26 4.258h115.426a4.26 4.26 0 0 0 4.26-4.258v-16.776a4.26 4.26 0 0 0-4.26-4.258Z"/>
    <path fill="#F3F3F3" d="M290.543 450.225a.565.565 0 0 1-.564-.562v-17.376a.565.565 0 0 1 1.128 0v17.376a.565.565 0 0 1-.564.562ZM299.203 450.225a.565.565 0 0 1-.564-.562v-17.376a.564.564 0 0 1 1.127 0v17.376a.565.565 0 0 1-.563.562ZM307.938 450.225a.565.565 0 0 1-.564-.562v-17.376a.564.564 0 0 1 1.127 0v17.376a.564.564 0 0 1-.563.562ZM316.364 450.225a.565.565 0 0 1-.564-.562v-17.376a.564.564 0 0 1 1.127 0v17.376a.565.565 0 0 1-.563.562ZM396.595 431.725H326.6a3.463 3.463 0 0 0-3.464 3.462v11.575a3.463 3.463 0 0 0 3.464 3.463h69.995a3.463 3.463 0 0 0 3.464-3.463v-11.575a3.463 3.463 0 0 0-3.464-3.462Z"/>
    <path fill="#C4E3F7" d="M334.123 443.962a2.751 2.751 0 1 0-2.752-2.751 2.751 2.751 0 0 0 2.752 2.751ZM342.918 443.962a2.751 2.751 0 1 0-2.752-2.751 2.751 2.751 0 0 0 2.752 2.751ZM354.465 441.212a2.748 2.748 0 0 1-2.752 2.744 2.748 2.748 0 0 1-2.752-2.744 2.748 2.748 0 0 1 2.752-2.744 2.748 2.748 0 0 1 2.752 2.744Z"/>
    <path fill="#F3F3F3" d="M761.321 196.655H577.948c-6.928 0-12.545 5.614-12.545 12.54v107.22c0 6.926 5.617 12.54 12.545 12.54h183.373c6.928 0 12.545-5.614 12.545-12.54v-107.22c0-6.926-5.617-12.54-12.545-12.54Z"/>
    <path fill="#061857" d="M761.32 329.61H577.948c-7.278 0-13.2-5.919-13.2-13.195v-107.22c0-7.276 5.922-13.195 13.2-13.195H761.32c7.278 0 13.2 5.919 13.2 13.195v107.22c0 7.276-5.922 13.195-13.2 13.195ZM577.948 197.309c-6.556 0-11.89 5.332-11.89 11.886v107.22c0 6.554 5.334 11.885 11.89 11.885H761.32c6.556 0 11.89-5.331 11.89-11.885v-107.22c0-6.554-5.334-11.886-11.89-11.886H577.948Z"/>
    <path fill="#C4E3F7" d="M761.357 208.551H577.913v108.508h183.444V208.551Z"/>
    <path fill="#F3F3F3" d="M592.774 229.686c-1.692 0-3.025-2.217-3.038-5.054-.005-1.285.264-2.504.758-3.433.564-1.058 1.361-1.643 2.248-1.647h.007c1.693 0 3.027 2.218 3.039 5.055.005 1.285-.264 2.504-.759 3.433-.562 1.058-1.361 1.643-2.246 1.646h-.009Zm-.025-8.824h-.002c-.376.001-.775.348-1.096.952-.389.73-.609 1.756-.605 2.812.009 2.149.92 3.751 1.729 3.751h.003c.375-.002.774-.348 1.095-.952.389-.73.609-1.756.605-2.812-.009-2.149-.92-3.751-1.729-3.751ZM600.561 229.516a.655.655 0 0 1-.655-.652l-.031-7.602-1.974 1.405a.654.654 0 1 1-.76-1.067l3.004-2.137a.656.656 0 0 1 1.035.531l.036 8.865a.654.654 0 0 1-.652.657h-.003ZM618.995 229.579c-1.693.001-3.027-2.217-3.039-5.054-.011-2.842 1.309-5.073 3.005-5.08h.008c1.693 0 3.026 2.218 3.039 5.055.005 1.285-.265 2.504-.758 3.433-.564 1.058-1.361 1.643-2.248 1.646h-.007Zm-.026-8.824h-.002c-.81.003-1.709 1.614-1.701 3.764.009 2.149.92 3.751 1.729 3.751h.002c.376-.002.775-.348 1.096-.952.389-.731.609-1.756.605-2.812-.009-2.149-.92-3.751-1.729-3.751ZM632.452 229.524c-1.693 0-3.027-2.218-3.039-5.054-.005-1.285.264-2.505.759-3.434.563-1.058 1.361-1.642 2.246-1.646h.009c1.692 0 3.025 2.218 3.038 5.054.005 1.285-.264 2.504-.758 3.434-.563 1.058-1.361 1.642-2.247 1.646h-.008Zm-.026-8.825h-.002c-.375.002-.775.349-1.096.952-.389.731-.609 1.756-.605 2.813.009 2.148.92 3.751 1.729 3.751h.003c.375-.002.774-.349 1.095-.952.389-.731.609-1.756.605-2.813-.009-2.148-.92-3.751-1.729-3.751ZM640.19 229.493c-.882 0-1.682-.578-2.252-1.628-.501-.925-.78-2.142-.786-3.427-.005-1.285.264-2.504.758-3.433.563-1.058 1.361-1.643 2.247-1.646h.008c1.693 0 3.026 2.217 3.038 5.054.005 1.285-.263 2.504-.758 3.433-.563 1.058-1.361 1.643-2.246 1.647h-.009Zm-.025-8.825h-.003c-.375.002-.774.349-1.095.952-.389.731-.609 1.756-.605 2.813.004 1.057.233 2.08.628 2.808.325.599.726.943 1.101.943h.002c.375-.002.775-.349 1.095-.952.389-.731.61-1.756.605-2.813-.009-2.148-.919-3.751-1.728-3.751ZM688.413 229.296c-1.693 0-3.027-2.218-3.039-5.055-.011-2.841 1.309-5.072 3.005-5.079h.008c1.693 0 3.026 2.217 3.038 5.054.006 1.285-.264 2.504-.757 3.433-.564 1.058-1.361 1.643-2.248 1.647h-.007Zm-.026-8.825h-.003c-.809.003-1.708 1.614-1.7 3.765.009 2.148.92 3.75 1.729 3.75h.002c.376-.001.775-.348 1.096-.952.389-.73.609-1.755.605-2.812-.009-2.149-.92-3.751-1.729-3.751ZM626.781 229.409a.655.655 0 0 1-.655-.652l-.031-7.602-1.974 1.405a.655.655 0 1 1-.76-1.067l3.004-2.137a.655.655 0 0 1 1.034.531l.037 8.865a.655.655 0 0 1-.652.657h-.003ZM648.04 229.46c-1.692 0-3.026-2.217-3.038-5.054-.005-1.285.264-2.504.758-3.433.563-1.058 1.361-1.643 2.247-1.647h.008c1.692 0 3.026 2.218 3.038 5.055.006 1.284-.264 2.504-.758 3.433-.563 1.058-1.361 1.643-2.247 1.646h-.008Zm-.025-8.825h-.003c-.375.002-.774.349-1.095.953-.389.73-.61 1.755-.605 2.812.009 2.149.919 3.751 1.728 3.751h.003c.375-.002.775-.348 1.096-.952.388-.731.608-1.756.605-2.813-.009-2.148-.92-3.751-1.729-3.751ZM661.498 229.406c-1.693 0-3.027-2.218-3.039-5.055-.011-2.841 1.309-5.072 3.005-5.08h.008c1.693 0 3.026 2.218 3.038 5.055.011 2.841-1.308 5.073-3.005 5.08h-.007Zm-.026-8.825h-.003c-.809.003-1.708 1.614-1.7 3.765.009 2.148.919 3.75 1.729 3.75h.002c.81-.003 1.709-1.614 1.701-3.765-.009-2.148-.92-3.75-1.729-3.75ZM655.827 229.29a.655.655 0 0 1-.655-.652l-.032-7.601-1.973 1.404a.656.656 0 0 1-.76-1.067l3.003-2.136a.655.655 0 0 1 1.035.53l.037 8.865a.655.655 0 0 1-.652.657h-.003ZM669.621 229.234a.654.654 0 0 1-.655-.652l-.031-7.602-1.975 1.405a.654.654 0 1 1-.759-1.067l3.004-2.137a.655.655 0 0 1 1.034.531l.037 8.865a.655.655 0 0 1-.652.657h-.003ZM676.125 229.207a.654.654 0 0 1-.655-.652l-.031-7.602-1.975 1.405a.654.654 0 1 1-.759-1.067l3.004-2.137a.655.655 0 0 1 1.034.531l.037 8.865a.655.655 0 0 1-.653.657h-.002ZM682.629 229.181a.655.655 0 0 1-.655-.652l-.031-7.602-1.974 1.405a.654.654 0 1 1-.759-1.067l3.003-2.137a.655.655 0 0 1 1.035.531l.036 8.865a.655.655 0 0 1-.652.657h-.003ZM702.206 229.239c-1.692 0-3.026-2.217-3.038-5.054-.011-2.842 1.308-5.073 3.005-5.08h.008c1.693 0 3.026 2.218 3.038 5.055.006 1.285-.263 2.504-.757 3.433-.563 1.058-1.361 1.642-2.247 1.646h-.009Zm-.025-8.825h-.003c-.809.003-1.709 1.615-1.7 3.765.009 2.148.92 3.751 1.729 3.751h.003c.375-.002.774-.349 1.095-.952.388-.731.609-1.756.605-2.813-.009-2.148-.92-3.751-1.729-3.751ZM696.423 229.124a.655.655 0 0 1-.655-.652l-.031-7.601-1.974 1.404a.654.654 0 1 1-.759-1.067l3.003-2.137a.655.655 0 0 1 1.035.531l.036 8.865a.654.654 0 0 1-.652.657h-.003ZM606.88 229.49a.654.654 0 0 1-.655-.652l-.032-7.601-1.974 1.404a.654.654 0 1 1-.76-1.067l3.004-2.136a.655.655 0 0 1 1.035.531l.037 8.864a.655.655 0 0 1-.653.657h-.002ZM613.198 229.464a.655.655 0 0 1-.655-.652l-.031-7.601-1.974 1.404a.655.655 0 1 1-.76-1.067l3.004-2.136a.656.656 0 0 1 1.035.531l.036 8.864a.654.654 0 0 1-.652.657h-.003ZM710.125 229.284c-.883 0-1.682-.578-2.252-1.628-.501-.925-.781-2.142-.786-3.427-.005-1.284.264-2.503.758-3.433.563-1.058 1.361-1.642 2.247-1.646h.008c.883 0 1.682.578 2.252 1.628.501.925.781 2.142.786 3.426.005 1.285-.264 2.505-.758 3.433-.563 1.058-1.361 1.643-2.247 1.647h-.008Zm-.026-8.825h-.002c-.375.002-.775.349-1.096.952-.388.731-.609 1.756-.604 2.813.004 1.057.233 2.08.628 2.808.325.599.726.943 1.1.943h.003c.375-.002.775-.349 1.096-.952.388-.731.608-1.756.604-2.813-.004-1.057-.233-2.08-.628-2.808-.325-.599-.726-.943-1.101-.943ZM717.911 229.113a.655.655 0 0 1-.655-.652l-.031-7.601-1.974 1.405a.656.656 0 0 1-.76-1.067l3.004-2.137a.656.656 0 0 1 1.035.531l.036 8.864a.654.654 0 0 1-.652.657h-.003ZM736.346 229.177c-1.693 0-3.027-2.218-3.038-5.055-.005-1.285.264-2.504.758-3.433.562-1.058 1.361-1.642 2.246-1.646h.009c.882 0 1.682.578 2.251 1.628.502.925.781 2.142.786 3.426.006 1.285-.263 2.504-.757 3.433-.563 1.058-1.361 1.643-2.247 1.647h-.008Zm-.026-8.825h-.003c-.374.002-.774.349-1.095.952-.388.731-.609 1.756-.605 2.813.009 2.148.92 3.751 1.729 3.751h.003c.375-.002.774-.349 1.095-.952.388-.731.609-1.756.605-2.813-.004-1.057-.233-2.08-.628-2.808-.325-.599-.726-.943-1.101-.943ZM744.132 229.007a.655.655 0 0 1-.655-.653l-.032-7.601-1.974 1.404a.654.654 0 0 1-.76-1.066l3.004-2.137a.654.654 0 0 1 1.035.531l.037 8.864a.656.656 0 0 1-.653.658h-.002ZM724.23 229.088a.655.655 0 0 1-.655-.652l-.031-7.602-1.974 1.405a.654.654 0 1 1-.76-1.067l3.004-2.137a.653.653 0 0 1 1.034.531l.037 8.864a.656.656 0 0 1-.653.658h-.002ZM730.549 229.062a.655.655 0 0 1-.655-.652l-.031-7.601-1.974 1.404a.654.654 0 1 1-.759-1.067l3.003-2.137a.655.655 0 0 1 1.035.531l.036 8.865a.654.654 0 0 1-.652.657h-.003ZM625.984 245.134c-.882 0-1.682-.577-2.252-1.627-.501-.926-.78-2.142-.786-3.427-.005-1.285.264-2.504.758-3.433.563-1.058 1.361-1.643 2.247-1.647h.008c1.693 0 3.027 2.219 3.038 5.055.005 1.285-.264 2.504-.758 3.433-.563 1.058-1.361 1.643-2.246 1.646h-.009Zm-.025-8.824h-.003c-.375.001-.774.348-1.095.952-.389.731-.609 1.756-.605 2.812.004 1.058.233 2.081.628 2.808.325.6.726.943 1.101.943h.002c.375-.001.775-.348 1.096-.952.388-.73.609-1.755.604-2.812-.008-2.149-.919-3.751-1.728-3.751ZM599.071 245.245c-1.694 0-3.028-2.218-3.039-5.055-.005-1.285.264-2.504.758-3.433.563-1.058 1.361-1.643 2.247-1.646h.008c1.692 0 3.026 2.217 3.038 5.054.005 1.285-.263 2.504-.758 3.433-.563 1.058-1.361 1.643-2.247 1.647h-.007Zm-.026-8.825h-.003c-.375.002-.775.349-1.095.952-.389.731-.609 1.756-.605 2.813.008 2.148.919 3.751 1.729 3.751h.002c.375-.002.775-.349 1.095-.952.389-.731.61-1.756.605-2.813-.009-2.148-.919-3.751-1.728-3.751ZM593.398 245.13a.656.656 0 0 1-.655-.653l-.031-7.601-1.974 1.405a.655.655 0 0 1-.76-1.067l3.004-2.137a.654.654 0 0 1 1.035.531l.036 8.864a.655.655 0 0 1-.652.658h-.003ZM607.192 245.073a.654.654 0 0 1-.654-.652l-.032-7.602-1.974 1.405a.654.654 0 1 1-.76-1.067l3.004-2.137a.657.657 0 0 1 1.035.531l.036 8.865a.654.654 0 0 1-.652.657h-.003ZM613.697 245.047a.655.655 0 0 1-.655-.653l-.032-7.601-1.973 1.405a.654.654 0 1 1-.76-1.067l3.003-2.137a.654.654 0 0 1 1.035.531l.037 8.864a.656.656 0 0 1-.653.658h-.002ZM620.202 245.02a.655.655 0 0 1-.655-.652l-.031-7.602-1.975 1.405a.655.655 0 0 1-.759-1.067l3.004-2.137a.653.653 0 0 1 1.034.531l.037 8.864a.655.655 0 0 1-.652.658h-.003ZM639.779 245.078c-1.693.001-3.027-2.217-3.039-5.054-.005-1.285.264-2.504.758-3.433.563-1.058 1.361-1.643 2.247-1.647h.008c.883 0 1.682.578 2.252 1.628.501.925.781 2.142.786 3.427.005 1.285-.263 2.504-.758 3.433-.563 1.058-1.361 1.643-2.247 1.646h-.007Zm-.026-8.824h-.003c-.375.001-.774.348-1.095.952-.389.73-.609 1.755-.605 2.812.009 2.149.92 3.751 1.729 3.751h.002c.375-.001.775-.348 1.095-.952.389-.731.61-1.756.605-2.813-.004-1.056-.233-2.08-.628-2.807-.325-.6-.726-.943-1.1-.943ZM633.995 244.964a.655.655 0 0 1-.655-.653l-.031-7.601-1.975 1.405a.655.655 0 0 1-.759-1.067l3.004-2.137a.653.653 0 0 1 1.034.531l.037 8.864a.655.655 0 0 1-.652.658h-.003ZM647.698 245.123c-1.693 0-3.027-2.217-3.039-5.054-.005-1.285.264-2.504.758-3.434.563-1.058 1.361-1.642 2.247-1.646h.008c1.692 0 3.027 2.218 3.039 5.054.011 2.842-1.309 5.073-3.006 5.08h-.007Zm-.026-8.824h-.003c-.375.001-.775.348-1.095.951-.389.731-.609 1.756-.605 2.813.009 2.149.92 3.751 1.729 3.751h.002c.81-.003 1.709-1.614 1.701-3.765-.009-2.148-.92-3.75-1.729-3.75ZM655.484 244.953a.654.654 0 0 1-.655-.652l-.032-7.602-1.973 1.404a.654.654 0 1 1-.76-1.066l3.003-2.137a.657.657 0 0 1 1.035.531l.037 8.865a.656.656 0 0 1-.653.657h-.002ZM673.917 245.016c-1.693 0-3.026-2.218-3.038-5.055-.011-2.841 1.308-5.072 3.005-5.079h.008c1.693 0 3.026 2.218 3.038 5.054.011 2.841-1.308 5.073-3.005 5.08h-.008Zm-.025-8.825h-.003c-.809.003-1.709 1.614-1.7 3.765.009 2.148.919 3.751 1.728 3.751h.003c.81-.004 1.709-1.615 1.7-3.765-.008-2.148-.919-3.751-1.728-3.751ZM687.375 244.961c-1.692 0-3.026-2.217-3.038-5.054-.011-2.842 1.308-5.073 3.005-5.08h.008c1.693 0 3.026 2.218 3.038 5.055.011 2.841-1.308 5.072-3.005 5.079h-.008Zm-.025-8.825h-.003c-.809.004-1.709 1.615-1.7 3.765.009 2.149.919 3.751 1.728 3.751h.003c.81-.003 1.709-1.614 1.701-3.765-.009-2.148-.92-3.751-1.729-3.751ZM695.113 244.929c-1.692.001-3.027-2.217-3.039-5.054-.011-2.841 1.309-5.073 3.006-5.08h.007c1.693 0 3.027 2.218 3.039 5.055.005 1.285-.264 2.504-.758 3.433-.563 1.058-1.361 1.643-2.247 1.646h-.008Zm-.026-8.824h-.002c-.81.003-1.709 1.614-1.701 3.764.009 2.149.92 3.751 1.729 3.751h.003c.375-.001.774-.348 1.096-.952.388-.73.608-1.756.604-2.812-.009-2.149-.92-3.751-1.729-3.751ZM743.335 244.732c-1.692 0-3.026-2.217-3.038-5.054-.011-2.842 1.308-5.073 3.005-5.08h.008c1.693 0 3.026 2.218 3.038 5.055.011 2.841-1.308 5.072-3.005 5.079h-.008Zm-.025-8.825h-.003c-.809.004-1.709 1.615-1.7 3.765.009 2.149.919 3.751 1.728 3.751h.003c.81-.003 1.709-1.614 1.701-3.765-.009-2.148-.92-3.751-1.729-3.751ZM681.704 244.845a.654.654 0 0 1-.655-.652l-.031-7.601-1.974 1.405a.655.655 0 1 1-.76-1.067l3.004-2.137a.656.656 0 0 1 1.035.53l.036 8.865a.654.654 0 0 1-.652.657h-.003ZM702.963 244.897c-1.692 0-3.026-2.218-3.038-5.054-.005-1.285.263-2.504.758-3.434.563-1.058 1.361-1.642 2.246-1.646h.009c1.692 0 3.026 2.218 3.038 5.054.011 2.842-1.308 5.073-3.005 5.08h-.008Zm-.026-8.825h-.002c-.375.002-.775.349-1.095.952-.389.731-.61 1.756-.605 2.813.009 2.149.919 3.751 1.728 3.751h.003c.81-.003 1.709-1.614 1.7-3.765-.008-2.149-.919-3.751-1.729-3.751ZM716.42 244.842c-1.692 0-3.026-2.217-3.038-5.054-.005-1.285.263-2.504.758-3.434.563-1.058 1.361-1.642 2.247-1.646h.007c1.693 0 3.027 2.218 3.039 5.055.006 1.284-.264 2.504-.758 3.433-.563 1.058-1.361 1.643-2.247 1.646h-.008Zm-.026-8.825h-.002c-.375.002-.775.349-1.095.952-.389.731-.61 1.756-.605 2.813.009 2.148.919 3.751 1.728 3.751h.003c.375-.002.774-.349 1.096-.952.388-.731.608-1.756.605-2.813-.009-2.148-.921-3.751-1.73-3.751ZM710.749 244.727a.655.655 0 0 1-.655-.652l-.031-7.602-1.974 1.405a.655.655 0 0 1-.759-1.067l3.003-2.137a.655.655 0 0 1 1.035.531l.036 8.865a.654.654 0 0 1-.652.657h-.003ZM724.544 244.671a.655.655 0 0 1-.655-.653l-.031-7.601-1.975 1.405a.655.655 0 0 1-.759-1.067l3.004-2.137a.653.653 0 0 1 1.034.531l.037 8.864a.655.655 0 0 1-.652.658h-.003ZM731.048 244.644a.654.654 0 0 1-.655-.652l-.032-7.602-1.974 1.405a.654.654 0 1 1-.76-1.067l3.004-2.137a.655.655 0 0 1 1.035.531l.037 8.865a.655.655 0 0 1-.653.657h-.002ZM737.552 244.617a.654.654 0 0 1-.655-.652l-.031-7.601-1.974 1.404a.654.654 0 1 1-.76-1.067l3.004-2.137a.655.655 0 0 1 1.035.531l.036 8.865a.654.654 0 0 1-.652.657h-.003ZM661.803 244.927a.654.654 0 0 1-.655-.652l-.032-7.602-1.974 1.405a.654.654 0 1 1-.76-1.067l3.004-2.137a.655.655 0 0 1 1.035.531l.037 8.865a.655.655 0 0 1-.653.657h-.002ZM668.122 244.901a.654.654 0 0 1-.655-.652l-.031-7.602-1.975 1.405a.654.654 0 1 1-.759-1.067l3.004-2.137a.655.655 0 0 1 1.034.531l.037 8.865a.655.655 0 0 1-.653.657h-.002ZM598.948 260.707c-1.693 0-3.027-2.218-3.039-5.054-.005-1.285.264-2.505.758-3.434.563-1.058 1.361-1.642 2.247-1.646h.007c1.693 0 3.027 2.217 3.04 5.054.01 2.842-1.309 5.073-3.006 5.08h-.007Zm-.027-8.825h-.002c-.375.002-.775.348-1.095.952-.389.731-.609 1.756-.605 2.813.009 2.148.92 3.751 1.729 3.751h.002c.81-.003 1.709-1.614 1.701-3.765-.009-2.149-.921-3.751-1.73-3.751ZM606.686 260.675c-1.693 0-3.026-2.217-3.038-5.054-.011-2.842 1.308-5.073 3.005-5.08h.007c1.693 0 3.027 2.218 3.039 5.055.011 2.841-1.309 5.072-3.005 5.079h-.008Zm-.026-8.825h-.002c-.81.003-1.709 1.614-1.701 3.765.009 2.149.92 3.751 1.729 3.751h.002c.81-.003 1.709-1.614 1.701-3.765-.009-2.148-.92-3.751-1.729-3.751ZM654.909 260.478c-1.693 0-3.027-2.217-3.039-5.054-.005-1.285.264-2.504.758-3.434.563-1.058 1.361-1.642 2.247-1.646h.008c1.692 0 3.026 2.218 3.039 5.055.01 2.841-1.309 5.072-3.006 5.079h-.007Zm-.027-8.824h-.002c-.375.001-.775.348-1.096.951-.388.731-.609 1.756-.604 2.813.009 2.149.92 3.751 1.729 3.751h.002c.81-.003 1.709-1.614 1.701-3.765-.009-2.148-.92-3.75-1.73-3.75ZM593.277 260.592a.655.655 0 0 1-.655-.653l-.032-7.601-1.973 1.405a.655.655 0 0 1-.76-1.067l3.003-2.137a.654.654 0 0 1 1.035.531l.037 8.864a.656.656 0 0 1-.653.658h-.002ZM614.536 260.643c-.883 0-1.682-.578-2.252-1.628-.501-.925-.781-2.142-.786-3.427-.005-1.284.264-2.503.758-3.432.563-1.058 1.361-1.643 2.247-1.647.869-.017 1.689.575 2.26 1.628.501.925.781 2.142.786 3.427.005 1.285-.264 2.504-.758 3.433-.563 1.058-1.361 1.642-2.247 1.646h-.008Zm-.026-8.825h-.002c-.375.002-.775.349-1.096.952-.388.731-.609 1.756-.604 2.813.004 1.057.233 2.08.628 2.808.325.599.726.943 1.101.943h.002c.375-.002.775-.348 1.096-.952.388-.731.609-1.756.604-2.812-.004-1.057-.233-2.081-.628-2.809-.325-.599-.726-.943-1.101-.943ZM627.994 260.588c-1.693 0-3.027-2.218-3.039-5.054-.005-1.285.264-2.505.758-3.433.563-1.058 1.361-1.643 2.247-1.647h.008c.883 0 1.682.578 2.252 1.628.501.925.781 2.142.786 3.427.005 1.284-.264 2.503-.758 3.433-.563 1.058-1.361 1.642-2.247 1.646h-.007Zm-.027-8.825h-.002c-.375.002-.775.349-1.096.952-.388.731-.609 1.756-.604 2.813.009 2.148.92 3.751 1.729 3.751h.002c.375-.002.775-.349 1.095-.952.389-.731.61-1.756.605-2.813-.004-1.056-.233-2.08-.628-2.808-.325-.599-.726-.943-1.101-.943ZM622.323 260.473a.654.654 0 0 1-.655-.652l-.032-7.602-1.973 1.405a.656.656 0 0 1-.76-1.067l3.003-2.137a.657.657 0 0 1 1.035.531l.037 8.865a.656.656 0 0 1-.653.657h-.002ZM636.116 260.416a.654.654 0 0 1-.655-.652l-.032-7.601-1.973 1.404a.655.655 0 0 1-.76-1.067l3.003-2.137a.657.657 0 0 1 1.035.531l.036 8.865a.653.653 0 0 1-.652.657h-.002ZM642.621 260.39a.655.655 0 0 1-.655-.653l-.031-7.601-1.975 1.405a.655.655 0 0 1-.759-1.067l3.004-2.137a.655.655 0 0 1 1.034.531l.037 8.864a.656.656 0 0 1-.653.658h-.002ZM649.125 260.363a.654.654 0 0 1-.655-.652l-.031-7.602-1.974 1.405a.656.656 0 0 1-.76-1.067l3.004-2.137a.655.655 0 0 1 1.034.531l.037 8.865a.655.655 0 0 1-.652.657h-.003ZM668.703 260.422c-1.693 0-3.027-2.218-3.039-5.055-.005-1.285.264-2.504.758-3.433.563-1.058 1.361-1.643 2.247-1.646h.008c1.693 0 3.026 2.217 3.038 5.054.011 2.841-1.308 5.073-3.005 5.08h-.007Zm-.026-8.825h-.002c-.376.001-.775.348-1.096.952-.389.73-.61 1.756-.605 2.812.009 2.149.92 3.751 1.729 3.751h.002c.81-.003 1.709-1.614 1.701-3.764-.009-2.149-.92-3.751-1.729-3.751ZM662.919 260.307a.654.654 0 0 1-.655-.652l-.031-7.602-1.975 1.405a.655.655 0 0 1-.759-1.067l3.003-2.137a.657.657 0 0 1 1.035.531l.037 8.865a.656.656 0 0 1-.653.657h-.002ZM676.621 260.467c-1.693 0-3.027-2.218-3.039-5.055-.011-2.841 1.309-5.072 3.005-5.079h.008c1.693 0 3.026 2.217 3.038 5.054.006 1.285-.264 2.504-.757 3.433-.564 1.058-1.361 1.643-2.248 1.647h-.007Zm-.026-8.825h-.003c-.809.003-1.708 1.614-1.7 3.765.009 2.148.92 3.75 1.729 3.75h.002c.376-.001.775-.348 1.096-.952.389-.73.609-1.755.605-2.812-.009-2.149-.92-3.751-1.729-3.751ZM684.408 260.296a.654.654 0 0 1-.655-.652l-.031-7.602-1.974 1.405a.655.655 0 1 1-.76-1.067l3.004-2.137a.655.655 0 0 1 1.035.531l.036 8.865a.654.654 0 0 1-.652.657h-.003ZM702.841 260.359c-1.692 0-3.026-2.217-3.038-5.054-.011-2.842 1.308-5.073 3.005-5.08h.008c1.692 0 3.026 2.218 3.038 5.055.005 1.285-.264 2.504-.758 3.433-.562 1.058-1.361 1.643-2.246 1.646h-.009Zm-.025-8.825h-.003c-.81.004-1.709 1.615-1.7 3.765.009 2.148.919 3.751 1.729 3.751h.002c.375-.002.775-.349 1.096-.952.388-.731.609-1.756.604-2.813-.009-2.148-.919-3.751-1.728-3.751ZM716.299 260.304c-.883 0-1.682-.577-2.252-1.627-.502-.926-.781-2.142-.786-3.427-.005-1.285.263-2.504.758-3.433.562-1.058 1.361-1.643 2.246-1.647h.008c1.693 0 3.026 2.218 3.039 5.055.005 1.285-.265 2.504-.758 3.433-.563 1.058-1.361 1.643-2.247 1.646h-.008Zm-.026-8.824h-.002c-.375.001-.775.348-1.095.952-.389.731-.61 1.756-.605 2.812.003 1.057.232 2.081.627 2.808.325.6.727.943 1.101.943h.003c.375-.001.774-.348 1.095-.952.389-.73.609-1.756.605-2.812-.009-2.149-.92-3.751-1.729-3.751ZM724.036 260.273c-.883 0-1.682-.578-2.252-1.628-.501-.925-.781-2.142-.786-3.427-.005-1.284.264-2.504.758-3.433.563-1.058 1.361-1.643 2.247-1.646.903.021 1.689.574 2.26 1.628.501.925.781 2.142.786 3.426.005 1.285-.264 2.504-.758 3.434-.563 1.058-1.361 1.642-2.247 1.646h-.008Zm-.026-8.825h-.002c-.375.002-.775.348-1.095.952-.389.731-.61 1.756-.605 2.813.004 1.057.233 2.08.628 2.807.325.6.726.943 1.101.943h.002c.375-.001.775-.348 1.095-.951.389-.731.61-1.756.605-2.813-.004-1.057-.233-2.081-.628-2.808-.325-.599-.726-.943-1.101-.943ZM710.628 260.189a.654.654 0 0 1-.655-.652l-.031-7.602-1.975 1.405a.654.654 0 1 1-.76-1.067l3.004-2.137a.655.655 0 0 1 1.035.531l.037 8.865a.656.656 0 0 1-.653.657h-.002ZM731.887 260.24c-1.693.001-3.026-2.217-3.038-5.054-.011-2.841 1.308-5.073 3.005-5.08h.008c1.692 0 3.026 2.218 3.038 5.055.005 1.285-.264 2.504-.758 3.433-.563 1.058-1.361 1.643-2.247 1.646h-.008Zm-.025-8.824h-.003c-.81.003-1.709 1.614-1.701 3.764.009 2.149.92 3.751 1.729 3.751h.003c.375-.001.774-.348 1.095-.952.389-.73.61-1.756.605-2.812-.009-2.149-.919-3.751-1.728-3.751ZM745.345 260.186c-1.693 0-3.027-2.218-3.039-5.055-.005-1.285.264-2.504.758-3.433.563-1.058 1.361-1.643 2.247-1.646h.008c1.692 0 3.026 2.217 3.038 5.054.005 1.285-.263 2.504-.758 3.433-.563 1.058-1.361 1.643-2.246 1.647h-.008Zm-.026-8.825h-.003c-.375.002-.774.348-1.095.952-.389.731-.61 1.756-.605 2.813.009 2.148.92 3.75 1.729 3.75h.002c.375-.001.775-.348 1.095-.951.389-.731.61-1.757.605-2.813-.009-2.149-.919-3.751-1.728-3.751ZM739.674 260.07a.654.654 0 0 1-.655-.652l-.032-7.602-1.974 1.405a.654.654 0 1 1-.76-1.067l3.004-2.137a.657.657 0 0 1 1.035.531l.037 8.865a.655.655 0 0 1-.653.657h-.002ZM690.726 260.27a.655.655 0 0 1-.655-.652l-.031-7.602-1.974 1.405a.654.654 0 1 1-.76-1.067l3.004-2.137a.657.657 0 0 1 1.035.531l.036 8.865a.653.653 0 0 1-.652.657h-.003ZM697.045 260.244a.654.654 0 0 1-.655-.652l-.031-7.601-1.975 1.405a.656.656 0 0 1-.759-1.067l3.004-2.138a.655.655 0 0 1 1.034.531l.037 8.865a.654.654 0 0 1-.652.657h-.003ZM592.958 276.549c-1.692 0-3.026-2.218-3.038-5.055-.011-2.841 1.309-5.072 3.005-5.079h.008c1.692 0 3.026 2.217 3.038 5.054.005 1.285-.263 2.504-.757 3.433-.563 1.058-1.362 1.643-2.247 1.647h-.009Zm-.025-8.825h-.003c-.809.003-1.709 1.614-1.7 3.765.009 2.148.919 3.75 1.729 3.75h.003c.374-.001.774-.348 1.095-.952.388-.73.609-1.755.605-2.812-.009-2.149-.92-3.751-1.729-3.751ZM600.698 276.517c-1.694 0-3.028-2.218-3.039-5.055-.005-1.284.264-2.503.758-3.433.563-1.058 1.361-1.642 2.247-1.646h.008c1.692 0 3.026 2.218 3.038 5.054.005 1.285-.263 2.504-.758 3.434-.563 1.058-1.361 1.642-2.247 1.646h-.007Zm-.026-8.825h-.003c-.375.002-.775.348-1.095.952-.389.731-.609 1.756-.605 2.813.008 2.148.919 3.751 1.729 3.751h.002c.375-.002.775-.349 1.095-.952.389-.731.61-1.756.605-2.813-.009-2.149-.919-3.751-1.728-3.751ZM648.919 276.32c-1.692 0-3.026-2.218-3.038-5.055-.011-2.841 1.308-5.072 3.005-5.079h.008c1.692 0 3.026 2.217 3.038 5.054.005 1.285-.264 2.504-.758 3.433-.563 1.058-1.36 1.643-2.247 1.647h-.008Zm-.025-8.825h-.003c-.809.003-1.709 1.614-1.7 3.765.009 2.148.919 3.75 1.728 3.751h.003c.375-.002.774-.349 1.096-.953.388-.73.609-1.755.605-2.812-.009-2.149-.92-3.751-1.729-3.751ZM608.547 276.485c-1.693 0-3.026-2.218-3.038-5.054-.005-1.285.263-2.504.758-3.433.563-1.058 1.361-1.643 2.246-1.647h.008c1.693 0 3.027 2.218 3.039 5.055.011 2.841-1.308 5.072-3.005 5.079h-.008Zm-.026-8.825h-.002c-.375.002-.775.349-1.095.952-.389.731-.61 1.756-.605 2.813.009 2.148.919 3.751 1.728 3.751h.003c.81-.003 1.709-1.614 1.7-3.765-.008-2.149-.919-3.751-1.729-3.751ZM622.004 276.43c-1.693 0-3.026-2.218-3.038-5.055-.005-1.285.264-2.504.758-3.433.563-1.058 1.361-1.642 2.247-1.646h.008c1.693 0 3.026 2.218 3.038 5.054.011 2.841-1.308 5.073-3.005 5.08h-.008Zm-.025-8.825h-.003c-.375.002-.774.349-1.095.952-.389.731-.61 1.756-.605 2.813.009 2.148.919 3.751 1.728 3.751h.003c.81-.004 1.709-1.615 1.701-3.765-.009-2.149-.92-3.751-1.729-3.751ZM616.333 276.315a.656.656 0 0 1-.655-.653l-.031-7.601-1.974 1.404a.654.654 0 1 1-.759-1.066l3.003-2.137a.655.655 0 0 1 1.035.531l.036 8.864a.655.655 0 0 1-.652.658h-.003ZM630.127 276.259a.655.655 0 0 1-.655-.653l-.031-7.601-1.975 1.404a.654.654 0 1 1-.759-1.067l3.003-2.136a.655.655 0 0 1 1.035.531l.037 8.864a.656.656 0 0 1-.653.658h-.002ZM636.632 276.231a.654.654 0 0 1-.655-.652l-.032-7.601-1.974 1.405a.654.654 0 1 1-.76-1.067l3.004-2.137a.654.654 0 0 1 1.035.531l.037 8.864a.655.655 0 0 1-.653.657h-.002ZM643.136 276.205a.654.654 0 0 1-.655-.652l-.031-7.601-1.974 1.404a.654.654 0 1 1-.76-1.066l3.004-2.137a.653.653 0 0 1 1.034.53l.037 8.865a.654.654 0 0 1-.652.657h-.003ZM662.713 276.263c-1.693.001-3.027-2.217-3.039-5.054-.011-2.841 1.308-5.073 3.005-5.08h.008c1.693 0 3.026 2.218 3.038 5.055.005 1.285-.263 2.504-.758 3.433-.562 1.058-1.36 1.643-2.246 1.646h-.008Zm-.026-8.824h-.003c-.809.003-1.709 1.614-1.7 3.764.009 2.149.919 3.751 1.729 3.751h.003c.374-.001.774-.348 1.094-.952.389-.73.61-1.756.606-2.812-.009-2.149-.92-3.751-1.729-3.751ZM656.929 276.149a.655.655 0 0 1-.655-.653l-.031-7.601-1.974 1.404a.655.655 0 0 1-.76-1.066l3.004-2.137a.656.656 0 0 1 1.035.531l.036 8.864a.655.655 0 0 1-.652.658h-.003ZM670.632 276.308c-.883 0-1.682-.578-2.252-1.628-.502-.925-.781-2.142-.786-3.427-.005-1.284.264-2.503.758-3.432.563-1.058 1.361-1.643 2.246-1.647h.008c1.693 0 3.027 2.218 3.039 5.055.005 1.285-.264 2.504-.758 3.433-.563 1.058-1.361 1.643-2.247 1.646h-.008Zm-.026-8.824h-.002c-.375.001-.775.348-1.096.951-.388.731-.609 1.756-.604 2.813.003 1.057.232 2.081.628 2.808.325.599.726.943 1.1.943h.003c.375-.002.774-.348 1.095-.952.389-.731.609-1.756.605-2.813-.009-2.148-.92-3.75-1.729-3.75ZM678.418 276.138a.654.654 0 0 1-.655-.652l-.031-7.602-1.975 1.405a.654.654 0 1 1-.759-1.067l3.004-2.136a.653.653 0 0 1 1.034.53l.037 8.865a.655.655 0 0 1-.653.657h-.002ZM696.851 276.201c-.882 0-1.682-.577-2.251-1.628-.502-.925-.781-2.141-.786-3.426-.006-1.285.263-2.504.757-3.433.563-1.058 1.361-1.643 2.247-1.647h.008c1.693 0 3.027 2.218 3.038 5.055.005 1.285-.263 2.504-.758 3.433-.562 1.058-1.361 1.643-2.246 1.646h-.009Zm-.025-8.824h-.003c-.374.001-.774.348-1.095.952-.389.731-.609 1.756-.605 2.812.004 1.057.233 2.081.628 2.808.325.6.726.943 1.101.943h.003c.374-.001.774-.348 1.095-.952.388-.73.609-1.756.604-2.812-.008-2.149-.919-3.751-1.728-3.751ZM710.309 276.146c-.882 0-1.682-.578-2.251-1.628-.502-.925-.781-2.142-.786-3.426-.006-1.285.263-2.504.757-3.433.563-1.058 1.361-1.643 2.247-1.647h.008c.883 0 1.682.578 2.252 1.628.502.925.781 2.142.786 3.427.005 1.285-.263 2.504-.758 3.433-.562 1.058-1.361 1.643-2.246 1.646h-.009Zm-.025-8.825h-.003c-.375.002-.774.349-1.095.952-.388.731-.609 1.756-.605 2.813.004 1.057.233 2.08.628 2.808.325.599.726.943 1.101.943h.003c.374-.002.774-.348 1.095-.952.388-.731.609-1.756.604-2.812-.003-1.057-.232-2.081-.627-2.809-.325-.599-.726-.943-1.101-.943ZM718.047 276.115c-1.693 0-3.026-2.218-3.038-5.055-.005-1.285.263-2.504.758-3.433.563-1.058 1.361-1.643 2.246-1.647h.008c1.693 0 3.027 2.218 3.039 5.055.005 1.285-.264 2.504-.758 3.433-.563 1.058-1.361 1.643-2.247 1.647h-.008Zm-.026-8.825h-.002c-.375.001-.775.348-1.095.952-.389.731-.61 1.756-.605 2.813.009 2.148.919 3.75 1.728 3.75h.003c.375-.001.774-.348 1.095-.952.389-.73.609-1.755.606-2.812-.009-2.149-.92-3.751-1.73-3.751ZM704.639 276.031a.655.655 0 0 1-.655-.652l-.032-7.602-1.974 1.405a.654.654 0 1 1-.76-1.067l3.004-2.137a.657.657 0 0 1 1.035.531l.036 8.864a.655.655 0 0 1-.652.658h-.002ZM725.897 276.083c-.882 0-1.682-.578-2.252-1.628-.501-.925-.78-2.142-.786-3.427-.005-1.285.265-2.504.758-3.433.563-1.058 1.361-1.643 2.247-1.646h.008c1.693 0 3.026 2.217 3.038 5.054.005 1.285-.263 2.504-.758 3.433-.562 1.058-1.361 1.643-2.246 1.647h-.009Zm-.025-8.825h-.003c-.375.002-.774.348-1.095.952-.389.731-.609 1.756-.605 2.812.004 1.057.233 2.081.628 2.809.325.599.726.942 1.101.942h.002c.375-.001.775-.348 1.095-.951.389-.731.61-1.757.605-2.813-.009-2.149-.919-3.751-1.728-3.751ZM739.355 276.028c-1.694 0-3.028-2.218-3.039-5.055-.005-1.285.265-2.504.758-3.433.563-1.058 1.361-1.643 2.247-1.646h.008c.883 0 1.682.577 2.252 1.627.502.926.781 2.142.786 3.427.005 1.285-.263 2.504-.758 3.433-.562 1.058-1.361 1.643-2.246 1.647h-.008Zm-.026-8.825h-.003c-.375.001-.774.348-1.095.952-.389.73-.609 1.756-.605 2.812.009 2.149.919 3.751 1.729 3.751h.003c.374-.001.774-.348 1.094-.952.389-.731.61-1.756.605-2.812-.003-1.057-.232-2.081-.628-2.808-.325-.6-.725-.943-1.1-.943ZM733.683 275.912a.654.654 0 0 1-.654-.652l-.032-7.602-1.974 1.405a.654.654 0 1 1-.76-1.067l3.004-2.137a.657.657 0 0 1 1.035.531l.036 8.865a.653.653 0 0 1-.652.657h-.003ZM747.477 275.856a.654.654 0 0 1-.654-.652l-.032-7.602-1.974 1.405a.654.654 0 1 1-.76-1.067l3.004-2.137a.655.655 0 0 1 1.035.531l.036 8.864a.655.655 0 0 1-.652.658h-.003ZM684.737 276.112a.654.654 0 0 1-.655-.652l-.031-7.601-1.974 1.404a.655.655 0 1 1-.76-1.067l3.003-2.136a.655.655 0 0 1 1.035.53l.037 8.865a.655.655 0 0 1-.653.657h-.002ZM691.056 276.087a.655.655 0 0 1-.655-.653l-.031-7.601-1.974 1.405a.654.654 0 1 1-.76-1.067l3.004-2.137a.653.653 0 0 1 1.034.531l.037 8.864a.655.655 0 0 1-.652.658h-.003ZM593.001 291.899c-1.692 0-3.026-2.217-3.038-5.054-.011-2.842 1.308-5.073 3.005-5.08h.008c1.693 0 3.026 2.218 3.038 5.055.005 1.285-.264 2.504-.758 3.433-.563 1.058-1.361 1.643-2.247 1.646h-.008Zm-.025-8.825h-.003c-.809.004-1.709 1.615-1.7 3.766.009 2.148.919 3.75 1.728 3.75h.003c.375-.002.774-.349 1.096-.952.388-.73.609-1.756.605-2.813-.009-2.148-.92-3.751-1.729-3.751ZM606.458 291.844c-1.692 0-3.026-2.217-3.038-5.054-.011-2.842 1.309-5.073 3.005-5.08h.008c1.693 0 3.026 2.218 3.038 5.055.006 1.284-.264 2.504-.757 3.433-.564 1.058-1.362 1.642-2.248 1.646h-.008Zm-.025-8.825h-.003c-.809.003-1.709 1.614-1.7 3.765.009 2.148.919 3.751 1.728 3.751h.003c.375-.002.775-.349 1.096-.952.388-.731.609-1.756.605-2.813-.009-2.148-.92-3.751-1.729-3.751ZM614.197 291.812c-.882 0-1.682-.578-2.252-1.628-.502-.925-.781-2.142-.786-3.426-.005-1.285.264-2.504.758-3.433.563-1.058 1.361-1.643 2.247-1.647h.008c1.692 0 3.026 2.218 3.038 5.055.005 1.285-.263 2.504-.758 3.433-.563 1.058-1.361 1.643-2.247 1.646h-.008Zm-.025-8.824h-.003c-.375.001-.774.348-1.095.951-.389.731-.609 1.757-.605 2.813.004 1.057.233 2.081.627 2.808.326.599.727.943 1.102.943h.002c.375-.002.775-.348 1.095-.952.389-.731.61-1.756.605-2.812-.009-2.149-.919-3.751-1.728-3.751ZM662.419 291.615c-1.692 0-3.026-2.217-3.038-5.054-.011-2.842 1.309-5.073 3.005-5.08h.008c1.693 0 3.026 2.218 3.038 5.055.005 1.284-.264 2.504-.758 3.433-.563 1.058-1.361 1.642-2.247 1.646h-.008Zm-.025-8.825h-.003c-.809.003-1.709 1.614-1.7 3.765.009 2.148.919 3.751 1.728 3.751h.003c.375-.002.775-.349 1.096-.952.388-.731.609-1.756.605-2.813-.009-2.148-.92-3.751-1.729-3.751ZM600.788 291.728a.654.654 0 0 1-.655-.652l-.031-7.601-1.975 1.405a.655.655 0 0 1-.759-1.067l3.004-2.137a.653.653 0 0 1 1.034.531l.037 8.864a.654.654 0 0 1-.652.657h-.003ZM622.047 291.78c-1.693 0-3.026-2.217-3.038-5.054-.005-1.285.264-2.504.758-3.433.563-1.058 1.361-1.643 2.246-1.647h.008c1.693 0 3.027 2.218 3.039 5.055.011 2.841-1.308 5.072-3.005 5.079h-.008Zm-.026-8.824h-.002c-.375.001-.775.348-1.096.952-.388.73-.609 1.755-.604 2.812.009 2.149.919 3.751 1.728 3.751h.003c.81-.003 1.709-1.614 1.7-3.765-.009-2.148-.919-3.75-1.729-3.75ZM635.504 291.725c-1.692 0-3.026-2.217-3.038-5.054-.005-1.285.264-2.504.758-3.434.563-1.058 1.361-1.642 2.247-1.646h.008c1.693 0 3.026 2.218 3.038 5.055.011 2.841-1.308 5.072-3.005 5.079h-.008Zm-.025-8.824h-.003c-.375.001-.774.348-1.095.951-.389.731-.61 1.756-.605 2.813.009 2.149.919 3.751 1.728 3.751h.003c.81-.003 1.709-1.614 1.7-3.765-.009-2.148-.919-3.75-1.728-3.75ZM629.833 291.61a.655.655 0 0 1-.655-.652l-.031-7.601-1.974 1.404a.654.654 0 1 1-.759-1.067l3.003-2.137a.657.657 0 0 1 1.035.531l.036 8.865a.654.654 0 0 1-.652.657h-.003ZM643.628 291.554a.655.655 0 0 1-.655-.652l-.031-7.602-1.975 1.405a.654.654 0 1 1-.76-1.067l3.004-2.137a.657.657 0 0 1 1.035.531l.037 8.864a.656.656 0 0 1-.653.658h-.002ZM650.132 291.527a.654.654 0 0 1-.655-.652l-.031-7.602-1.975 1.405a.655.655 0 1 1-.759-1.067l3.003-2.137a.657.657 0 0 1 1.035.531l.037 8.865a.656.656 0 0 1-.653.657h-.002ZM656.636 291.5a.654.654 0 0 1-.655-.652l-.031-7.601-1.974 1.404a.655.655 0 0 1-.76-1.067l3.004-2.137a.655.655 0 0 1 1.035.531l.036 8.865a.654.654 0 0 1-.652.657h-.003ZM676.214 291.559c-1.693 0-3.027-2.218-3.039-5.055-.011-2.841 1.308-5.072 3.005-5.079h.008c1.693 0 3.026 2.217 3.038 5.054.005 1.285-.264 2.504-.758 3.433-.562 1.058-1.361 1.643-2.246 1.647h-.008Zm-.026-8.825h-.003c-.809.003-1.709 1.614-1.7 3.765.009 2.148.919 3.751 1.729 3.751h.003c.374-.002.774-.349 1.095-.952.388-.731.609-1.756.605-2.813-.009-2.149-.92-3.751-1.729-3.751ZM670.43 291.444a.654.654 0 0 1-.655-.652l-.031-7.602-1.974 1.405a.654.654 0 1 1-.76-1.067l3.004-2.137a.655.655 0 0 1 1.035.531l.036 8.865a.655.655 0 0 1-.652.657h-.003ZM684.132 291.604c-1.693 0-3.027-2.218-3.038-5.055-.005-1.285.263-2.504.758-3.433.562-1.058 1.361-1.643 2.246-1.646h.009c1.692 0 3.025 2.217 3.038 5.054.005 1.285-.264 2.504-.758 3.433-.563 1.058-1.361 1.643-2.247 1.647h-.008Zm-.026-8.825h-.002c-.375.002-.775.348-1.095.952-.389.731-.61 1.756-.605 2.812.008 2.149.919 3.751 1.728 3.751h.003c.375-.001.774-.348 1.095-.951.389-.731.609-1.757.605-2.813-.009-2.149-.92-3.751-1.729-3.751ZM691.918 291.434a.655.655 0 0 1-.655-.652l-.031-7.602-1.975 1.405a.655.655 0 0 1-.759-1.067l3.003-2.137a.655.655 0 0 1 1.035.531l.037 8.864a.656.656 0 0 1-.653.658h-.002ZM710.352 291.497c-.882 0-1.682-.578-2.251-1.628-.502-.925-.781-2.143-.786-3.427-.006-1.285.263-2.504.757-3.433.563-1.058 1.361-1.643 2.247-1.646.869-.015 1.689.574 2.26 1.627.502.926.781 2.142.786 3.427.005 1.285-.264 2.504-.758 3.433-.562 1.058-1.361 1.643-2.246 1.647h-.009Zm-.025-8.825h-.003c-.375.001-.774.348-1.095.952-.389.73-.609 1.756-.605 2.812.004 1.057.233 2.081.628 2.808.325.6.726.943 1.101.943h.003c.374-.001.774-.348 1.095-.952.388-.73.609-1.755.605-2.812-.004-1.057-.233-2.081-.629-2.808-.324-.6-.725-.943-1.1-.943ZM723.809 291.442c-.882 0-1.682-.578-2.251-1.628-.502-.925-.781-2.143-.786-3.427-.006-1.285.263-2.504.757-3.433.563-1.058 1.361-1.643 2.247-1.646h.008c.883 0 1.683.578 2.252 1.628.502.925.781 2.142.786 3.426.005 1.285-.264 2.504-.757 3.433-.563 1.058-1.361 1.643-2.247 1.647h-.009Zm-.025-8.825h-.003c-.374.001-.774.348-1.095.952-.388.73-.609 1.756-.605 2.812.004 1.057.233 2.081.628 2.808.325.6.726.943 1.101.943h.003c.374-.001.774-.348 1.095-.952.388-.73.609-1.756.605-2.812-.004-1.057-.233-2.081-.628-2.808-.325-.599-.726-.943-1.101-.943ZM731.548 291.41c-1.693 0-3.026-2.218-3.038-5.055-.005-1.284.264-2.503.758-3.433.563-1.058 1.361-1.642 2.246-1.646h.008c1.693 0 3.027 2.218 3.039 5.054.011 2.841-1.308 5.073-3.005 5.08h-.008Zm-.026-8.825h-.002c-.375.002-.775.349-1.096.952-.388.731-.609 1.756-.604 2.813.009 2.148.919 3.751 1.728 3.751h.003c.81-.004 1.709-1.615 1.7-3.765-.009-2.148-.919-3.751-1.729-3.751ZM718.139 291.326a.654.654 0 0 1-.655-.652l-.032-7.602-1.974 1.405a.654.654 0 1 1-.76-1.067l3.004-2.137a.657.657 0 0 1 1.035.531l.037 8.865a.656.656 0 0 1-.653.657h-.002ZM739.398 291.378c-1.694 0-3.028-2.218-3.039-5.055-.005-1.285.264-2.504.758-3.433.563-1.058 1.361-1.643 2.247-1.646h.008c1.693 0 3.026 2.217 3.038 5.054.005 1.285-.263 2.504-.758 3.433-.563 1.058-1.361 1.643-2.246 1.647h-.008Zm-.026-8.825h-.003c-.375.002-.774.348-1.095.952-.389.731-.609 1.756-.605 2.812.009 2.149.919 3.751 1.729 3.751h.002c.375-.001.775-.348 1.095-.951.389-.731.61-1.757.605-2.813-.009-2.149-.919-3.751-1.728-3.751ZM747.184 291.208a.655.655 0 0 1-.654-.653l-.032-7.601-1.974 1.405a.655.655 0 0 1-.76-1.067l3.004-2.137a.655.655 0 0 1 1.035.531l.036 8.864a.655.655 0 0 1-.652.658h-.003ZM698.237 291.407a.655.655 0 0 1-.655-.652l-.031-7.601-1.974 1.404a.655.655 0 0 1-.76-1.067l3.004-2.136a.654.654 0 0 1 1.035.531l.036 8.864a.654.654 0 0 1-.652.657h-.003ZM704.556 291.382a.655.655 0 0 1-.655-.653l-.031-7.601-1.974 1.405a.655.655 0 0 1-.76-1.067l3.004-2.137a.653.653 0 0 1 1.034.531l.037 8.864a.655.655 0 0 1-.652.658h-.003ZM599.012 307.262c-1.692 0-3.025-2.217-3.037-5.054-.005-1.285.263-2.504.758-3.433.562-1.058 1.36-1.643 2.246-1.647h.008c1.693 0 3.027 2.218 3.039 5.055.005 1.285-.264 2.504-.759 3.433-.562 1.058-1.36 1.643-2.246 1.646h-.009Zm-.025-8.824h-.003c-.374.001-.774.348-1.095.952-.388.731-.609 1.756-.605 2.812.009 2.149.92 3.751 1.729 3.751h.003c.374-.001.774-.348 1.095-.952.389-.73.61-1.756.605-2.813-.009-2.148-.919-3.75-1.729-3.75ZM606.751 307.231c-1.692 0-3.026-2.218-3.038-5.055-.011-2.841 1.309-5.072 3.005-5.079h.008c1.693 0 3.026 2.217 3.038 5.054.006 1.285-.264 2.504-.758 3.434-.563 1.058-1.361 1.642-2.247 1.646h-.008Zm-.025-8.825h-.003c-.809.003-1.708 1.614-1.7 3.765.009 2.148.919 3.75 1.729 3.75h.002c.375-.001.775-.348 1.096-.951.388-.731.609-1.756.605-2.813-.009-2.149-.92-3.751-1.729-3.751ZM654.973 307.033c-1.692 0-3.025-2.217-3.037-5.054-.005-1.285.263-2.504.757-3.433.563-1.058 1.361-1.643 2.247-1.647h.008c1.693 0 3.027 2.218 3.039 5.055.005 1.285-.264 2.504-.759 3.433-.562 1.058-1.361 1.643-2.246 1.646h-.009Zm-.025-8.824h-.003c-.374.001-.774.348-1.095.952-.388.731-.609 1.756-.605 2.812.009 2.149.92 3.751 1.729 3.751h.003c.374-.001.774-.348 1.095-.952.389-.73.61-1.756.605-2.813-.009-2.148-.92-3.75-1.729-3.75ZM593.342 307.147a.655.655 0 0 1-.655-.652l-.031-7.602-1.974 1.405a.654.654 0 1 1-.759-1.067l3.003-2.137a.657.657 0 0 1 1.035.531l.036 8.865a.655.655 0 0 1-.652.657h-.003ZM614.601 307.199c-.882 0-1.682-.578-2.251-1.628-.502-.925-.781-2.142-.786-3.427-.006-1.285.264-2.504.757-3.433.563-1.058 1.361-1.642 2.247-1.646h.008c.883 0 1.683.578 2.252 1.628.502.925.781 2.142.786 3.426.005 1.285-.263 2.504-.758 3.433-.562 1.058-1.361 1.643-2.246 1.647h-.009Zm-.025-8.825h-.003c-.374.002-.774.349-1.095.952-.388.731-.609 1.756-.605 2.813.004 1.057.233 2.08.628 2.808.325.599.726.943 1.101.943h.003c.374-.002.774-.349 1.095-.952.388-.731.609-1.756.605-2.813-.004-1.057-.233-2.08-.629-2.808-.324-.599-.725-.943-1.1-.943ZM628.059 307.144c-1.692 0-3.026-2.218-3.038-5.055-.006-1.285.264-2.504.757-3.433.563-1.058 1.361-1.643 2.247-1.646h.009c.882 0 1.682.578 2.251 1.628.502.925.781 2.142.786 3.426.005 1.285-.263 2.504-.757 3.433-.563 1.058-1.361 1.643-2.247 1.647h-.008Zm-.026-8.825h-.003c-.374.002-.774.348-1.095.952-.388.731-.609 1.756-.605 2.813.009 2.148.92 3.75 1.729 3.751h.003c.374-.002.774-.349 1.095-.952.388-.731.609-1.756.605-2.813-.004-1.057-.233-2.08-.629-2.808-.324-.599-.725-.943-1.1-.943ZM622.387 307.028a.654.654 0 0 1-.655-.652l-.031-7.601-1.974 1.404a.654.654 0 1 1-.76-1.067l3.004-2.137a.655.655 0 0 1 1.035.531l.036 8.865a.654.654 0 0 1-.652.657h-.003ZM636.181 306.972a.655.655 0 0 1-.655-.652l-.031-7.602-1.974 1.405a.654.654 0 1 1-.76-1.067l3.004-2.137a.655.655 0 0 1 1.034.531l.037 8.864a.655.655 0 0 1-.652.658h-.003ZM642.686 306.945a.654.654 0 0 1-.655-.652l-.032-7.601-1.974 1.405a.656.656 0 0 1-.76-1.067l3.004-2.137a.654.654 0 0 1 1.035.53l.036 8.865a.653.653 0 0 1-.652.657h-.002ZM649.19 306.919a.656.656 0 0 1-.655-.653l-.031-7.601-1.974 1.404a.654.654 0 1 1-.76-1.067l3.004-2.136a.654.654 0 0 1 1.035.531l.036 8.864a.655.655 0 0 1-.652.658h-.003ZM668.767 306.977c-1.693 0-3.026-2.217-3.038-5.054-.006-1.285.264-2.504.757-3.433.564-1.058 1.361-1.643 2.248-1.647h.008c1.692 0 3.026 2.218 3.038 5.055.011 2.841-1.309 5.072-3.005 5.079h-.008Zm-.025-8.824h-.003c-.376.001-.775.348-1.096.951-.388.731-.609 1.756-.605 2.813.009 2.149.92 3.751 1.729 3.751h.003c.809-.003 1.708-1.614 1.7-3.765-.009-2.148-.919-3.75-1.728-3.75ZM662.984 306.863a.656.656 0 0 1-.655-.653l-.031-7.601-1.974 1.405a.655.655 0 0 1-.76-1.067l3.004-2.137a.654.654 0 0 1 1.035.531l.036 8.864a.655.655 0 0 1-.652.658h-.003ZM676.686 307.022c-1.692 0-3.026-2.218-3.038-5.054-.006-1.285.264-2.505.758-3.434.563-1.058 1.361-1.642 2.247-1.646h.008c1.692 0 3.026 2.218 3.038 5.054.005 1.285-.264 2.505-.758 3.434-.563 1.058-1.361 1.642-2.247 1.646h-.008Zm-.026-8.825h-.002c-.375.002-.775.349-1.096.952-.389.731-.609 1.756-.605 2.813.009 2.149.92 3.751 1.729 3.751h.003c.375-.002.774-.349 1.095-.952.389-.731.61-1.756.605-2.813-.009-2.148-.92-3.751-1.729-3.751ZM684.473 306.852a.654.654 0 0 1-.655-.652l-.032-7.602-1.974 1.405a.655.655 0 0 1-.76-1.067l3.004-2.137a.655.655 0 0 1 1.035.531l.036 8.865a.654.654 0 0 1-.652.657h-.002ZM702.907 306.915c-1.692 0-3.027-2.218-3.039-5.055-.011-2.841 1.309-5.072 3.005-5.079h.008c1.693 0 3.026 2.217 3.039 5.054.005 1.285-.265 2.504-.758 3.433-.563 1.058-1.361 1.643-2.247 1.647h-.008Zm-.026-8.825h-.002c-.81.003-1.709 1.614-1.701 3.765.009 2.148.92 3.751 1.729 3.751h.003c.375-.002.774-.349 1.096-.952.388-.731.608-1.756.604-2.813-.009-2.149-.92-3.751-1.729-3.751ZM716.364 306.86c-.883 0-1.682-.578-2.252-1.628-.501-.925-.781-2.142-.786-3.427-.005-1.284.264-2.503.758-3.432.563-1.058 1.361-1.643 2.247-1.647h.008c1.692 0 3.026 2.218 3.038 5.055.005 1.284-.264 2.503-.758 3.433-.563 1.058-1.361 1.642-2.247 1.646h-.008Zm-.025-8.825h-.003c-.375.002-.774.349-1.095.952-.389.731-.609 1.756-.605 2.813.004 1.057.233 2.08.628 2.808.325.599.726.943 1.101.943h.002c.375-.002.775-.349 1.096-.952.388-.731.609-1.756.604-2.813-.009-2.148-.919-3.751-1.728-3.751ZM724.101 306.828c-.882 0-1.682-.578-2.251-1.628-.502-.925-.781-2.142-.786-3.426-.006-1.285.264-2.504.758-3.433.562-1.058 1.36-1.643 2.246-1.647h.008c.883 0 1.683.578 2.252 1.628.502.925.781 2.142.786 3.427.005 1.285-.263 2.504-.757 3.433-.563 1.058-1.362 1.643-2.247 1.646h-.009Zm-.025-8.824h-.003c-.374.001-.774.348-1.095.952-.388.73-.609 1.756-.605 2.812.004 1.057.233 2.081.628 2.808.325.599.726.943 1.101.943h.003c.374-.002.774-.348 1.095-.952.388-.731.609-1.756.605-2.812-.004-1.057-.233-2.081-.629-2.808-.324-.6-.725-.943-1.1-.943ZM710.692 306.744a.654.654 0 0 1-.654-.652l-.032-7.601-1.974 1.405a.655.655 0 0 1-.76-1.067l3.004-2.137a.654.654 0 0 1 1.035.53l.036 8.865a.653.653 0 0 1-.652.657h-.003ZM731.953 306.796c-1.693 0-3.027-2.218-3.039-5.054-.005-1.286.264-2.505.759-3.434.562-1.058 1.361-1.642 2.246-1.646h.009c1.692 0 3.025 2.218 3.037 5.054.006 1.285-.264 2.504-.757 3.434-.564 1.058-1.361 1.642-2.248 1.646h-.007Zm-.026-8.825h-.003c-.375.002-.774.349-1.095.952-.389.731-.61 1.756-.605 2.813.009 2.149.92 3.751 1.729 3.751h.002c.376-.002.775-.349 1.096-.952.389-.731.609-1.756.605-2.813-.009-2.148-.92-3.751-1.729-3.751ZM745.41 306.741c-1.693 0-3.027-2.217-3.039-5.054-.011-2.842 1.309-5.073 3.005-5.08h.008c1.692 0 3.026 2.218 3.038 5.054.006 1.285-.264 2.505-.757 3.434-.563 1.058-1.361 1.642-2.247 1.646h-.008Zm-.026-8.825h-.003c-.809.003-1.708 1.614-1.7 3.765.009 2.148.92 3.751 1.729 3.751h.003c.375-.002.774-.349 1.095-.952.389-.731.609-1.756.605-2.813-.009-2.148-.92-3.751-1.729-3.751ZM739.738 306.626a.654.654 0 0 1-.655-.652l-.031-7.602-1.974 1.405a.655.655 0 0 1-.76-1.067l3.004-2.137a.655.655 0 0 1 1.035.531l.036 8.865a.654.654 0 0 1-.652.657h-.003ZM690.792 306.826a.654.654 0 0 1-.655-.652l-.031-7.602-1.975 1.405a.654.654 0 1 1-.759-1.067l3.004-2.137a.653.653 0 0 1 .678-.048.653.653 0 0 1 .356.579l.037 8.865a.655.655 0 0 1-.653.657h-.002ZM697.11 306.8a.655.655 0 0 1-.655-.652l-.031-7.602-1.974 1.405a.655.655 0 0 1-.76-1.067l3.004-2.137a.657.657 0 0 1 1.035.531l.036 8.865a.655.655 0 0 1-.652.657h-.003Z"/>
    <path fill="#C4E3F7" d="M278.482 220.48c-7.192-13.919-22.471-23.524-40.157-23.524-22.131 0-40.489 15.041-43.955 34.752-14.089.235-25.432 10.95-25.432 24.136 0 13.333 11.597 24.141 25.904 24.141h81.659c17.649 0 31.957-13.334 31.957-29.782 0-15.828-13.249-28.769-29.976-29.723Z"/>
    <path fill="#0552CE" d="M321.556 245.365c3.128 0 5.664-2.528 5.664-5.648 0-3.119-2.536-5.648-5.664-5.648-3.128 0-5.664 2.529-5.664 5.648 0 3.12 2.536 5.648 5.664 5.648ZM305.026 245.365c3.128 0 5.664-2.528 5.664-5.648 0-3.119-2.536-5.648-5.664-5.648-3.129 0-5.665 2.529-5.665 5.648 0 3.12 2.536 5.648 5.665 5.648ZM288.495 245.365c3.129 0 5.665-2.528 5.665-5.648 0-3.119-2.536-5.648-5.665-5.648-3.128 0-5.664 2.529-5.664 5.648 0 3.12 2.536 5.648 5.664 5.648Z"/>
    <path fill="#061857" d="M372.746 273.703a.654.654 0 0 1-.654-.655V240.19h-40.144a.655.655 0 1 1 0-1.309h40.798c.362 0 .655.293.655.654v33.513a.655.655 0 0 1-.655.655ZM239.45 240.25h-30.971a.654.654 0 1 1 0-1.309h30.971a.655.655 0 1 1 0 1.309ZM275.016 240.25h-29.158a.654.654 0 1 1 0-1.309h29.158a.655.655 0 1 1 0 1.309ZM225.676 251.302h-17.197a.654.654 0 1 1 0-1.309h17.197a.655.655 0 1 1 0 1.309ZM261.975 251.302h-29.796a.654.654 0 1 1 0-1.309h29.796a.655.655 0 1 1 0 1.309ZM261.975 262.573h-53.496a.655.655 0 1 1 0-1.309h53.496a.654.654 0 1 1 0 1.309Z"/>
    <path fill="#F3F3F3" d="M467.243 470.637a35.166 35.166 0 0 0 25.554-19.066c7.539-15.242 16.098-30.036 22.567-40.713a38.04 38.04 0 0 1 29.208-18.182c29.587-2.594 60.316-3.009 80.076-2.929 13.77.056 26.403 7.651 32.84 19.788 11.595 21.864 20.827 46.378 27.349 66.194 6.273 19.06-7.917 39.09-28.034 39.171-30.812.126-98.729 0-98.729 0l-15.421-50.85-23.909 34.435c-7.141 10.284-14.82 16.386-14.82 16.386s-23.796-.015-27.703-.025a143.094 143.094 0 0 0-21.254-42.037c4.4-.8 8.546-1.529 12.276-2.172Z"/>
    <path fill="#061857" d="M617.595 515.61c-29.035 0-59.071-.054-59.523-.055a.654.654 0 0 1-.625-.465l-15.028-49.555-23.138 33.324c-7.113 10.245-14.872 16.462-14.949 16.524a.657.657 0 0 1-.408.142s-23.798-.015-27.705-.024a.654.654 0 0 1-.623-.46 141.825 141.825 0 0 0-21.157-41.845.652.652 0 0 1 .41-1.031c4.013-.729 8.146-1.46 12.282-2.173 10.831-1.866 20.206-8.861 25.078-18.711 7.732-15.631 16.555-30.794 22.595-40.762 6.368-10.508 17.474-17.423 29.711-18.495 29.338-2.572 59.783-3.014 80.136-2.931 14.055.057 26.859 7.772 33.415 20.136 9.75 18.385 18.966 40.69 27.393 66.296 3.08 9.358 1.512 19.351-4.302 27.415-5.751 7.977-14.627 12.575-24.352 12.615-10.205.042-24.582.055-39.21.055Zm-59.036-1.363c6.177.011 69.149.118 98.241-.001 9.3-.038 17.792-4.438 23.295-12.072 5.565-7.72 7.067-17.284 4.119-26.24-8.403-25.536-17.59-47.772-27.305-66.092-6.33-11.936-18.692-19.385-32.263-19.44-20.345-.081-50.729.358-80.017 2.926-11.822 1.036-22.553 7.716-28.705 17.869-6.026 9.946-14.829 25.075-22.541 40.665-5.057 10.223-14.787 17.483-26.029 19.42-3.781.651-7.558 1.318-11.244 1.985a143.082 143.082 0 0 1 20.593 40.925c4.753.009 24.609.022 26.988.024 1.178-.974 8.105-6.874 14.514-16.104l23.91-34.435a.656.656 0 0 1 1.164.183l15.28 50.387Z"/>
    <path fill="#061857" d="M541.289 462.563a.653.653 0 0 1-.622-.453l-12.414-38.27a.654.654 0 0 1 1.246-.404l12.413 38.27a.654.654 0 0 1-.623.857ZM599.051 474.139a.654.654 0 0 1-.019-1.309l41.889-1.303a.655.655 0 1 1 .041 1.308l-41.889 1.304h-.022Z"/>
    <path fill="#061857" d="M630.926 472.903a.656.656 0 0 1-.62-.444 232.997 232.997 0 0 0-9.901-24.37.655.655 0 0 1 1.183-.56 234.047 234.047 0 0 1 9.957 24.507.653.653 0 0 1-.619.867Z"/>
    <path fill="#F3F3F3" d="M594.111 473.749s-39.255 6.969-55.635 9.396c-28.056 4.156-33.09 19.786-34.455 26.258-.592 2.811 1.591 5.443 4.472 5.443h109.891s-6.643-32.814-24.273-41.097Z"/>
    <path fill="#061857" d="M618.384 515.5H508.493a5.217 5.217 0 0 1-4.069-1.936 5.114 5.114 0 0 1-1.043-4.296c3.073-14.577 15.176-23.834 34.999-26.771 16.183-2.397 55.224-9.323 55.617-9.393a.658.658 0 0 1 .393.052c17.724 8.328 24.362 40.207 24.636 41.56a.655.655 0 0 1-.642.784Zm-24.365-41.07c-3.104.55-39.857 7.053-55.447 9.362-19.233 2.85-30.959 11.752-33.91 25.746a3.815 3.815 0 0 0 .779 3.201 3.911 3.911 0 0 0 3.052 1.452h109.075c-1.146-4.993-8.056-32.289-23.549-39.761Z"/>
    <path fill="#061857" d="M534.215 515.5a.79.79 0 0 1-.068-.003c-2.214-.228-3.577-2.517-3.571-4.507.006-2.045 1.105-3.883 2.061-5.257 4.811-6.911 12.331-11.742 20.632-13.252a.655.655 0 0 1 .234 1.288c-7.962 1.449-15.175 6.082-19.79 12.712-.848 1.217-1.822 2.83-1.827 4.513-.004 1.427.957 3.053 2.396 3.201a.654.654 0 0 1-.067 1.305ZM523.394 515.501a.654.654 0 0 1-.298-.072c-1.875-.96-3.167-3.067-3.37-5.499-.2-2.386.614-4.679 1.243-6.195 2.942-7.092 8.667-12.938 15.707-16.037a.655.655 0 0 1 .528 1.198c-6.735 2.965-12.211 8.556-15.025 15.341-.917 2.209-1.281 3.984-1.148 5.584.166 1.984 1.187 3.687 2.663 4.442a.655.655 0 0 1-.3 1.238ZM512.99 515.501a.655.655 0 0 1-.371-.116c-1.567-1.077-2.59-2.957-2.807-5.156-.212-2.142.364-4.254.816-5.657 2.431-7.544 8.943-15.454 15.836-19.237a.654.654 0 1 1 .63 1.148c-6.624 3.635-12.882 11.238-15.219 18.491-.67 2.08-.904 3.661-.76 5.127.177 1.787 1.016 3.36 2.246 4.206a.654.654 0 0 1-.371 1.194Z"/>
    <path fill="#F3F3F3" d="M476.221 514.846h-92.897s-5.809-15.755 19.105-28.301c14.756-7.431 52.537-13.736 52.537-13.736s16.784 18.234 21.255 42.037Z"/>
    <path fill="#061857" d="M476.221 515.501h-92.896a.655.655 0 0 1-.615-.429c-.06-.163-5.72-16.449 19.425-29.111 14.676-7.39 52.345-13.735 52.724-13.798.221-.037.44.04.59.202.169.184 16.962 18.647 21.416 42.36a.652.652 0 0 1-.644.776Zm-92.408-1.31h91.614c-4.296-21.455-18.689-38.386-20.708-40.676-3.879.665-38.254 6.696-51.994 13.615-21.843 10.999-19.574 24.503-18.912 27.061Z"/>
    <path fill="#061857" d="M418.575 515.018a.647.647 0 0 1-.452-.182c-1.682-1.605-2.062-4.474-.903-6.822.919-1.864 2.697-3.433 5.142-4.537 1.765-.797 3.679-1.301 5.532-1.789 3.127-.823 6.081-1.601 8.279-3.663 2.191-2.055 3.225-5.283 2.634-8.224a.654.654 0 1 1 1.284-.257c.678 3.374-.508 7.078-3.021 9.436-2.441 2.289-5.695 3.145-8.843 3.974-1.799.474-3.661.964-5.325 1.716-1.511.682-3.518 1.916-4.508 3.923-.782 1.585-.816 3.914.633 5.297a.655.655 0 0 1-.452 1.128ZM394.474 514.068a.656.656 0 0 1-.6-.39c-1.359-3.065-.176-7.023 3.248-10.858 6.3-7.06 15.158-11.571 22.974-15.551a.654.654 0 0 1 .595 1.167c-7.713 3.927-16.455 8.379-22.592 15.255-1.45 1.626-4.649 5.801-3.027 9.457a.654.654 0 0 1-.598.92ZM543.122 352.702c-1.203-5.613.554-11.628 4.027-16.205 3.473-4.578 8.523-7.801 13.924-9.787 5.401-1.986 11.165-2.804 16.907-3.218 5.41-.389 11.041-.392 16.006 1.785 2.73 1.197 5.252 3.129 6.539 5.812 1.889 3.938.52 9.144-3.063 11.653 4.634-1.853 10.285-.261 13.661 3.407 3.377 3.668 4.528 9.085 3.47 13.951-1.058 4.865-4.154 9.157-8.114 12.189-3.96 3.033-8.739 4.876-13.627 5.894-9.815 2.046-20.288.816-29.358-3.449-2.132-1.003-4.221-2.193-5.848-3.894-1.617-1.692-1.613-4.038-2.923-5.676-1.011-1.263-3.265-1.557-4.632-2.414-3.545-2.22-6.096-5.978-6.969-10.048Z"/>
    <path fill="#F3F3F3" d="m581.525 374.38 10.094 13.319a8.255 8.255 0 0 1 1.653 5.824c-.476 4.625-2.379 12.451-9.733 14.207-10.597 2.531-19.164-13.029-19.164-13.029l17.15-20.321Z"/>
    <path fill="#061857" d="M581.157 408.668c-9.718 0-17.024-13.049-17.355-13.651a.654.654 0 0 1 .073-.738l17.15-20.321a.694.694 0 0 1 .518-.232.654.654 0 0 1 .504.259l10.094 13.318a8.886 8.886 0 0 1 1.783 6.288c-.486 4.722-2.462 12.921-10.232 14.776a10.86 10.86 0 0 1-2.535.301Zm-15.983-13.897c1.396 2.345 9.134 14.489 18.213 12.323 6.985-1.668 8.783-9.26 9.233-13.637.197-1.903-.344-3.807-1.522-5.363l-9.6-12.666-16.324 19.343Z"/>
    <path fill="#F3F3F3" d="M582.944 381.093s-5.895 17.455-22.872 15.32c-16.976-2.134-11.449-35.306-8.409-47.057 0 0 22.293 2.587 23.399 10.115 1.105 7.527-4.41 9.64.368 13.504 4.402 3.56 7.514-3.313 7.514-3.313s5.494-6.981 11.612-.796c6.208 6.276-3.277 15.001-11.612 12.227Z"/>
    <path fill="#061857" d="M562.878 397.247c-.926 0-1.888-.059-2.888-.184-3.516-.442-6.331-2.186-8.366-5.183-6.652-9.798-3.504-31.443-.595-42.688a.657.657 0 0 1 .709-.487c.931.109 22.806 2.737 23.972 10.67.507 3.458-.311 5.805-.968 7.691-.816 2.343-1.226 3.519 1.1 5.4.932.754 1.819 1.019 2.712.808 2.244-.529 3.778-3.849 3.793-3.883a.708.708 0 0 1 .082-.134c.108-.138 2.702-3.38 6.432-3.592 2.17-.126 4.24.8 6.16 2.74 2.479 2.506 2.869 5.754 1.044 8.688-2.209 3.553-7.495 6.224-12.728 4.802-1.176 2.892-7.026 15.352-20.459 15.352Zm-10.723-47.172c-2.813 11.174-5.732 31.814.553 41.069 1.814 2.672 4.319 4.226 7.446 4.62.934.117 1.835.173 2.701.173 14.212.001 19.414-14.894 19.468-15.054a.653.653 0 0 1 .827-.411c4.744 1.578 9.821-.883 11.803-4.07 1.505-2.421 1.191-5-.863-7.076-1.644-1.662-3.377-2.452-5.155-2.354-2.909.165-5.1 2.644-5.433 3.041-.278.581-1.97 3.901-4.644 4.535-1.298.307-2.587-.051-3.84-1.064-3.042-2.46-2.333-4.494-1.513-6.849.61-1.75 1.37-3.929.909-7.07-.822-5.593-15.83-8.668-22.259-9.49Z"/>
    <path fill="#061857" d="M583.313 378.547a.657.657 0 0 1-.611-.891c.927-2.394 3.37-4.153 5.941-4.277a.671.671 0 0 1 .685.622.656.656 0 0 1-.623.686c-2.069.1-4.035 1.515-4.781 3.441a.654.654 0 0 1-.611.419ZM810.68 426.058c-1.513-12.343-9.482-23.39-20.105-29.678-5.735-3.396-12.467-4.97-17.855-8.967-5.105-3.788-7.63-9.577-9.296-15.522-1.654-5.905-2.619-12.039-5.06-17.702-2.384-5.533-6.279-10.42-11.118-14.02-4.794-3.566-10.55-5.849-16.545-6.175-5.952-.322-12.022 1.211-17.093 4.34-5.097 3.146-9.071 7.901-10.903 13.622-1.776 5.546-1.657 11.699.496 17.121a21.913 21.913 0 0 0 3.585 5.986c.239 1.146.838 2.206 1.779 2.943 1.235 4.308 3.731 8.313 6.455 11.817 4.352 5.597 9.606 10.675 12.556 17.222 5.525 12.261 2.508 26.293 6.659 38.899 1.891 5.741 5.422 10.683 10.33 14.24 4.637 3.361 10.131 5.409 15.739 6.451 6.135 1.141 12.469 1.055 18.605-.041 6.585-1.177 13.05-3.614 18.398-7.682 9.974-7.584 14.884-20.541 13.373-32.854Zm-102.953-50.037c.01-.018.014-.04-.004-.06l-.057-.066c-.58-1.322-.561-2.924.109-4.2a19.239 19.239 0 0 0 .5 5.2 4.424 4.424 0 0 1-.548-.874Z"/>
    <path fill="#F3F3F3" d="m676.647 643.926 45.671 78.302c4.477 7.676-1.339 17.117-10.546 17.117H580.919c-2.837 0-4.142-3.368-1.988-5.13l36.968-30.228-38.046-64.65 98.794 4.589Z"/>
    <path fill="#061857" d="M711.772 740H580.919c-1.609 0-2.987-.947-3.51-2.413-.507-1.419-.083-2.906 1.108-3.878l36.534-29.874-37.764-64.166a.657.657 0 0 1 .004-.67.668.668 0 0 1 .592-.316l98.794 4.589c.222.01.424.132.536.324l45.67 78.302c2.151 3.687 2.166 8.094.042 11.789-2.272 3.953-6.441 6.313-11.153 6.313ZM579.03 640.047l37.434 63.608c.164.278.1.634-.15.838l-36.968 30.229c-.761.622-1.024 1.528-.703 2.425.266.746 1.004 1.544 2.276 1.544h130.853c4.237 0 7.982-2.115 10.018-5.656 1.887-3.284 1.873-7.201-.039-10.478l-45.491-77.994-97.23-4.516Z"/>
    <path fill="#061857" d="M677.993 711.923c-3.545 0-7.188-.09-10.941-.268-15.498-.737-31.083-2.895-46.156-4.981a.656.656 0 0 1 .179-1.297c15.044 2.083 30.601 4.236 46.039 4.97 17.373.826 32.402-.264 45.946-3.332a.655.655 0 0 1 .289 1.277c-10.73 2.43-22.378 3.631-35.356 3.631Z"/>
    <path fill="#F3F3F3" d="m610.487 633.082-51.666 93.742c-4.244 7.7-12.609 12.521-21.726 12.521h-95.554c-2.671 0-3.866-3.199-1.797-4.811l40.38-31.456 29.552-57.4 100.811-12.596Z"/>
    <path fill="#061857" d="M537.096 740h-95.554c-1.534 0-2.838-.907-3.321-2.311-.468-1.361-.038-2.768 1.121-3.671l40.266-31.368 29.487-57.271a.65.65 0 0 1 .5-.35l100.811-12.597a.656.656 0 0 1 .655.965l-51.666 93.743c-4.372 7.932-12.916 12.86-22.299 12.86Zm-26.995-93.715-29.394 57.092a.65.65 0 0 1-.18.217l-40.38 31.456c-.842.656-.907 1.574-.687 2.213.237.69.909 1.427 2.082 1.427h95.554c8.906 0 17.01-4.667 21.152-12.181l51.046-92.619-99.193 12.395Z"/>
    <path fill="#061857" d="M536.41 711.333a323.935 323.935 0 0 1-54.147-4.556.654.654 0 1 1 .218-1.291 322.796 322.796 0 0 0 86.216 2.92.655.655 0 1 1 .131 1.302 324.12 324.12 0 0 1-32.418 1.625ZM692.964 660.112s-93.718 26.694-188.173-11.961c0 0 24.478-43.755 44.85-76.232 12.683-20.22 35.565-32.59 60.26-32.59h157.768l10.585 19.718c11.816 22.013-3.269 48.485-29.056 50.973-32.879 3.171-62.609 5.043-86.093 4.338l29.859 45.754Z"/>
    <path fill="#061857" d="M594.208 666.055a.655.655 0 0 1-.576-.343 245.942 245.942 0 0 1-20.699-51.312c-3.499-12.635-6.686-28.932-.215-42.92 4.322-9.346 12.857-17.544 26.089-25.063a.654.654 0 1 1 .648 1.138c-12.988 7.38-21.344 15.385-25.549 24.475-6.291 13.601-3.15 29.601.29 42.021a244.663 244.663 0 0 0 20.588 51.038.653.653 0 0 1-.576.966ZM662.326 614.73l-.019-.001-19.63-.548a.656.656 0 0 1-.637-.673.663.663 0 0 1 .674-.636l19.63.549a.654.654 0 0 1-.018 1.309Z"/>
    <path fill="#F3F3F3" d="M580.02 436.108s-2.079-2.104-1.422-4.033c.656-1.93 2.623-2.207 5.784-.789 0 0-1.791-2.664 1.438-3.355 3.229-.692 7.544 3.47 14.495 4.842 6.951 1.371 9.395 1.814 9.395 1.814s-1.453-2.74-5.49-5.121c-4.038-2.38-3.493-5.673-1.591-6.899 1.621-1.046 4.555.107 7.081 1.97 3.318 2.447 11.602 4.462 18.305 7.342 3.443 1.479 39.052 33.814 39.052 33.814s31.799-37.812 51.986-49.26c43.478-8.314-20.358 60.307-35.202 86.852-7.183 12.845-25.929 14.185-35.073 2.53-13.83-17.629-27.958-43.019-28.775-44.707 0 0-3.183-2.663-11.099-3.711-7.916-1.049-18.339-1.815-24.378-6.453-6.039-4.637-6.642-8.222-4.779-10.381 0 0-2.173-2.266.273-4.455Z"/>
    <path fill="#061857" d="M665.449 514.45c-6.758 0-13.084-3.001-17.187-8.231-13.649-17.398-27.417-42.033-28.777-44.683-.583-.427-3.815-2.583-10.668-3.491-.935-.123-1.905-.243-2.898-.366-7.653-.946-16.327-2.018-21.793-6.216-3.694-2.837-5.694-5.506-5.942-7.932a4.375 4.375 0 0 1 .736-2.966c-.327-.48-.754-1.305-.716-2.295.03-.789.341-1.524.925-2.193-.644-.816-1.726-2.524-1.152-4.213.304-.893.849-1.515 1.621-1.851.94-.409 2.145-.367 3.66.13a2.41 2.41 0 0 1 .135-1.253c.326-.806 1.097-1.345 2.29-1.6 1.887-.405 3.927.573 6.507 1.811 2.331 1.116 4.973 2.382 8.251 3.029 3.877.765 6.361 1.243 7.793 1.515-.805-.966-2.196-2.347-4.348-3.615-2.876-1.697-3.341-3.679-3.361-4.709a3.812 3.812 0 0 1 1.748-3.305c2.537-1.635 6.631 1.113 7.825 1.994 1.923 1.418 5.76 2.746 9.822 4.152 2.789.965 5.674 1.964 8.353 3.115 3.317 1.425 34.216 29.381 38.733 33.476 3.916-4.592 32.955-38.246 51.724-48.89a.65.65 0 0 1 .2-.073c7.806-1.493 12.601-.639 14.651 2.612 5.715 9.063-13.388 34.988-30.242 57.861-7.737 10.5-15.045 20.418-18.916 27.341-3.456 6.179-9.883 10.208-17.193 10.776a22.67 22.67 0 0 1-1.781.07Zm-84.414-83.402c-.353 0-.66.055-.915.166-.425.184-.72.535-.903 1.072-.428 1.26.771 2.854 1.27 3.362a.657.657 0 0 1-.03.947c-.604.54-.921 1.12-.944 1.725-.038.986.699 1.782.706 1.79a.654.654 0 0 1 .023.88 3.079 3.079 0 0 0-.756 2.408c.145 1.412 1.206 3.777 5.438 7.027 5.183 3.98 13.669 5.029 21.155 5.954.998.124 1.972.244 2.911.369 8.012 1.061 11.298 3.745 11.433 3.858.071.06.129.134.17.217.817 1.691 14.815 26.889 28.7 44.588 4.19 5.342 10.861 8.208 17.835 7.664 6.872-.535 12.91-4.314 16.151-10.109 3.912-6.996 11.243-16.945 19.005-27.479 15.784-21.421 35.428-48.08 30.189-56.387-1.697-2.691-6.137-3.378-13.191-2.045-19.861 11.325-51.397 48.683-51.713 49.059a.658.658 0 0 1-.942.064c-9.882-8.974-36.129-32.52-38.871-33.698-2.635-1.133-5.497-2.123-8.265-3.081-4.34-1.502-8.087-2.799-10.17-4.336-2.612-1.925-5.16-2.707-6.338-1.946a2.508 2.508 0 0 0-1.148 2.178c.025 1.308.99 2.589 2.717 3.607 4.149 2.446 5.674 5.26 5.736 5.378a.655.655 0 0 1-.696.951c-.024-.004-2.528-.46-9.404-1.816-3.442-.679-6.282-2.04-8.564-3.134-2.356-1.129-4.217-2.021-5.667-1.711-.511.109-1.159.339-1.35.811-.22.544.166 1.313.318 1.54a.655.655 0 0 1-.812.962c-1.235-.554-2.278-.835-3.078-.835Z"/>
    <path fill="#061857" d="M601.484 446.598c-4.605 0-9.207-1.187-13.171-3.424a48.426 48.426 0 0 1-1.424-.844c-.785-.477-1.596-.97-2.427-1.369-1.47-.706-2.822-1.008-4.021-.897a.656.656 0 0 1-.122-1.304c1.438-.134 3.023.21 4.711 1.021.888.427 1.727.937 2.54 1.43.459.28.918.559 1.386.823 4.392 2.478 9.611 3.599 14.699 3.162a.641.641 0 0 1 .708.595.654.654 0 0 1-.596.709 26.78 26.78 0 0 1-2.283.098ZM604.338 442.066c-.018 0-.036 0-.054-.002a38.918 38.918 0 0 1-13.313-3.508 79.247 79.247 0 0 1-1.607-.779c-1.136-.562-2.311-1.142-3.51-1.573-1.968-.706-3.738-.89-5.262-.545a.659.659 0 0 1-.784-.494.657.657 0 0 1 .494-.784c1.771-.399 3.786-.201 5.994.591 1.27.456 2.48 1.053 3.649 1.631.524.26 1.048.519 1.578.766a37.626 37.626 0 0 0 12.867 3.39.655.655 0 0 1-.052 1.307ZM605.125 438.938a.695.695 0 0 1-.101-.007c-7.174-1.113-14.19-3.693-20.288-7.462a.654.654 0 1 1 .688-1.114c5.951 3.678 12.798 6.196 19.801 7.282a.655.655 0 0 1-.1 1.301Z"/>
    <path fill="#CFF558" d="M682.611 490.391c-1.4-2.654-6.163-14.347-2.206-23.822 9.23-22.105 36.198-50.164 51.071-52.376l18.916-2.815 6.138 7.839a65.83 65.83 0 0 1 13.971 42.88l-2.69 77.231-94.448.001 9.248-48.938Z"/>
    <path fill="#061857" d="M673.365 539.983a.653.653 0 0 1-.644-.776l9.204-48.716c-1.967-3.861-5.907-15.116-2.124-24.174 9.569-22.919 36.564-50.538 51.579-52.772l18.916-2.815a.654.654 0 0 1 .612.244l6.139 7.839a66.588 66.588 0 0 1 14.109 43.306l-2.69 77.232c-.013.361-.285.655-.678.631a.653.653 0 0 1-.631-.677l2.69-77.231a65.28 65.28 0 0 0-13.831-42.454l-5.904-7.539-18.539 2.759c-14.379 2.139-41.315 29.83-50.563 51.981-3.658 8.758.334 19.763 2.181 23.265a.65.65 0 0 1 .063.426l-9.247 48.938a.654.654 0 0 1-.642.533Z"/>
    <path fill="#F3F3F3" d="M591.814 513.879h121.36c18.44 0 40.697-40.726 50.113-59.808 6.711-13.599-3.006-29.741-18.206-29.895-1.799-.018-3.738.132-5.825.481a20.78 20.78 0 0 0-14.019 9.23l-32.665 50.589h-56.899c-10.811 0-21.421 3.399-29.945 10.029-5.782 4.497-11.243 10.781-13.914 19.374Z"/>
    <path fill="#061857" d="M713.174 514.534H591.815a.656.656 0 0 1-.626-.849c2.367-7.614 7.122-14.241 14.136-19.697 8.43-6.556 19.208-10.167 30.348-10.167h56.542l32.472-50.29a21.468 21.468 0 0 1 14.462-9.52 34.41 34.41 0 0 1 5.939-.49c7.301.074 13.956 3.852 17.802 10.105 3.896 6.335 4.264 14.087.984 20.734-11.089 22.473-32.422 60.174-50.7 60.174Zm-120.458-1.31h120.458c18.225 0 40.706-41.57 49.526-59.443 3.079-6.241 2.734-13.52-.926-19.469-3.609-5.868-9.851-9.412-16.699-9.482a33.18 33.18 0 0 0-5.71.472 20.159 20.159 0 0 0-13.578 8.939l-32.665 50.59a.653.653 0 0 1-.55.3h-56.899c-10.85 0-21.342 3.512-29.543 9.89-6.536 5.084-11.045 11.205-13.414 18.203Z"/>
    <path fill="#061857" d="M607.149 509.625a.653.653 0 0 1-.606-.902c2.616-6.408 8.389-11.554 15.068-13.431a.655.655 0 0 1 .354 1.261c-6.298 1.769-11.743 6.622-14.21 12.665a.653.653 0 0 1-.606.407ZM620.01 509.905a.653.653 0 0 1-.597-.922c2.404-5.379 7.182-9.709 12.781-11.582a.656.656 0 0 1 .416 1.242c-5.257 1.759-9.744 5.824-12.001 10.874a.657.657 0 0 1-.599.388Z"/>
    <path fill="#061857" d="M508.707 514.526h136.319a3.403 3.403 0 0 0 3.408-3.397v-.8c0-3.691-3.001-6.683-6.702-6.683H498.883l1.147 4.249a8.982 8.982 0 0 0 8.677 6.631Z"/>
    <path fill="#061857" d="M504.722 509.601h84.299c3.6 0 6.244-3.37 5.378-6.854l-15.932-64.086a5.539 5.539 0 0 0-5.378-4.195H488.79c-3.601 0-6.245 3.37-5.378 6.854l15.932 64.086a5.537 5.537 0 0 0 5.378 4.195Z"/>
    <path fill="#061857" d="M589.021 509.928h-84.299a5.854 5.854 0 0 1-5.696-4.443l-15.932-64.086a5.801 5.801 0 0 1 1.069-5.007 5.836 5.836 0 0 1 4.627-2.253h84.298a5.854 5.854 0 0 1 5.696 4.443l15.933 64.086a5.807 5.807 0 0 1-1.07 5.008 5.833 5.833 0 0 1-4.626 2.252ZM488.79 434.793c-1.618 0-3.117.73-4.112 2.002a5.154 5.154 0 0 0-.948 4.446l15.931 64.086a5.202 5.202 0 0 0 5.061 3.947h84.299a5.19 5.19 0 0 0 4.111-2.001 5.157 5.157 0 0 0 .949-4.447l-15.932-64.086a5.202 5.202 0 0 0-5.061-3.947H488.79Z"/>
    <path fill="#0552CE" d="M530.555 459.195a2.78 2.78 0 0 0 2.783 2.775 2.78 2.78 0 0 0 2.784-2.775 2.78 2.78 0 0 0-2.784-2.776 2.78 2.78 0 0 0-2.783 2.776Z"/>
    <path fill="#F3F3F3" d="m750.392 411.378-10.635-26.327c-1.132-1.379-18.412-10.185-19.758-8.996l-8.131 15.641c-1.153 1.017 4.384.124 5.286 1.352l6.54 22.559c2.015 2.744 28.491-2.045 26.698-4.229Z"/>
    <path fill="#061857" d="M727.866 417.095c-2.587 0-4.161-.368-4.7-1.101a.676.676 0 0 1-.101-.205l-6.496-22.411c-.423-.328-2.188-.403-2.966-.435-1.464-.062-2.27-.096-2.502-.749-.064-.182-.112-.527.235-.893l8.082-15.547a.65.65 0 0 1 .148-.189c.328-.289.78-.29 1.097-.265 3.507.281 18.455 7.941 19.602 9.336a.694.694 0 0 1 .101.17l10.605 26.255a.974.974 0 0 1 .091.913c-.853 2.145-12.371 4.08-16.34 4.588-2.769.355-5.057.533-6.856.533Zm-3.587-1.823c.208.155 1.104.595 4.471.492 7.998-.243 19.668-2.939 21.016-4.191l-10.572-26.169c-1.564-1.584-16.28-8.815-18.686-8.815l-.049.001-7.793 14.991c.306.025.681.04.992.053 1.976.084 3.422.206 4.025 1.027.045.062.08.132.101.205l6.495 22.406Z"/>
    <path fill="#F3F3F3" d="M714.743 352.947s3.413 11.829 20.851 12.566c-2.166 6.324-1.407 11.062 4.122 13.212 0 0 2.641-2.151 5.425-.287 2.74 1.837 3.385 5.843 1.785 8.6-1.598 2.757-5.22 4.185-8.481 3.544-1.841-.362-3.515-.878-4.872-2.539-3.417 2.287-15.426 14.931-28.026 3.942-9.946-8.674 5.085-33.642 9.196-39.038Z"/>
    <path fill="#061857" d="M716.315 397.06c-3.537 0-7.346-1.222-11.199-4.582-10.578-9.226 5.501-35.196 9.105-39.928a.654.654 0 0 1 1.15.215c.137.468 3.529 11.388 20.25 12.094a.653.653 0 0 1 .592.866c-2.203 6.431-1.12 10.337 3.41 12.256 1.199-.801 3.589-1.622 5.882-.087 2.92 1.957 3.83 6.295 1.988 9.472-1.708 2.945-5.568 4.568-9.175 3.859-1.577-.311-3.358-.773-4.843-2.307-.341.257-.744.58-1.189.934-3.123 2.495-9.024 7.207-15.971 7.208Zm-1.742-42.779c-5.732 8.03-17.191 29.715-8.596 37.211 10.594 9.238 20.656 1.2 25.492-2.662.717-.574 1.284-1.026 1.739-1.331a.657.657 0 0 1 .872.13c1.156 1.416 2.576 1.934 4.491 2.311 3.08.603 6.353-.754 7.788-3.23 1.484-2.558.744-6.169-1.583-7.728-2.354-1.576-4.625.232-4.647.25a.661.661 0 0 1-.651.103c-5.242-2.038-6.845-6.482-4.771-13.214-13.782-.891-18.739-8.828-20.134-11.84Z"/>
    <path fill="#061857" d="M736.912 385.706a.654.654 0 0 1-.353-1.207c1.774-1.132 4.013-1.607 6.137-1.302a.654.654 0 1 1-.185 1.295c-1.822-.258-3.734.145-5.247 1.111a.657.657 0 0 1-.352.103ZM714.89 354.05a.656.656 0 0 1-.581-.351 13.012 13.012 0 0 1-1.487-6.547.65.65 0 0 1 .68-.627.653.653 0 0 1 .628.68 11.701 11.701 0 0 0 1.339 5.886.654.654 0 0 1-.579.959ZM815.346 735.006a.655.655 0 0 1-.655-.655v-78.754c0-22.837-18.634-41.416-41.538-41.416H653.755a.655.655 0 1 1 0-1.309h119.398c23.626 0 42.847 19.166 42.847 42.725v78.754a.654.654 0 0 1-.654.655ZM663.88 524.969H323.136a.654.654 0 1 1 0-1.309H663.88a.655.655 0 1 1 0 1.309ZM404.485 740h-21.576a.655.655 0 1 1 0-1.309h20.921V539.328c0-.361.293-.654.655-.654h171.858a.654.654 0 1 1 0 1.309H405.139v199.362a.654.654 0 0 1-.654.655Z"/>
  </g>
  <defs>
    <clipPath id="clip0_2_2">
      <path fill="#fff" d="M0 196h816v544H0z"/>
    </clipPath>
  </defs>
</svg>
