<svg xmlns="http://www.w3.org/2000/svg" fill="none" viewBox="0 0 572 447">
  <path fill="currentColor" d="M560.671 199.144 379.553 10.06c-13.78-14.385-36.438-13.243-48.503 2.78-8.351 11.093-15.922 22.626-22.765 34.497L450.872 196.19c7.08 7.394 10.975 17.267 10.963 27.805-.011 10.537-3.925 20.402-11.02 27.777l-142.42 148.013c6.829 11.828 14.378 23.321 22.704 34.374 12.05 15.996 34.661 17.166 48.45 2.835l181.069-188.181c15.145-16.717 14.662-33.937.053-49.67Z"/>
  <path fill="currentColor" d="M69.446 434.16c-92.578-122.898-92.595-298.403-.049-421.319C81.462-3.183 104.12-4.325 117.9 10.061l181.119 189.083c13.083 13.659 13.06 36.043-.053 49.67L117.896 436.996c-13.789 14.33-36.4 13.161-48.45-2.836Z"/>
  <path fill="currentColor" d="M440.56 199.144 259.442 10.061c-13.779-14.386-36.437-13.244-48.502 2.78-11.686 15.521-21.885 31.886-30.621 48.872l129.009 134.685c7.083 7.393 10.974 17.266 10.967 27.803-.012 10.538-3.926 20.404-11.021 27.779L180.573 385.736a338.67 338.67 0 0 0 30.415 48.424c12.05 15.997 34.661 17.166 48.45 2.836l181.07-188.181c13.984-15.593 14.653-34.035.052-49.671Z"/>
</svg>