<svg xmlns="http://www.w3.org/2000/svg" fill="none" viewBox="0 0 413 415">
  <path fill="currentColor" d="M138.667 138.333H0c0 76.4 62.0831 138.334 138.667 138.334H0C0 353.066 62.0831 415 138.667 415V276.667C138.667 353.066 200.75 415 277.333 415V276.667C277.333 353.066 339.416 415 416 415V0H0c0 76.3993 62.0831 138.333 138.667 138.333Zm277.333 0H277.333V0c0 76.3993 62.083 138.333 138.667 138.333ZM277.333 276.667V138.333c0 76.4 62.083 138.334 138.667 138.334H277.333Zm-138.666 0V138.333c0 76.4 62.083 138.334 138.666 138.334H138.667Zm0-138.334V0c0 76.3993 62.083 138.333 138.666 138.333H138.667Z"/>
</svg>
