<svg xmlns="http://www.w3.org/2000/svg" fill="none" viewBox="0 0 933 675">
  <g clip-path="url(#clip0_2_2)">
    <path fill="#0552CE" d="M930.818 313.667c-13.93-154.236-90.724-274.74-171.524-269.155-24.153 1.67-45.925 14.424-64.216 35.595-16.722-38.871-42.611-65.061-76.389-72.45C558.367-5.537 487.99 44.49 432.744 130.162 413.121 54.953 373.313 3.717 323.191.192c-80.792-5.678-157.77 114.736-171.935 268.955-14.165 154.219 39.847 283.842 120.639 289.521 26.638 1.873 52.859-9.967 76.552-32.2 14.145 61.199 44.995 103.684 89.576 113.434 75.153 16.438 165.91-65.247 223.569-191.751 31.72 95.198 88.853 158.995 148.145 154.896 80.8-5.585 135.01-135.146 121.081-289.38Z"/>
  </g>
  <g clip-path="url(#clip1_2_2)">
    <path fill="#fff" d="M104.84 225.684h579.067c10.53 0 19.08 8.561 19.08 19.106v380.24H117.65c-17.6 0-31.89-14.309-31.89-31.934V244.79c0-10.545 8.55-19.106 19.08-19.106Z"/>
    <path fill="#05143F" d="M702.986 625.664H117.65c-17.933 0-32.523-14.61-32.523-32.568V244.79c0-10.885 8.843-19.741 19.713-19.741h579.067c10.87 0 19.713 8.856 19.713 19.741v380.239a.634.634 0 0 1-.634.635ZM104.84 226.318c-10.17 0-18.446 8.286-18.446 18.472v348.306c0 17.258 14.021 31.299 31.256 31.299h584.703V244.79c0-10.186-8.275-18.472-18.446-18.472H104.84Z"/>
    <path fill="#05143F" d="M684.551 589.721H104.195a.634.634 0 0 1-.633-.635V261.627c0-.351.283-.635.633-.635h580.356c.35 0 .634.284.634.635v327.459c0 .35-.284.635-.634.635Zm-579.722-1.269h579.089V262.261H104.829v326.191Z"/>
    <path fill="#fff" d="M713.347 674.366H76.294c-28.18 0-54.086-12.061-67.454-31.405l-6.433-9.309c-4.515-6.534.164-15.447 8.109-15.447h767.717c7.581 0 12.323 8.196 8.542 14.763l-3.528 6.126c-12.361 21.464-39.726 35.272-69.9 35.272Z"/>
    <path fill="#05143F" d="M713.347 675.001H76.294c-28.425 0-54.472-12.139-67.975-31.679l-6.433-9.309c-2.254-3.262-2.503-7.305-.664-10.818 1.843-3.522 5.318-5.625 9.294-5.625h767.717c3.795 0 7.191 1.962 9.087 5.247 1.89 3.276 1.891 7.19.004 10.467l-3.528 6.127c-12.451 21.62-40.103 35.59-70.449 35.59Zm-702.83-56.162c-3.497 0-6.552 1.849-8.173 4.945-1.615 3.087-1.397 6.641.584 9.507L9.36 642.6c13.27 19.202 38.917 31.132 66.932 31.132h637.054c29.901 0 57.122-13.721 69.351-34.956l3.528-6.125c1.659-2.881 1.657-6.32-.003-9.198-1.667-2.889-4.654-4.614-7.99-4.614H10.516Z"/>
    <path fill="#F3F3F3" d="M585.843 148.635H252.252v440.394h333.591V148.635Z"/>
    <path fill="#05143F" d="M585.843 589.663H252.252a.634.634 0 0 1-.634-.634V148.635c0-.351.284-.635.634-.635h333.591c.35 0 .634.284.634.635v440.394a.634.634 0 0 1-.634.634Zm-332.958-1.269H585.21V149.269H252.885v439.125Z"/>
    <path fill="#fff" d="m381.711 341.635-161.609.225c-7.066.01-12.799-5.723-12.799-12.799V211.936c0-7.069 5.722-12.799 12.781-12.799h161.622c7.059 0 12.782 5.731 12.781 12.8l-.012 116.901c-.001 7.061-5.713 12.788-12.764 12.797Z"/>
    <path fill="#05143F" d="M220.083 342.495c-3.58 0-6.945-1.395-9.478-3.928a13.355 13.355 0 0 1-3.936-9.506V211.936c0-7.407 6.018-13.434 13.415-13.434h161.621c3.584 0 6.953 1.397 9.487 3.935a13.353 13.353 0 0 1 3.928 9.5l-.012 116.901c-.001 7.396-6.01 13.421-13.396 13.432l-161.61.225h-.019Zm161.627-1.494c6.688-.01 12.13-5.466 12.131-12.163l.012-116.901c0-3.249-1.263-6.305-3.557-8.602a12.058 12.058 0 0 0-8.591-3.564H220.084c-6.699 0-12.148 5.457-12.148 12.165v117.125c0 3.252 1.266 6.309 3.564 8.608a12.06 12.06 0 0 0 8.583 3.557h.017l161.61-.225Z"/>
    <path fill="#061857" d="M374.694 316.105s-27.767-72.294-53.154-72.294c-25.386 0-38.873 55.611-48.393 55.611-9.52 0-11.107-21.45-21.42-21.45-10.313 0-24.605 38.465-24.605 38.465s144.541-.331 147.572-.332Z"/>
    <path fill="#05143F" d="M227.122 317.071a.636.636 0 0 1-.594-.856c.59-1.588 14.567-38.878 25.199-38.878 5.639 0 8.739 5.786 11.738 11.381 2.775 5.178 5.396 10.069 9.682 10.069 3.232 0 7.497-8.171 12.436-17.631 8.368-16.029 19.828-37.98 35.957-37.98 25.529 0 52.605 69.733 53.745 72.701a.636.636 0 0 1-.591.862c-2.995.001-146.127.329-147.572.332Zm24.605-38.465c-7.889 0-19.46 26.06-23.689 37.194 11.863-.028 133.569-.306 145.725-.329-3.244-8.149-29.04-71.026-52.223-71.026-15.361 0-26.616 21.558-34.834 37.299-5.55 10.631-9.56 18.312-13.559 18.312-5.044 0-7.969-5.459-10.798-10.738-2.823-5.266-5.741-10.712-10.622-10.712Z"/>
    <path fill="#fff" d="M266.701 254.932c6.134 0 11.107-4.98 11.107-11.122 0-6.143-4.973-11.122-11.107-11.122-6.134 0-11.106 4.979-11.106 11.122 0 6.142 4.972 11.122 11.106 11.122Z"/>
    <path fill="#061857" d="M266.701 255.566c-6.473 0-11.74-5.273-11.74-11.756 0-6.483 5.267-11.757 11.74-11.757 6.474 0 11.74 5.274 11.74 11.757s-5.266 11.756-11.74 11.756Zm0-22.244c-5.775 0-10.473 4.705-10.473 10.488 0 5.782 4.698 10.487 10.473 10.487s10.473-4.705 10.473-10.487c0-5.783-4.698-10.488-10.473-10.488Z"/>
    <path fill="#1088FF" d="m629.648 528.516-161.61.225c-7.066.01-12.799-5.723-12.799-12.799V398.817c0-7.069 5.723-12.799 12.782-12.799h161.621c7.06 0 12.782 5.731 12.782 12.8l-.013 116.901c-.001 7.061-5.712 12.788-12.763 12.797Z"/>
    <path fill="#fff" d="m581.745 457.381-51.889-30v60l51.889-30Z"/>
    <path fill="#05143F" d="M428.13 386.654h-45.077a.634.634 0 0 1 0-1.269h45.077a.634.634 0 0 1 0 1.269ZM374.367 386.654h-43.38a.634.634 0 0 1 0-1.269h43.38a.634.634 0 0 1 0 1.269ZM322.302 386.654h-30.364a.634.634 0 0 1 0-1.269h30.364a.634.634 0 0 1 0 1.269ZM419.445 407.58h-17.15a.634.634 0 0 1 0-1.269h17.15a.634.634 0 1 1 0 1.269ZM393.609 407.58h-74.317a.634.634 0 0 1 0-1.269h74.317a.634.634 0 1 1 0 1.269ZM310.606 407.58h-27.353a.634.634 0 0 1 0-1.269h27.353a.634.634 0 1 1 0 1.269ZM428.131 428.507h-72.242a.634.634 0 1 1 0-1.269h72.242a.634.634 0 0 1 0 1.269ZM347.203 428.507h-63.95a.634.634 0 1 1 0-1.269h63.95a.634.634 0 0 1 0 1.269ZM428.131 449.435h-57.906a.634.634 0 0 1 0-1.269h57.906a.634.634 0 0 1 0 1.269ZM361.54 449.435h-38.853a.633.633 0 0 1 0-1.269h38.853a.634.634 0 0 1 0 1.269ZM314.002 449.435h-30.749a.634.634 0 0 1 0-1.269h30.749a.634.634 0 0 1 0 1.269ZM376.017 470.363h-33.712a.634.634 0 0 1 0-1.269h33.712a.634.634 0 0 1 0 1.269ZM333.62 470.363h-50.367a.634.634 0 0 1 0-1.269h50.367a.634.634 0 0 1 0 1.269ZM558.178 258.787H513.1a.634.634 0 0 1 0-1.269h45.078a.634.634 0 1 1 0 1.269ZM504.416 258.787h-43.38a.634.634 0 0 1 0-1.269h43.38a.634.634 0 1 1 0 1.269ZM452.35 258.787h-30.364a.634.634 0 0 1 0-1.269h30.364a.634.634 0 1 1 0 1.269ZM549.493 279.712h-17.15a.634.634 0 1 1 0-1.269h17.15a.634.634 0 0 1 0 1.269ZM523.657 279.712H449.34a.634.634 0 1 1 0-1.269h74.317a.634.634 0 0 1 0 1.269ZM440.655 279.712h-27.353a.634.634 0 1 1 0-1.269h27.353a.634.634 0 0 1 0 1.269ZM558.179 300.64h-72.243a.633.633 0 0 1 0-1.269h72.243a.634.634 0 0 1 0 1.269ZM477.252 300.64h-63.95a.634.634 0 0 1 0-1.269h63.95a.634.634 0 0 1 0 1.269ZM558.179 321.568h-57.906a.634.634 0 0 1 0-1.269h57.906a.633.633 0 0 1 0 1.269ZM491.588 321.568h-38.853a.634.634 0 0 1 0-1.269h38.853a.633.633 0 0 1 0 1.269ZM444.05 321.568h-30.748a.634.634 0 0 1 0-1.269h30.748a.634.634 0 0 1 0 1.269ZM506.066 342.496h-33.712a.634.634 0 0 1 0-1.269h33.712a.634.634 0 1 1 0 1.269ZM463.669 342.496h-50.367a.634.634 0 0 1 0-1.269h50.367a.634.634 0 1 1 0 1.269Z"/>
    <path fill="#C4E3F7" d="M559.179 185.794H421.697a5.578 5.578 0 0 1-5.574-5.582 5.577 5.577 0 0 1 5.574-5.581h137.482a5.577 5.577 0 0 1 5.574 5.581 5.578 5.578 0 0 1-5.574 5.582ZM484.918 204.829h-63.221a5.578 5.578 0 0 1-5.574-5.582 5.577 5.577 0 0 1 5.574-5.581h63.221a5.578 5.578 0 0 1 5.574 5.581 5.578 5.578 0 0 1-5.574 5.582ZM517.176 223.864h-95.479a5.577 5.577 0 0 1-5.574-5.581 5.578 5.578 0 0 1 5.574-5.582h95.479a5.578 5.578 0 0 1 5.574 5.582 5.578 5.578 0 0 1-5.574 5.581Z"/>
    <path fill="#F3F3F3" d="m150.144 360.658-9.582 28.052a5.288 5.288 0 0 1-3.992 3.483l-4.266.831s11.091 24.111 29.785 20.072c18.693-4.039 14.582-20.072 14.582-20.072l-3.954-.32a3.832 3.832 0 0 1-3.397-4.778l4.444-17.239s-18.113-14.62-23.62-10.029Z"/>
    <path fill="#05143F" d="M157.934 414.182c-16.391 0-26.102-20.667-26.206-20.894a.636.636 0 0 1 .455-.888l4.265-.831a4.663 4.663 0 0 0 3.514-3.065l9.582-28.052a.635.635 0 0 1 .194-.283c5.74-4.784 22.528 8.492 24.424 10.023a.635.635 0 0 1 .216.652l-4.445 17.239a3.194 3.194 0 0 0 .491 2.654 3.185 3.185 0 0 0 2.343 1.333l3.955.32a.635.635 0 0 1 .563.475c.069.273 1.675 6.765-1.969 12.671-2.528 4.097-6.934 6.848-13.094 8.18a20.314 20.314 0 0 1-4.288.466Zm-24.692-20.696c2.041 3.955 12.555 22.484 28.713 18.989 5.81-1.255 9.943-3.815 12.282-7.606 2.847-4.614 2.19-9.746 1.911-11.252l-3.483-.282a4.452 4.452 0 0 1-3.274-1.862 4.462 4.462 0 0 1-.685-3.707l4.342-16.841c-5.119-4.069-18.117-13.006-22.366-9.885l-9.521 27.874a5.933 5.933 0 0 1-4.471 3.9l-3.448.672Z"/>
    <path fill="#05143F" d="M182.79 361.709s10.25-5.087 14.467-16.873c4.267-11.926-1.676-13.494-4.597-8.731 0 0 1.435-14.576-8.229-6.267 0 0-.444-12.578-9.177-.759 0 0-.947-8.255-7.901 2.43 0 0-6.234-4.385-13.01 3.434-6.776 7.82-6.379 19.928-1.284 26.14 5.096 6.212 29.731.626 29.731.626Z"/>
    <path fill="#F3F3F3" d="M155.908 367.547s.56 11.684 12.635 14.126c12.076 2.442 17.822-11.939 22.606-27.72-1.686 1.025-4.792 1.707-7.113 1.458-7.784-.833-12.358-6.473-13.342-8.048-1.538 4.082-2.863 5.801-5.336 7.386-1.364.875-3.243 1.62-6.283.531 0 0 .375-5.368-4.971-4.189-5.346 1.179-8.199 13.594 1.804 16.456Z"/>
    <path fill="#05143F" d="M171.15 382.578c-.875 0-1.784-.092-2.732-.283-11.038-2.234-12.833-12.032-13.1-14.265-4.343-1.406-6.84-4.855-6.703-9.305.124-4.06 2.426-7.609 5.353-8.255 1.799-.397 3.227-.152 4.242.725 1.243 1.074 1.468 2.785 1.5 3.628 2.571.802 4.123.15 5.307-.609 2.444-1.567 3.632-3.22 5.084-7.075a.636.636 0 0 1 .53-.408.639.639 0 0 1 .6.295c.043.069 4.368 6.843 12.872 7.754 2.095.222 5.107-.391 6.717-1.37a.635.635 0 0 1 .936.726c-4.209 13.885-9.605 28.441-20.606 28.442Zm-15.624-31.023c-.39 0-.819.052-1.286.155-2.338.515-4.253 3.614-4.359 7.054-.058 1.907.429 6.521 6.201 8.172.26.075.445.308.459.58.023.456.695 11.222 12.128 13.534.833.169 1.637.25 2.411.25 9.859.002 15.028-13.145 19.039-26.147-1.851.723-4.253 1.092-6.151.889-6.432-.689-11.029-4.677-13.114-7.354-1.381 3.355-2.724 5.037-5.154 6.595-1.418.909-3.478 1.798-6.839.594a.635.635 0 0 1-.418-.642c.001-.019.119-2.064-1.065-3.083-.462-.397-1.082-.597-1.852-.597Z"/>
    <path fill="#05143F" d="M155.958 360.803a.634.634 0 0 1-.6-.429c-.26-.761-.528-1.548-.98-2.177-.447-.624-1.063-1.021-1.646-1.061a.634.634 0 0 1 .087-1.266c.97.067 1.914.645 2.589 1.587.56.781.873 1.698 1.149 2.506a.635.635 0 0 1-.599.84Z"/>
    <path fill="#fff" d="m125.081 513.507 56.689-7.114 5.417 12.962-43.906 21.406s-21.746-15.004-18.2-27.254Z"/>
    <path fill="#05143F" d="M143.281 541.396a.638.638 0 0 1-.36-.112c-.903-.624-22.08-15.409-18.448-27.953a.633.633 0 0 1 .53-.453l56.689-7.115a.64.64 0 0 1 .663.385l5.416 12.963a.634.634 0 0 1-.307.815l-43.906 21.406a.628.628 0 0 1-.277.064Zm-17.696-27.313c-2.613 10.839 15.207 24.111 17.756 25.944l43.03-20.98-4.999-11.964-55.787 7Z"/>
    <path fill="#fff" d="M110.948 558.784s141.469-100.594 184.275-88.85c42.807 11.744 33.152 66.967 7.963 88.271-17.509 14.808-45.231 38.479-123.562 56.745-78.331 18.266-68.676-56.166-68.676-56.166Z"/>
    <path fill="#05143F" d="M156.956 618.471c-13.274 0-23.917-3.576-31.786-10.706-18.766-17.009-14.892-48.744-14.85-49.062a.63.63 0 0 1 .261-.436c.354-.252 35.857-25.436 76.134-48.86 54.189-31.515 90.754-44.997 108.676-40.084 19.617 5.382 26.489 19.023 28.799 29.52 2.192 9.953 1.214 21.616-2.751 32.84-3.873 10.96-10.21 20.551-17.844 27.007l-.245.207c-17.005 14.383-45.465 38.456-123.582 56.672-8.301 1.936-15.913 2.902-22.812 2.902Zm-45.411-59.332c-.333 3.115-2.88 31.96 14.481 47.689 11.632 10.538 29.617 13.064 53.455 7.505 77.819-18.147 105.039-41.17 123.052-56.406l.244-.206c15.636-13.224 24.499-38.967 20.176-58.606-2.235-10.154-8.89-23.354-27.897-28.568-41.231-11.324-177.021 84.009-183.511 88.592Z"/>
    <path fill="#05143F" d="M233.825 597.594a.634.634 0 0 1-.589-.399c-7.155-17.903-39.755-52.758-40.083-53.108a.635.635 0 0 1 .923-.869c1.348 1.436 33.093 35.381 40.337 53.506a.635.635 0 0 1-.588.87ZM141.737 572.716a.635.635 0 0 1-.408-1.121c21.675-18.2 119.664-70.993 120.651-71.524a.634.634 0 0 1 .6 1.117c-.986.531-98.861 53.262-120.437 71.38a.632.632 0 0 1-.406.148Z"/>
    <path fill="#fff" d="M231.003 610.528a4.48 4.48 0 0 1 .58 4.749 4.467 4.467 0 0 1-4.036 2.56h-122.24a50.047 50.047 0 0 1-34.12-13.435c-13.16-12.261-33-30.941-49.731-47.501C2.489 538.128-3.492 509.87 6.212 484.994l.433-1.107c8.215-20.895 33.804-28.566 52.08-15.552 36.836 26.232 95.158 69.336 118.278 95.087 0 0 39.494 29.349 54 47.106Z"/>
    <path fill="#05143F" d="M227.547 618.471h-122.24a50.525 50.525 0 0 1-34.552-13.604c-13.53-12.606-33.143-31.082-49.744-47.514-19.155-18.959-25.195-47.452-15.39-72.589l.435-1.109c3.995-10.163 12.276-17.774 22.72-20.881 10.414-3.098 21.463-1.259 30.316 5.044 34.077 24.267 94.745 68.881 118.34 95.133 1.639 1.222 39.911 29.852 54.061 47.176a5.137 5.137 0 0 1 .663 5.422 5.123 5.123 0 0 1-4.609 2.922ZM38.83 462.571c-3.235 0-6.494.467-9.692 1.419-10.068 2.996-18.051 10.333-21.903 20.13l-.433 1.106c-9.621 24.665-3.695 52.623 15.1 71.225 16.59 16.42 36.192 34.887 49.716 47.487a49.262 49.262 0 0 0 33.689 13.264h122.24a3.849 3.849 0 0 0 3.463-2.196 3.862 3.862 0 0 0-.497-4.076c-14.291-17.494-53.493-46.705-53.887-46.998a.633.633 0 0 1-.094-.085c-23.482-26.155-84.12-70.743-118.175-94.994-5.813-4.14-12.611-6.282-19.527-6.282Z"/>
    <path fill="#05143F" d="M128.951 618.47a.63.63 0 0 1-.32-.087c-29.635-17.452-63.546-47.665-86.392-76.97-3.069-3.937-6.221-8.183-8.087-12.995a.635.635 0 0 1 1.18-.46c1.805 4.652 4.895 8.812 7.906 12.674 22.756 29.189 56.527 59.279 86.035 76.657a.635.635 0 0 1-.322 1.181ZM122.757 608.686a.635.635 0 0 1-.477-1.051 243.175 243.175 0 0 1 52.622-45.343.634.634 0 0 1 .682 1.071 241.89 241.89 0 0 0-52.349 45.106.63.63 0 0 1-.478.217ZM107.535 595.295a.634.634 0 0 1-.454-1.077 377.931 377.931 0 0 1 52.025-44.651.635.635 0 0 1 .734 1.034 376.68 376.68 0 0 0-51.85 44.502.634.634 0 0 1-.455.192Z"/>
    <path fill="#F3F3F3" d="M216.704 405.774a32.621 32.621 0 0 0-23.235-13.089 478.127 478.127 0 0 0-19.25-1.381 16.899 16.899 0 0 1-1.71 3.829c-2.136 3.521-5.402 6.421-9.211 7.913-3.768 1.477-8.007 1.86-12.095 1.477-3.373-.317-7.8-2.111-10.437-4.686-2.367-2.312-4.11-5.553-5.639-8.54-6.687.379-11.957.934-18.234 1.918-11.979 1.879-22.5 9.015-28.837 19.367-11.614 18.97-31.726 52.703-32.802 79.842-1.733 43.74 75.254 22.228 75.254 22.228l68.262.444 51.498-40.575s-14.365-42.781-33.564-68.747Z"/>
    <path fill="#05143F" d="M92.771 520.629c-11.136 0-22.291-1.844-29.679-7.696-5.974-4.731-8.824-11.639-8.471-20.533 1.12-28.247 22.58-63.302 32.894-80.148 6.486-10.594 17.158-17.761 29.28-19.662 6.294-.987 11.594-1.545 18.295-1.925a.628.628 0 0 1 .6.344c1.549 3.024 3.251 6.162 5.517 8.375 2.652 2.589 7.065 4.228 10.054 4.508 4.295.404 8.379-.093 11.806-1.435 3.602-1.411 6.763-4.128 8.9-7.652a16.281 16.281 0 0 0 1.645-3.685.637.637 0 0 1 .638-.448c6.411.329 12.897.794 19.276 1.383a33.295 33.295 0 0 1 23.687 13.344c19.037 25.748 33.51 68.493 33.654 68.922a.635.635 0 0 1-.208.701l-51.499 40.575c-.112.089-.276.15-.395.135l-68.174-.443c-1.814.502-19.79 5.339-37.82 5.34Zm41.98-128.673c-6.463.377-11.639.928-17.76 1.888-11.754 1.844-22.104 8.795-28.395 19.071-10.258 16.755-31.603 51.619-32.709 79.536-.335 8.465 2.353 15.021 7.991 19.487 19.076 15.109 65.988 2.237 66.459 2.105a.477.477 0 0 1 .174-.023l68.04.442 50.971-40.16c-1.557-4.516-15.424-43.934-33.327-68.149a32.027 32.027 0 0 0-22.785-12.834 472.895 472.895 0 0 0-18.738-1.354 17.528 17.528 0 0 1-1.621 3.498c-2.282 3.761-5.664 6.664-9.522 8.176-3.61 1.414-7.892 1.936-12.386 1.517-3.804-.357-8.254-2.357-10.82-4.864-2.309-2.254-4.025-5.333-5.572-8.336Z"/>
    <path fill="#fff" d="M111.02 454.648 73.763 435.93a1.947 1.947 0 0 1-.8-2.731l5.188-8.759a1.94 1.94 0 0 1 2.53-.752l36.513 18.047c.95.47 1.349 1.615.897 2.575l-4.443 9.429a1.941 1.941 0 0 1-2.628.909Z"/>
    <path fill="#05143F" d="M111.888 455.49c-.395 0-.788-.092-1.153-.276l-37.256-18.718a2.587 2.587 0 0 1-1.317-1.581 2.589 2.589 0 0 1 .257-2.041l5.186-8.758a2.585 2.585 0 0 1 3.357-.998l36.512 18.047a2.595 2.595 0 0 1 1.19 3.414l-4.443 9.43a2.587 2.587 0 0 1-2.333 1.481Zm-32.062-31.369c-.45 0-.888.233-1.13.642l-5.187 8.758a1.298 1.298 0 0 0-.13 1.037c.102.354.34.639.669.804l37.256 18.718c.318.16.678.185 1.014.067a1.3 1.3 0 0 0 .757-.679l4.443-9.43a1.32 1.32 0 0 0-.605-1.735l-36.512-18.047a1.296 1.296 0 0 0-.575-.135Z"/>
    <path fill="#fff" d="m233.108 434.217-28.481 11.366c-.77.307-1.738-.336-2.107-1.401l-3.329-9.605c-.332-.959-.055-1.918.636-2.201l27.722-11.349c.721-.295 1.633.25 2.049 1.226l4.089 9.589c.428 1.005.167 2.078-.579 2.375Z"/>
    <path fill="#05143F" d="M204.222 446.295c-.273 0-.554-.063-.825-.187-.656-.3-1.208-.942-1.476-1.717l-3.329-9.606c-.448-1.292-.02-2.58.995-2.996l27.722-11.348c1.053-.43 2.314.256 2.871 1.564l4.089 9.588c.317.743.343 1.542.073 2.193-.2.481-.555.844-1 1.021l-28.481 11.366a1.72 1.72 0 0 1-.639.122Zm23.736-24.711c-.06 0-.118.01-.17.031l-27.722 11.349c-.323.132-.511.728-.277 1.405l3.33 9.606c.154.447.463.822.806.979.12.055.3.106.467.041l28.481-11.367c.161-.064.251-.215.299-.329.138-.332.113-.784-.068-1.208l-4.089-9.588c-.252-.592-.714-.919-1.057-.919Z"/>
    <path fill="#fff" d="M210.205 464.109s-9.777-25.069-14.309-40.058l14.309 40.058Z"/>
    <path fill="#05143F" d="M210.205 464.743a.634.634 0 0 1-.591-.403c-.097-.251-9.837-25.265-14.325-40.105a.634.634 0 1 1 1.213-.368c4.474 14.794 14.195 39.76 14.293 40.011a.636.636 0 0 1-.59.865ZM130.683 515.111a.634.634 0 0 1-.257-1.214c7.651-3.395 16.481-5.367 23.602-5.306l32.265.324c.045-3.162-.313-18.032-10.467-27.706-7.455-7.102-18.483-9.907-32.775-8.328a.635.635 0 0 1-.139-1.261c14.684-1.621 26.056 1.3 33.795 8.678 11.782 11.231 10.844 29.116 10.833 29.296-.02.337-.27.6-.639.596l-32.885-.33c-6.937-.067-15.583 1.873-23.077 5.197a.626.626 0 0 1-.256.054Z"/>
    <path fill="#05143F" d="M162.687 510.355a.634.634 0 0 1-.628-.726c.335-2.304-.207-4.87-1.527-7.225-1.116-1.988-2.769-3.867-5.056-5.743-.425-.348-.881-.706-1.38-.925a.634.634 0 0 1 .507-1.162c.647.282 1.183.701 1.676 1.106 2.411 1.978 4.163 3.974 5.358 6.102 1.456 2.598 2.052 5.45 1.676 8.031a.634.634 0 0 1-.626.542ZM173.316 509.745a.634.634 0 0 1-.627-.546c-.396-2.797-.965-6.07-2.182-9.125-1.251-3.138-3.083-5.697-5.298-7.401a.633.633 0 1 1 .771-1.006c2.397 1.842 4.369 4.587 5.704 7.937 1.267 3.18 1.853 6.545 2.26 9.417a.634.634 0 0 1-.628.724ZM181.832 509.745a.634.634 0 0 1-.63-.709c1.416-11.885-6.34-19.267-6.419-19.34a.635.635 0 0 1 .863-.929c.34.317 8.306 7.901 6.814 20.419a.633.633 0 0 1-.628.559Z"/>
    <path fill="#CFF558" d="M267.214 515.99H147.26c-.711 0-1.421-.183-2.007-.586a3.471 3.471 0 0 1-1.305-4.087c1.414-2.971 4.338-4.016 8.66-4.016h122.477l-1.59 4.326a6.706 6.706 0 0 1-6.281 4.363Z"/>
    <path fill="#CFF558" d="M267.894 515.99a5.86 5.86 0 0 0 5.443-3.696l21.236-53.368a4.606 4.606 0 0 0-.465-4.282 4.592 4.592 0 0 0-3.8-2.017h-73.723a10.488 10.488 0 0 0-9.886 6.996l-19.933 56.367h81.128Z"/>
    <path fill="#fff" d="M269.619 508.458h-73.092a.634.634 0 0 1 0-1.269h73.092a.634.634 0 0 1 0 1.269Z"/>
    <path fill="#05143F" d="M86.941 473.656a.634.634 0 0 1-.009-1.269l56.092-.836h.01a.633.633 0 0 1 .009 1.269l-56.092.836h-.01Z"/>
    <path fill="#05143F" d="M103.944 473.205a.633.633 0 0 1-.592-.859c.258-.684.542-1.446.848-2.267 1.653-4.433 3.916-10.504 6.297-15.48a.634.634 0 1 1 1.142.548c-2.355 4.925-4.607 10.966-6.252 15.376-.306.823-.591 1.587-.85 2.272a.634.634 0 0 1-.593.41Z"/>
    <path fill="#fff" d="m139.549 307.344-20.982-17.915H54.621c-29.399 0-53.231-23.865-53.231-53.305s23.832-53.306 53.23-53.306h31.698c29.398 0 53.231 23.866 53.231 53.306v71.22Z"/>
    <path fill="#05143F" d="M139.548 307.978a.634.634 0 0 1-.411-.152l-20.804-17.763H54.62c-29.7 0-53.864-24.197-53.864-53.939 0-29.743 24.163-53.94 53.864-53.94h31.697c29.702 0 53.865 24.197 53.865 53.94v71.219a.636.636 0 0 1-.634.635ZM54.62 183.453c-29.002 0-52.597 23.628-52.597 52.671 0 29.042 23.595 52.67 52.597 52.67h63.947c.151 0 .296.054.411.152l19.937 17.022v-69.844c0-29.043-23.595-52.671-52.597-52.671H54.62Z"/>
    <path fill="#FC6E56" d="m73.652 217.175-3.198 3.203-3.197-3.203c-6.304-6.312-16.523-6.312-22.826 0-6.303 6.312-6.303 16.546 0 22.858l26.023 26.059 26.023-26.06c6.303-6.311 6.303-16.545 0-22.857-6.303-6.311-16.522-6.312-22.825 0Z"/>
  </g>
  <defs>
    <clipPath id="clip0_2_2">
      <path fill="#fff" d="M149 0h784v642H149z"/>
    </clipPath>
    <clipPath id="clip1_2_2">
      <path fill="#fff" d="M0 148h790v527H0z"/>
    </clipPath>
  </defs>
</svg>
