<svg xmlns="http://www.w3.org/2000/svg" fill="none" viewBox="0 0 110 93">
  <path fill="#221F20" d="M27.032 16.9c-.312-1.651-1.575-2.485-3.119-2.485-2.65 0-3.774 2.289-3.774 4.725 0 2.665 1.123 4.89 3.79 4.89 1.95 0 3.072-1.44 3.212-3.37h1.482c-.28 2.911-2.012 4.678-4.819 4.678-3.462 0-5.146-2.682-5.146-6.083 0-3.385 1.84-6.148 5.27-6.148 2.325 0 4.243 1.308 4.586 3.793h-1.482ZM29.82 16.606h1.247v1.782h.03c.64-1.357 1.53-2.027 2.964-1.978v1.471c-2.137 0-2.916 1.276-2.916 3.418v3.76h-1.326v-8.453ZM38.123 16.41c2.558 0 3.915 1.945 3.915 4.43 0 2.47-1.357 4.416-3.915 4.416-2.557 0-3.914-1.946-3.914-4.415 0-2.486 1.357-4.431 3.914-4.431Zm0 7.62c1.388 0 2.511-1.145 2.511-3.19 0-2.06-1.123-3.204-2.51-3.204-1.389 0-2.512 1.145-2.512 3.205 0 2.044 1.123 3.188 2.511 3.188ZM50.928 25.06h-1.403l-1.638-6.721h-.031l-1.622 6.72H44.8l-2.588-8.453h1.466l1.824 6.916h.031l1.622-6.916h1.45l1.685 6.916h.03l1.81-6.916h1.372l-2.573 8.453ZM54.383 16.606h1.247v1.34h.031c.562-1.046 1.466-1.536 2.62-1.536 2.121 0 2.776 1.275 2.776 3.09v5.56h-1.325v-5.724c0-1.03-.624-1.7-1.638-1.7-1.606 0-2.386 1.128-2.386 2.649v4.774h-1.325v-8.453ZM27.032 34.077c-.312-1.65-1.575-2.485-3.119-2.485-2.65 0-3.774 2.289-3.774 4.725 0 2.665 1.123 4.89 3.79 4.89 1.95 0 3.072-1.44 3.212-3.37h1.482c-.28 2.911-2.012 4.678-4.819 4.678-3.462 0-5.146-2.682-5.146-6.083 0-3.385 1.84-6.149 5.27-6.149 2.325 0 4.243 1.309 4.586 3.794h-1.482ZM33.381 33.587c2.557 0 3.914 1.946 3.914 4.43 0 2.47-1.357 4.416-3.914 4.416-2.558 0-3.915-1.946-3.915-4.415 0-2.485 1.357-4.431 3.915-4.431Zm0 7.62c1.388 0 2.51-1.145 2.51-3.19 0-2.06-1.122-3.204-2.51-3.204-1.388 0-2.51 1.145-2.51 3.205 0 2.044 1.122 3.188 2.51 3.188ZM38.488 33.783h1.248v1.242h.031c.593-.948 1.497-1.438 2.604-1.438.983 0 1.887.409 2.215 1.438a2.952 2.952 0 0 1 2.526-1.438c1.607 0 2.683.703 2.683 2.452v6.198h-1.326v-5.544c0-1.046-.265-1.88-1.56-1.88-1.278 0-2.105.85-2.105 2.158v5.266H43.48v-5.544c0-1.095-.328-1.88-1.513-1.88-1.575 0-2.152 1.52-2.152 2.158v5.266h-1.326v-8.454ZM51.418 33.783h1.248v1.242h.031c.593-.948 1.497-1.438 2.604-1.438.983 0 1.887.409 2.215 1.438a2.951 2.951 0 0 1 2.526-1.438c1.606 0 2.683.703 2.683 2.452v6.198h-1.326v-5.544c0-1.046-.265-1.88-1.56-1.88-1.278 0-2.105.85-2.105 2.158v5.266H56.41v-5.544c0-1.095-.328-1.88-1.513-1.88-1.575 0-2.152 1.52-2.152 2.158v5.266h-1.326v-8.454ZM71.22 39.555c-.358 1.864-1.637 2.878-3.446 2.878-2.573 0-3.79-1.864-3.867-4.448 0-2.534 1.59-4.398 3.79-4.398 2.853 0 3.726 2.796 3.648 4.84H65.31c-.047 1.471.749 2.78 2.511 2.78 1.092 0 1.856-.557 2.09-1.652h1.31ZM69.943 37.2c-.063-1.324-1.014-2.387-2.324-2.387-1.388 0-2.214 1.096-2.308 2.387h4.632ZM72.414 33.783h1.247v1.782h.032c.639-1.357 1.528-2.027 2.963-1.978v1.471c-2.137 0-2.917 1.276-2.917 3.418v3.76h-1.325v-8.453ZM82.722 36.497c-.203-1.062-.905-1.684-1.996-1.684-1.918 0-2.511 1.586-2.511 3.303 0 1.553.67 3.09 2.355 3.09 1.279 0 2.043-.784 2.214-2.06h1.357c-.296 2.06-1.528 3.287-3.556 3.287-2.464 0-3.774-1.799-3.774-4.317 0-2.534 1.248-4.53 3.805-4.53 1.825 0 3.291.9 3.478 2.911h-1.372ZM86.652 32.262h-1.326v-1.7h1.326v1.7Zm-1.326 1.52h1.326v8.455h-1.326v-8.454ZM95.455 42.204c-.234.147-.53.229-.951.229-.687 0-1.123-.392-1.123-1.309-.733.9-1.716 1.309-2.838 1.309-1.467 0-2.667-.687-2.667-2.371 0-1.913 1.356-2.322 2.729-2.6 1.466-.295 2.713-.196 2.713-1.243 0-1.21-.95-1.406-1.793-1.406-1.123 0-1.95.36-2.012 1.602h-1.325c.078-2.093 1.621-2.828 3.415-2.828 1.45 0 3.025.343 3.025 2.322v4.349c0 .654 0 .948.421.948.11 0 .234-.016.406-.082v1.08Zm-2.152-4.333c-.515.392-1.513.409-2.402.572-.873.163-1.622.49-1.622 1.52 0 .916.749 1.243 1.56 1.243 1.746 0 2.464-1.144 2.464-1.913v-1.422ZM96.436 30.562h1.325v11.675h-1.325V30.562ZM25.644 51.156c-.171-1.668-1.232-2.387-2.76-2.387-1.247 0-2.495.474-2.495 1.995 0 1.439 1.778 1.652 3.571 2.077 1.778.425 3.556 1.078 3.556 3.368 0 2.485-2.324 3.483-4.351 3.483-2.495 0-4.6-1.276-4.6-4.12h1.403c0 1.961 1.56 2.811 3.244 2.811 1.34 0 2.822-.44 2.822-2.125 0-1.602-1.778-1.88-3.555-2.29-1.778-.408-3.572-.948-3.572-3.09 0-2.37 2.012-3.417 4.04-3.417 2.276 0 4.007 1.128 4.1 3.695h-1.403ZM35.635 56.732c-.36 1.864-1.638 2.878-3.447 2.878-2.573 0-3.79-1.864-3.868-4.448 0-2.534 1.591-4.398 3.79-4.398 2.854 0 3.727 2.796 3.65 4.84h-6.036c-.047 1.472.749 2.78 2.51 2.78 1.093 0 1.857-.557 2.09-1.652h1.31Zm-1.28-2.355c-.062-1.324-1.013-2.387-2.323-2.387-1.388 0-2.214 1.096-2.308 2.387h4.632ZM36.828 50.96h1.247v1.783h.031c.64-1.358 1.529-2.028 2.963-1.98v1.473c-2.136 0-2.916 1.275-2.916 3.417v3.76h-1.325V50.96ZM45.849 59.414h-1.42l-2.993-8.454h1.481l2.261 7.047h.032l2.199-7.047h1.388l-2.948 8.454ZM51 49.44h-1.325v-1.701H51v1.7Zm-1.325 1.52H51v8.454h-1.325V50.96ZM58.158 53.674c-.203-1.062-.904-1.684-1.996-1.684-1.918 0-2.51 1.586-2.51 3.303 0 1.554.67 3.09 2.354 3.09 1.279 0 2.043-.784 2.214-2.06h1.357c-.296 2.06-1.528 3.287-3.555 3.287-2.465 0-3.774-1.799-3.774-4.317 0-2.534 1.247-4.53 3.805-4.53 1.824 0 3.29.9 3.478 2.911h-1.373ZM67.621 56.732c-.359 1.864-1.637 2.878-3.447 2.878-2.573 0-3.79-1.864-3.867-4.448 0-2.534 1.59-4.398 3.79-4.398 2.853 0 3.727 2.796 3.649 4.84H61.71c-.047 1.472.748 2.78 2.51 2.78 1.092 0 1.856-.557 2.09-1.652h1.31Zm-1.279-2.355c-.062-1.324-1.013-2.387-2.323-2.387-1.388 0-2.215 1.096-2.309 2.387h4.632ZM12.335 13.146h-1.093V76.7h1.093V13.146Z"/>
  <path fill="#949598" d="M26.935 68.606c-.015-2.053-1.05-2.71-2.96-2.71-1.38 0-2.852.673-2.852 2.348 0 1.249.94 1.643 1.88 1.939l1.19.377c1.536.493 3.009 1.019 3.009 2.99 0 1.15-.69 3.613-4.324 3.613-2.507 0-4.34-1.265-4.214-4.106h1.065c-.11 2.283 1.19 3.154 3.227 3.154 1.457 0 3.18-.756 3.18-2.513 0-1.66-1.535-1.955-2.772-2.333l-1.097-.344c-1.3-.394-2.21-1.216-2.21-2.727 0-2.35 1.975-3.351 3.965-3.351 2.271 0 4.104.953 3.979 3.663h-1.066ZM34.188 76.917h-.908l.282-1.544h-.032c-.61 1.002-1.676 1.79-2.882 1.79-1.41 0-2.444-.657-2.444-2.282 0-.263.047-.609.125-1.003l1.112-5.436h.987l-1.128 5.47c-.062.262-.11.574-.11.853 0 1.117.816 1.528 1.693 1.528 1.425 0 2.726-1.347 3.164-3.499l.893-4.352h.987l-1.739 8.475ZM37.493 68.442h.893l-.313 1.527h.031c.69-1.117 1.52-1.774 2.946-1.774 2.067 0 3.07 1.396 3.07 3.466 0 2.595-1.707 5.502-4.418 5.502-1.269 0-2.365-.558-2.585-1.938h-.031l-.987 4.83h-.987l2.381-11.613Zm-.063 5.403c0 1.478.815 2.448 2.257 2.448 2.271 0 3.446-2.628 3.446-4.697 0-1.446-.69-2.53-2.177-2.53-2.272 0-3.526 2.677-3.526 4.78ZM46.015 68.442h.893l-.313 1.527h.031c.69-1.117 1.52-1.774 2.946-1.774 2.067 0 3.07 1.396 3.07 3.466 0 2.595-1.708 5.502-4.418 5.502-1.269 0-2.365-.558-2.585-1.938h-.031l-.987 4.83h-.987l2.381-11.613Zm-.063 5.403c0 1.478.815 2.448 2.257 2.448 2.27 0 3.446-2.628 3.446-4.697 0-1.446-.69-2.53-2.178-2.53-2.271 0-3.524 2.677-3.524 4.78ZM55.117 65.19h.987L53.69 76.916h-.987l2.413-11.728ZM56.871 68.442h.988l-1.74 8.475h-.986l1.738-8.475Zm.674-3.253h.987l-.344 1.66H57.2l.345-1.66ZM58.986 72.958a4.306 4.306 0 0 0-.046.657c0 1.528.751 2.678 2.35 2.678 1.284 0 2.271-.87 2.647-2.103h.987c-.533 1.89-1.77 2.973-3.682 2.973-2.13 0-3.29-1.396-3.29-3.596 0-2.678 1.598-5.372 4.371-5.372 1.943 0 3.07 1.33 3.07 3.302 0 .476-.015.952-.078 1.461h-6.329Zm5.405-.87c0-.23.016-.444.016-.657 0-1.412-.846-2.365-2.209-2.365-1.63 0-2.742 1.445-3.086 3.022h5.28ZM66.96 68.442h.893l-.407 1.954h.031c.627-1.215 1.488-2.086 2.93-2.07.172 0 .36 0 .532.017l-.219 1.034c-.188 0-.376-.015-.564-.015-1.77.032-2.71 1.527-3.04 3.12l-.908 4.435h-.987l1.74-8.475Z"/>
</svg>
