<?xml version="1.0" encoding="UTF-8" standalone="no"?><!DOCTYPE svg PUBLIC "-//W3C//DTD SVG 1.1//EN" "http://www.w3.org/Graphics/SVG/1.1/DTD/svg11.dtd"><svg width="100%" height="100%" viewBox="0 0 2156 2648" version="1.1" xmlns="http://www.w3.org/2000/svg" xmlns:xlink="http://www.w3.org/1999/xlink" xml:space="preserve" xmlns:serif="http://www.serif.com/" style="fill-rule:evenodd;clip-rule:evenodd;stroke-linejoin:round;stroke-miterlimit:2;"><path d="M1466.88,421.979c82.318,-97.682 140.573,-233.229 140.573,-368.776c-0,-18.776 -1.589,-37.838 -5.026,-53.203c-133.958,5.026 -293.333,89.219 -389.427,200.677c-75.443,85.755 -145.86,221.302 -145.86,358.698c0,20.651 3.438,41.302 5.026,47.917c8.464,1.588 22.24,3.437 36.016,3.437c120.182,0 271.328,-80.469 358.698,-188.75m619.453,480.495c-15.338,11.901 -286.432,164.661 -286.432,504.297c-0,392.864 344.948,531.849 355.286,535.286c-1.588,8.464 -54.817,190.339 -181.875,375.651c-113.307,163.073 -231.64,325.886 -411.666,325.886c-180,-0 -226.329,-104.584 -434.141,-104.584c-202.526,0 -274.531,108.021 -439.193,108.021c-164.661,0 -279.557,-150.885 -411.666,-336.198c-152.995,-217.604 -276.641,-555.677 -276.641,-876.536c-0,-514.636 334.635,-787.552 663.958,-787.552c174.974,-0 320.834,114.87 430.703,114.87c104.584,-0 267.631,-121.771 466.719,-121.771c75.443,-0 346.537,6.901 524.948,262.63" style="fill:#f4f5f6;fill-rule:nonzero;"/></svg>