<?xml version="1.0" encoding="UTF-8" standalone="no"?><!DOCTYPE svg PUBLIC "-//W3C//DTD SVG 1.1//EN" "http://www.w3.org/Graphics/SVG/1.1/DTD/svg11.dtd"><svg width="100%" height="100%" viewBox="0 0 5692 1523" version="1.1" xmlns="http://www.w3.org/2000/svg" xmlns:xlink="http://www.w3.org/1999/xlink" xml:space="preserve" xmlns:serif="http://www.serif.com/" style="fill-rule:evenodd;clip-rule:evenodd;stroke-linejoin:round;stroke-miterlimit:2;"><path d="M434.526,1261.29l694.115,-0c6.745,-0 7.422,4.062 -0.677,6.744c-77.656,33.776 -190.417,139.766 -190.417,139.766c-77.63,70.234 -139.088,114.792 -270.078,114.792l-663.724,-0c-4.739,-0 -4.739,-4.037 -1.354,-6.068c73.594,-37.135 181.641,-145.182 181.641,-145.182c44.557,-46.589 136.38,-110.052 250.494,-110.052" style="fill:#f4f5f6;fill-rule:nonzero;"/><path d="M4991.53,1261.29l695.469,-0c6.068,-0 6.745,4.062 -0.677,6.744c-77.656,33.776 -190.417,139.766 -190.417,139.766c-78.307,70.234 -139.765,114.792 -270.078,114.792l-664.401,-0c-4.739,-0 -4.739,-4.037 -1.354,-6.068c72.917,-37.135 181.641,-145.182 181.641,-145.182c44.557,-46.589 136.38,-110.052 249.817,-110.052" style="fill:#f4f5f6;fill-rule:nonzero;"/><path d="M1573.61,1261.29l694.792,-0c6.068,-0 7.422,4.062 -0.677,6.744c-76.979,33.776 -189.74,139.766 -189.74,139.766c-78.307,70.234 -139.088,114.792 -270.755,114.792l-663.724,-0c-4.062,-0 -4.062,-4.037 -1.354,-6.068c73.594,-37.135 181.64,-145.182 181.64,-145.182c44.558,-46.589 136.381,-110.052 249.818,-110.052" style="fill:#f4f5f6;fill-rule:nonzero;"/><path d="M2713.37,1261.29l694.115,-0c6.067,-0 7.421,4.062 -0,6.744c-77.657,33.776 -190.417,139.766 -190.417,139.766c-77.63,70.234 -139.089,114.792 -270.078,114.792l-663.724,-0c-4.063,-0 -4.063,-4.037 -1.354,-6.068c73.593,-37.135 181.64,-145.182 181.64,-145.182c44.558,-46.589 135.703,-110.052 249.818,-110.052" style="fill:#f4f5f6;fill-rule:nonzero;"/><path d="M3852.44,1261.29l694.792,-0c6.068,-0 6.745,4.062 -0.677,6.744c-77.657,33.776 -190.417,139.766 -190.417,139.766c-77.63,70.234 -139.088,114.792 -270.078,114.792l-663.724,-0c-4.74,-0 -4.74,-4.037 -2.031,-6.068c73.593,-37.135 182.317,-145.182 182.317,-145.182c44.558,-46.589 136.381,-110.052 249.818,-110.052" style="fill:#f4f5f6;fill-rule:nonzero;"/><path d="M4040.83,2.026c-436.849,0 -726.537,210.677 -726.537,530.703c0,293.724 264.688,489.531 662.396,489.531c128.281,0 243.75,-16.198 378.125,-47.942l-0,-247.787c-95.208,100.599 -207.969,139.766 -329.505,139.766c-234.297,-0 -395,-146.511 -395,-356.511c-0,-207.291 166.771,-358.541 399.036,-358.541c126.953,-0 228.906,45.234 309.922,124.922l0,-247.813c-85.078,-16.875 -190.417,-26.328 -298.437,-26.328" style="fill:#f4f5f6;fill-rule:nonzero;"/><path d="M753.901,174.203c162.058,1.354 356.511,30.391 438.204,93.854l-0,-234.974l-1152.58,0l0,234.974c81.693,-63.463 253.204,-88.463 440.235,-89.791l-0,640.078c-0,93.854 -8.099,120.208 -47.266,169.479l370.026,-0c-41.875,-49.271 -48.62,-75.625 -48.62,-169.479l0,-644.141Z" style="fill:#f4f5f6;fill-rule:nonzero;"/><path d="M1951.05,404.451c-66.849,21.614 -184.323,27.682 -249.167,27.682l-95.859,-0l-0,-253.88l130.312,-0c116.12,-0 318.021,24.296 393.646,87.786l0,-232.292l-838.62,0c38.49,48.62 46.589,76.302 46.589,169.48l-0,616.484c-0,93.854 -8.099,121.536 -44.557,169.479l893.984,0l0,-232.292c-122.214,87.11 -355.833,87.787 -451.042,86.433l-130.312,-0l-0,-266.693l95.859,0c64.167,0 181.641,6.745 249.167,27.005l-0,-199.192Z" style="fill:#f4f5f6;fill-rule:nonzero;"/><path d="M3194.79,65.495c-131.666,-41.875 -306.536,-65.495 -439.557,-65.495c-242.396,-0 -478.724,72.24 -478.724,312.63c0,417.266 727.865,196.485 727.865,452.396c-0,83.047 -128.959,116.797 -232.943,116.797c-187.031,-0 -317.344,-28.359 -480.755,-126.25l-0,209.297c122.213,39.844 289.01,60.104 468.594,60.104c251.198,-0 486.172,-64.818 486.172,-311.276c-0,-435.521 -727.891,-240.365 -727.891,-453.75c-0,-85.755 116.823,-116.12 218.099,-116.12c172.187,0 357.187,51.302 459.14,145.156l0,-223.489Z" style="fill:#f4f5f6;fill-rule:nonzero;"/><path d="M5651.88,505.057c-0,-301.146 -237.006,-503.021 -591.485,-503.021c-376.771,0 -642.812,216.719 -642.812,521.928c-0,299.114 239.036,498.307 594.87,498.307c377.447,-0 639.427,-210 639.427,-517.214m-945.964,6.068c0,-201.198 127.604,-364.609 328.151,-364.609c197.162,-0 328.151,163.411 328.151,364.609c0,201.224 -130.989,364.609 -328.151,364.609c-199.87,0 -328.151,-162.708 -328.151,-364.609" style="fill:#f4f5f6;fill-rule:nonzero;"/></svg>