<?xml version="1.0" encoding="UTF-8" standalone="no"?><!DOCTYPE svg PUBLIC "-//W3C//DTD SVG 1.1//EN" "http://www.w3.org/Graphics/SVG/1.1/DTD/svg11.dtd"><svg width="100%" height="100%" viewBox="0 0 7486 1291" version="1.1" xmlns="http://www.w3.org/2000/svg" xmlns:xlink="http://www.w3.org/1999/xlink" xml:space="preserve" xmlns:serif="http://www.serif.com/" style="fill-rule:evenodd;clip-rule:evenodd;stroke-linejoin:round;stroke-miterlimit:2;"><path d="M2713.34,499.136l-0,-115.651l-203.308,0l0,775.469l209.401,-0l0,-354.271c0,-166.771 92.5,-219.115 199.636,-219.115c19.479,0 38.958,1.224 63.307,6.094l-0,-210.599c-15.833,-1.224 -31.641,-3.672 -48.698,-3.672c-65.729,0 -172.865,19.479 -220.338,121.745" style="fill:#f4f5f6;fill-rule:nonzero;"/><path d="M3514.34,844.87c-0,137.553 -81.563,180.157 -170.443,180.157c-68.151,-0 -101.015,-43.802 -101.015,-90.078c-0,-59.636 42.604,-90.079 96.145,-97.396l175.313,-26.771l-0,34.088Zm205.729,-189.895c0,-155.834 -91.302,-294.61 -337.213,-294.61c-208.151,0 -320.157,133.906 -332.318,255.651l186.25,38.959c6.094,-68.177 57.213,-126.615 148.515,-126.615c87.657,0 130.261,46.25 130.261,101.042c-0,26.771 -14.609,48.698 -58.438,54.765l-191.119,28.021c-129.037,19.453 -231.302,97.37 -231.302,236.146c-0,121.745 101.041,233.75 266.588,233.75c114.453,-0 188.698,-53.568 228.88,-115.651c0,30.443 3.646,73.047 7.292,92.526l192.344,-0c-4.87,-26.797 -9.74,-81.563 -9.74,-122.969l0,-381.015Z" style="fill:#f4f5f6;fill-rule:nonzero;"/><path d="M3980.59,0.019c-70.599,-1.224 -129.037,57.213 -129.037,130.26c0,69.401 58.438,127.813 129.037,127.813c73.046,-0 129.036,-58.412 129.036,-127.813c0,-73.047 -57.214,-130.26 -129.036,-130.26" style="fill:#f4f5f6;fill-rule:nonzero;"/><rect x="3877.12" y="383.469" width="209.375" height="775.469" style="fill:#f4f5f6;"/><path d="M4673.44,362.792c-84.01,0 -176.51,36.511 -223.984,116.875l-0,-96.172l-203.307,0l-0,775.443l209.375,0l-0,-445.547c-0,-90.078 53.567,-160.703 144.869,-160.703c101.042,0 143.646,68.177 143.646,154.61l0,452.864l209.401,0l0,-489.375c0,-170.443 -87.656,-307.995 -280,-307.995" style="fill:#f4f5f6;fill-rule:nonzero;"/><path d="M5395.87,983.649c-52.343,0 -90.078,-19.479 -90.078,-86.432l0,-878.932l-205.729,-0l0,914.244c0,149.714 94.948,238.594 245.886,238.594c32.89,0 57.239,-3.646 86.432,-9.74l-0,-178.958c-14.61,1.224 -25.547,1.224 -36.511,1.224" style="fill:#f4f5f6;fill-rule:nonzero;"/><path d="M5648.9,0.019c-71.823,-1.224 -129.037,57.213 -129.037,130.26c0,69.401 58.438,127.813 129.037,127.813c73.047,-0 129.036,-58.412 129.036,-127.813c0,-73.047 -57.213,-130.26 -129.036,-130.26" style="fill:#f4f5f6;fill-rule:nonzero;"/><rect x="5544.2" y="383.469" width="209.375" height="775.469" style="fill:#f4f5f6;"/><path d="M6340.54,362.792c-84.01,0 -176.51,36.511 -223.984,116.875l-0,-96.172l-203.307,0l-0,775.443l209.375,0l-0,-445.547c-0,-90.078 53.567,-160.703 144.869,-160.703c101.042,0 143.646,68.177 143.646,154.61l0,452.864l209.401,0l0,-489.375c0,-170.443 -87.656,-307.995 -280,-307.995" style="fill:#f4f5f6;fill-rule:nonzero;"/><path d="M6931.83,682.956c4.869,-70.599 64.531,-153.385 172.864,-153.385c119.297,-0 170.417,75.469 172.865,153.385l-345.729,0Zm553.906,79.141c-0,-249.557 -143.646,-401.745 -382.266,-401.745c-198.411,0 -381.015,160.703 -381.015,407.813c-0,261.745 187.473,415.13 400.494,415.13c191.12,-0 312.865,-112.005 353.047,-245.912l-176.51,-52.343c-25.573,69.401 -79.141,118.073 -176.537,118.073c-103.463,-0 -191.119,-74.245 -194.765,-176.511l553.906,0c-0,-3.646 3.646,-34.088 3.646,-64.505" style="fill:#f4f5f6;fill-rule:nonzero;"/><path d="M2227.64,152.191l-189.27,-0l-0,108.828c-0,69.401 -37.865,123.047 -119.87,123.047l-39.427,-0l-0,186.12l140.364,-0l0,361.197c0,149.844 94.636,239.74 246.068,239.74c61.51,0 99.349,-11.042 118.281,-18.932l0,-173.49c-11.041,3.151 -39.427,6.302 -64.661,6.302c-59.948,0 -91.485,-22.083 -91.485,-89.896l0,-324.921l156.146,-0l0,-186.12l-156.146,-0l0,-231.875Z" style="fill:#f4f5f6;fill-rule:nonzero;"/><path d="M1317.31,587.191l-656.745,656.745c62.188,62.187 162.995,62.187 225.182,-0l544.141,-544.167c155.208,-155.182 155.208,-407.708 0,-562.917c-155.182,-155.208 -407.708,-155.208 -562.917,0l-318.984,318.985l-93.828,-93.802c-31.094,-31.094 -81.485,-31.094 -112.578,-0c-31.094,31.067 -31.094,81.484 -0,112.578l206.406,206.406l431.562,-431.589c93.125,-93.099 244.636,-93.125 337.761,0c93.125,93.125 93.125,244.636 -0,337.761" style="fill:#f4f5f6;fill-rule:nonzero;"/><path d="M116.406,699.774c-155.208,-155.208 -155.208,-407.734 0,-562.917c148.88,-148.906 387.344,-154.921 543.516,-18.125l-112.995,112.995c-93.672,-74.974 -231.172,-69.062 -317.943,17.709c-93.125,93.125 -93.125,244.635 0,337.76l319.011,318.984l544.14,-544.166c31.094,-31.094 81.511,-31.094 112.579,-0c31.093,31.093 31.093,81.51 -0,112.604l-656.719,656.745l-431.589,-431.589Z" style="fill:#f4f5f6;fill-rule:nonzero;"/></svg>