<?xml version="1.0" encoding="UTF-8" standalone="no"?><!DOCTYPE svg PUBLIC "-//W3C//DTD SVG 1.1//EN" "http://www.w3.org/Graphics/SVG/1.1/DTD/svg11.dtd"><svg width="100%" height="100%" viewBox="0 0 1881 2589" version="1.1" xmlns="http://www.w3.org/2000/svg" xmlns:xlink="http://www.w3.org/1999/xlink" xml:space="preserve" xmlns:serif="http://www.serif.com/" style="fill-rule:evenodd;clip-rule:evenodd;stroke-linejoin:round;stroke-miterlimit:2;"><path d="M1382.09,2242.68l-208.333,0l-0,-1657.47c69.088,-85.338 136.51,-172.396 208.333,-255.312l0,1912.79Z" style="fill:#f4f5f6;fill-rule:nonzero;"/><path d="M1036.57,1386.63l-208.333,-0l-0,-925.912l208.333,-255.286l0,1181.2Z" style="fill:#f4f5f6;fill-rule:nonzero;"/><rect x="0" y="1521.26" width="1036.56" height="210.833" style="fill:#f4f5f6;"/><path d="M81.31,1386.63l609.739,-754.454l0,334.037l-341.718,420.417l-268.021,-0Z" style="fill:#f4f5f6;fill-rule:nonzero;"/><rect x="828.255" y="1866.73" width="208.333" height="721.432" style="fill:#f4f5f6;"/><rect x="1173.75" y="2377.3" width="525.911" height="210.833" style="fill:#f4f5f6;"/><rect x="1519.3" y="1521.26" width="360.755" height="210.833" style="fill:#f4f5f6;"/><rect x="482.734" y="2377.3" width="208.333" height="210.833" style="fill:#f4f5f6;"/><path d="M1173.76,368.001l0,-331.485c0,-2.448 28.125,-37.031 31.276,-36.51l161.172,130.443l-192.448,237.552Z" style="fill:#f4f5f6;fill-rule:nonzero;"/></svg>