<svg xmlns="http://www.w3.org/2000/svg" fill="none" viewBox="0 0 117 130">
  <g clip-path="url(#clip0_58_3304)">
    <path fill="#061857" d="M52.862 12.629 15.663 55.716c-5.981 6.928-5.981 18.161 0 25.09l37.199 43.087c5.981 6.928 15.678 6.928 21.66 0l37.198-43.088c5.982-6.928 5.982-18.16 0-25.089L74.522 12.63c-5.982-6.928-15.679-6.928-21.66 0Z"/>
  </g>
  <g clip-path="url(#clip1_58_3304)">
    <path fill="#ABA0F9" stroke="#061857" stroke-width="2" d="M5.5 49.366 42.697 6.278c5.62-6.51 14.733-6.51 20.353 0l37.199 43.088c5.62 6.51 5.62 17.064 0 23.574l-37.2 43.088c-5.62 6.51-14.731 6.51-20.352 0L5.5 72.94c-5.62-6.51-5.62-17.064 0-23.574Z"/>
  </g>
  <defs>
    <clipPath id="clip0_58_3304">
      <path fill="#fff" d="M11.177 7.433h105.03v121.656H11.176z"/>
    </clipPath>
    <clipPath id="clip1_58_3304">
      <path fill="#fff" d="M.257.205h105.029V121.86H.256z"/>
    </clipPath>
  </defs>
</svg>
