<svg xmlns="http://www.w3.org/2000/svg" fill="none" viewBox="0 0 20 15">
  <path fill="#FC6E56" d="M19.61 4.96c.156-.116.39 0 .39.196v7.969C20 14.18 19.14 15 18.125 15H1.875A1.851 1.851 0 0 1 0 13.125V5.156c0-.195.195-.312.352-.195.898.703 2.03 1.562 6.015 4.453C7.187 10 8.594 11.29 10 11.29c1.367 0 2.813-1.289 3.594-1.875 3.984-2.89 5.117-3.75 6.015-4.453ZM10 10c-.938.04-2.227-1.133-2.89-1.602C1.913 4.648 1.522 4.297.351 3.36.117 3.203 0 2.93 0 2.617v-.742C0 .859.82 0 1.875 0h16.25C19.141 0 20 .86 20 1.875v.742a.889.889 0 0 1-.39.742c-1.172.938-1.563 1.29-6.758 5.04-.665.468-1.954 1.64-2.852 1.601Z"/>
</svg>
