<svg xmlns="http://www.w3.org/2000/svg" fill="none" viewBox="0 0 126 121">
  <g clip-path="url(#clip0_58_3320)">
    <path fill="#061857" d="M110.12 14.664c20.633 29.906 20.637 72.613.011 102.523-2.689 3.899-7.739 4.177-10.81.677L58.956 71.852c-2.916-3.323-2.91-8.77.012-12.086l40.354-45.792c3.073-3.487 8.113-3.203 10.798.69Z"/>
    <path fill="#061857" d="M21.08 117.187C.447 87.282.443 44.575 21.069 14.664c2.689-3.899 7.739-4.177 10.81-.676l40.365 46.01c2.916 3.325 2.91 8.772-.012 12.088l-40.354 45.791c-3.073 3.487-8.113 3.203-10.798-.69Z"/>
    <path fill="#0552CE" stroke="#061857" stroke-miterlimit="10" stroke-width="2" d="M105.668 3.528c20.632 29.906 20.636 72.613.01 102.523-2.688 3.9-7.738 4.177-10.81.677L54.504 60.717c-2.916-3.324-2.91-8.771.012-12.087L94.87 2.838c3.073-3.487 8.112-3.202 10.798.69Z"/>
    <path fill="#1088FF" stroke="#061857" stroke-miterlimit="10" stroke-width="2" d="M16.627 106.052C-4.006 76.146-4.009 33.439 16.617 3.529c2.688-3.9 7.738-4.178 10.809-.677l40.366 46.011c2.915 3.324 2.91 8.77-.012 12.087l-40.355 45.792c-3.073 3.487-8.112 3.202-10.798-.69Z"/>
  </g>
  <defs>
    <clipPath id="clip0_58_3320">
      <path fill="#fff" d="M.837.042h124.76v120.27H.837z"/>
    </clipPath>
  </defs>
</svg>
