<svg xmlns="http://www.w3.org/2000/svg" fill="none" viewBox="0 0 113 137">
  <g clip-path="url(#clip0_58_3312)">
    <path fill="#061857" d="M111.666 75.733c-32.587 11.18-41.945 22.019-51.596 59.764-.496 1.943-2.875 1.943-3.372 0-9.65-37.745-19.009-48.585-51.595-59.764-1.678-.575-1.678-3.33 0-3.906C37.689 60.65 47.047 49.81 56.698 12.064c.497-1.943 2.876-1.943 3.372 0 9.651 37.745 19.01 48.585 51.596 59.763 1.677.576 1.677 3.331 0 3.906Z"/>
  </g>
  <g clip-path="url(#clip1_58_3312)">
    <path fill="#FC6E56" stroke="#061857" stroke-width="2" d="M54.95 1.658c.2 0 .489.11.653.514l.063.191c4.831 18.895 9.629 31.237 17.41 40.25 7.552 8.747 17.822 14.253 33.315 19.686l1.514.525c.32.11.583.468.583 1.008 0 .473-.201.805-.466.954l-.117.053C91.563 70.445 80.871 76.02 73.075 85.05c-7.537 8.73-12.275 20.586-16.956 38.497l-.453 1.752c-.143.56-.487.705-.717.705-.2 0-.49-.11-.655-.514l-.063-.191c-4.83-18.895-9.628-31.237-17.409-40.25C29.27 76.304 19 70.798 3.507 65.365L1.99 64.84c-.32-.11-.582-.467-.582-1.007 0-.473.201-.806.466-.955l.116-.053c16.342-5.606 27.035-11.182 34.831-20.212 7.538-8.73 12.275-20.586 16.956-38.497l.453-1.752c.144-.56.488-.705.718-.705Z"/>
  </g>
  <defs>
    <clipPath id="clip0_58_3312">
      <path fill="#fff" d="M3.845 10.607h109.079v126.347H3.844z"/>
    </clipPath>
    <clipPath id="clip1_58_3312">
      <path fill="#fff" d="M.41.658h109.078v126.347H.41z"/>
    </clipPath>
  </defs>
</svg>
