<svg xmlns="http://www.w3.org/2000/svg" fill="none" viewBox="0 0 340 278">
  <path fill="#1088FF" d="M120.5 0C53.9499 0 0 48.5324 0 108.4V271h241V108.4C241 48.5324 187.051 0 120.5 0Z"/>
  <path fill="#0552CE" d="M336.929 161.241a.2627.2627 0 0 1-.263-.263v-60.087l-15.538.23h-.004a.2631.2631 0 0 1-.263-.259.2635.2635 0 0 1 .26-.267l15.804-.235a.2627.2627 0 0 1 .267.264v60.354c0 .145-.118.263-.263.263Z"/>
  <path fill="#F3F3F3" d="M336.929 175.253c1.551 0 2.808-1.26 2.808-2.814 0-1.555-1.257-2.815-2.808-2.815s-2.809 1.26-2.809 2.815c0 1.554 1.258 2.814 2.809 2.814Z"/>
  <path fill="#0552CE" d="M336.929 175.516c-1.694 0-3.072-1.381-3.072-3.077 0-1.697 1.378-3.078 3.072-3.078 1.693 0 3.071 1.381 3.071 3.078 0 1.696-1.378 3.077-3.071 3.077Zm0-5.628c-1.404 0-2.545 1.144-2.545 2.551 0 1.406 1.141 2.551 2.545 2.551 1.403 0 2.545-1.145 2.545-2.551 0-1.407-1.142-2.551-2.545-2.551Z"/>
  <path fill="#F3F3F3" d="M336.929 184.248c1.551 0 2.808-1.26 2.808-2.814 0-1.555-1.257-2.815-2.808-2.815s-2.809 1.26-2.809 2.815c0 1.554 1.258 2.814 2.809 2.814Z"/>
  <path fill="#0552CE" d="M336.929 184.511c-1.694 0-3.072-1.381-3.072-3.077 0-1.697 1.378-3.078 3.072-3.078 1.693 0 3.071 1.381 3.071 3.078 0 1.696-1.378 3.077-3.071 3.077Zm0-5.628c-1.404 0-2.545 1.144-2.545 2.551 0 1.406 1.141 2.551 2.545 2.551 1.403 0 2.545-1.145 2.545-2.551 0-1.407-1.142-2.551-2.545-2.551Z"/>
  <path fill="#CFF558" d="M336.929 193.243c1.551 0 2.808-1.26 2.808-2.814 0-1.555-1.257-2.815-2.808-2.815s-2.809 1.26-2.809 2.815c0 1.554 1.258 2.814 2.809 2.814Z"/>
  <path fill="#0552CE" d="M336.929 231.85a.262.262 0 0 1-.263-.263v-26.114c0-.145.117-.263.263-.263.145 0 .263.118.263.263v26.114c0 .146-.118.263-.263.263ZM316.404 278h-82.709a.2633.2633 0 0 1-.263-.263c0-.146.118-.263.263-.263h82.709c.145 0 .263.117.263.263 0 .145-.118.263-.263.263ZM138.885 277.868H74.6456a.2625.2625 0 0 1-.2632-.263c0-.145.1177-.263.2632-.263h64.2394c.146 0 .263.118.263.263a.262.262 0 0 1-.263.263Z"/>
  <path fill="#F3F3F3" d="M79.4993 69.7663H309.524c3.228 0 5.848 2.6212 5.848 5.8497v141.416H73.6516V75.616c0-3.2285 2.6203-5.8497 5.8477-5.8497Z"/>
  <path fill="#F3F3F3" d="M315.372 217.295H73.6516a.2632.2632 0 0 1-.2631-.263V75.6161c0-3.3707 2.7413-6.113 6.1108-6.113H309.524c3.37 0 6.111 2.7423 6.111 6.113V217.032c0 .145-.118.263-.263.263Zm-241.4572-.527H315.109V75.6161c0-3.0805-2.505-5.5865-5.585-5.5865H79.4993c-3.0794 0-5.5845 2.506-5.5845 5.5865V216.768Z"/>
  <path fill="#0552CE" d="M307.266 108.019a.2637.2637 0 0 1-.264-.264V84.6769c0-3.0805-2.45-5.5865-5.463-5.5865h-1.782a.2634.2634 0 0 1-.264-.2632c0-.1455.118-.2632.264-.2632h1.782c3.303 0 5.99 2.7422 5.99 6.1129v23.0781c0 .146-.118.264-.263.264ZM184.312 79.0904h-10.911a.2625.2625 0 0 1-.263-.2632c0-.1455.117-.2632.263-.2632h10.911c.146 0 .263.1177.263.2632a.2625.2625 0 0 1-.263.2632ZM81.758 102.374a.2632.2632 0 0 1-.2631-.263V84.6769c0-3.3707 2.687-6.1129 5.9898-6.1129h18.7293c.146 0 .263.1177.263.2632a.2625.2625 0 0 1-.263.2632H87.4847c-3.0127 0-5.4635 2.506-5.4635 5.5865v17.4341c0 .145-.1177.263-.2632.263ZM127.96 209.299H98.4349a.2625.2625 0 0 1-.2632-.263c0-.145.1177-.263.2632-.263H127.96c.146 0 .263.118.263.263a.262.262 0 0 1-.263.263ZM254.211 209.299H135.692a.2629.2629 0 1 1 0-.526h118.519c.145 0 .263.118.263.263 0 .146-.118.263-.263.263Z"/>
  <path fill="#F3F3F3" d="M162.96 112.405c10.314-14.1062 7.231-33.916-6.886-44.2466-14.118-10.3305-33.925-7.2699-44.239 6.8362-10.315 14.106-7.232 33.9154 6.886 44.2464 14.117 10.331 33.924 7.27 44.239-6.836Z"/>
  <path fill="#0552CE" d="M137.365 125.628c-6.729 0-13.264-2.124-18.8-6.175-6.885-5.037-11.398-12.452-12.71-20.8788-1.311-8.4267.737-16.8559 5.767-23.7352 5.03-6.8789 12.441-11.3845 20.866-12.6863 8.424-1.3024 16.856.7555 23.741 5.7935 6.885 5.0377 11.399 12.4526 12.71 20.879 1.311 8.4267-.737 16.8558-5.767 23.7348-5.03 6.879-12.44 11.385-20.866 12.687-1.65.255-3.302.381-4.941.381Zm.063-63.33c-1.613 0-3.236.1239-4.86.375-8.286 1.2804-15.574 5.7114-20.521 12.4771-4.947 6.7653-6.961 15.0555-5.672 23.3429 1.29 8.288 5.729 15.581 12.501 20.535 6.771 4.956 15.065 6.98 23.35 5.698 8.286-1.28 15.574-5.711 20.521-12.477 4.947-6.765 6.962-15.0552 5.672-23.3425-1.29-8.2879-5.729-15.5807-12.501-20.5354-5.444-3.9841-11.873-6.0731-18.49-6.0731Z"/>
  <path fill="#FC6E56" d="M171.159 107.646c6.409-15.1847 1.837-33.3311-12.018-43.5289l-21.597 29.5353s28.05 11.6076 33.615 13.9936Z"/>
  <path fill="#F3F3F3" d="M136.668 59.3948c-9.195.1019-17.827 3.9519-24.04 10.3732 6.035 5.7891 24.648 23.587 24.648 23.587s-.567-28.3121-.608-33.9602Z"/>
  <path fill="#0552CE" d="M137.276 93.6182a.2623.2623 0 0 1-.182-.073c-.186-.1779-18.682-17.8641-24.648-23.5873a.2602.2602 0 0 1-.081-.1851.2592.2592 0 0 1 .074-.1879c6.331-6.5428 15.161-10.353 24.226-10.4533h.003c.069 0 .135.027.184.0753.051.0491.079.116.079.1861.041 5.5819.602 33.6736.608 33.9568a.264.264 0 0 1-.157.2463.2705.2705 0 0 1-.106.0221Zm-24.274-23.8565c5.61 5.3801 21.13 20.2226 23.998 22.9656-.083-4.154-.542-27.4378-.593-33.0654-8.745.1674-17.247 3.8357-23.405 10.0998Z"/>
  <path fill="#F3F3F3" d="M296.891 59.4353H186.537v65.1397h110.354V59.4353Z"/>
  <path fill="#C4E3F7" d="M296.891 124.97H186.537a.3952.3952 0 0 1-.395-.395V59.4352a.395.395 0 0 1 .395-.3948h110.354a.395.395 0 0 1 .395.3948v65.1398c0 .218-.177.395-.395.395Zm-109.959-.79h109.564V59.83H186.932v64.35Z"/>
  <path fill="#C4E3F7" d="M296.891 117.682H186.537a.3952.3952 0 0 1-.395-.395c0-.218.177-.395.395-.395h110.354c.218 0 .395.177.395.395 0 .218-.177.395-.395.395ZM296.891 110.395H186.537a.3952.3952 0 0 1-.395-.395c0-.218.177-.395.395-.395h110.354c.218 0 .395.177.395.395 0 .218-.177.395-.395.395ZM296.891 103.107H186.537a.3952.3952 0 0 1-.395-.395c0-.218.177-.395.395-.395h110.354c.218 0 .395.177.395.395 0 .218-.177.395-.395.395ZM296.891 95.8196H186.537a.395.395 0 0 1-.395-.3948.395.395 0 0 1 .395-.3948h110.354a.395.395 0 0 1 .395.3948.395.395 0 0 1-.395.3948ZM296.891 88.5319H186.537a.395.395 0 0 1-.395-.3948.395.395 0 0 1 .395-.3948h110.354a.395.395 0 0 1 .395.3948.395.395 0 0 1-.395.3948ZM296.891 81.1851H186.537a.395.395 0 0 1-.395-.3948.395.395 0 0 1 .395-.3948h110.354a.395.395 0 0 1 .395.3948.395.395 0 0 1-.395.3948ZM296.891 73.8977H186.537a.395.395 0 0 1-.395-.3948.395.395 0 0 1 .395-.3948h110.354a.395.395 0 0 1 .395.3948.395.395 0 0 1-.395.3948ZM296.891 66.61H186.537a.395.395 0 0 1-.395-.3948.395.395 0 0 1 .395-.3948h110.354a.395.395 0 0 1 .395.3948.395.395 0 0 1-.395.3948Z"/>
  <path fill="#C4E3F7" d="M200.493 124.97a.3952.3952 0 0 1-.395-.395V59.4352a.395.395 0 0 1 .79 0v65.1398c0 .218-.177.395-.395.395ZM214.449 124.97a.3952.3952 0 0 1-.395-.395V59.4352a.395.395 0 0 1 .79 0v65.1398c0 .218-.177.395-.395.395ZM228.405 124.97a.3952.3952 0 0 1-.395-.395V59.4352a.395.395 0 0 1 .395-.3948c.218 0 .394.1768.394.3948v65.1398c0 .218-.176.395-.394.395ZM242.361 124.97a.3952.3952 0 0 1-.395-.395V59.4352a.395.395 0 0 1 .395-.3948c.217 0 .394.1768.394.3948v65.1398a.395.395 0 0 1-.394.395ZM256.317 124.97a.3952.3952 0 0 1-.395-.395V59.4352a.395.395 0 0 1 .395-.3948c.218 0 .394.1768.394.3948v65.1398c0 .218-.176.395-.394.395ZM269.35 124.929a.3952.3952 0 0 1-.395-.395V59.3948A.395.395 0 0 1 269.35 59c.218 0 .394.1769.394.3948v65.1392a.395.395 0 0 1-.394.395ZM283.305 124.929a.3943.3943 0 0 1-.394-.395V59.3948c0-.2179.177-.3948.394-.3948a.395.395 0 0 1 .395.3948v65.1392c0 .218-.177.395-.395.395Z"/>
  <path fill="#0552CE" d="M232.449 86.7948h-36.25a.2633.2633 0 0 1 0-.5265h36.219l24.551-5.7294 21.603-8.9737 8.103-9.558a.263.263 0 1 1 .401.3404l-8.144 9.6065a.2668.2668 0 0 1-.099.073l-21.682 9.0063a.2802.2802 0 0 1-.041.0132l-24.602 5.7412a.252.252 0 0 1-.059.007Z"/>
  <path fill="#CFF558" d="M232.197 89.3157c1.509 0 2.732-1.2465 2.732-2.7843 0-1.5377-1.223-2.7843-2.732-2.7843-1.509 0-2.733 1.2466-2.733 2.7843 0 1.5378 1.224 2.7843 2.733 2.7843ZM257.05 83.5746c1.51 0 2.733-1.2466 2.733-2.7843s-1.223-2.7843-2.733-2.7843c-1.509 0-2.732 1.2466-2.732 2.7843s1.223 2.7843 2.732 2.7843ZM278.622 74.5682c1.509 0 2.733-1.2466 2.733-2.7844 0-1.5377-1.224-2.7843-2.733-2.7843-1.509 0-2.733 1.2466-2.733 2.7843 0 1.5378 1.224 2.7844 2.733 2.7844ZM209.589 89.3093c1.509 0 2.732-1.2466 2.732-2.7843 0-1.5378-1.223-2.7843-2.732-2.7843-1.51 0-2.733 1.2465-2.733 2.7843 0 1.5377 1.223 2.7843 2.733 2.7843Z"/>
  <path fill="#0552CE" d="M285.631 113.487a.253.253 0 0 1-.109-.024l-13.902-6.341-22.298-2.773a.2741.2741 0 0 1-.028-.005l-24.601-5.741-23.232-6.596-6.59-1.448a.2635.2635 0 0 1-.201-.3136c.031-.1419.173-.231.314-.2005l6.606 1.4519 23.234 6.5967 24.577 5.7345 22.324 2.776a.295.295 0 0 1 .077.022l13.939 6.358c.132.061.19.217.13.349a.2632.2632 0 0 1-.24.154Z"/>
  <path fill="#F3F3F3" d="M249.606 106.872c1.509 0 2.733-1.246 2.733-2.784 0-1.538-1.224-2.784-2.733-2.784-1.509 0-2.733 1.246-2.733 2.784 0 1.538 1.224 2.784 2.733 2.784Z"/>
  <path fill="#0552CE" d="M249.606 107.136c-1.652 0-2.996-1.368-2.996-3.048s1.344-3.048 2.996-3.048 2.996 1.368 2.996 3.048-1.344 3.048-2.996 3.048Zm0-5.569c-1.362 0-2.47 1.131-2.47 2.521s1.108 2.521 2.47 2.521 2.47-1.131 2.47-2.521-1.108-2.521-2.47-2.521Z"/>
  <path fill="#F3F3F3" d="M224.752 101.131c1.51 0 2.733-1.2465 2.733-2.7842 0-1.5378-1.223-2.7843-2.733-2.7843-1.509 0-2.732 1.2465-2.732 2.7843 0 1.5377 1.223 2.7842 2.732 2.7842Z"/>
  <path fill="#0552CE" d="M224.753 101.394c-1.653 0-2.996-1.367-2.996-3.0473 0-1.6804 1.343-3.0474 2.996-3.0474 1.651 0 2.995 1.367 2.995 3.0474 0 1.6803-1.344 3.0473-2.995 3.0473Zm0-5.5682c-1.362 0-2.47 1.1307-2.47 2.5209 0 1.3901 1.108 2.5213 2.47 2.5213 1.361 0 2.469-1.1312 2.469-2.5213 0-1.3902-1.108-2.5209-2.469-2.5209Z"/>
  <path fill="#F3F3F3" d="M203.123 94.8096c1.509 0 2.733-1.2466 2.733-2.7843 0-1.5378-1.224-2.7843-2.733-2.7843-1.509 0-2.732 1.2465-2.732 2.7843 0 1.5377 1.223 2.7843 2.732 2.7843Z"/>
  <path fill="#0552CE" d="M203.123 95.0728c-1.652 0-2.996-1.3672-2.996-3.0476 0-1.6803 1.344-3.0476 2.996-3.0476s2.996 1.3673 2.996 3.0476c0 1.6804-1.344 3.0476-2.996 3.0476Zm0-5.5687c-1.362 0-2.469 1.131-2.469 2.5212 0 1.3901 1.107 2.5211 2.469 2.5211 1.362 0 2.47-1.131 2.47-2.5211 0-1.3902-1.108-2.5212-2.47-2.5212Z"/>
  <path fill="#F3F3F3" d="M271.692 109.65c1.51 0 2.733-1.247 2.733-2.784 0-1.538-1.223-2.785-2.733-2.785-1.509 0-2.732 1.247-2.732 2.785 0 1.537 1.223 2.784 2.732 2.784Z"/>
  <path fill="#0552CE" d="M271.693 109.913c-1.652 0-2.996-1.367-2.996-3.047 0-1.681 1.344-3.048 2.996-3.048 1.651 0 2.995 1.367 2.995 3.048 0 1.68-1.344 3.047-2.995 3.047Zm0-5.568c-1.362 0-2.47 1.131-2.47 2.521s1.108 2.521 2.47 2.521c1.361 0 2.469-1.131 2.469-2.521 0-1.391-1.108-2.521-2.469-2.521Z"/>
  <path fill="#C4E3F7" d="M138.064 132.083H97.7326v18.239h40.3314v-18.239Z"/>
  <path fill="#F3F3F3" d="M108.393 137.204h-6.229a.3935.3935 0 0 1-.394-.394c0-.218.177-.395.394-.395h6.229c.218 0 .394.177.394.395 0 .218-.176.394-.394.394ZM133.632 137.204h-19.854a.3943.3943 0 0 1-.395-.394c0-.218.177-.395.395-.395h19.854c.218 0 .395.177.395.395 0 .218-.177.394-.395.394ZM121.448 141.597h-19.284a.3935.3935 0 0 1-.394-.394c0-.218.176-.395.394-.395h19.284c.218 0 .395.177.395.395 0 .218-.177.394-.395.394ZM133.632 141.597h-7.777a.3943.3943 0 0 1-.395-.394c0-.218.177-.395.395-.395h7.777c.218 0 .395.177.395.395 0 .218-.177.394-.395.394ZM111.167 145.99h-9.003a.3943.3943 0 0 1-.394-.395c0-.218.177-.394.394-.394h9.003c.218 0 .395.176.395.394 0 .218-.177.395-.395.395ZM133.632 145.99h-17.08a.395.395 0 0 1-.394-.395c0-.218.177-.394.394-.394h17.08c.218 0 .395.176.395.394 0 .218-.177.395-.395.395Z"/>
  <path fill="#0552CE" d="M115.794 131.079a.2627.2627 0 0 1-.263-.263v-7.531c0-.057.018-.113.052-.159l10.062-13.345a.262.262 0 0 1 .368-.052c.116.088.139.253.052.369l-10.008 13.275v7.443c0 .145-.118.263-.263.263ZM164.712 202.146H98.4348a.2632.2632 0 0 1-.2631-.263v-45.308c0-.146.1177-.263.2631-.263.1455 0 .2632.117.2632.263v45.045h66.014c.145 0 .263.117.263.263 0 .145-.118.263-.263.263Z"/>
  <path fill="#0552CE" d="M107.054 199.528h-5.863a.2635.2635 0 0 1-.264-.263v-30.446c0-.145.118-.263.264-.263h5.863c.145 0 .263.118.263.263v30.446c0 .145-.118.263-.263.263Zm-5.6-.526h5.337v-29.92h-5.337v29.92ZM116.283 199.528h-5.863a.2627.2627 0 0 1-.263-.263v-16.359c0-.145.117-.263.263-.263h5.863c.146 0 .263.118.263.263v16.359c0 .145-.117.263-.263.263Zm-5.6-.526h5.337V183.17h-5.337v15.832ZM125.512 199.528h-5.863a.2633.2633 0 0 1-.263-.263v-22.724c0-.146.118-.263.263-.263h5.863c.146 0 .264.117.264.263v22.724c0 .145-.118.263-.264.263Zm-5.6-.526h5.337v-22.198h-5.337v22.198Z"/>
  <path fill="#FC6E56" d="M134.742 166.583h-5.863v32.682h5.863v-32.682Z"/>
  <path fill="#0552CE" d="M143.824 199.528h-5.568a.2627.2627 0 0 1-.263-.263v-39.519c0-.145.117-.263.263-.263h5.568c.145 0 .263.118.263.263v39.519c0 .145-.118.263-.263.263Zm-5.305-.526h5.041V160.01h-5.041v38.992ZM153.201 199.528h-5.864a.2633.2633 0 0 1-.263-.263v-41.617c0-.145.118-.263.263-.263h5.864c.145 0 .263.118.263.263v41.617c0 .145-.118.263-.263.263Zm-5.601-.526h5.338v-41.09H147.6v41.09ZM162.43 199.528h-5.863a.2635.2635 0 0 1-.264-.263v-36.432c0-.146.118-.264.264-.264h5.863c.145 0 .263.118.263.264v36.432c0 .145-.118.263-.263.263Zm-5.6-.526h5.337v-35.906h-5.337v35.906Z"/>
  <path fill="#F3F3F3" d="M178.843 252.339c.003-1.889-1.525-3.423-3.414-3.427-1.888-.003-3.422 1.526-3.425 3.415-.003 1.889 1.525 3.423 3.414 3.427 1.888.003 3.422-1.526 3.425-3.415Z"/>
  <path fill="#0552CE" d="M175.424 256.017c-2.029 0-3.679-1.653-3.679-3.684s1.65-3.684 3.679-3.684c2.028 0 3.678 1.653 3.678 3.684s-1.65 3.684-3.678 3.684Zm0-6.842c-1.739 0-3.153 1.417-3.153 3.158 0 1.741 1.414 3.157 3.153 3.157 1.738 0 3.152-1.416 3.152-3.157s-1.414-3.158-3.152-3.158Z"/>
  <path fill="#F3F3F3" d="M165.456 255.75c1.886 0 3.415-1.53 3.415-3.417 0-1.887-1.529-3.417-3.415-3.417-1.887 0-3.416 1.53-3.416 3.417 0 1.887 1.529 3.417 3.416 3.417Z"/>
  <path fill="#0552CE" d="M165.456 256.017c-2.029 0-3.679-1.653-3.679-3.684s1.65-3.684 3.679-3.684c2.028 0 3.679 1.653 3.679 3.684s-1.651 3.684-3.679 3.684Zm0-6.842c-1.739 0-3.153 1.417-3.153 3.158 0 1.741 1.414 3.157 3.153 3.157 1.738 0 3.152-1.416 3.152-3.157s-1.414-3.158-3.152-3.158Z"/>
  <path fill="#F3F3F3" d="M155.488 255.75c1.886 0 3.416-1.53 3.416-3.417 0-1.887-1.53-3.417-3.416-3.417s-3.416 1.53-3.416 3.417c0 1.887 1.53 3.417 3.416 3.417Z"/>
  <path fill="#0552CE" d="M155.488 256.017c-2.028 0-3.679-1.653-3.679-3.684 0-.984.383-1.909 1.078-2.605.694-.696 1.619-1.079 2.601-1.079 2.029 0 3.679 1.653 3.679 3.684s-1.65 3.684-3.679 3.684Zm0-6.842c-.842 0-1.634.329-2.229.925-.595.596-.923 1.389-.923 2.233 0 1.741 1.414 3.157 3.152 3.157 1.738 0 3.153-1.416 3.153-3.157s-1.415-3.158-3.153-3.158ZM147.97 252.596h-16.16a.2633.2633 0 0 1-.263-.263V203.21c0-.145.118-.263.263-.263.146 0 .263.118.263.263v48.86h15.897c.145 0 .263.117.263.263 0 .145-.118.263-.263.263Z"/>
  <path fill="#F3F3F3" d="m110.614 274.357-7.765-6.63-.518-3.944-9.5713-3.017-15.8271 9.222.4613 4.084c.2274 2.013 1.929 3.533 3.9534 3.533h28.0687c1.714 0 2.501-2.135 1.198-3.248Z"/>
  <path fill="#0552CE" d="M109.416 277.868H81.3474c-2.1605 0-3.9724-1.619-4.215-3.766l-.4615-4.085a.2645.2645 0 0 1 .1293-.257l15.827-9.221a.2652.2652 0 0 1 .2115-.024l9.5713 3.017c.097.03.168.115.182.216l.505 3.844 7.687 6.565c.679.579.918 1.495.609 2.333-.308.837-1.084 1.378-1.977 1.378Zm-32.2026-7.739.4422 3.914c.2123 1.881 1.7995 3.299 3.6918 3.299h28.0686c.813 0 1.3-.534 1.484-1.035.184-.5.161-1.222-.457-1.749l-7.764-6.631a.2596.2596 0 0 1-.09-.166l-.497-3.778-9.3006-2.93-15.578 9.076Z"/>
  <path fill="#F3F3F3" d="M12.4437 272.51c-.7854 2.529 1.1041 5.095 3.7516 5.095h26.599c1.8638 0 3.471-1.31 3.8476-3.136l1.837-8.91-9.7857-3.445-24.4079 4.465-1.8416 5.931Z"/>
  <path fill="#0552CE" d="M42.7943 277.868H16.1952c-1.3465 0-2.5766-.622-3.375-1.706-.7984-1.085-1.0273-2.444-.6278-3.731l1.8414-5.93a.2634.2634 0 0 1 .2041-.181l24.408-4.464a.2684.2684 0 0 1 .1347.01l9.7856 3.444a.2643.2643 0 0 1 .1704.302l-1.8371 8.91c-.3998 1.939-2.1263 3.346-4.1052 3.346Zm-28.3051-11.059-1.7941 5.779c-.3495 1.124-.1493 2.313.5488 3.262.6982.948 1.7739 1.492 2.9513 1.492h26.5991c1.7307 0 3.2403-1.231 3.5898-2.926l1.7905-8.685-9.5027-3.345-24.1827 4.423Z"/>
  <path fill="#CFF558" d="m85.731 137.55-11.4789-2.573-20.209 6.411-4.2542 10.855-36.1872 115.402 34.8772-2.086 18.4874-83.786 9.9663 88.215 25.3984-6.205-16.6-126.233Z"/>
  <path fill="#0552CE" d="M66.8193 179.853a.2711.2711 0 0 1-.0489-.004.2633.2633 0 0 1-.2099-.307l2.97-15.788a8.769 8.769 0 0 1 3.1668-5.248l1.3914-1.105a.2623.2623 0 0 1 .3695.043.2635.2635 0 0 1-.0426.37l-1.3915 1.104a8.241 8.241 0 0 0-2.9766 4.933l-2.97 15.788a.2628.2628 0 0 1-.2582.214Z"/>
  <path fill="#F3F3F3" d="M97.9902 87.0279c2.0218-1.2775 3.9718-3.0262 4.8188-1.9519.847 1.0743-1.996 3.3881-1.996 3.3881 2.968-.1122 5.161-3.557 6.257-2.9889 1.096.568.058 2.3038.058 2.3038s1.392-2.166 2.651-1.1672c1.26.9988-.976 3.2016-.976 3.2016s1.971-1.8412 2.924-.1244c.954 1.7167-4.764 4.2126-4.764 4.2126 1.136-.4208 2.919-.4757 3.1.3712.181.8469-1.885 1.4968-4.008 2.4908-2.124.9941-5.344 1.4439-5.344 1.4439-.049 2.3575-1.2787 13.9215-2.3038 23.2245-.7029 6.378-4.7757 14.064-12.284 11.745-.0291-.009-.0581.005-.0834.008-.2765.033-8.0634-2.594-8.3404-2.574-2.3846.168 3.5409-18.599 4.7501-22.616l3.5903 2.916s4.7845-12.7794 5.7157-16.3792c1.2352-4.7745 4.213-6.2264 6.2347-7.5039Z"/>
  <path fill="#0552CE" d="M88.78 133.866c-.8636 0-1.7602-.141-2.687-.423-.0085.002-.0162.003-.0239.004-.1591.016-.6959-.138-4.4468-1.347-1.6322-.527-3.6581-1.18-3.9263-1.225-.2113.012-.394-.077-.5299-.248-1.216-1.527 1.8563-12.3 4.6687-21.515.1455-.477.2686-.88.3626-1.193a.2648.2648 0 0 1 .1748-.176.2655.2655 0 0 1 .243.047l3.3061 2.685c.7675-2.06 4.7476-12.7931 5.5797-16.0093 1.1553-4.4668 3.8462-6.1199 5.8109-7.3268.185-.1139.3649-.2244.5378-.3336.4022-.254.8046-.529 1.1936-.7951 1.6167-1.1053 3.1437-2.1487 3.9717-1.0971.713.9036-.524 2.3456-1.371 3.1623 1.211-.3124 2.28-1.1372 3.172-1.8248.971-.7488 1.739-1.3393 2.375-1.0092.302.1565.501.3971.591.7146.06.211.064.438.036.6598.295-.2424.644-.4488 1.018-.511.399-.0658.772.035 1.107.3008.3.2377.462.5488.482.9241.026.4917-.209 1.0277-.496 1.4896.291-.1018.605-.1555.915-.1072.467.0735.841.3591 1.113.849.161.2892.184.608.07.9473-.349 1.0331-2.03 2.1199-3.341 2.8332.434.0059.836.0787 1.134.2424.271.1491.444.3684.5.6339.187.8763-1.078 1.4282-2.829 2.1921-.43.1874-.875.3813-1.325.592-1.838.8606-4.429 1.3123-5.199 1.4334-.111 2.7976-1.3024 13.9886-2.2981 23.0256-.4242 3.849-2.151 8.799-5.7246 11.145-1.2781.839-2.6716 1.26-4.1643 1.26Zm-2.6773-.955c.0293 0 .063.004.0984.015 2.3903.738 4.5621.482 6.4544-.76 3.4246-2.248 5.0979-7.203 5.4902-10.763 1.0235-9.288 2.2533-20.852 2.3023-23.2008a.2635.2635 0 0 1 .227-.2552c.031-.0044 3.206-.4563 5.268-1.4215.456-.2139.904-.4093 1.337-.5979 1.29-.5625 2.623-1.1442 2.526-1.5997-.025-.1149-.103-.2074-.24-.2825-.495-.2727-1.622-.2267-2.512.1029a.2622.2622 0 0 1-.335-.1484.2634.2634 0 0 1 .139-.3398c1.157-.5054 4.254-2.0875 4.67-3.3203.066-.1957.056-.3666-.03-.5231-.193-.3458-.433-.537-.736-.5846-.671-.1051-1.511.5229-1.779.7735a.2636.2636 0 0 1-.37-.01.2644.2644 0 0 1 .005-.3697c.371-.366 1.324-1.4868 1.281-2.2682-.011-.2213-.104-.3979-.283-.5398-.217-.172-.443-.2342-.694-.1938-.678.1128-1.366.9747-1.573 1.2973a.2625.2625 0 0 1-.36.0813.2637.2637 0 0 1-.087-.3586c.153-.2573.519-1.0367.374-1.5449-.05-.1745-.157-.3021-.327-.3905-.34-.1748-1.055.3748-1.812.9588-1.152.8884-2.586 1.9942-4.314 2.0595-.11.0077-.216-.0642-.256-.1701a.2627.2627 0 0 1 .08-.297c.862-.702 2.473-2.3638 1.955-3.0208-.524-.6645-1.854.2431-3.2616 1.2058-.3929.2686-.7994.5462-1.2095.8056a50.0146 50.0146 0 0 1-.5438.337c-1.9935 1.2246-4.4744 2.7489-5.5768 7.0103-.9241 3.5718-5.6763 16.2772-5.7241 16.4052a.2664.2664 0 0 1-.1776.162.265.265 0 0 1-.2346-.05l-3.2862-2.669c-.073.241-.1568.515-.2498.82-3.9544 12.957-5.5561 20.034-4.7602 21.034.0357.044.0621.05.103.048.1565-.016.8074.188 4.1032 1.251 1.7468.563 3.9107 1.261 4.2419 1.321a.3566.3566 0 0 1 .0768-.009Z"/>
  <path fill="#0552CE" d="M105.038 94.8022a.2627.2627 0 0 1-.245-.1686.2625.2625 0 0 1 .151-.3404l1.731-.6673a.2628.2628 0 0 1 .34.1509.263.263 0 0 1-.151.3401l-1.731.6678a.2661.2661 0 0 1-.095.0175ZM104.103 92.1306a.2638.2638 0 0 1-.253-.1909.2634.2634 0 0 1 .181-.3255 17.5897 17.5897 0 0 0 4.344-1.9073.2631.2631 0 0 1 .362.0874.2642.2642 0 0 1-.088.3619 18.1396 18.1396 0 0 1-4.473 1.9644.2738.2738 0 0 1-.073.01ZM102.877 90.0475a.2636.2636 0 0 1-.258-.2105.2634.2634 0 0 1 .205-.3105c1.406-.2874 2.769-.8786 3.939-1.7097a.2633.2633 0 0 1 .305.4293c-1.23.8732-2.661 1.4942-4.138 1.796a.2724.2724 0 0 1-.053.0054ZM99.658 93.2046a.2631.2631 0 0 1-.2567-.3218c.101-.4427.0694-.9043.036-1.393-.0152-.2244-.0311-.4562-.0332-.6873-.0051-.5735.1048-1.6125.8999-2.1271a.2633.2633 0 0 1 .364.0781.2636.2636 0 0 1-.079.364c-.583.3776-.6627 1.2148-.6586 1.6803.0018.2155.0172.4396.0321.656.0344.5054.0705 1.0277-.0483 1.5462a.263.263 0 0 1-.2562.2046ZM98.9406 99.152a.2632.2632 0 0 1-.1486-.4807 4.8851 4.8851 0 0 1 1.464-.6765c.139-.0365.285.0442.323.1845a.2636.2636 0 0 1-.184.3234 4.3496 4.3496 0 0 0-1.3064.6036.263.263 0 0 1-.148.0457ZM84.2454 118.617a.2757.2757 0 0 1-.0632-.008.2627.2627 0 0 1-.1925-.318l1.6744-6.787c.035-.141.1783-.228.3184-.192.141.034.2274.177.1924.318l-1.6743 6.787a.263.263 0 0 1-.2552.2Z"/>
  <path fill="#F3F3F3" d="m83.4435 121.776 3.0547-12.097s-6.2959-8.202-22.4065-9.198c-19.9036-1.2307-34.8853 11.086-34.8853 11.086l13.6853 14.058 4.0209-1.734 3.8384 18.359h37.9507l-5.2582-20.474Z"/>
  <path fill="#0552CE" d="M88.7016 142.514H86.591a.2634.2634 0 0 1-.2632-.264c0-.145.1177-.263.2632-.263h1.7714l-5.1739-20.146a.266.266 0 0 1-.0003-.13l3.0224-11.968c-.7757-.919-7.2882-8.082-22.1352-9-18.2723-1.1308-32.5319 9.346-34.4766 10.85l13.3551 13.718 3.8547-1.662a.2618.2618 0 0 1 .2253.008c.0702.037.12.102.1362.18l3.7946 18.15h5.812c.1454 0 .2631.118.2631.263 0 .146-.1177.264-.2631.264h-6.0258a.2636.2636 0 0 1-.2575-.21L46.721 124.26l-3.7252 1.606a.2606.2606 0 0 1-.2927-.058l-13.6853-14.057a.2643.2643 0 0 1-.074-.199.2615.2615 0 0 1 .0956-.188c.1506-.124 15.2933-12.3665 35.0684-11.146 16.0447.992 22.5353 9.217 22.599 9.3a.2635.2635 0 0 1 .0465.225l-3.0383 12.032 5.2415 20.41a.264.264 0 0 1-.047.227.2643.2643 0 0 1-.2079.102Z"/>
  <path fill="#0552CE" d="M46.7657 123.283a.2634.2634 0 0 1-.2547-.198l-.6375-2.488a.2631.2631 0 1 1 .5098-.131l.6375 2.489a.2633.2633 0 0 1-.1896.32.2948.2948 0 0 1-.0655.008ZM83.4432 122.039a.2638.2638 0 0 1-.2573-.209l-1.4482-6.815a.2633.2633 0 0 1 .515-.109l1.4482 6.815a.2631.2631 0 0 1-.2577.318Z"/>
  <path fill="#F3F3F3" d="m38.6783 126.776 3.0493-2.347-11.819-12.141c-2.0882 1.908-3.5922 3.152-6.1823 6.2-5.2227 6.147-3.3396 14.209 3.088 19.081 6.2767 4.757 17.0642 11.924 24.4288 11.342 1.1133-.087 7.9685-4.372 10.9197-5.847.4738-.237.6953-.79.5107-1.287l-.1368-.368 1.2884-.463a1.05 1.05 0 0 0 .6678-1.227l-.0182-.077a.9572.9572 0 0 0-1.0075-.738l-1.4829.117 3.2153-1.259c.4754-.186.7882-.645.7882-1.155 0-.511-.4086-.929-.9196-.938-1.1876-.019-3.2174-.006-4.1919.269 0 0 4.1454-.582 4.3328-1.472.1467-.695-.6512-1.824-4.9028-1.028-4.2515.795-6.2523 2.561-6.2523 2.561l-15.3757-9.223Z"/>
  <path fill="#0552CE" d="M50.3919 149.207c-7.5063 0-18.0094-7.088-23.7363-11.429-3.5415-2.683-5.7226-6.272-6.1417-10.104-.3682-3.369.673-6.604 3.0119-9.356 2.2363-2.633 3.681-3.939 5.3538-5.451.2755-.249.5576-.505.8516-.773a.2627.2627 0 0 1 .3659.011l11.8192 12.14a.2644.2644 0 0 1-.0283.393l-2.743 2.111 14.886 8.929c.5456-.424 2.5543-1.812 6.227-2.499 3.1696-.592 4.4187-.121 4.9077.38.2634.269.3731.62.3009.962-.0732.347-.5288.64-1.1337.879.2554 0 .5042.003.7398.006.6496.011 1.1782.549 1.1782 1.201 0 .623-.3749 1.173-.9554 1.4l-1.6271.637c.5121.051.9418.419 1.0625.938l.0183.077c.1511.65-.2079 1.31-.8351 1.535l-1.0382.373.0442.119c.2313.621-.0437 1.315-.6395 1.613-1.1358.568-2.823 1.537-4.6097 2.562-3.5252 2.025-5.7159 3.258-6.4073 3.313a11.35 11.35 0 0 1-.8717.033Zm-20.4942-36.553c-.2277.207-.4485.407-.6651.603-1.6592 1.5-3.0917 2.796-5.306 5.401-2.2425 2.64-3.2418 5.738-2.8895 8.958.3975 3.634 2.5611 7.185 5.9361 9.743 5.8924 4.466 16.8739 11.874 24.249 11.29.6236-.049 3.5792-1.747 6.1868-3.244 1.7931-1.03 3.487-2.003 4.6362-2.577.3551-.177.519-.589.3816-.959l-.1368-.369a.2612.2612 0 0 1 .0083-.202.2633.2633 0 0 1 .1495-.137l1.2884-.462a.7881.7881 0 0 0 .5006-.92l-.0183-.077a.6922.6922 0 0 0-.7305-.535l-1.4832.116a.2646.2646 0 0 1-.277-.204.2634.2634 0 0 1 .1606-.304l3.2154-1.259a.9695.9695 0 0 0 .6208-.909c0-.366-.2963-.668-.6604-.674-.7955-.014-2.0395-.013-3.0378.082-.4594.087-.859.147-1.1137.183-.1359.02-.2654-.071-.2939-.207a.2631.2631 0 0 1 .186-.307c.2991-.084.6874-.145 1.1229-.188 1.549-.298 2.9515-.74 3.024-1.084.0251-.119.0177-.301-.1622-.485-.2636-.27-1.2231-.832-4.4349-.231-4.1181.771-6.1072 2.483-6.127 2.501a.2655.2655 0 0 1-.3091.028l-15.3756-9.223a.2641.2641 0 0 1-.0249-.435l2.815-2.166-11.4353-11.747Z"/>
  <path fill="#0552CE" d="M60.3158 139.783a.2628.2628 0 0 1-.2518-.187.263.263 0 0 1 .1755-.328l1.6661-.505a.2635.2635 0 0 1 .3282.176.263.263 0 0 1-.1755.328l-1.6662.505a.2883.2883 0 0 1-.0763.011ZM59.0104 142.932a.263.263 0 0 1-.241-.158.2622.2622 0 0 1 .1349-.346 27.4488 27.4488 0 0 1 3.6052-1.293.263.263 0 0 1 .3245.182.2635.2635 0 0 1-.1822.325 26.894 26.894 0 0 0-3.5358 1.267.249.249 0 0 1-.1056.023ZM38.1277 126.789a.2692.2692 0 0 1-.1386-.039l-5.003-3.103a.264.264 0 0 1-.0848-.363.2641.2641 0 0 1 .3623-.085l5.0031 3.103a.2642.2642 0 0 1 .0848.363.2631.2631 0 0 1-.2238.124ZM69.3271 78.6014c-.9234-1.5917-2.769-2.5108-4.6062-2.6217-1.8371-.1109-3.6575.4992-5.2647 1.3961-2.3991 1.3387-4.5777 3.7198-4.3654 6.4584-1.7864-.1583-3.3908 1.4891-3.5921 3.271-.201 1.7817.7332 3.5402 2.0392 4.769 1.0656 1.0027 3.1677 2.6473 4.6886 2.7547 1.4899.1052 3.5333-1.2084 4.7326-1.9808 2.941-1.8939 5.2829-4.7438 6.4492-8.0516.6861-1.9462.9544-4.2105-.0812-5.9951Z"/>
  <path fill="#F3F3F3" d="m58.0211 91.2214 1.0222 8.7368-3.2627.7628 10.5225 6.264 3.7415-5.806-3.2293-1.14-.5928-6.3478-8.2014-2.4698Z"/>
  <path fill="#0552CE" d="M66.3028 107.248a.2629.2629 0 0 1-.1344-.037l-10.5224-6.264a.2628.2628 0 0 1 .0748-.482l3.034-.7097-.995-8.5033a.2634.2634 0 0 1 .0922-.2323.2639.2639 0 0 1 .2449-.0504l8.2015 2.4698a.264.264 0 0 1 .1863.2277l.5771 6.1801 3.0705 1.0841a.2638.2638 0 0 1 .1613.163c.026.076.0157.16-.0277.228l-3.7417 5.806a.2646.2646 0 0 1-.2214.12Zm-9.8265-6.419 9.7432 5.8 3.4235-5.312-2.9152-1.03a.263.263 0 0 1-.1745-.223l-.5761-6.1718-7.6482-2.3031.9757 8.3385a.2627.2627 0 0 1-.2015.2864l-2.6269.615Z"/>
  <path fill="#F3F3F3" d="M58.3447 88.7441c-.4451-.493-1.2677-.5438-1.8187-.1732-.5511.3707-.8173 1.0871-.7287 1.7454.0886.6583.4959 1.2484 1.0285 1.6451.5326.3967 1.1815.6142 1.8371.7192.6941 1.418 1.5819 2.8044 2.9028 3.6686 1.3208.8643 3.1574 1.0898 4.4594.1974.8303-.5691 1.3466-1.5154 1.5742-2.4962.2276-.9807.1935-2.0026.1104-3.006a31.8228 31.8228 0 0 0-1.6406-7.7757c-1.0028-.0515-2.0189-.0791-3 .1349-.9811.214-1.9362.6943-2.5432 1.4945-.7513.9902-.874 2.3264-.7471 3.563.0398.3875.2597 1.6806-.4515 1.6315-.478-.033-.7011-1.0366-.9826-1.3485Z"/>
  <path fill="#0552CE" d="M64.0924 97.384c-.9711 0-1.9339-.3324-2.6709-.8146-1.4611-.9562-2.3697-2.515-2.9353-3.6522-.7199-.1321-1.3307-.3822-1.8174-.7447-.6268-.4668-1.0394-1.1307-1.1322-1.8212-.1056-.7853.2328-1.5885.8426-1.9988.6747-.4537 1.6437-.3573 2.1608.2152.1248.1383.2248.3506.3307.5755.1192.2529.3184.676.4746.6866.0778.0051.1038-.0201.1171-.0342.1861-.1956.0977-.9403.0687-1.185l-.0142-.1227c-.1616-1.5751.1072-2.8365.7992-3.749.5892-.7761 1.5469-1.3416 2.6971-1.5925 1.0214-.2226 2.0759-.1912 3.0694-.1406a.2639.2639 0 0 1 .2351.1769 32.0634 32.0634 0 0 1 1.6543 7.8398c.082.9894.1246 2.0482-.1161 3.0872-.2673 1.1513-.8647 2.0939-1.6821 2.654-.6393.4383-1.3627.6203-2.0814.6203Zm-6.7502-8.7917c-.2343 0-.4723.0643-.6696.1972-.4471.3007-.6941.9005-.6144 1.4917.074.5511.4109 1.0865.9248 1.4693.4479.3336 1.0271.5591 1.7214.6701a.2635.2635 0 0 1 .1948.1442c.5334 1.0894 1.405 2.6446 2.8106 3.564 1.3432.8792 3.0569.9619 4.1664.2005.7087-.4855 1.2296-1.3161 1.467-2.3386.2246-.9683.1827-1.9778.1043-2.9245a31.5514 31.5514 0 0 0-1.5695-7.5434c-.9045-.0435-1.8529-.0581-2.7528.138-1.0279.2241-1.8766.72-2.3898 1.3963-.6087.8028-.8425 1.9389-.6948 3.3769l.0131.1144c.0709.5976.119 1.2642-.2102 1.6104-.1362.1432-.3204.2116-.5345.1964-.4643-.0321-.7035-.5398-.9142-.9876-.0851-.1802-.1727-.3665-.2454-.4473-.1948-.2156-.498-.328-.8072-.328Z"/>
  <path fill="#0552CE" d="M59.1006 91.9954a.2627.2627 0 0 1-.2174-.1146c-.323-.4727-.8549-.7969-1.4228-.8671a.2626.2626 0 0 1-.2289-.2932c.0177-.1445.1531-.2478.2932-.2291.7156.0882 1.386.4967 1.7928 1.0923a.2629.2629 0 0 1-.2169.4117Z"/>
  <path fill="#F3F3F3" d="m280.152 142.519-15.126-.481s-9.921 111.227-11.541 128.239l-3.769 4.077c-1.192 1.29-.277 3.383 1.479 3.383h24.27c3.426 0 6.229-2.73 6.321-6.156l1.6-59.393s4.849 35.602 29.813 58.53l-1.326 1.937c-1.475 2.155.068 5.082 2.679 5.082h3.772c4.482 0 8.823-1.624 12.165-4.612 2.99-2.674 6.363-6.619 8.705-12.107.978-2.293.611-4.939-.914-6.91-6.45-8.339-24.421-32.022-28.921-42.749-5.513-13.141-4.802-46.754-17.519-68.031l-11.688-.809Z"/>
  <path fill="#0552CE" d="M318.324 278h-3.772c-1.326 0-2.486-.7-3.105-1.873-.618-1.173-.539-2.527.209-3.621l1.197-1.748c-12.83-11.858-20.222-27.096-24.169-37.812-2.918-7.926-4.432-14.611-5.106-18.108l-1.528 56.75c-.097 3.596-2.99 6.412-6.585 6.412h-24.27c-.918 0-1.718-.523-2.086-1.365-.368-.842-.209-1.785.414-2.46l3.708-4.012c1.627-17.105 11.433-127.038 11.532-128.148a.263.263 0 0 1 .262-.24h.009l15.126.481c.003 0 .007.001.01.001l11.688.808c.086.006.163.054.208.128 7.929 13.266 10.686 31.516 12.902 46.179 1.373 9.09 2.559 16.94 4.633 21.885 4.423 10.543 21.675 33.366 28.887 42.689 1.594 2.061 1.957 4.81.948 7.175-1.995 4.674-4.946 8.779-8.772 12.2-3.374 3.017-7.756 4.679-12.34 4.679Zm-34.937-66.076c.13 0 .242.097.26.228.012.089 1.26 9.017 5.536 20.625 3.943 10.704 11.341 25.942 24.194 37.747.097.089.113.235.039.343l-1.325 1.937c-.637.93-.703 2.08-.178 3.077.526.997 1.512 1.593 2.639 1.593h3.772c4.454 0 8.712-1.614 11.989-4.545 3.768-3.37 6.675-7.412 8.639-12.014.934-2.19.597-4.737-.88-6.646-7.225-9.34-24.509-32.208-28.956-42.808-2.099-5.005-3.29-12.885-4.668-22.01-2.203-14.574-4.942-32.702-12.764-45.87l-11.546-.799-14.873-.473c-.525 5.892-9.954 111.562-11.518 127.993a.2658.2658 0 0 1-.069.153l-3.768 4.078c-.48.519-.602 1.243-.319 1.891.283.647.898 1.05 1.604 1.05h24.27c3.308 0 5.969-2.592 6.058-5.9l1.6-59.394a.2625.2625 0 0 1 .249-.255c.005 0 .01-.001.015-.001Z"/>
  <path fill="#0552CE" d="M283.173 210.954h-.001a.2627.2627 0 0 1-.262-.264c.082-13.063.742-26.282 1.962-39.291a.2646.2646 0 0 1 .208-.233l4.775-1.006a.263.263 0 0 1 .312.204.262.262 0 0 1-.203.311l-4.586.967c-1.207 12.931-1.86 26.068-1.942 39.051a.2623.2623 0 0 1-.263.261ZM314.056 269.372a.2625.2625 0 0 1-.251-.187.2617.2617 0 0 1 .175-.328c9.066-2.774 16.684-9.645 20.375-18.381a.2638.2638 0 0 1 .345-.14c.134.057.196.211.14.345-3.752 8.878-11.492 15.861-20.707 18.679a.2527.2527 0 0 1-.077.012ZM317.18 273.553c-.04 0-.08-.009-.117-.028a15.2387 15.2387 0 0 1-3.426-2.346.2647.2647 0 0 1-.018-.372.2638.2638 0 0 1 .372-.018c.993.902 2.106 1.664 3.307 2.265.13.065.183.223.118.353a.2633.2633 0 0 1-.236.146ZM268.707 271.179c-4.577 0-9.154-.301-13.694-.904a.2638.2638 0 0 1-.227-.296.263.263 0 0 1 .296-.226c8.476 1.126 17.08 1.196 25.572.209a.262.262 0 0 1 .292.231.2645.2645 0 0 1-.231.292c-3.986.463-7.998.694-12.008.694Z"/>
  <path fill="#F3F3F3" d="M290.802 140.81s5.014 4.659 8.904 21.556c0 0-7.022-1.351-19.825 1.686-6.164 1.462-12.245-2.729-13.019-9.019-.423-3.444-.679-7.269-.491-10.989l-1.065 15.482c-.179 2.604-2.344 4.625-4.953 4.625 0 0 3.386-20.961 4.816-25.156l25.633 1.815Z"/>
  <path fill="#0552CE" d="M277.418 164.603c-2.213 0-4.398-.671-6.242-1.955-2.531-1.76-4.198-4.524-4.575-7.583-.187-1.521-.327-2.998-.42-4.426l-.612 8.905c-.188 2.731-2.48 4.87-5.216 4.87a.2666.2666 0 0 1-.201-.092.269.269 0 0 1-.059-.213c.139-.856 3.406-21.03 4.827-25.199a.2618.2618 0 0 1 .267-.178l25.633 1.815c.06.004.117.029.161.07.207.192 5.118 4.907 8.981 21.69.02.087-.005.178-.067.242a.2659.2659 0 0 1-.239.076c-.07-.014-7.126-1.303-19.714 1.683-.834.198-1.681.295-2.524.295Zm-11.047-20.822h.016c.144.009.254.132.247.276-.166 3.275-.001 6.957.49 10.944.358 2.91 1.944 5.54 4.352 7.215 2.424 1.687 5.464 2.263 8.344 1.58 11.036-2.617 17.882-1.973 19.541-1.749-3.579-15.315-8.093-20.379-8.676-20.982l-25.33-1.793c-1.343 4.226-4.267 22.007-4.691 24.606 2.321-.154 4.218-2.018 4.379-4.37l1.065-15.482a.264.264 0 0 1 .263-.245Z"/>
  <path fill="#F3F3F3" d="M306.887 147.232h-6.467l-4.198 3.437s-5.429-2.401-6.717-.97c-1.287 1.432.844 2.695 2.634 2.695 2.981 0 5.736 3.033 6.064 4.185l1.355 5.153s6.052-2.163 7.801-3.605l-.472-10.895Z"/>
  <path fill="#0552CE" d="M299.557 161.996a.2631.2631 0 0 1-.122-.031.2625.2625 0 0 1-.132-.166l-1.354-5.153c-.291-1.021-2.972-3.989-5.81-3.989-1.222 0-2.744-.578-3.175-1.546-.164-.367-.236-.94.346-1.588 1.293-1.437 5.854.405 6.87.841l4.073-3.336a.2658.2658 0 0 1 .167-.059h6.467c.141 0 .257.111.263.251l.472 10.895a.2646.2646 0 0 1-.095.215c-1.765 1.455-7.632 3.561-7.881 3.65a.274.274 0 0 1-.089.016Zm-8.635-12.496c-.542 0-.98.107-1.221.376-.32.355-.404.689-.257 1.021.298.669 1.532 1.234 2.695 1.234 3.103 0 5.947 3.077 6.317 4.376l1.283 4.879c1.163-.428 5.761-2.16 7.352-3.382l-.456-10.509h-6.121l-4.125 3.378a.2629.2629 0 0 1-.273.037c-1.091-.482-3.597-1.41-5.194-1.41Z"/>
  <path fill="#F3F3F3" d="m242.963 120.851.844-4.038s-11.098-16.508-13.76-16.185c-2.662.324 1.35 5.16 2.017 6.133 0 0-2.315-.891-1.995 1.459 0 0-1.828-.556-1.886 1.498 0 0-1.866-.585-1.378 2.515.487 3.101 1.896 1.931 1.896 1.931l5.556 10.053 8.706-3.366Z"/>
  <path fill="#0552CE" d="M234.257 124.48c-.093 0-.182-.05-.23-.136l-5.425-9.815c-.209.096-.52.176-.856.049-.591-.223-.996-.998-1.201-2.304-.199-1.265-.043-2.129.464-2.566.311-.269.677-.308.932-.294.067-.565.283-.983.644-1.242.397-.285.871-.304 1.193-.272-.02-.59.14-1.023.477-1.289.343-.272.801-.303 1.18-.263-1.564-2.104-2.934-4.197-2.456-5.312.162-.38.511-.605 1.036-.669a.73.73 0 0 1 .094-.006c2.871 0 12.784 14.62 13.916 16.305.04.059.054.131.04.2l-.844 4.039a.2622.2622 0 0 1-.163.192l-8.706 3.365a.2624.2624 0 0 1-.095.018Zm-5.556-10.579c.016 0 .032.001.049.005.077.014.143.062.181.131l5.446 9.852 8.358-3.232.792-3.79c-4.43-6.579-11.622-16.206-13.448-15.977-.491.059-.586.281-.617.353-.428 1 1.649 3.788 2.43 4.838.169.226.305.409.389.531a.2636.2636 0 0 1-.311.395c-.257-.098-1.008-.286-1.389.017-.245.195-.329.585-.251 1.161a.2659.2659 0 0 1-.09.236.2667.2667 0 0 1-.247.051c-.006-.002-.661-.191-1.103.129-.279.202-.429.581-.444 1.125a.2628.2628 0 0 1-.342.243c-.003-.001-.447-.13-.755.14-.246.215-.494.75-.284 2.084.228 1.448.641 1.807.867 1.893.301.113.598-.122.601-.124.047-.04.107-.061.168-.061Z"/>
  <path fill="#0552CE" d="M235.002 109.654a.262.262 0 0 1-.231-.138c-.528-.974-1.368-1.778-2.363-2.264a.2623.2623 0 0 1-.121-.352.262.262 0 0 1 .351-.121c1.094.533 2.015 1.416 2.595 2.486.07.128.022.288-.106.357a.264.264 0 0 1-.125.032ZM232.352 111.471a.2646.2646 0 0 1-.245-.167c-.382-.974-1.055-1.852-1.897-2.473a.2625.2625 0 0 1-.055-.368.2634.2634 0 0 1 .368-.056c.92.679 1.656 1.639 2.074 2.704a.2628.2628 0 0 1-.149.341.249.249 0 0 1-.096.019ZM230.428 112.315a.262.262 0 0 1-.236-.147 5.3665 5.3665 0 0 0-1.693-1.996.2627.2627 0 0 1-.061-.367.2627.2627 0 0 1 .367-.061 5.8825 5.8825 0 0 1 1.859 2.192c.064.13.01.288-.12.352a.2695.2695 0 0 1-.116.027ZM228.796 114.46a.264.264 0 0 1-.242-.157l-.77-1.762a.263.263 0 0 1 .136-.346c.133-.059.288.002.346.136l.77 1.76a.2625.2625 0 0 1-.24.369Z"/>
  <path fill="#FC6E56" d="M243.807 116.813s-7.319 1.608-9.55 7.404c0 0 6.341 15.988 16.488 16.802 10.148.814 14.353-7.18 14.353-7.18l-1.532 6.971s24.81.273 30.487 2.169l1.21-11.017s8.191 8.895 9.145 12.082l-3.988 3.188s5.396 4.048 6.939 10.895c0 0 12.359-5.38 12.012-17.769-.348-12.39-12.15-24.772-25.318-29.353-13.168-4.581-26.844-3.651-32.155-1.287-6.23 2.774-13.645 14.499-13.645 14.499l-4.446-7.404Z"/>
  <path fill="#0552CE" d="M245.855 128.363c-.04 0-.081-.009-.119-.029a.2639.2639 0 0 1-.116-.354 22.1989 22.1989 0 0 1 2.222-3.515.2628.2628 0 0 1 .369-.047.263.263 0 0 1 .048.369 21.5646 21.5646 0 0 0-2.169 3.431.2638.2638 0 0 1-.235.145ZM295.449 131.585a.2524.2524 0 0 1-.113-.026.2604.2604 0 0 1-.148-.262c.139-1.437.388-2.874.738-4.272.035-.141.18-.227.319-.191a.262.262 0 0 1 .191.319c-.324 1.295-.56 2.625-.701 3.956.07.103.059.245-.034.335l-.068.066c-.05.05-.116.075-.184.075ZM304.931 143.929a.2621.2621 0 0 1-.196-.087.2638.2638 0 0 1 .02-.372l2.448-2.204a.263.263 0 0 1 .372.019c.097.108.088.275-.02.372l-2.448 2.204a.2582.2582 0 0 1-.176.068ZM265.354 133.466c-.044 0-.09-.012-.131-.036a.2624.2624 0 0 1-.096-.359c1.984-3.431 4.193-6.779 6.566-9.949a.2629.2629 0 0 1 .317-.083l.691.304a.264.264 0 0 1 .135.347.264.264 0 0 1-.347.135l-.5-.22a100.8846 100.8846 0 0 0-6.407 9.729.261.261 0 0 1-.228.132Z"/>
  <path fill="#F3F3F3" d="M278.876 87.576s-5.974 12.725-3.586 14.967c1.528 1.436 4.497 1.436 4.497 1.436l.474 4.051 6.85 1.048s5.81-18.8848-8.235-21.502Z"/>
  <path fill="#0552CE" d="M287.111 109.341a.2796.2796 0 0 1-.04-.003l-6.85-1.048a.2641.2641 0 0 1-.222-.229l-.447-3.825c-.751-.032-3.095-.235-4.443-1.5-2.455-2.307 2.909-13.9519 3.528-15.2719a.2644.2644 0 0 1 .287-.147c3.461.6452 6.034 2.3248 7.647 4.9922 3.915 6.4736.921 16.4257.792 16.8457a.2643.2643 0 0 1-.252.186Zm-6.612-1.541 6.423.983c.418-1.505 2.68-10.4463-.802-16.2025-1.501-2.4816-3.887-4.0645-7.093-4.7071-1.683 3.6285-5.37 12.7756-3.557 14.4786 1.433 1.346 4.289 1.364 4.317 1.364.134 0 .246.1.261.232l.451 3.852Z"/>
  <path fill="#0552CE" d="M279.733 103.471h-.003a.2633.2633 0 0 1-.26-.266c.002-.248-.117-.499-.325-.689-.208-.19-.468-.285-.715-.26-.144.013-.274-.091-.288-.236a.263.263 0 0 1 .236-.288c.397-.04.804.105 1.122.395.318.291.499.685.496 1.083a.2642.2642 0 0 1-.263.261ZM281.876 98.7844a.2638.2638 0 0 1-.107-.0226.2639.2639 0 0 1-.134-.3473c.381-.8588 1.3-1.4559 2.239-1.4559h.014a.2628.2628 0 0 1 .261.2648.2622.2622 0 0 1-.263.2616c-.005-.0002-.008 0-.012 0-.737 0-1.459.4686-1.758 1.1429a.2615.2615 0 0 1-.24.1565Z"/>
  <path fill="#0552CE" d="M307.607 125.23c-2.746 1.831-8.183 4.352-17.667 4.792-3.462.161-6.198-3.067-5.315-6.419.027-.102.056-.205.089-.309 1.318-4.146 3.886-7.072-.283-11.168-4.17-4.096-3.443-11.222-2.221-12.4019 0 0 5.207-.9883 3.687-4.0993-.773-1.5832-1.715-1.376-2.452-.7908-.688.5453-1.69.3843-2.137-.3706-.755-1.2734-1.99-2.8513-3.74-3.5242 0 0-3.277-.4946-4.174-2.8003-.896-2.3057 3.924-8.1586 13.098-4.8774 9.173 3.2811 8.196 10.111 8.958 12.8232.761 2.7122 2.007 7.0663 6.017 9.2263 4.009 2.16 5.704 4.936 4.733 9.696-.703 3.45.52 5.617 1.751 6.863.963.975.796 2.6-.344 3.36Z"/>
  <path fill="#061857" d="M190.102 160.442v-12.633h4.329c.776 0 1.859.198 2.887.795 2.021 1.19 2.779 3.339 2.797 5.522 0 2.184-.795 4.368-2.797 5.523-1.064.595-2.201.793-2.887.793h-4.329Zm1.515-1.425h2.562c.559 0 1.479-.109 2.472-.669 1.443-.83 1.948-2.489 1.948-4.241 0-1.804-.541-3.374-1.948-4.204-1.011-.597-2.076-.669-2.472-.669h-2.562v9.783ZM205.983 150.877c2.292 0 3.608.939 3.608 3.05v4.819c0 .325.235.397.506.397.18 0 .505-.037.703-.054v1.155c-.089.054-.865.198-1.316.198-.614 0-1.174-.27-1.174-1.172v-.29c-.612 1.192-1.839 1.643-3.12 1.643-1.93 0-3.464-1.011-3.464-3.051.018-1.985 1.822-2.868 3.969-2.868 1.01 0 2.183.198 2.49.251v-.829c0-1.606-1.029-2.004-2.435-2.004-.83 0-2.058.163-2.815.379l-.307-1.064c.848-.289 2.094-.56 3.355-.56Zm-.144 5c-1.154 0-2.742.216-2.742 1.695 0 1.227 1.119 1.842 2.237 1.842 1.516 0 2.851-1.119 2.851-2.382v-.885c-.235-.072-1.245-.27-2.346-.27ZM214.684 148.351v2.707h2.346v1.136h-2.346v5.234c0 1.066.342 1.75 1.39 1.75.36 0 .758-.054 1.19-.126l.235 1.065c-.451.181-1.101.325-1.66.325-2.002 0-2.634-1.083-2.634-3.14v-5.108h-1.371v-.92l1.371-.198.235-2.725h1.244ZM222.608 150.877c2.291 0 3.608.939 3.608 3.05v4.819c0 .325.235.397.505.397.181 0 .505-.037.703-.054v1.155c-.089.054-.865.198-1.316.198-.614 0-1.172-.27-1.172-1.172v-.29c-.614 1.192-1.841 1.643-3.122 1.643-1.93 0-3.463-1.011-3.463-3.051.017-1.985 1.821-2.868 3.969-2.868 1.009 0 2.183.198 2.49.251v-.829c0-1.606-1.029-2.004-2.436-2.004-.83 0-2.056.163-2.814.379l-.307-1.064c.847-.289 2.093-.56 3.355-.56Zm-.144 5c-1.155 0-2.743.216-2.743 1.695 0 1.227 1.12 1.842 2.237 1.842 1.516 0 2.852-1.119 2.852-2.382v-.885c-.235-.072-1.246-.27-2.346-.27ZM190.95 167.61l.253 1.515c.468-1.172 1.786-1.695 2.777-1.695 1.425 0 2.49.83 2.887 1.913.416-1.029 1.714-1.913 2.958-1.913 2.329 0 3.464 1.299 3.464 3.626v5.939h-1.497v-5.974c0-1.336-.758-2.166-2.128-2.166-1.444 0-2.381 1.137-2.381 2.545v5.595h-1.48v-6.046c0-1.281-.866-2.094-2.13-2.094-1.425 0-2.362 1.155-2.362 2.528v5.612h-1.498v-9.385h1.137ZM209.522 167.43c2.292 0 3.608.939 3.608 3.049v4.82c0 .324.235.396.505.396.181 0 .506-.036.704-.054v1.155c-.09.055-.865.199-1.316.199-.614 0-1.173-.271-1.173-1.173v-.29c-.614 1.192-1.84 1.643-3.121 1.643-1.93 0-3.464-1.011-3.464-3.05.018-1.986 1.822-2.869 3.969-2.869 1.009 0 2.183.199 2.49.251v-.828c0-1.606-1.028-2.005-2.435-2.005-.83 0-2.057.163-2.815.379l-.307-1.063c.848-.29 2.093-.56 3.355-.56Zm-.144 4.999c-1.154 0-2.742.216-2.742 1.696 0 1.227 1.119 1.841 2.237 1.841 1.516 0 2.851-1.118 2.851-2.382v-.885c-.235-.072-1.246-.27-2.346-.27ZM224.989 163.784v13.211h-1.155l-.198-1.715c-.704 1.174-2.021 1.895-3.483 1.895-2.706 0-4.474-2.166-4.474-4.873 0-2.526 1.733-4.872 4.474-4.872 1.246 0 2.508.523 3.338 1.715v-5.361h1.498Zm-7.794 8.518c0 2.058 1.389 3.555 3.211 3.555 1.876 0 3.23-1.552 3.23-3.555 0-2.002-1.372-3.556-3.23-3.556-1.858 0-3.211 1.517-3.211 3.556ZM231.868 167.43c2.779 0 4.294 2.327 4.294 4.728 0 .452-.054.757-.054.757h-7.307c.126 1.787 1.534 2.942 3.357 2.942.991 0 2.002-.27 2.832-.632l.505 1.138c-.776.396-2.039.812-3.374.812-2.85 0-4.871-2.148-4.871-4.837 0-2.725 1.93-4.908 4.618-4.908Zm2.887 4.33c-.036-1.497-.92-3.014-2.796-3.014-1.714 0-2.995 1.282-3.158 3.014h5.954ZM189.236 192.933l.47-1.119c.432.199 1.586.65 2.85.65 1.515 0 2.219-.578 2.219-1.408 0-2.201-5.467-.992-5.467-4.403 0-1.606 1.263-2.671 3.374-2.671 1.316 0 2.544.397 3.102.667l-.468 1.12s-1.244-.523-2.545-.523c-1.28 0-2.074.523-2.074 1.371 0 2.166 5.485 1.011 5.485 4.421 0 1.661-1.372 2.69-3.572 2.69-1.678 0-2.904-.578-3.374-.795ZM200.083 184.163v9.384h-1.497v-8.049l-.974-.289v-1.046h2.471Zm.072-2.528c0 .56-.469 1.011-1.01 1.011-.559 0-.975-.451-.975-.992 0-.542.416-.993.975-.993.541 0 1.01.451 1.01.974ZM204.037 184.163l.253 1.515c.468-1.173 1.786-1.696 2.777-1.696 1.425 0 2.49.83 2.887 1.913.416-1.028 1.714-1.913 2.959-1.913 2.328 0 3.463 1.299 3.463 3.627v5.938h-1.497v-5.974c0-1.335-.758-2.166-2.128-2.166-1.444 0-2.381 1.138-2.381 2.545v5.595h-1.48v-6.046c0-1.281-.866-2.094-2.13-2.094-1.424 0-2.362 1.155-2.362 2.528v5.612H202.9v-9.384h1.137ZM228.454 188.855c0 2.526-1.732 4.873-4.42 4.873-1.514 0-2.85-.759-3.409-1.733v4.62h-1.497v-12.452h1.172l.217 1.713c.757-1.262 2.147-1.894 3.536-1.894 2.669 0 4.401 2.347 4.401 4.873Zm-7.956.017c0 1.877 1.372 3.537 3.231 3.537 1.803 0 3.211-1.569 3.211-3.554 0-2.022-1.444-3.556-3.211-3.556-1.841 0-3.231 1.679-3.231 3.573ZM232.268 180.336v11.442c0 .343.216.433.451.433.252 0 .505-.035.721-.054v1.191c-.126.055-.793.199-1.299.199-1.082 0-1.37-.848-1.37-1.48v-11.731h1.497ZM239.521 183.982c2.78 0 4.294 2.328 4.294 4.729 0 .451-.054.756-.054.756h-7.307c.127 1.787 1.534 2.942 3.357 2.942.991 0 2.002-.27 2.832-.631l.505 1.137c-.775.397-2.039.813-3.374.813-2.85 0-4.871-2.149-4.871-4.838 0-2.724 1.93-4.908 4.618-4.908Zm2.887 4.33c-.035-1.497-.92-3.013-2.795-3.013-1.715 0-2.996 1.281-3.159 3.013h5.954Z"/>
</svg>
