<svg xmlns="http://www.w3.org/2000/svg" fill="none" viewBox="0 0 356 228">
  <g clip-path="url(#clip0_61_584)">
    <path fill="#0552CE" d="M279.514 61.548C261.161 25.13 222.176 0 177.049 0 120.58 0 73.737 39.354 64.893 90.925 28.945 91.54 0 119.576 0 154.076c0 34.885 29.593 63.165 66.099 63.165h208.359c45.034 0 81.542-34.888 81.542-77.923 0-41.413-33.807-75.274-76.486-77.77Z"/>
    <path fill="#061857" d="M101.263 227.98a.252.252 0 0 1-.244-.208l-11.988-63.848H45.973a.253.253 0 0 1-.249-.258c0-.142.111-.257.249-.257h43.263c.119 0 .221.088.244.209l12.027 64.056a.257.257 0 0 1-.244.306Z"/>
    <path fill="#061857" d="M57.979 227.98a.252.252 0 0 1-.244-.208l-12.027-64.057a.257.257 0 0 1 .197-.301.25.25 0 0 1 .291.204l12.027 64.056a.257.257 0 0 1-.244.306Z"/>
    <path fill="#061857" d="M33.931 227.98a.257.257 0 0 1-.244-.306l12.027-64.056a.25.25 0 0 1 .291-.204.256.256 0 0 1 .197.301l-12.027 64.057a.252.252 0 0 1-.244.208ZM77.195 227.98a.257.257 0 0 1-.244-.306l12.027-64.056a.25.25 0 0 1 .291-.204.257.257 0 0 1 .197.301l-12.027 64.057a.252.252 0 0 1-.244.208Z"/>
    <path fill="#fff" d="M91.24 161.041H43.384v2.625H91.24v-2.625Z"/>
    <path fill="#061857" d="M91.24 163.923H43.384a.252.252 0 0 1-.249-.257v-2.625c0-.142.111-.257.249-.257H91.24c.138 0 .25.115.25.257v2.625a.252.252 0 0 1-.25.257Zm-47.607-.514h47.359v-2.111h-47.36v2.111Z"/>
    <path fill="#fff" d="M86.898 186.769H39.04v2.625h47.857v-2.625Z"/>
    <path fill="#061857" d="M86.897 189.651H39.041a.253.253 0 0 1-.249-.257v-2.625c0-.142.111-.257.249-.257h47.856c.138 0 .25.115.25.257v2.625a.253.253 0 0 1-.25.257Zm-47.608-.514h47.36v-2.111h-47.36v2.111Z"/>
    <path fill="#fff" d="M82.555 212.496H34.698v2.625h47.857v-2.625Z"/>
    <path fill="#061857" d="M82.555 215.378H34.698a.253.253 0 0 1-.249-.257v-2.625c0-.142.112-.257.249-.257h47.857c.137 0 .248.115.248.257v2.625a.253.253 0 0 1-.248.257Zm-47.608-.514h47.359v-2.111h-47.36v2.111Z"/>
    <path fill="#F3F3F3" d="M43.743 106.922c-.582-3.967-1.93-6.1.194-13.269 2.123-7.169 5.38-12.875 5.38-12.875l21.594 7.309.405 5.017 21.794 20.694c3.87 3.674 5.22 9.394 3.425 14.498l-8.362 23.768 2.936 5.027c.606 1.037-.116 2.36-1.288 2.36H70.183c-2.225 0-3.794-2.258-3.082-4.438l9.744-29.85-14.295-13.381-1.685 64.743 4.422 8.274c.467.874-.145 1.945-1.11 1.945H43.662c-1.87 0-3.36-1.613-3.275-3.543l3.355-76.279Z"/>
    <path fill="#061857" d="M64.176 187.001H43.663a3.445 3.445 0 0 1-2.55-1.127 3.684 3.684 0 0 1-.974-2.685l3.354-76.253c-.116-.786-.263-1.504-.406-2.2-.566-2.765-1.1-5.376.612-11.158 2.108-7.116 5.37-12.873 5.403-12.93a.244.244 0 0 1 .291-.114l21.596 7.308c.094.032.161.12.17.223l.396 4.918 21.723 20.626c3.956 3.757 5.326 9.556 3.49 14.774l-8.321 23.653 2.875 4.922c.331.568.341 1.251.026 1.828a1.726 1.726 0 0 1-1.528.922H70.183c-1.142 0-2.179-.55-2.845-1.508a3.682 3.682 0 0 1-.473-3.269l9.692-29.691-13.773-12.892-1.67 64.115 4.39 8.212c.262.49.254 1.072-.021 1.554a1.496 1.496 0 0 1-1.307.772ZM49.43 81.087c-.562 1.022-3.374 6.285-5.257 12.641-1.675 5.656-1.177 8.087-.6 10.901.145.711.296 1.445.414 2.255a.254.254 0 0 1 .003.05l-3.355 76.279a3.166 3.166 0 0 0 .836 2.306 2.959 2.959 0 0 0 2.19.968h20.514c.365 0 .693-.194.878-.519.186-.324.191-.715.015-1.045l-4.422-8.273a.262.262 0 0 1-.031-.131l1.685-64.744a.26.26 0 0 1 .151-.23.244.244 0 0 1 .265.046l14.295 13.381c.073.069.1.176.068.273l-9.744 29.85a3.16 3.16 0 0 0 .407 2.805c.57.822 1.46 1.294 2.44 1.294H89.82c.46 0 .869-.247 1.095-.661a1.32 1.32 0 0 0-.019-1.309l-2.937-5.028a.263.263 0 0 1-.02-.22l8.362-23.768c1.767-5.023.448-10.605-3.36-14.221L71.147 93.294a.26.26 0 0 1-.08-.168l-.39-4.848-21.246-7.19Z"/>
    <path fill="#061857" d="M70.172 153.862c-.384 0-.768-.003-1.152-.008a.254.254 0 0 1-.246-.261.256.256 0 0 1 .252-.253c9.578.135 19.01-1.513 19.104-1.53a.249.249 0 0 1 .287.21.257.257 0 0 1-.203.297c-.09.016-8.831 1.545-18.042 1.545ZM44.21 181.87a.252.252 0 0 1-.247-.227.254.254 0 0 1 .218-.285c10.081-1.234 16.495-5.017 16.559-5.055a.244.244 0 0 1 .34.094.261.261 0 0 1-.09.351c-.066.039-6.569 3.874-16.75 5.12-.01.002-.02.002-.03.002ZM61.606 111.342a.245.245 0 0 1-.156-.057c-.057-.048-5.712-4.791-8.128-7.843-2.457-3.105-2.354-7.778-2.348-7.976a.253.253 0 0 1 .248-.25l.008.001a.254.254 0 0 1 .241.264c-.001.047-.102 4.681 2.237 7.636 2.383 3.011 7.998 7.721 8.055 7.768a.262.262 0 0 1 .037.361.245.245 0 0 1-.194.096Z"/>
    <path fill="#fff" d="M82.429 41.588s.014 2.54-.476 5.351c-.49 2.81-1.082 4.148-2.445 4.327-1.362.18-2.125.29-2.125.29l-.212 2.873-5.503.322 1.5-8.848 2.455-4.285 6.806-.03Z"/>
    <path fill="#061857" d="M71.668 55.008a.245.245 0 0 1-.186-.087.263.263 0 0 1-.059-.215l1.5-8.848a.268.268 0 0 1 .03-.086l2.456-4.285a.247.247 0 0 1 .212-.126l6.806-.03h.001c.137 0 .248.114.249.255 0 .026.009 2.597-.48 5.399-.474 2.714-1.06 4.326-2.657 4.536-.956.126-1.617.218-1.925.262l-.196 2.666a.253.253 0 0 1-.234.237l-5.503.321h-.014Zm1.737-9.015-1.438 8.483 4.973-.29.194-2.65a.254.254 0 0 1 .214-.234s.764-.112 2.129-.29c1.143-.15 1.726-1.228 2.23-4.119a34.33 34.33 0 0 0 .47-5.047l-6.412.029-2.36 4.118Z"/>
    <path fill="#061857" d="M77.903 46.92a.251.251 0 0 1-.245-.211c-.052-.304-.161-.508-.324-.606-.219-.133-.493-.044-.496-.043a.247.247 0 0 1-.316-.158.26.26 0 0 1 .153-.327c.02-.008.489-.171.91.084.294.178.484.5.563.96a.256.256 0 0 1-.245.302Z"/>
    <path fill="#061857" d="M74.435 51.879c.166-.11 2.2-1.514 3.155-3.63 0 0-1.068.882-1.802-.52-.734-1.402.179-3.174 1.63-3.292 1.45-.118 1.642 1.694 1.642 1.694s1.041-.475 1.05-1.741c0 0 .592.574 1.1-.492 0 0 1.257.4 2.247-1.06s.36-3.222-1.242-3.197c0 0 .243-2.392-2.487-3.798-2.73-1.406-4.213.916-4.213.916s-.706-1.809-3.933-.289c-3.228 1.52-1.791 4.2-1.791 4.2s-1.142 1.366-1.04 3.334c.102 1.969 2.17 4.082 2.17 4.082s-.322 1.815.424 2.748c.746.933 3.09 1.044 3.09 1.044Z"/>
    <path fill="#FC6E56" d="m72.589 56.733 16.13 6.415 16.58-10.358 4.126 12.852S91.972 80.22 86.681 81.518s-21.285-8.203-21.285-8.203l7.193-16.582Z"/>
    <path fill="#fff" d="M103.235 52.004c.024-.114.058-3.427.392-4.856.333-1.429 2.539-.072 2.818 2.836.279 2.908-3.21 2.02-3.21 2.02Z"/>
    <path fill="#061857" d="M104.34 52.39a5.15 5.15 0 0 1-1.164-.137.258.258 0 0 1-.187-.29c.005-.044.009-.19.016-.406.033-.99.109-3.311.38-4.47.119-.512.464-.794.925-.766.989.07 2.182 1.55 2.382 3.638.08.828-.118 1.46-.586 1.88-.487.436-1.177.55-1.766.55Zm-.845-.595c.47.085 1.65.226 2.286-.345.339-.304.479-.788.416-1.44-.195-2.038-1.337-3.134-1.921-3.176-.08-.005-.316-.022-.408.374-.259 1.108-.334 3.392-.366 4.367l-.007.22Z"/>
    <path fill="#F3F3F3" d="M146.022 88.508c1.022-3.302-.737-6.836-3.929-7.894a5.944 5.944 0 0 0-.717-.184 26.469 26.469 0 0 0-.611-7.616c.229-.087.455-.185.677-.303 2.98-1.588 4.152-5.374 2.617-8.457-1.534-3.083-5.194-4.295-8.173-2.708a6.125 6.125 0 0 0-.633.394 25.016 25.016 0 0 0-5.637-4.938c.102-.23.195-.464.271-.71 1.022-3.303-.737-6.837-3.929-7.895-3.192-1.057-6.608.763-7.63 4.065a6.57 6.57 0 0 0-.178.741 23.96 23.96 0 0 0-7.361.632 6.572 6.572 0 0 0-.294-.7c-1.535-3.083-5.194-4.296-8.174-2.708-2.98 1.587-4.151 5.373-2.617 8.456.115.23.244.445.381.654a25.417 25.417 0 0 0-4.773 5.832 5.959 5.959 0 0 0-.687-.28c-3.192-1.058-6.608.762-7.63 4.064-1.022 3.303.737 6.837 3.93 7.894.237.08.477.137.716.185a26.49 26.49 0 0 0 .61 7.616 5.964 5.964 0 0 0-.676.303c-2.98 1.588-4.152 5.374-2.617 8.456 1.534 3.083 5.194 4.296 8.173 2.708.222-.118.431-.252.633-.393a25 25 0 0 0 5.637 4.938 6.348 6.348 0 0 0-.271.71c-1.022 3.302.737 6.837 3.929 7.894 3.192 1.058 6.608-.762 7.63-4.064.076-.246.132-.494.178-.742a23.926 23.926 0 0 0 7.361-.631c.085.236.18.47.294.7 1.535 3.083 5.194 4.295 8.174 2.708 2.979-1.587 4.151-5.373 2.617-8.456a6.448 6.448 0 0 0-.381-.654 25.422 25.422 0 0 0 4.773-5.832c.221.105.448.201.687.28 3.192 1.058 6.608-.762 7.63-4.065Zm-18.78-6.221c-1.898 6.132-8.242 9.512-14.17 7.548-5.928-1.964-9.195-8.527-7.297-14.66 1.898-6.133 8.242-9.512 14.17-7.549 5.928 1.964 9.195 8.528 7.297 14.66Z"/>
    <path fill="#061857" d="M108.916 109.824a6.122 6.122 0 0 1-1.933-.315c-3.317-1.099-5.152-4.785-4.09-8.217.053-.17.116-.345.193-.532a25.23 25.23 0 0 1-5.366-4.7 6.086 6.086 0 0 1-5.294.698c-1.606-.533-2.917-1.681-3.69-3.233-1.594-3.204-.372-7.153 2.725-8.802.153-.082.317-.159.5-.235a26.732 26.732 0 0 1-.582-7.25 5.633 5.633 0 0 1-.53-.146c-3.318-1.099-5.153-4.785-4.09-8.217a.246.246 0 0 1 .312-.166c.13.043.203.187.161.323-.978 3.162.712 6.558 3.769 7.57.205.069.424.125.687.177.123.025.21.14.2.27-.163 2.533.04 5.07.606 7.54a.259.259 0 0 1-.156.3c-.247.094-.46.19-.65.29-2.853 1.52-3.979 5.159-2.51 8.11.713 1.43 1.92 2.488 3.4 2.979a5.607 5.607 0 0 0 5.046-.759.243.243 0 0 1 .327.043 24.735 24.735 0 0 0 5.581 4.889.261.261 0 0 1 .095.326c-.109.247-.195.47-.26.681-.979 3.163.712 6.559 3.768 7.572 1.48.49 3.057.355 4.439-.382 1.382-.736 2.404-1.985 2.878-3.517.066-.212.12-.439.171-.711a.255.255 0 0 1 .261-.208c2.45.169 4.902-.041 7.287-.625a.247.247 0 0 1 .291.161c.09.252.182.472.281.672.712 1.43 1.919 2.487 3.4 2.978a5.61 5.61 0 0 0 4.439-.381c2.853-1.52 3.979-5.158 2.51-8.11a6.158 6.158 0 0 0-.366-.628.264.264 0 0 1 .042-.337 25.135 25.135 0 0 0 4.725-5.775.245.245 0 0 1 .316-.098 5.606 5.606 0 0 0 5.097-.112c1.383-.736 2.405-1.985 2.879-3.517.978-3.162-.712-6.559-3.768-7.571a5.64 5.64 0 0 0-.687-.176.256.256 0 0 1-.202-.27 26.187 26.187 0 0 0-.605-7.54.259.259 0 0 1 .156-.3c.246-.094.458-.19.649-.29 2.853-1.52 3.979-5.16 2.51-8.111-.711-1.43-1.919-2.488-3.399-2.978a5.61 5.61 0 0 0-5.046.759.243.243 0 0 1-.327-.044 24.741 24.741 0 0 0-5.581-4.889.262.262 0 0 1-.095-.326c.11-.246.195-.47.26-.68.979-3.163-.711-6.56-3.768-7.572a5.608 5.608 0 0 0-4.439.381c-1.382.736-2.404 1.986-2.878 3.517-.065.211-.121.444-.171.711a.25.25 0 0 1-.261.209c-2.451-.17-4.902.04-7.287.625a.249.249 0 0 1-.291-.16 6.143 6.143 0 0 0-.281-.673c-.712-1.43-1.919-2.487-3.4-2.978a5.606 5.606 0 0 0-4.439.381c-2.276 1.213-3.51 3.78-3.07 6.386a.257.257 0 0 1-.203.298.249.249 0 0 1-.288-.21c-.477-2.83.863-5.615 3.333-6.93a6.092 6.092 0 0 1 4.819-.415c1.607.533 2.918 1.681 3.69 3.233.079.158.154.329.227.517a24.227 24.227 0 0 1 7.007-.602c.042-.198.089-.379.141-.548.514-1.663 1.624-3.018 3.124-3.818a6.089 6.089 0 0 1 4.819-.413c3.317 1.099 5.152 4.785 4.09 8.217-.053.17-.116.346-.193.532 1.997 1.3 3.8 2.88 5.366 4.7a6.087 6.087 0 0 1 5.293-.698c1.608.533 2.918 1.68 3.691 3.233 1.594 3.204.372 7.152-2.725 8.802-.153.082-.318.16-.5.234.523 2.376.719 4.813.582 7.25.193.044.365.092.531.147 3.317 1.098 5.152 4.785 4.089 8.217-.514 1.662-1.623 3.018-3.124 3.817a6.09 6.09 0 0 1-5.332.214 25.684 25.684 0 0 1-4.543 5.552c.106.172.196.331.275.491 1.595 3.204.373 7.153-2.724 8.803a6.086 6.086 0 0 1-4.819.413c-1.607-.532-2.918-1.68-3.69-3.232a6.3 6.3 0 0 1-.227-.517 24.25 24.25 0 0 1-7.007.601 6.24 6.24 0 0 1-.141.549c-.514 1.662-1.624 3.018-3.124 3.817a6.118 6.118 0 0 1-2.886.729Zm7.606-19.17c-1.182 0-2.368-.19-3.526-.574-6.049-2.004-9.394-8.725-7.458-14.983.938-3.032 2.962-5.504 5.697-6.961a11.097 11.097 0 0 1 8.786-.754c6.049 2.004 9.394 8.725 7.458 14.983-.938 3.031-2.962 5.504-5.697 6.96a11.159 11.159 0 0 1-5.26 1.328Zm-.026-23.332c-1.731 0-3.45.427-5.033 1.27-2.618 1.395-4.553 3.76-5.451 6.661-1.853 5.988 1.348 12.42 7.136 14.337a10.62 10.62 0 0 0 8.406-.721c2.618-1.394 4.553-3.76 5.451-6.66 1.853-5.989-1.348-12.42-7.136-14.338a10.712 10.712 0 0 0-3.373-.549Z"/>
    <path fill="#FC6E56" d="m71.057 52.48 8.588 2.18c4.11 1.574 5.469 3.997 5.797 6.487l4.591 14.96 11.54.59.098 12.349-16.263.267c-5.159.07-8.603-2.46-9.581-6.368l-.846-2.323-1.98 11.855c-.077.636-.664 1.067-1.27.933L46.43 87.826c-.696-.154-1.05-.96-.703-1.602l12.652-26.177c1.501-2.785 6.16-7.751 12.678-7.566Z"/>
    <path fill="#061857" d="M74.746 80.496a.251.251 0 0 1-.247-.228L73.28 69.26a.255.255 0 0 1 .219-.284.25.25 0 0 1 .275.226l1.22 11.007a.255.255 0 0 1-.248.286ZM89.588 76.255h-.006l-3.775-.096a.254.254 0 0 1-.243-.263c.004-.142.125-.256.255-.25l3.775.095a.253.253 0 0 1 .243.263.253.253 0 0 1-.249.251Z"/>
    <path fill="#fff" d="M101.373 76.925s.816.153 1.878-.626c1.061-.779.963-1.84 1.557-3.051.595-1.21 1.865-.82 2.054-.067.189.753-.136 2.708-.136 2.708s1.492-.089 1.983.485c.491.574.256 1.347-.039 1.747 0 0 1.311-.101 1.567.921.289 1.154-.879 1.986-.879 1.986s.873.314.928 1.325c.071 1.328-1.214 1.76-1.214 1.76s.669.451.203 1.62c-.326.82-3.687 2.718-7.635 3.107-3.948.388-.267-11.915-.267-11.915Z"/>
    <path fill="#061857" d="M101.639 89.097a.252.252 0 0 1-.247-.233.254.254 0 0 1 .224-.28c3.916-.385 7.164-2.283 7.429-2.949.375-.941-.092-1.294-.112-1.308a.265.265 0 0 1-.105-.25.254.254 0 0 1 .167-.208c.044-.015 1.102-.393 1.042-1.502a1.246 1.246 0 0 0-.762-1.097.256.256 0 0 1-.163-.209.26.26 0 0 1 .105-.244c.01-.007 1.02-.747.779-1.71-.202-.806-1.296-.73-1.308-.73a.25.25 0 0 1-.237-.133.266.266 0 0 1 .021-.279c.235-.32.443-.962.05-1.421-.298-.349-1.249-.429-1.782-.399a.26.26 0 0 1-.2-.085.264.264 0 0 1-.059-.215c.088-.528.284-2.026.14-2.6-.065-.26-.337-.475-.645-.51-.386-.04-.729.186-.946.629-.194.395-.312.776-.425 1.145-.228.74-.444 1.437-1.211 2-1.134.832-2.029.676-2.065.67a.257.257 0 0 1-.201-.3.25.25 0 0 1 .288-.207c.034.005.743.113 1.69-.583.632-.463.805-1.025 1.025-1.736.114-.37.243-.79.456-1.222.311-.634.848-.973 1.442-.907.515.058.956.425 1.073.892.155.618 0 1.915-.084 2.51.5.005 1.454.082 1.877.577.433.507.417 1.157.197 1.677.537.073 1.199.354 1.386 1.098.23.918-.315 1.64-.681 2.004.304.216.697.633.737 1.357.052.97-.549 1.576-1.049 1.865.185.296.341.82.02 1.627-.407 1.02-3.957 2.883-7.842 3.264a.193.193 0 0 1-.024.002Z"/>
    <path fill="#061857" d="M104.928 76.741a.249.249 0 0 1-.236-.178.26.26 0 0 1 .16-.324l1.74-.578a.248.248 0 0 1 .313.166.259.259 0 0 1-.161.324l-1.739.578a.249.249 0 0 1-.077.012Z"/>
    <path fill="#fff" d="M107.36 47.899s-2.58 2.756-2.475 3.635c.132 1.1 1.556 1.121 2.282.507 0 0-1.028 1.441-.074 2.227.652.536 1.955-.034 1.955-.034s-.116 1.021.504 1.346c1.118.586 2.132-.686 2.132-.686s.198 1.067 1.467.727c1.269-.34 3.26-2.937 2.784-3.894-.477-.957-1.792-.395-1.792-.395s.079-1.953-1.997-1.215c0 0-.12-2.277-2.222-1.575 0 0-.611-2.845-2.564-.643Z"/>
    <path fill="#061857" d="M110.169 55.995c-.232 0-.477-.054-.729-.186-.491-.257-.617-.825-.643-1.212-.474.146-1.323.313-1.859-.128-.608-.501-.567-1.241-.352-1.844-.403.114-.836.107-1.19-.04-.431-.178-.7-.54-.757-1.019-.114-.952 2.09-3.363 2.54-3.844.652-.733 1.258-1.03 1.797-.878.654.18.986.965 1.119 1.382.589-.147 1.086-.08 1.482.201.508.36.702.98.775 1.358.614-.165 1.107-.107 1.469.172.367.283.499.722.546 1.03.575-.149 1.408-.142 1.789.623.167.336.126.797-.123 1.371-.494 1.14-1.804 2.618-2.819 2.889-.493.132-.907.09-1.233-.123a1.236 1.236 0 0 1-.38-.402c-.3.276-.819.65-1.432.65Zm-1.121-2.018c.053 0 .106.018.149.052a.261.261 0 0 1 .098.235c-.001.008-.079.851.37 1.087.929.487 1.818-.61 1.827-.62a.243.243 0 0 1 .254-.086.256.256 0 0 1 .183.2c0 .001.064.305.323.47.204.132.486.15.837.057.778-.208 2.011-1.496 2.49-2.6.176-.407.225-.745.135-.927-.366-.734-1.431-.295-1.476-.275a.241.241 0 0 1-.237-.028.257.257 0 0 1-.106-.22c0-.006.017-.655-.373-.954-.277-.212-.713-.214-1.294-.008a.24.24 0 0 1-.22-.03.257.257 0 0 1-.109-.2c-.001-.007-.058-.893-.606-1.28-.316-.223-.75-.244-1.292-.063a.242.242 0 0 1-.2-.021.258.258 0 0 1-.119-.168c-.066-.304-.345-1.123-.835-1.258-.434-.12-.948.332-1.303.732l-.005.005c-1.037 1.108-2.469 2.904-2.406 3.426a.702.702 0 0 0 .448.605c.42.174 1.048.057 1.429-.266a.242.242 0 0 1 .328.013.263.263 0 0 1 .03.339c-.036.05-.874 1.252-.12 1.872.44.363 1.379.073 1.703-.068a.243.243 0 0 1 .097-.02Z"/>
    <path fill="#061857" d="M107.167 52.298a.241.241 0 0 1-.159-.06.262.262 0 0 1-.032-.361l2.005-2.483a.243.243 0 0 1 .35-.033c.106.09.12.253.032.362l-2.005 2.483a.245.245 0 0 1-.191.092ZM109.048 54.492a.242.242 0 0 1-.156-.057.263.263 0 0 1-.038-.362l2.393-3.068a.243.243 0 0 1 .35-.039c.107.09.124.25.038.361l-2.393 3.069a.246.246 0 0 1-.194.096ZM111.684 55.15a.239.239 0 0 1-.148-.05.263.263 0 0 1-.051-.36l1.743-2.42a.244.244 0 0 1 .348-.052c.11.085.133.246.051.36l-1.743 2.42a.246.246 0 0 1-.2.103ZM87.359 67.696a.25.25 0 0 1-.237-.18l-1.487-4.828a.259.259 0 0 1 .162-.323c.13-.043.27.032.312.168l1.487 4.828a.26.26 0 0 1-.162.323.24.24 0 0 1-.075.012Z"/>
    <path fill="#F3F3F3" d="m246.617 152.566-19.48 42.918a56.968 56.968 0 0 0-4.862 18.541l-1.206 13.712h27.402l-.618-21.508 22.457-49.83-23.693-3.833Z"/>
    <path fill="#061857" d="m221.069 227.994-.023-.001a.256.256 0 0 1-.225-.28l1.206-13.712a57.072 57.072 0 0 1 4.884-18.627l19.48-42.917a.247.247 0 0 1 .264-.145l23.693 3.833a.252.252 0 0 1 .182.133.269.269 0 0 1 .005.23l-22.432 49.774.617 21.447a.255.255 0 0 1-.242.265h-.007a.253.253 0 0 1-.249-.25l-.618-21.507a.27.27 0 0 1 .023-.116l22.318-49.521-23.182-3.75-19.401 42.743a56.5 56.5 0 0 0-4.839 18.455l-1.206 13.712a.253.253 0 0 1-.248.234Z"/>
    <path fill="#F3F3F3" d="m282.054 154.063-2.988 46.316 18.028 27.364h-32.141l-7.316-17.341a45.464 45.464 0 0 1-3.258-22.876l4.187-36.231 23.488 2.768Z"/>
    <path fill="#061857" d="M264.954 228a.25.25 0 0 1-.229-.154l-7.316-17.341a45.771 45.771 0 0 1-3.277-23.009l1.818-15.73a3.825 3.825 0 0 0-.405-2.209l-.656-1.26a.261.261 0 0 1 .101-.348.245.245 0 0 1 .337.104l.656 1.261a4.35 4.35 0 0 1 .461 2.513l-1.818 15.729a45.244 45.244 0 0 0 3.239 22.743l7.316 17.341a.26.26 0 0 1-.128.339.252.252 0 0 1-.099.021ZM297.094 228a.246.246 0 0 1-.206-.112l-18.027-27.364a.26.26 0 0 1-.043-.162l2.987-46.316a.254.254 0 0 1 .265-.239.254.254 0 0 1 .232.273l-2.982 46.228 17.979 27.29a.262.262 0 0 1-.066.357.233.233 0 0 1-.139.045Z"/>
    <path fill="#CFF558" d="M234.395 113.798s37.68-7.498 47.203-5.435c9.523 2.063 11.445 15.742 9.115 28.367l-3.761 4.229s-2.684 12.664-3.662 15.735c-1.412 4.433-31.134 4.683-33.309 2.81-2.175-1.873 2.56-29.595 2.56-29.595s-25.735 3.185-44.04-5.057c-5.844-2.631-2.922-13.489-2.922-13.489l28.816 2.435Z"/>
    <path fill="#061857" d="M278.315 125.592a.256.256 0 0 1-.245-.301l1.119-6.694a.25.25 0 0 1 .288-.21.257.257 0 0 1 .203.297l-1.12 6.695a.251.251 0 0 1-.245.213Z"/>
    <path fill="#F3F3F3" d="M265.466 163.441c3.68-4.157 3.407-10.61-.609-14.413a10.13 10.13 0 0 0-.937-.775 42.528 42.528 0 0 0 4.106-11.671c.395.031.793.046 1.199.027 5.442-.25 9.661-5.016 9.423-10.644-.238-5.629-4.843-9.989-10.285-9.739-.405.019-.802.07-1.192.137a42.269 42.269 0 0 0-5.075-11.249c.301-.267.593-.548.867-.858 3.68-4.157 3.408-10.61-.609-14.413-4.017-3.803-10.256-3.516-13.936.64-.274.31-.519.636-.75.97a39.371 39.371 0 0 0-11.282-4.239c.031-.408.045-.82.027-1.24-.238-5.629-4.842-9.989-10.285-9.739-5.442.25-9.661 5.016-9.423 10.645.018.42.067.829.132 1.233a39.695 39.695 0 0 0-10.881 5.256 10.09 10.09 0 0 0-.828-.896c-4.017-3.803-10.256-3.516-13.936.64-3.68 4.157-3.407 10.61.609 14.413.3.284.615.537.937.775a42.578 42.578 0 0 0-4.106 11.672 9.557 9.557 0 0 0-1.199-.027c-5.442.25-9.662 5.015-9.423 10.644.238 5.629 4.842 9.989 10.285 9.739.405-.019.801-.07 1.192-.137a42.252 42.252 0 0 0 5.075 11.249c-.301.267-.593.548-.868.858-3.68 4.157-3.407 10.61.61 14.413 4.016 3.803 10.256 3.516 13.936-.641.274-.309.519-.636.75-.969a39.339 39.339 0 0 0 11.281 4.238c-.03.409-.044.821-.027 1.241.238 5.628 4.843 9.988 10.285 9.738 5.443-.25 9.662-5.015 9.424-10.644a10.4 10.4 0 0 0-.133-1.233 39.66 39.66 0 0 0 10.881-5.257c.258.311.529.613.829.897 4.017 3.803 10.256 3.516 13.936-.641Zm-23.631-22.375c-6.834 7.719-18.421 8.252-25.88 1.189-7.459-7.062-7.966-19.046-1.132-26.766 6.834-7.72 18.421-8.252 25.88-1.189 7.459 7.062 7.966 19.046 1.132 26.766Z"/>
    <path fill="#061857" d="M230.081 180.587c-2.531 0-4.935-.964-6.814-2.743-1.991-1.886-3.153-4.461-3.271-7.252-.014-.325-.01-.669.012-1.045a39.58 39.58 0 0 1-10.945-4.112 9.845 9.845 0 0 1-.64.81c-1.824 2.061-4.316 3.264-7.014 3.388-2.702.126-5.282-.846-7.273-2.731-4.111-3.893-4.392-10.522-.625-14.777.211-.238.449-.479.723-.73a42.515 42.515 0 0 1-4.924-10.914c-.362.056-.692.09-1.004.104-2.696.122-5.282-.846-7.273-2.732-1.992-1.886-3.154-4.461-3.272-7.252-.244-5.761 4.09-10.656 9.661-10.912.311-.015.644-.01 1.01.012a42.86 42.86 0 0 1 3.983-11.324 9.886 9.886 0 0 1-.782-.661c-4.111-3.893-4.391-10.521-.624-14.776 1.824-2.061 4.315-3.265 7.014-3.389 2.701-.123 5.281.847 7.273 2.733.233.22.46.46.705.747a39.9 39.9 0 0 1 10.557-5.1 10.11 10.11 0 0 1-.101-1.04c-.244-5.761 4.09-10.657 9.661-10.913 2.696-.125 5.281.847 7.273 2.733 1.991 1.886 3.153 4.46 3.271 7.252.014.324.01.668-.013 1.044 3.822.818 7.502 2.2 10.946 4.112.219-.305.429-.57.64-.81 1.824-2.06 4.315-3.264 7.014-3.388 2.697-.126 5.281.846 7.273 2.732 4.111 3.893 4.392 10.522.625 14.776-.212.24-.45.48-.724.731a42.137 42.137 0 0 1 1.883 3.283.261.261 0 0 1-.103.348.246.246 0 0 1-.336-.106 42.048 42.048 0 0 0-1.978-3.429.262.262 0 0 1 .045-.337c.329-.292.606-.565.846-.837 3.582-4.045 3.315-10.348-.594-14.05-1.894-1.793-4.35-2.718-6.915-2.597-2.566.118-4.934 1.262-6.67 3.222a9.991 9.991 0 0 0-.73.945.242.242 0 0 1-.321.076 39.12 39.12 0 0 0-11.213-4.212.257.257 0 0 1-.199-.272c.034-.446.043-.842.027-1.209-.112-2.653-1.217-5.102-3.11-6.895-1.894-1.793-4.35-2.718-6.916-2.598-5.296.243-9.417 4.898-9.185 10.376.015.367.057.76.129 1.202a.259.259 0 0 1-.175.29 39.429 39.429 0 0 0-10.814 5.224.243.243 0 0 1-.326-.047 9.716 9.716 0 0 0-.808-.874c-1.894-1.793-4.348-2.72-6.915-2.598-2.566.118-4.935 1.262-6.67 3.222-3.581 4.046-3.315 10.348.594 14.05.261.247.56.494.913.755a.263.263 0 0 1 .074.332 42.317 42.317 0 0 0-4.08 11.6.25.25 0 0 1-.263.205 9.455 9.455 0 0 0-1.169-.027c-5.297.244-9.418 4.899-9.186 10.377.112 2.653 1.217 5.102 3.111 6.895 1.893 1.793 4.347 2.715 6.915 2.598.353-.016.733-.06 1.162-.134a.249.249 0 0 1 .279.181 42.034 42.034 0 0 0 5.044 11.18c.07.108.05.253-.045.337-.33.293-.607.566-.846.837-3.582 4.045-3.315 10.348.594 14.049 1.893 1.793 4.343 2.717 6.915 2.598 2.566-.118 4.934-1.262 6.669-3.222.239-.27.478-.579.731-.945a.243.243 0 0 1 .321-.077 39.128 39.128 0 0 0 11.212 4.213.254.254 0 0 1 .199.271c-.033.445-.042.841-.026 1.209.112 2.654 1.217 5.103 3.11 6.896 1.894 1.793 4.345 2.717 6.915 2.598 5.297-.244 9.418-4.899 9.186-10.377a10.036 10.036 0 0 0-.129-1.202.257.257 0 0 1 .175-.288 39.42 39.42 0 0 0 10.814-5.225.244.244 0 0 1 .326.047c.283.342.548.628.808.874 1.893 1.793 4.351 2.719 6.915 2.598 2.566-.118 4.935-1.262 6.669-3.222a9.96 9.96 0 0 0 1.645-2.554.244.244 0 0 1 .33-.126c.125.06.179.212.122.341a10.51 10.51 0 0 1-1.73 2.686c-1.824 2.061-4.315 3.264-7.014 3.388-2.699.123-5.281-.846-7.273-2.732a9.8 9.8 0 0 1-.705-.747 39.893 39.893 0 0 1-10.557 5.1c.054.374.088.716.101 1.04.244 5.761-4.09 10.656-9.661 10.912-.153.007-.306.011-.459.011Zm-1.785-33.107c-4.647 0-9.061-1.77-12.509-5.035-7.548-7.148-8.063-19.318-1.147-27.129 3.35-3.785 7.923-5.994 12.878-6.222 4.953-.23 9.697 1.554 13.353 5.016 7.549 7.147 8.063 19.317 1.147 27.129-3.35 3.784-7.923 5.994-12.878 6.222-.282.012-.564.019-.844.019Zm.065-37.891c-.273 0-.546.006-.821.019-4.822.221-9.273 2.372-12.534 6.055-6.73 7.603-6.229 19.447 1.117 26.403 3.558 3.369 8.169 5.099 12.995 4.881 4.822-.222 9.273-2.372 12.534-6.055 6.73-7.603 6.229-19.447-1.117-26.403-3.356-3.178-7.651-4.9-12.174-4.9Z"/>
    <path fill="#fff" d="M190.791 110.707s-.929-.802-.255-1.923c.669-1.112 4.765-.184 5.137 1.271.372 1.455-1.534 1.806-1.86 1.706 0 0 1.196.895 1.382 2.25.186 1.354-1.289 1.362-1.754 1.412 0 0 1.023.733.34 2.145-.307.635-1.782.699-1.782.699s.824 1.391-.431 1.842c-1.255.452-3.544-.297-4.241-1.651-.697-1.355.922-1.319 1.045-1.462 0 0-1.486-1.372-1.346-2.476.139-1.104 1.896-.957 1.896-.957s-1.478-.849-1.013-2.053c.465-1.204 2.882-.803 2.882-.803Z"/>
    <path fill="#061857" d="M190.735 120.495c-1.334 0-3.018-.733-3.628-1.917-.216-.42-.259-.783-.128-1.078.173-.39.591-.544.916-.63-.454-.497-1.229-1.491-1.116-2.384.102-.808.848-1.072 1.436-1.153-.455-.456-.838-1.14-.537-1.918.378-.98 1.757-1.062 2.562-1.021-.226-.437-.328-1.06.085-1.746.457-.76 1.849-.633 2.426-.544 1.344.209 2.907.888 3.162 1.885.14.548.017 1.035-.356 1.408-.31.311-.753.497-1.136.582.389.414.898 1.109 1.02 1.995.058.425-.021.78-.234 1.057-.308.398-.823.536-1.24.596.29.446.471 1.158.036 2.056-.265.549-1.122.741-1.628.807.109.293.208.722.071 1.118-.12.347-.388.597-.796.744a2.737 2.737 0 0 1-.915.143Zm-2.019-6.681c-.409 0-1.359.072-1.444.739-.1.795.88 1.895 1.266 2.252a.262.262 0 0 1 .019.363c-.079.092-.192.118-.378.162-.241.056-.645.151-.748.384-.078.177.02.436.116.623.647 1.257 2.804 1.938 3.939 1.53.263-.095.424-.236.491-.432.151-.438-.187-1.028-.191-1.034a.265.265 0 0 1-.007-.255.249.249 0 0 1 .209-.136c.434-.019 1.388-.181 1.571-.557.579-1.199-.225-1.794-.26-1.819a.262.262 0 0 1-.099-.275.252.252 0 0 1 .215-.192l.134-.012c.347-.03.991-.085 1.269-.445.127-.164.169-.381.13-.663-.168-1.227-1.27-2.07-1.281-2.078a.264.264 0 0 1-.077-.322.248.248 0 0 1 .294-.133c.149.038.929-.07 1.344-.504.229-.239.296-.531.204-.889-.161-.631-1.371-1.294-2.755-1.509-.954-.148-1.73-.024-1.93.308-.554.92.173 1.563.204 1.59a.263.263 0 0 1 .067.304.248.248 0 0 1-.266.147c-.618-.102-2.292-.185-2.612.644-.379.983.89 1.726.903 1.734a.26.26 0 0 1 .117.299.245.245 0 0 1-.258.182 2.09 2.09 0 0 0-.186-.006Z"/>
    <path fill="#061857" d="M193.813 112.018a.243.243 0 0 1-.083-.015l-2.368-.863a.26.26 0 0 1-.152-.328.25.25 0 0 1 .318-.157l2.368.863a.26.26 0 0 1 .152.328.251.251 0 0 1-.235.172ZM193.441 115.68a.248.248 0 0 1-.095-.019l-3.471-1.476a.26.26 0 0 1-.135-.336.247.247 0 0 1 .325-.14l3.471 1.476a.26.26 0 0 1 .135.336.248.248 0 0 1-.23.159ZM191.998 118.524a.235.235 0 0 1-.077-.013l-2.643-.889a.259.259 0 0 1-.159-.324.247.247 0 0 1 .313-.165l2.643.889a.26.26 0 0 1 .16.325.25.25 0 0 1-.237.177Z"/>
    <path fill="#fff" d="M252.887 127.992s-1.054-.385-1.859-.577c-.806-.192-2.727-3.075-3.223-3.907-.496-.833-1.426-.577-1.488.448-.062 1.025.496 3.075.496 3.075s-2.355-1.153-2.975-.769c-.62.384-.496 1.538.558 2.242 0 0-1.543-.446-1.736.641-.178 1.01 1.252 2.114 1.252 2.114s-.632.195-.694.897c-.08.914 1.178 1.729 1.178 1.729s-.682.513-.31 1.346c.372.833 2.727 3.011 6.942 3.907 4.214.897 1.859-11.146 1.859-11.146Z"/>
    <path fill="#061857" d="M251.458 139.404c-.151 0-.309-.017-.473-.052-4.132-.879-6.657-3.058-7.091-4.03a1.32 1.32 0 0 1 .171-1.41c-.383-.299-1.126-.987-1.057-1.776.042-.481.303-.764.523-.92-.428-.393-1.229-1.257-1.078-2.11.055-.311.205-.548.448-.705.245-.158.548-.205.822-.205h.006c-.309-.368-.484-.797-.477-1.212.007-.394.181-.725.477-.909.55-.341 2.007.23 2.768.569-.163-.671-.437-1.94-.391-2.702.036-.581.327-1.012.76-1.124.416-.107.843.114 1.118.575.744 1.25 2.462 3.66 3.091 3.81.808.193 1.839.567 1.882.583.07.026.122.087.137.162.07.358 1.687 8.775-.411 10.935a1.646 1.646 0 0 1-1.225.521Zm-7.735-10.772c-.215 0-.437.034-.599.14a.578.578 0 0 0-.256.412c-.127.718.801 1.615 1.17 1.901a.22.22 0 0 1 .081.213.216.216 0 0 1-.147.17.83.83 0 0 0-.544.708c-.056.64.76 1.318 1.08 1.525a.218.218 0 0 1 .098.177.222.222 0 0 1-.086.184.875.875 0 0 0-.243 1.078c.308.69 2.491 2.87 6.793 3.785.544.116.974.001 1.316-.35 1.81-1.864.51-9.368.317-10.418a19.026 19.026 0 0 0-1.723-.529c-1.046-.25-3.333-3.969-3.355-4.006-.175-.295-.428-.44-.657-.381-.248.064-.417.343-.441.729-.059.976.483 2.982.489 3.002a.223.223 0 0 1-.067.225.205.205 0 0 1-.226.031c-.936-.458-2.417-1.003-2.777-.779-.171.106-.268.299-.272.543-.006.368.21.911.836 1.329a.22.22 0 0 1 .078.272.209.209 0 0 1-.249.121 2.488 2.488 0 0 0-.616-.082Z"/>
    <path fill="#CFF558" d="m252.475 127.277-2.206 12.406 25.973 3.956c3.514.418 6.698-2.164 7.142-5.79.449-3.674-2.082-7.023-5.64-7.461l-25.269-3.111Z"/>
    <path fill="#061857" d="M277.744 130.606a.21.21 0 0 1-.025-.002l-4.699-.578a.218.218 0 0 1-.185-.243.212.212 0 0 1 .235-.19l4.699.578a.217.217 0 0 1 .184.243.214.214 0 0 1-.209.192ZM276.98 143.901a6.26 6.26 0 0 1-.762-.046l-13.16-2.004a.217.217 0 0 1-.178-.247.21.21 0 0 1 .24-.184l13.153 2.003a5.968 5.968 0 0 0 2.905-.37.209.209 0 0 1 .271.127.22.22 0 0 1-.123.281 6.468 6.468 0 0 1-2.346.44Z"/>
    <path fill="#fff" d="m280.071 101.34 1.527 7.023-8.272 6.718 1.969-6.769-.328-5.61 5.104-1.362Z"/>
    <path fill="#061857" d="M281.598 108.62a.25.25 0 0 1-.242-.2l-1.471-6.765-4.657 1.243.316 5.399a.254.254 0 0 1-.233.272c-.133.011-.255-.099-.264-.241l-.328-5.61a.255.255 0 0 1 .186-.265l5.105-1.362a.24.24 0 0 1 .191.03.255.255 0 0 1 .113.163l1.527 7.023a.257.257 0 0 1-.188.307.264.264 0 0 1-.055.006Z"/>
    <path fill="#061857" d="M282.574 100.586s2.68-.726 3.646-3.405c.967-2.679-2.548-2.225-2.548-2.225s1.406-2.996-.175-4.313c-1.582-1.317-2.856.409-2.856.409s-.087-2.906-2.46-4.223c-2.372-1.316-4.919 1.59-5.754 3.905-.835 2.316-.044 5.04 1.933 6.356 1.976 1.317 2.548 4.45 4.349 4.722 1.801.273 3.865-1.226 3.865-1.226Z"/>
    <path fill="#fff" d="M279.85 100.087a2.077 2.077 0 0 1 2.46-.59c1.45.59.132 4.086-2.152 3.314 0 0-.352 1.771-1.626 2.179-1.273.409-5.183.682-6.062-1.044-.878-1.725.93-6 1.519-7.654.59-1.653 1.512-1.653 1.512-1.653s1.274 1.861 3.207 1.907c0 0-.571 1.77-.395 2.905.176 1.135 1.537.636 1.537.636Z"/>
    <path fill="#061857" d="M276.096 105.545c-1.545 0-3.261-.332-3.845-1.479-.826-1.621.472-5.09 1.247-7.162.099-.266.188-.502.258-.7.642-1.801 1.701-1.822 1.746-1.822.08 0 .156.04.203.108.012.018 1.228 1.757 3.009 1.799a.248.248 0 0 1 .198.109.269.269 0 0 1 .033.229c-.006.017-.55 1.725-.386 2.784.032.208.113.35.247.432.26.161.686.085.895.023a2.318 2.318 0 0 1 2.701-.609c.702.287.955 1.171.613 2.151-.383 1.101-1.41 1.998-2.681 1.719-.159.543-.63 1.757-1.728 2.109-.483.155-1.457.309-2.51.309Zm-.702-10.629c-.228.066-.769.338-1.171 1.465-.072.2-.161.44-.261.708-.696 1.86-1.991 5.324-1.271 6.737.795 1.562 4.597 1.295 5.768.919 1.12-.36 1.452-1.969 1.455-1.985a.261.261 0 0 1 .119-.171.24.24 0 0 1 .202-.022c1.138.384 1.995-.422 2.312-1.333.207-.595.186-1.289-.328-1.498a1.841 1.841 0 0 0-2.162.494.258.258 0 0 1-.123.099c-.084.031-.836.291-1.381-.043-.183-.112-.416-.34-.485-.794-.14-.9.153-2.138.312-2.713-1.577-.19-2.667-1.448-2.986-1.863Z"/>
    <path fill="#061857" d="M280.685 101.433a.237.237 0 0 1-.12-.032.261.261 0 0 1-.098-.348c.205-.386.783-1.029 1.504-.702a.26.26 0 0 1 .128.338.245.245 0 0 1-.327.133c-.485-.218-.854.45-.869.479a.25.25 0 0 1-.218.132Z"/>
  </g>
  <defs>
    <clipPath id="clip0_61_584">
      <path fill="#fff" d="M0 0h356v228H0z"/>
    </clipPath>
  </defs>
</svg>
