<svg xmlns="http://www.w3.org/2000/svg" fill="none" viewBox="0 0 66 67">
  <g clip-path="url(#clip0_123_2793)">
    <path fill="#061857" d="m64.552 58.775-9.514-9.515c3.36-4.597 5.368-10.245 5.368-16.375 0-15.355-12.448-27.803-27.803-27.803C17.247 5.082 4.8 17.53 4.8 32.885s12.447 27.803 27.803 27.803c6.13 0 11.778-2.008 16.375-5.369l9.515 9.516a3.126 3.126 0 0 0 4.42 0l1.64-1.64a3.125 3.125 0 0 0 0-4.42Z"/>
    <path fill="#061857" d="M60.703 66.282a3.643 3.643 0 0 1-2.587-1.07l-9.195-9.194c-4.814 3.405-10.446 5.204-16.318 5.204-15.626 0-28.336-12.712-28.336-28.337 0-15.624 12.71-28.336 28.336-28.336 15.625 0 28.338 12.712 28.338 28.336 0 5.872-1.798 11.504-5.206 16.319l9.195 9.193a3.663 3.663 0 0 1 0 5.175l-1.64 1.64a3.643 3.643 0 0 1-2.587 1.07ZM48.977 54.787c.138 0 .273.052.378.156l9.515 9.515a2.596 2.596 0 0 0 3.666 0l1.64-1.64a2.596 2.596 0 0 0 0-3.666l-9.516-9.515a.535.535 0 0 1-.054-.691c3.447-4.711 5.268-10.265 5.268-16.061 0-15.036-12.234-27.27-27.271-27.27-15.036 0-27.27 12.234-27.27 27.27 0 15.037 12.234 27.27 27.27 27.27 5.797 0 11.35-1.82 16.06-5.265a.53.53 0 0 1 .314-.104Z"/>
    <path fill="#FC6E56" d="M60.286 54.509 44.105 38.327l-6.06 6.06 16.181 16.181a3.125 3.125 0 0 0 4.42 0l1.64-1.64a3.125 3.125 0 0 0 0-4.42Z"/>
    <path fill="#061857" d="M56.437 62.015a3.645 3.645 0 0 1-2.587-1.07l-16.182-16.18a.533.533 0 0 1 0-.755l6.06-6.06c.2-.2.554-.2.754 0l16.181 16.18c.692.692 1.071 1.611 1.071 2.588a3.63 3.63 0 0 1-1.07 2.587l-1.64 1.64a3.645 3.645 0 0 1-2.587 1.07ZM38.8 44.387l15.803 15.805a2.597 2.597 0 0 0 3.667 0l1.64-1.64c.489-.49.758-1.141.758-1.834 0-.693-.27-1.343-.759-1.833L44.105 39.08 38.8 44.387Z"/>
    <path fill="#F3F3F3" d="M28.337 56.422c15.355 0 27.803-12.447 27.803-27.803C56.14 13.264 43.692.816 28.337.816S.534 13.264.534 28.619s12.448 27.803 27.803 27.803Z"/>
    <path fill="#061857" d="M28.337 56.956C12.71 56.956 0 44.244 0 28.619 0 12.995 12.711.283 28.337.283c15.625 0 28.337 12.712 28.337 28.336 0 15.625-12.712 28.337-28.337 28.337Zm0-55.607c-15.036 0-27.27 12.233-27.27 27.27 0 15.036 12.234 27.27 27.27 27.27 15.037 0 27.271-12.234 27.271-27.27 0-15.037-12.234-27.27-27.271-27.27Z"/>
    <path fill="#C4E3F7" d="M46.812 28.62c0 10.202-8.271 18.474-18.475 18.474-10.203 0-18.475-8.272-18.475-18.475 0-10.203 8.271-18.475 18.475-18.475s18.475 8.272 18.475 18.475Z"/>
    <path fill="#061857" d="M28.337 47.628c-10.482 0-19.008-8.527-19.008-19.01 0-10.48 8.526-19.007 19.008-19.007s19.007 8.527 19.007 19.008c0 10.482-8.526 19.009-19.007 19.009Zm0-36.95c-9.893 0-17.942 8.048-17.942 17.94 0 9.894 8.05 17.944 17.942 17.944s17.94-8.05 17.94-17.943-8.048-17.941-17.94-17.941Z"/>
    <path fill="#061857" d="M14.128 32.885c0-10.203 8.271-18.475 18.475-18.475 4.012 0 7.715 1.293 10.744 3.465-3.352-4.675-8.819-7.731-15.01-7.731-10.204 0-18.475 8.272-18.475 18.475 0 6.191 3.056 11.658 7.731 15.01a18.37 18.37 0 0 1-3.465-10.744Z"/>
    <path fill="#061857" d="M17.592 44.163a.536.536 0 0 1-.31-.1c-4.98-3.572-7.953-9.345-7.953-15.444 0-10.481 8.526-19.008 19.008-19.008 6.099 0 11.873 2.973 15.443 7.954a.532.532 0 0 1-.743.744 17.806 17.806 0 0 0-10.434-3.365c-9.893 0-17.942 8.048-17.942 17.94 0 3.755 1.162 7.363 3.364 10.435a.532.532 0 0 1-.433.844Zm10.745-33.485c-9.893 0-17.942 8.048-17.942 17.94 0 4.68 1.854 9.156 5.074 12.478a18.82 18.82 0 0 1-1.874-8.211c0-10.481 8.526-19.008 19.008-19.008 2.87 0 5.66.64 8.211 1.874a17.968 17.968 0 0 0-12.477-5.073Z"/>
  </g>
  <defs>
    <clipPath id="clip0_123_2793">
      <path fill="#fff" d="M0 .283h66v65.999H0z"/>
    </clipPath>
  </defs>
</svg>
