<svg xmlns="http://www.w3.org/2000/svg" fill="none" viewBox="0 0 189 71">
  <g clip-path="url(#clip0_123_2821)">
    <path fill="#061857" d="M53.557 67.463V38.572a3.44 3.44 0 0 0-3.436-3.435H25.53a5.356 5.356 0 0 0-5.32-4.794H8.026a5.354 5.354 0 0 0-5.348 5.346v31.775a3.44 3.44 0 0 0 3.437 3.435H50.12a3.44 3.44 0 0 0 3.436-3.434ZM184.743 35.136h-24.588a5.356 5.356 0 0 0-5.322-4.794h-12.184a5.353 5.353 0 0 0-5.348 5.346v31.775a3.44 3.44 0 0 0 3.437 3.435h44.005a3.44 3.44 0 0 0 3.437-3.434V38.57a3.44 3.44 0 0 0-3.437-3.435Z"/>
    <path fill="#F3F3F3" stroke="#061857" stroke-miterlimit="10" stroke-width="1.5" d="m108.166.635 6.464 7.903v23.32H78.596V.636h29.57Z"/>
    <path stroke="#3A457D" stroke-miterlimit="10" stroke-width="1.5" d="M114.63 8.538h-6.695V.635"/>
    <path fill="#F3F3F3" stroke="#061857" stroke-miterlimit="10" stroke-width="1.5" d="m48.416 5.474 10.048 1.827 15.13 17.753L46.162 48.41 25.906 24.64l22.51-19.166Z"/>
    <path stroke="#3A457D" stroke-miterlimit="10" stroke-width="1.5" d="m58.463 7.3-5.096 4.34-5.127-6.016"/>
    <path fill="#F3F3F3" stroke="#061857" stroke-miterlimit="10" stroke-width="1.5" d="m166.697 23.514-1.827 10.043-17.761 15.123-23.367-27.418 23.78-20.248 19.175 22.5Z"/>
    <path stroke="#3A457D" stroke-miterlimit="10" stroke-width="1.5" d="m164.87 33.557-4.342-5.094 6.019-5.125"/>
    <path fill="#C4E3F7" stroke="#061857" stroke-miterlimit="10" stroke-width="1.5" d="M22.794 33.478A4.795 4.795 0 0 0 18 28.685H5.814a4.795 4.795 0 0 0-4.795 4.793v31.775a2.883 2.883 0 0 0 2.883 2.882h44.006a2.883 2.883 0 0 0 2.884-2.882V36.36a2.883 2.883 0 0 0-2.884-2.883H22.794Z"/>
    <path fill="#FC6E56" stroke="#061857" stroke-miterlimit="10" stroke-width="1.5" d="M157.417 33.478a4.794 4.794 0 0 0-4.795-4.793h-12.185a4.794 4.794 0 0 0-4.795 4.793v31.775a2.883 2.883 0 0 0 2.884 2.882h44.005a2.883 2.883 0 0 0 2.884-2.882V36.36a2.883 2.883 0 0 0-2.884-2.883h-25.114Z"/>
  </g>
  <defs>
    <clipPath id="clip0_123_2821">
      <path fill="#fff" d="M.453.069H188.18v70.83H.453z"/>
    </clipPath>
  </defs>
</svg>
