<svg xmlns="http://www.w3.org/2000/svg" fill="none" viewBox="0 0 69 72">
  <g clip-path="url(#clip0_123_2835)">
    <path fill="#061857" d="M61.173 24.624 50.22 13.349a2.125 2.125 0 0 0-1.493-.643l-1.25-.018-21.087-.306-12.363-.178a2.124 2.124 0 0 0-2.155 2.093l-.663 45.814a2.125 2.125 0 0 0 2.094 2.155l5.505.08 34.804.503 5.505.08a2.125 2.125 0 0 0 2.155-2.094l.502-34.7a2.126 2.126 0 0 0-.6-1.511Z"/>
    <path fill="#061857" d="m59.111 63.321-45.814-.662a2.52 2.52 0 0 1-2.48-2.554l.662-45.814a2.52 2.52 0 0 1 2.553-2.48l34.7.502a2.5 2.5 0 0 1 1.77.762L61.454 24.35c.462.475.721 1.128.711 1.79l-.501 34.7a2.52 2.52 0 0 1-2.553 2.481Zm-45.09-50.725a1.733 1.733 0 0 0-1.757 1.706l-.662 45.814a1.733 1.733 0 0 0 1.706 1.758l45.815.662a1.733 1.733 0 0 0 1.757-1.707l.501-34.7a1.748 1.748 0 0 0-.49-1.232L49.938 13.622a1.724 1.724 0 0 0-1.216-.524l-34.701-.502Z"/>
    <path fill="#CFF558" d="M58.078 21.438 47.125 10.162a2.124 2.124 0 0 0-1.493-.644l-34.7-.502a2.125 2.125 0 0 0-2.155 2.094l-.663 45.814a2.124 2.124 0 0 0 2.094 2.155l45.814.662a2.124 2.124 0 0 0 2.155-2.093l.501-34.7a2.124 2.124 0 0 0-.6-1.512Z"/>
    <path fill="#061857" d="m56.016 60.135-45.814-.662a2.52 2.52 0 0 1-2.48-2.554l.662-45.814a2.52 2.52 0 0 1 2.553-2.48l34.7.502a2.5 2.5 0 0 1 1.77.762l10.952 11.275c.463.475.722 1.128.712 1.79l-.502 34.7a2.52 2.52 0 0 1-2.553 2.481ZM10.926 9.41a1.733 1.733 0 0 0-1.757 1.706L8.507 56.93a1.733 1.733 0 0 0 1.706 1.758l45.815.662a1.733 1.733 0 0 0 1.756-1.707l.502-34.7a1.749 1.749 0 0 0-.49-1.232L46.843 10.436a1.724 1.724 0 0 0-1.217-.524l-34.7-.502Z"/>
    <path fill="#fff" d="m47.078 33.606-27.175-.393a3.815 3.815 0 0 0-3.87 3.76l-.32 22.186 34.803.504.321-22.187a3.815 3.815 0 0 0-3.76-3.87Z"/>
    <path fill="#061857" d="m50.51 60.056-34.803-.503a.393.393 0 0 1-.387-.399l.321-22.186a4.212 4.212 0 0 1 4.268-4.147l27.175.393a4.212 4.212 0 0 1 4.146 4.268l-.321 22.187a.393.393 0 0 1-.398.387Zm-34.399-1.283 34.019.492.315-21.794a3.426 3.426 0 0 0-3.372-3.472l-27.176-.393a3.426 3.426 0 0 0-3.47 3.373l-.316 21.794Z"/>
    <path fill="#fff" d="m26.918 22.452 13.459.194a3.815 3.815 0 0 0 3.87-3.76l.135-9.385-21.088-.305-.136 9.386a3.815 3.815 0 0 0 3.76 3.87Z"/>
    <path fill="#061857" d="m40.372 23.039-13.46-.195a4.213 4.213 0 0 1-4.145-4.268l.136-9.386a.393.393 0 0 1 .398-.386l21.087.304c.216.004.39.182.387.399l-.136 9.385a4.213 4.213 0 0 1-4.267 4.147ZM23.682 9.594l-.13 8.993a3.426 3.426 0 0 0 3.372 3.472l13.459.195a3.426 3.426 0 0 0 3.47-3.373l.13-8.993-20.3-.294Z"/>
    <path fill="#061857" d="m39.726 12.305-.114-.001a2.13 2.13 0 0 0-2.16 2.098l-.046 3.2a2.13 2.13 0 0 0 2.098 2.16l.114.001a2.13 2.13 0 0 0 2.16-2.098l.046-3.2a2.13 2.13 0 0 0-2.098-2.16Z"/>
    <path fill="#061857" d="m40.023 20.162-.935-.014a2.113 2.113 0 0 1-2.08-2.14l.058-4.023a2.113 2.113 0 0 1 2.141-2.08l.936.014a2.113 2.113 0 0 1 2.08 2.14l-.059 4.023a2.113 2.113 0 0 1-2.14 2.08Zm-.827-7.472a1.327 1.327 0 0 0-1.344 1.306l-.058 4.023c-.011.73.575 1.333 1.305 1.344l.936.013c.73.01 1.334-.575 1.344-1.306l.058-4.022a1.327 1.327 0 0 0-1.306-1.344l-.935-.014Z"/>
  </g>
  <defs>
    <clipPath id="clip0_123_2835">
      <path fill="#fff" d="M0 10.39 58.025.81l10.08 61.067-58.024 9.578z"/>
    </clipPath>
  </defs>
</svg>
