<svg xmlns="http://www.w3.org/2000/svg" fill="none" viewBox="0 0 514 93">
  <g clip-path="url(#clip0_69_1633)">
    <path fill="#F3F3F3" d="M342.083 86.85c-1.873 0-3.27-.472-4.194-1.416-.922-.943-1.384-2.25-1.384-3.923 0-1.151.198-2.131.592-2.94.395-.81 1.007-1.433 1.836-1.868.829-.434 1.886-.652 3.169-.652 1.738 0 3.116.465 4.133 1.395 1.016.93 1.524 2.285 1.524 4.065 0 1.177-.23 2.165-.692 2.96a4.32 4.32 0 0 1-1.955 1.786c-.843.396-1.854.593-3.029.593Zm.46-1.526c.789 0 1.475-.133 2.057-.401a2.875 2.875 0 0 0 1.344-1.255c.314-.568.472-1.301.472-2.197 0-1.365-.342-2.356-1.024-2.97-.681-.616-1.632-.925-2.849-.925-.815 0-1.49.124-2.025.372-.536.248-.947.662-1.234 1.245-.288.582-.431 1.354-.431 2.318 0 1.418.308 2.408.922 2.97.616.562 1.538.843 2.768.843Zm4.455 1.345-.663-1.786.161-4.497-.361-2.328v-6.543h2.306v15.154h-1.443ZM354.822 86.85c-1.405 0-2.513-.278-3.321-.834-.81-.554-1.214-1.328-1.214-2.318 0-.842.274-1.525.823-2.047.548-.522 1.22-.886 2.017-1.094a9.452 9.452 0 0 1 2.396-.31c1.071 0 1.982.086 2.739.26.755.174 1.38.368 1.876.582l-.884.14v-1.505c0-.75-.234-1.294-.702-1.636-.468-.341-1.291-.512-2.468-.512-.534 0-1.066.054-1.594.161-.529.108-.993.23-1.395.371-.401.14-.608.218-.621.231l-.641-1.445c.561-.241 1.23-.442 2.006-.602.774-.16 1.557-.241 2.346-.241 1.19 0 2.167.134 2.928.401.763.268 1.328.656 1.695 1.164.369.51.552 1.145.552 1.907v7.146h-1.564l-.582-1.766h.422c-.175.254-.455.528-.843.822-.388.295-.92.556-1.595.783-.676.228-1.468.342-2.376.342Zm.521-1.445a7.24 7.24 0 0 0 2.247-.372c.762-.248 1.363-.592 1.804-1.034l-.14.763V81.41l.602.582c-.321-.107-.826-.213-1.514-.32-.69-.108-1.334-.162-1.936-.162-1.097 0-2.036.137-2.819.412-.782.274-1.174.82-1.174 1.636 0 .656.265 1.127.793 1.415.529.288 1.241.432 2.137.432ZM371.089 76.231v1.405h-8.305v-1.405h8.305Zm1.124 10.177c-.455.147-.92.264-1.395.351a8.43 8.43 0 0 1-1.514.13c-1.31 0-2.28-.267-2.909-.802-.628-.535-1.013-1.16-1.153-1.877-.141-.715-.211-1.589-.211-2.62v-8.55h2.206v2.81l-.099 1.164.099.663v3.913c0 .844.061 1.523.181 2.038.121.515.379.926.773 1.234.393.309.993.462 1.795.462a4.4 4.4 0 0 0 .973-.11c.327-.074.659-.177.993-.312l.261 1.506ZM377.367 86.85c-1.404 0-2.512-.278-3.32-.834-.81-.554-1.214-1.328-1.214-2.318 0-.842.274-1.525.823-2.047.548-.522 1.22-.886 2.016-1.094a9.466 9.466 0 0 1 2.397-.31c1.07 0 1.982.086 2.739.26.755.174 1.38.368 1.875.582l-.883.14v-1.505c0-.75-.234-1.294-.702-1.636-.468-.341-1.291-.512-2.468-.512-.534 0-1.066.054-1.594.161-.529.108-.994.23-1.395.371-.401.14-.608.218-.621.231l-.641-1.445c.561-.241 1.23-.442 2.005-.602.775-.16 1.558-.241 2.347-.241 1.19 0 2.167.134 2.928.401.762.268 1.328.656 1.695 1.164.369.51.552 1.145.552 1.907v7.146h-1.565l-.581-1.766h.422c-.175.254-.455.528-.843.822-.388.295-.921.556-1.596.783-.675.228-1.467.342-2.376.342Zm.522-1.445a7.24 7.24 0 0 0 2.247-.372c.762-.248 1.363-.592 1.804-1.034l-.14.763V81.41l.602.582c-.321-.107-.826-.213-1.514-.32-.69-.108-1.334-.162-1.937-.162-1.097 0-2.035.137-2.818.412-.782.274-1.174.82-1.174 1.636 0 .656.265 1.127.793 1.415.529.288 1.241.432 2.137.432ZM391.851 76.232h1.304l.941 1.806v8.631h-2.245V76.232Zm8.284 2.068a5.114 5.114 0 0 0-1.053-.372c-.408-.1-.826-.15-1.254-.15-.629 0-1.224.103-1.785.31a3.092 3.092 0 0 0-1.394 1.015c-.368.468-.553 1.063-.553 1.786l-1.103-.281c.014-.883.242-1.673.683-2.369.441-.695 1.052-1.238 1.836-1.626.781-.388 1.661-.582 2.638-.582.454 0 .882.048 1.283.141.401.094.728.214.983.361l-.281 1.767ZM407.456 86.85c-1.283 0-2.4-.214-3.35-.642-.949-.428-1.685-1.044-2.206-1.847-.522-.803-.783-1.759-.783-2.87 0-1.23.258-2.251.773-3.06.515-.81 1.243-1.412 2.186-1.807.943-.395 2.07-.593 3.38-.593 1.177 0 2.197.185 3.06.552.862.369 1.538.92 2.025 1.656.489.736.76 1.653.813 2.75h-2.126c-.026-.749-.214-1.381-.562-1.897a3.106 3.106 0 0 0-1.343-1.134 4.502 4.502 0 0 0-1.827-.361c-.802 0-1.507.12-2.115.361a2.998 2.998 0 0 0-1.456 1.215c-.361.569-.54 1.321-.54 2.257 0 .83.197 1.533.591 2.108.395.576.932 1 1.615 1.275.682.274 1.451.411 2.306.411.55 0 1.065-.053 1.546-.16.481-.108.93-.241 1.344-.402l.46-.2.884 1.164c-.576.401-1.264.706-2.066.913-.803.207-1.672.311-2.609.311Zm-4.312-6.222h8.786l1.424.36v.904h-10.21v-1.264ZM416.365 74.787c-.496 0-.877-.128-1.144-.382-.268-.254-.402-.602-.402-1.043 0-.455.134-.816.402-1.085.267-.267.648-.401 1.144-.401.534 0 .932.127 1.193.381.261.255.391.622.391 1.105 0 .454-.13.805-.391 1.053-.261.248-.659.372-1.193.372Zm1.103 1.444V86.67h-2.227V76.23h2.227ZM420.376 76.231h1.184l1.023 1.848.019 2.77v5.82h-2.226V76.23Zm7.463 4.517c0-1.03-.165-1.82-.492-2.369-.327-.549-.933-.823-1.815-.823-.749 0-1.391.252-1.926.753-.534.502-.855 1.195-.962 2.077a3.33 3.33 0 0 0-.031.291c-.006.101-.011.205-.011.311l-1.142-.06c0-.99.177-1.85.531-2.58a3.88 3.88 0 0 1 1.565-1.695c.688-.402 1.514-.602 2.478-.602 1.363 0 2.343.372 2.939 1.114.595.742.892 1.816.892 3.221v6.263h-2.026v-5.901Zm7.523 0c0-1.017-.178-1.803-.532-2.358-.355-.556-1.027-.834-2.016-.834-.882 0-1.569.285-2.056.854-.489.568-.78 1.28-.874 2.137 0 .094-.002.187-.008.28-.008.095-.011.181-.011.262l-1.063-.16c0-1.513.367-2.703 1.103-3.573.736-.87 1.831-1.305 3.29-1.305 1.137 0 2.026.198 2.667.592.643.395 1.094.923 1.355 1.586.26.662.391 1.469.391 2.419v6h-2.246v-5.9ZM443.706 86.85c-1.405 0-2.512-.278-3.32-.834-.81-.554-1.214-1.328-1.214-2.318 0-.842.274-1.525.823-2.047.548-.522 1.22-.886 2.016-1.094a9.466 9.466 0 0 1 2.397-.31c1.07 0 1.982.086 2.739.26.755.174 1.379.368 1.875.582l-.883.14v-1.505c0-.75-.234-1.294-.702-1.636-.468-.341-1.291-.512-2.468-.512-.534 0-1.066.054-1.594.161-.529.108-.994.23-1.395.371-.401.14-.608.218-.622.231l-.641-1.445c.561-.241 1.231-.442 2.006-.602.775-.16 1.558-.241 2.347-.241 1.19 0 2.167.134 2.928.401.762.268 1.328.656 1.695 1.164.369.51.552 1.145.552 1.907v7.146h-1.565l-.581-1.766h.421c-.174.254-.454.528-.842.822-.388.295-.921.556-1.596.783-.675.228-1.467.342-2.376.342Zm.521-1.445c.736 0 1.485-.124 2.248-.372.762-.248 1.363-.592 1.804-1.034l-.14.763V81.41l.602.582c-.321-.107-.826-.213-1.514-.32-.69-.108-1.334-.162-1.937-.162-1.097 0-2.035.137-2.818.412-.782.274-1.174.82-1.174 1.636 0 .656.265 1.127.793 1.415.529.288 1.241.432 2.136.432ZM457.567 84.461c-1.352 0-2.437-.137-3.26-.411-.823-.274-1.431-.71-1.825-1.304-.395-.596-.592-1.396-.592-2.4 0-1.471.451-2.555 1.354-3.25.903-.697 2.344-1.045 4.323-1.045 2.006 0 3.501.358 4.484 1.074.983.716 1.474 1.79 1.474 3.222 0 .99-.214 1.783-.642 2.379-.428.595-1.076 1.033-1.947 1.314-.869.28-1.992.421-3.369.421Zm-1.344-.12c-.335.174-.558.412-.672.712-.114.302-.003.566.331.793.333.228.962.342 1.885.342h.884c1.336-.014 2.402.023 3.199.11.795.087 1.464.338 2.006.753.541.414.812 1.076.812 1.987 0 .776-.278 1.445-.832 2.007-.555.562-1.344.986-2.367 1.274-1.024.288-2.25.432-3.682.432-1.123 0-2.21-.134-3.259-.401-1.05-.268-1.897-.61-2.538-1.024l1.043-1.325c.575.347 1.284.629 2.127.843.842.214 1.798.321 2.869.321.922 0 1.698-.1 2.325-.301.63-.2 1.097-.461 1.405-.783.308-.32.462-.675.462-1.063 0-.402-.161-.697-.481-.884-.321-.187-.746-.307-1.275-.36-.528-.055-1.253-.081-2.176-.081h-.3c-1.432 0-2.521-.137-3.27-.411-.749-.275-1.124-.76-1.124-1.456 0-.482.157-.873.471-1.174.314-.3.685-.532 1.113-.693l1.044.382Zm1.363-1.445c.804 0 1.466-.07 1.987-.211.521-.14.922-.398 1.203-.773.282-.375.422-.903.422-1.585 0-.937-.305-1.609-.913-2.018-.609-.408-1.509-.612-2.699-.612-1.162 0-2.012.201-2.546.602-.536.402-.802 1.077-.802 2.028 0 .682.122 1.21.37 1.585.247.375.613.633 1.094.773.481.14 1.108.21 1.884.21Zm2.649-6.162a6.824 6.824 0 0 1 1.193-1.305 4.848 4.848 0 0 1 1.455-.833 4.066 4.066 0 0 1 1.745-.21l.381 1.886c-.736-.04-1.381.037-1.935.23a3.458 3.458 0 0 0-1.435.954l-1.404-.722ZM467.618 74.787c-.496 0-.877-.128-1.145-.382s-.401-.602-.401-1.043c0-.455.133-.816.401-1.085.268-.267.649-.401 1.145-.401.534 0 .932.127 1.193.381.261.255.391.622.391 1.105 0 .454-.13.805-.391 1.053-.261.248-.659.372-1.193.372Zm1.103 1.444V86.67h-2.227V76.23h2.227ZM471.628 76.232h1.104l1.023 1.847.099 3.432v5.158h-2.226V76.232Zm1.004 4.958c0-1.74.43-3.034 1.293-3.884.864-.85 2.157-1.275 3.882-1.275 1.124 0 2.059.168 2.808.502.749.335 1.31.82 1.685 1.456.375.635.563 1.414.563 2.338v6.322h-2.227v-6.262c0-.964-.284-1.676-.853-2.138-.568-.461-1.381-.692-2.438-.692-.722 0-1.334.114-1.836.341-.5.228-.889.572-1.163 1.034-.274.462-.438 1.047-.492 1.756-.013.08-.019.164-.019.251v.25h-1.203ZM490.986 86.85c-1.283 0-2.399-.214-3.35-.642-.949-.428-1.684-1.044-2.205-1.847-.523-.803-.784-1.759-.784-2.87 0-1.23.258-2.251.773-3.06.515-.81 1.244-1.412 2.187-1.807.943-.395 2.069-.593 3.379-.593 1.177 0 2.197.185 3.06.552.862.369 1.539.92 2.026 1.656.488.736.759 1.653.812 2.75h-2.126c-.026-.749-.214-1.381-.562-1.897a3.106 3.106 0 0 0-1.343-1.134 4.499 4.499 0 0 0-1.827-.361c-.802 0-1.507.12-2.115.361a2.996 2.996 0 0 0-1.455 1.215c-.361.569-.541 1.321-.541 2.257 0 .83.197 1.533.591 2.108.395.576.933 1 1.615 1.275.683.274 1.451.411 2.307.411a7.08 7.08 0 0 0 1.545-.16c.481-.108.93-.241 1.344-.402l.461-.2.883 1.164c-.575.401-1.264.706-2.066.913-.802.207-1.671.311-2.609.311Zm-4.312-6.222h8.786l1.424.36v.904h-10.21v-1.264ZM503.645 86.85c-1.872 0-3.27-.472-4.193-1.416-.923-.943-1.385-2.25-1.385-3.923 0-1.151.199-2.131.593-2.94.395-.81 1.006-1.433 1.835-1.868.829-.434 1.886-.652 3.17-.652 1.738 0 3.116.465 4.133 1.395 1.015.93 1.523 2.285 1.523 4.065 0 1.177-.229 2.165-.691 2.96a4.323 4.323 0 0 1-1.956 1.786c-.842.396-1.853.593-3.029.593Zm.461-1.526c.789 0 1.474-.133 2.056-.401a2.87 2.87 0 0 0 1.344-1.255c.314-.568.473-1.301.473-2.197 0-1.365-.342-2.356-1.025-2.97-.681-.616-1.631-.925-2.848-.925-.816 0-1.491.124-2.025.372-.536.248-.948.662-1.235 1.245-.287.582-.431 1.354-.431 2.318 0 1.418.308 2.408.923 2.97.615.562 1.538.843 2.768.843Zm4.454 1.345-.663-1.786.161-4.497-.361-2.328v-6.543h2.307v15.154h-1.444ZM124.447 23.014c1.395-1.995 3.203-3.367 5.421-4.116 2.219-.748 5.097-1.122 8.638-1.122v10.401c-1.496-.3-2.891-.449-4.187-.449-3.94 0-6.969 1.235-9.087 3.704-2.12 2.47-3.179 5.9-3.179 10.29V60.13h-9.497V17.701h9.497L119.96 31.62h1.495c.598-3.741 1.595-6.61 2.992-8.605ZM155.073 49.317c2.169 1.772 4.898 2.657 8.189 2.657 5.285 0 9.472-2.045 12.566-6.136l6.355 4.34c-1.944 3.692-4.587 6.462-7.927 8.306-3.34 1.845-7.006 2.77-10.994 2.77-3.939 0-7.579-.986-10.918-2.956-3.342-1.971-5.997-4.64-7.966-8.008-1.97-3.367-2.953-7.046-2.953-11.037 0-3.99.983-7.658 2.953-11a22.187 22.187 0 0 1 7.966-7.97c3.339-1.97 6.979-2.956 10.918-2.956 4.188 0 7.878 1.048 11.068 3.143 3.191 2.095 5.635 5.027 7.33 8.793 1.695 3.767 2.468 8.07 2.319 12.908h-32.982c.548 2.993 1.907 5.377 4.076 7.146Zm.299-20.204c-2.169 1.771-3.602 4.03-4.3 6.773h23.932c-.598-2.944-1.982-5.25-4.15-6.923-2.169-1.67-4.701-2.507-7.592-2.507-3.091 0-5.721.887-7.89 2.657ZM234.462.266V60.13h-9.573l.748-13.919h-1.271c-1.646 10.028-7.106 15.042-16.38 15.042-3.44 0-6.581-.961-9.423-2.881-2.841-1.92-5.085-4.502-6.73-7.746-1.646-3.242-2.468-6.734-2.468-10.475 0-4.29.822-8.17 2.468-11.637 1.645-3.467 3.876-6.198 6.694-8.194 2.816-1.994 5.969-2.993 9.459-2.993 4.089 0 7.541 1.234 10.359 3.704 2.817 2.47 4.723 5.975 5.721 10.514h1.571l-.748-13.769V.266h9.573Zm-16.94 49.725c1.919-1.172 3.44-2.706 4.563-4.603 1.122-1.895 1.683-3.865 1.683-5.911 0-2.245-.549-4.303-1.646-6.174a11.926 11.926 0 0 0-4.487-4.415c-1.896-1.072-4.014-1.608-6.358-1.608-3.639 0-6.631 1.16-8.974 3.48-2.345 2.319-3.515 5.3-3.515 8.941 0 2.295.534 4.354 1.609 6.174 1.071 1.821 2.553 3.255 4.449 4.303 1.894 1.047 4.038 1.571 6.431 1.571a11.76 11.76 0 0 0 6.245-1.758ZM254.017 49.317c2.168 1.772 4.898 2.657 8.189 2.657 5.284 0 9.472-2.045 12.565-6.136l6.356 4.34c-1.945 3.692-4.588 6.462-7.928 8.306-3.34 1.845-7.005 2.77-10.993 2.77-3.94 0-7.579-.986-10.919-2.956-3.341-1.971-5.997-4.64-7.965-8.008-1.971-3.367-2.954-7.046-2.954-11.037 0-3.99.983-7.658 2.954-11a22.185 22.185 0 0 1 7.965-7.97c3.34-1.97 6.979-2.956 10.919-2.956 4.187 0 7.877 1.048 11.068 3.143 3.19 2.095 5.634 5.027 7.329 8.793 1.695 3.767 2.468 8.07 2.319 12.908H249.94c.548 2.993 1.907 5.377 4.077 7.146Zm.298-20.204c-2.168 1.771-3.602 4.03-4.3 6.773h23.933c-.598-2.944-1.983-5.25-4.151-6.923-2.168-1.67-4.7-2.507-7.591-2.507-3.092 0-5.721.887-7.891 2.657ZM308.238 8.983c-1.719.375-2.891 1.186-3.515 2.432-.624 1.248-.984 3.368-1.083 6.36h25.221v9.58h-25.297V60.13h-9.349V27.354h-8.3v-9.578h8.3c.101-4.64.674-8.144 1.721-10.514 1.047-2.369 3.165-4.127 6.357-5.275C305.484.84 310.394.266 317.027.266v8.23c-4.139-.048-7.068.113-8.789.487Z"/>
    <path fill="#F3F3F3" d="M320.41 11.4c-1.047-1.022-1.57-2.282-1.57-3.779 0-1.496.523-2.768 1.57-3.816 1.047-1.048 2.343-1.572 3.889-1.572 1.446 0 2.68.524 3.702 1.572 1.021 1.048 1.532 2.32 1.532 3.816 0 1.497-.511 2.758-1.532 3.779-1.022 1.023-2.256 1.534-3.702 1.534-1.546 0-2.842-.51-3.889-1.534Zm-.898 6.376h9.349V60.13h-9.349V17.776ZM376.015 22.191c2.966 3.693 4.451 9.653 4.451 17.885V60.13h-9.274V40.076c0-4.74-.898-8.232-2.693-10.477-1.794-2.244-4.637-3.367-8.526-3.367-3.939 0-7.055 1.335-9.348 4.004-2.295 2.669-3.44 6.498-3.44 11.486V60.13h-9.573V17.776h9.573l-2.094 13.844h1.421c.598-3.99 1.595-7.072 2.991-9.242 1.396-2.17 3.153-3.666 5.273-4.49 2.118-.823 4.748-1.235 7.891-1.235 5.932 0 10.381 1.847 13.348 5.538ZM400.023 49.317c2.168 1.772 4.898 2.657 8.189 2.657 5.284 0 9.471-2.045 12.565-6.136l6.355 4.34c-1.944 3.692-4.587 6.462-7.927 8.306-3.34 1.845-7.005 2.77-10.993 2.77-3.94 0-7.579-.986-10.919-2.956-3.342-1.971-5.997-4.64-7.966-8.008-1.97-3.367-2.953-7.046-2.953-11.037 0-3.99.983-7.658 2.953-11a22.187 22.187 0 0 1 7.966-7.97c3.34-1.97 6.979-2.956 10.919-2.956 4.187 0 7.877 1.048 11.068 3.143 3.19 2.095 5.634 5.027 7.329 8.793 1.695 3.767 2.468 8.07 2.319 12.908h-32.982c.548 2.993 1.907 5.377 4.077 7.146Zm.298-20.204c-2.168 1.771-3.602 4.03-4.3 6.773h23.933c-.598-2.944-1.983-5.25-4.151-6.923-2.168-1.67-4.7-2.507-7.591-2.507-3.092 0-5.721.887-7.891 2.657ZM455.627 17.776h9.348v42.355h-9.348V17.776ZM481.953 58.259c-3.242-1.995-5.795-4.715-7.665-8.157s-2.805-7.208-2.805-11.3c0-4.04.935-7.755 2.805-11.149 1.87-3.392 4.423-6.086 7.665-8.082 3.241-1.994 6.831-2.993 10.77-2.993 3.938 0 7.527.999 10.77 2.993 3.239 1.996 5.782 4.69 7.627 8.082 1.845 3.394 2.768 7.11 2.768 11.15 0 4.091-.923 7.857-2.768 11.3-1.845 3.441-4.388 6.161-7.627 8.156-3.243 1.995-6.832 2.994-10.77 2.994-3.939 0-7.529-1-10.77-2.994Zm19.37-9.99c2.144-2.47 3.217-5.6 3.217-9.391 0-3.79-1.073-6.91-3.217-9.354-2.144-2.444-5.011-3.667-8.6-3.667-3.541 0-6.407 1.235-8.601 3.704-2.195 2.47-3.29 5.575-3.29 9.317 0 3.792 1.095 6.922 3.29 9.391 2.194 2.47 5.06 3.704 8.601 3.704 3.589 0 6.456-1.234 8.6-3.704Z"/>
    <path fill="#FC6E56" d="M437.886 58.596c-1.047-1.021-1.571-2.282-1.571-3.778 0-1.497.524-2.769 1.571-3.817s2.343-1.571 3.889-1.571c1.445 0 2.679.523 3.702 1.57 1.021 1.049 1.532 2.321 1.532 3.818 0 1.496-.511 2.757-1.532 3.778-1.023 1.023-2.257 1.534-3.702 1.534-1.546 0-2.842-.51-3.889-1.534Z"/>
    <path fill="#F3F3F3" d="M456.525 11.39c-1.046-1.022-1.57-2.283-1.57-3.78 0-1.496.524-2.768 1.57-3.816 1.047-1.048 2.344-1.571 3.889-1.571 1.446 0 2.68.523 3.702 1.57 1.021 1.049 1.533 2.321 1.533 3.818 0 1.496-.512 2.757-1.533 3.778-1.022 1.023-2.256 1.534-3.702 1.534-1.545 0-2.842-.51-3.889-1.534Z"/>
    <path fill="#F3F3F3" stroke="#061857" stroke-miterlimit="10" d="M51.207 68.415C36.482 49.973 36.48 23.636 51.2 5.192c1.92-2.405 5.523-2.576 7.715-.418l28.809 28.374a5.226 5.226 0 0 1-.009 7.454l-28.8 28.238c-2.194 2.15-5.79 1.975-7.707-.425Z"/>
    <path fill="#0552CE" stroke="#061857" stroke-miterlimit="10" d="M33.307 68.416C18.58 49.974 18.579 23.637 33.299 5.193c1.919-2.405 5.523-2.576 7.715-.418L69.822 33.15a5.226 5.226 0 0 1-.008 7.454l-28.8 28.238c-2.194 2.15-5.79 1.975-7.707-.425Z"/>
    <path fill="#FC6E56" stroke="#061857" stroke-miterlimit="10" d="M11.997 68.446C-2.728 50.004-2.73 23.668 11.99 5.223c1.92-2.405 5.523-2.576 7.715-.417l28.809 28.373a5.226 5.226 0 0 1-.009 7.454l-28.8 28.238c-2.194 2.15-5.79 1.975-7.707-.425Z"/>
  </g>
  <defs>
    <clipPath id="clip0_69_1633">
      <path fill="#fff" d="M.193.266h513.695V92.75H.193z"/>
    </clipPath>
  </defs>
</svg>
