<svg width="179" height="24" viewBox="0 0 179 24" fill="none" xmlns="http://www.w3.org/2000/svg">
<path d="M43.4047 7.78978C43.8905 7.10683 44.5198 6.63684 45.2923 6.38035C46.0647 6.12411 47.067 5.99612 48.2998 5.99612V9.55788C47.779 9.45544 47.2932 9.40409 46.8419 9.40409C45.4703 9.40409 44.4155 9.82689 43.678 10.6725C42.94 11.5181 42.5713 12.6929 42.5713 14.1959V20.4996H39.2644V5.97058H42.5713L41.8423 10.7366H42.3631C42.5713 9.45544 42.9183 8.47324 43.4047 7.78978Z" fill="#061857"/>
<path d="M54.0681 16.7969C54.823 17.4034 55.7734 17.7066 56.9193 17.7066C58.7593 17.7066 60.2172 17.0062 61.2943 15.6054L63.5072 17.0917C62.8301 18.3559 61.9099 19.3042 60.747 19.9358C59.5841 20.5677 58.3079 20.8841 56.9193 20.8841C55.5477 20.8841 54.2805 20.5466 53.1176 19.872C51.9542 19.1971 51.0298 18.2832 50.3442 17.13C49.6582 15.9768 49.3159 14.7173 49.3159 13.3503C49.3159 11.9839 49.6582 10.7283 50.3442 9.58342C51.0298 8.43936 51.9542 7.52963 53.1176 6.8545C54.2805 6.17989 55.5477 5.84233 56.9193 5.84233C58.3773 5.84233 59.662 6.20101 60.773 6.91862C61.8839 7.63598 62.7347 8.63981 63.3249 9.92959C63.9151 11.2196 64.1842 12.6929 64.1323 14.3497H52.6488C52.8395 15.3747 53.3126 16.1908 54.0681 16.7969ZM54.1719 9.87824C53.417 10.4848 52.9179 11.258 52.6747 12.1974H61.0077C60.7994 11.1894 60.3174 10.3996 59.5624 9.82689C58.8075 9.25472 57.9259 8.96851 56.9193 8.96851C55.8428 8.96851 54.9274 9.27193 54.1719 9.87824Z" fill="#061857"/>
<path d="M81.7093 0V20.4996H78.3765L78.6366 15.7333H78.1943C77.621 19.1671 75.7202 20.8841 72.4912 20.8841C71.2933 20.8841 70.1999 20.5549 69.2103 19.8975C68.2211 19.2401 67.4397 18.3559 66.867 17.2452C66.2938 16.135 66.0077 14.9391 66.0077 13.6579C66.0077 12.1888 66.2938 10.8607 66.867 9.67336C67.4397 8.48602 68.2164 7.55075 69.1975 6.86727C70.1782 6.18433 71.2759 5.84233 72.4912 5.84233C73.9147 5.84233 75.1168 6.26513 76.0979 7.11074C77.0785 7.95634 77.7424 9.15671 78.0899 10.7111H78.6366L78.3765 5.99612V0H81.7093ZM75.8113 17.0276C76.4794 16.6264 77.0091 16.1011 77.4001 15.4516C77.7906 14.8025 77.9861 14.1279 77.9861 13.4272C77.9861 12.6585 77.7948 11.9539 77.4128 11.3132C77.0309 10.6725 76.5101 10.1689 75.8505 9.80134C75.1904 9.43432 74.4529 9.25055 73.6371 9.25055C72.3699 9.25055 71.3283 9.64755 70.5125 10.4421C69.6961 11.2363 69.2887 12.2573 69.2887 13.5041C69.2887 14.29 69.4746 14.9949 69.8486 15.6181C70.2216 16.2419 70.7376 16.7327 71.3977 17.0917C72.0573 17.4504 72.8037 17.6297 73.6371 17.6297C74.4185 17.6297 75.1433 17.429 75.8113 17.0276Z" fill="#061857"/>
<path d="M88.5181 16.7969C89.273 17.4034 90.2234 17.7066 91.3694 17.7066C93.2093 17.7066 94.6672 17.0062 95.7443 15.6054L97.9572 17.0917C97.2801 18.3559 96.3599 19.3042 95.197 19.9358C94.0341 20.5677 92.7579 20.8841 91.3694 20.8841C89.9978 20.8841 88.7305 20.5466 87.5677 19.872C86.4043 19.1971 85.4798 18.2832 84.7943 17.13C84.1082 15.9768 83.766 14.7173 83.766 13.3503C83.766 11.9839 84.1082 10.7283 84.7943 9.58342C85.4798 8.43936 86.4043 7.52963 87.5677 6.8545C88.7305 6.17989 89.9978 5.84233 91.3694 5.84233C92.8273 5.84233 94.112 6.20101 95.223 6.91862C96.3339 7.63598 97.1848 8.63981 97.7749 9.92959C98.3651 11.2196 98.6342 12.6929 98.5823 14.3497H87.0988C87.2895 15.3747 87.7626 16.1908 88.5181 16.7969ZM88.6219 9.87824C87.867 10.4848 87.3679 11.258 87.1248 12.1974H95.4577C95.2495 11.1894 94.7674 10.3996 94.0124 9.82689C93.2575 9.25472 92.3759 8.96851 91.3694 8.96851C90.2928 8.96851 89.3774 9.27193 88.6219 9.87824Z" fill="#061857"/>
<path d="M107.397 2.98516C106.798 3.11341 106.39 3.39128 106.173 3.81799C105.956 4.24522 105.83 4.97118 105.796 5.99612H114.577V9.2761H105.769V20.4996H102.514V9.2761H99.6244V5.99612H102.514C102.549 4.40736 102.749 3.20751 103.114 2.39579C103.478 1.5846 104.215 0.982454 105.327 0.589367C106.438 0.196543 108.148 0 110.457 0V2.81859C109.016 2.80191 107.996 2.85717 107.397 2.98516Z" fill="#061857"/>
<path d="M111.635 3.81284C111.27 3.46303 111.088 3.03136 111.088 2.51889C111.088 2.00642 111.27 1.57084 111.635 1.2119C111.999 0.853227 112.451 0.673889 112.989 0.673889C113.492 0.673889 113.922 0.853227 114.278 1.2119C114.633 1.57084 114.811 2.00642 114.811 2.51889C114.811 3.03136 114.633 3.46303 114.278 3.81284C113.922 4.16318 113.492 4.33809 112.989 4.33809C112.451 4.33809 111.999 4.16318 111.635 3.81284ZM111.322 5.99612L114.577 5.99612L114.577 20.4996H111.322V5.99612Z" fill="#061857"/>
<path d="M130.996 7.50799C132.028 8.77249 132.545 10.8135 132.545 13.6324V20.4996H129.316V13.6324C129.316 12.0095 129.004 10.8135 128.378 10.0448C127.754 9.2761 126.764 8.89162 125.41 8.89162C124.038 8.89162 122.953 9.34883 122.155 10.2627C121.356 11.1766 120.957 12.488 120.957 14.1959V20.4996H117.624V5.99612H120.957L120.228 10.7366H120.723C120.931 9.3702 121.278 8.31502 121.765 7.57212C122.25 6.82896 122.862 6.31648 123.6 6.03444C124.338 5.75266 125.254 5.61164 126.348 5.61164C128.413 5.61164 129.962 6.24402 130.996 7.50799Z" fill="#061857"/>
<path d="M139.354 16.7969C140.109 17.4034 141.06 17.7066 142.206 17.7066C144.046 17.7066 145.504 17.0062 146.581 15.6054L148.794 17.0917C148.116 18.3559 147.196 19.3042 146.033 19.9358C144.871 20.5677 143.594 20.8841 142.206 20.8841C140.834 20.8841 139.567 20.5466 138.404 19.872C137.241 19.1971 136.316 18.2832 135.631 17.13C134.945 15.9768 134.602 14.7173 134.602 13.3503C134.602 11.9839 134.945 10.7283 135.631 9.58342C136.316 8.43936 137.241 7.52963 138.404 6.8545C139.567 6.17989 140.834 5.84233 142.206 5.84233C143.664 5.84233 144.948 6.20101 146.059 6.91862C147.17 7.63598 148.021 8.63981 148.611 9.92959C149.201 11.2196 149.471 12.6929 149.419 14.3497H137.935C138.126 15.3747 138.599 16.1908 139.354 16.7969ZM139.458 9.87824C138.703 10.4848 138.204 11.258 137.961 12.1974H146.294C146.086 11.1894 145.604 10.3996 144.849 9.82689C144.094 9.25472 143.212 8.96851 142.206 8.96851C141.129 8.96851 140.214 9.27193 139.458 9.87824Z" fill="#061857"/>
<path d="M158.715 5.99612H161.97V20.4996H158.715V5.99612Z" fill="#061857"/>
<path d="M167.881 19.8589C166.752 19.176 165.863 18.2446 165.212 17.0659C164.561 15.8871 164.236 14.5976 164.236 13.1965C164.236 11.8129 164.561 10.5406 165.212 9.37854C165.863 8.21701 166.752 7.29451 167.881 6.61104C169.009 5.92809 170.259 5.5861 171.631 5.5861C173.002 5.5861 174.252 5.92809 175.381 6.61104C176.508 7.29451 177.394 8.21701 178.036 9.37854C178.678 10.5406 179 11.8129 179 13.1965C179 14.5976 178.678 15.8871 178.036 17.0659C177.394 18.2446 176.508 19.176 175.381 19.8589C174.252 20.5421 173.002 20.8841 171.631 20.8841C170.259 20.8841 169.009 20.5421 167.881 19.8589ZM174.625 16.4382C175.372 15.5926 175.745 14.5207 175.745 13.2223C175.745 11.9242 175.372 10.8563 174.625 10.0193C173.879 9.18226 172.881 8.76363 171.631 8.76363C170.398 8.76363 169.4 9.18643 168.636 10.032C167.872 10.8776 167.491 11.9409 167.491 13.2223C167.491 14.5207 167.872 15.5926 168.636 16.4382C169.4 17.2838 170.398 17.7066 171.631 17.7066C172.881 17.7066 173.879 17.2838 174.625 16.4382Z" fill="#061857"/>
<path d="M152.538 19.9744C152.173 19.6246 151.991 19.1929 151.991 18.6804C151.991 18.168 152.173 17.7324 152.538 17.3735C152.902 17.0148 153.353 16.8354 153.892 16.8354C154.395 16.8354 154.825 17.0148 155.181 17.3735C155.536 17.7324 155.714 18.168 155.714 18.6804C155.714 19.1929 155.536 19.6246 155.181 19.9744C154.825 20.3247 154.395 20.4996 153.892 20.4996C153.353 20.4996 152.902 20.3247 152.538 19.9744Z" fill="#FC6E56"/>
<path d="M159.027 3.81284C158.663 3.46303 158.481 3.03136 158.481 2.51889C158.481 2.00642 158.663 1.57084 159.027 1.2119C159.392 0.853227 159.843 0.673889 160.381 0.673889C160.885 0.673889 161.314 0.853227 161.67 1.2119C162.026 1.57084 162.204 2.00642 162.204 2.51889C162.204 3.03136 162.026 3.46303 161.67 3.81284C161.314 4.16318 160.885 4.33809 160.381 4.33809C159.843 4.33809 159.392 4.16318 159.027 3.81284Z" fill="#061857"/>
<path d="M31.0505 11.2638L21.02 1.54762C20.2569 0.808443 19.0021 0.867117 18.3339 1.6905C17.8714 2.26046 17.4521 2.85309 17.0732 3.46309L24.9698 11.1121C25.3619 11.492 25.5775 11.9993 25.5769 12.5408C25.5763 13.0823 25.3595 13.5892 24.9666 13.9682L17.0792 21.5739C17.4574 22.1817 17.8755 22.7722 18.3366 23.3402C19.0039 24.1622 20.2562 24.2223 21.0198 23.4859L31.0476 13.8161C31.8863 12.9571 31.8596 12.0723 31.0505 11.2638Z" fill="#061857"/>
<path d="M3.84599 23.3402C-1.2811 17.025 -1.282 8.00663 3.8433 1.69051C4.51146 0.867115 5.76629 0.808439 6.52939 1.54762L16.5599 11.2638C17.2845 11.9657 17.2832 13.1159 16.557 13.8161L6.52919 23.4859C5.76556 24.2223 4.51333 24.1622 3.84599 23.3402Z" fill="#FC6E56"/>
<path d="M24.3986 11.2638L14.3681 1.54763C13.605 0.808435 12.3502 0.867109 11.6821 1.69051C11.0348 2.48808 10.47 3.32897 9.98624 4.20183L17.1309 11.1227C17.5232 11.5026 17.7386 12.0099 17.7382 12.5513C17.7376 13.0929 17.5208 13.5998 17.1279 13.9788L10.0003 20.8519C10.4814 21.7166 11.0429 22.5496 11.6847 23.3402C12.352 24.1622 13.6043 24.2223 14.3679 23.4859L24.3957 13.8161C25.1702 13.0149 25.2072 12.0673 24.3986 11.2638Z" fill="#0552CE"/>
</svg>
