<svg xmlns="http://www.w3.org/2000/svg" fill="none" viewBox="0 0 333 281">
  <path fill="#0552CE" d="M109.043 233.545c0 25.797 24.245 46.709 54.152 46.709 29.908 0 54.151-20.912 54.151-46.709l.001-28.025c0 25.797 24.245 46.709 54.151 46.709h.001c29.907 0 54.151-20.912 54.151-46.709V74.734c0-25.796-24.244-46.709-54.151-46.709h-.001c-29.906 0-54.151 20.913-54.151 46.71l-.001-28.026C217.346 20.912 193.103 0 163.195 0c-29.907 0-54.152 20.912-54.152 46.709v28.025c0-25.796-24.244-46.709-54.151-46.709C24.983 28.025.74 48.938.74 74.735V205.52c0 25.797 24.244 46.709 54.151 46.709 29.908 0 54.152-20.912 54.152-46.709v28.025Z"/>
  <path fill="#061857" d="M314.341 182.922h-46.055a.241.241 0 1 1 0-.483h45.813v-24.704a.242.242 0 0 1 .484 0v24.946a.241.241 0 0 1-.242.241Z"/>
  <path fill="#fff" d="M314.351 136.232a3.278 3.278 0 0 0 3.27-3.285 3.277 3.277 0 0 0-3.289-3.265 3.277 3.277 0 0 0-3.271 3.284 3.278 3.278 0 0 0 3.29 3.266Z"/>
  <path fill="#061857" d="M314.341 136.475a3.524 3.524 0 0 1-3.522-3.518c0-1.94 1.58-3.518 3.522-3.518a3.524 3.524 0 0 1 3.522 3.518c0 1.94-1.58 3.518-3.522 3.518Zm0-6.553a3.04 3.04 0 0 0-3.038 3.035 3.04 3.04 0 0 0 3.038 3.035 3.04 3.04 0 0 0 3.038-3.035 3.04 3.04 0 0 0-3.038-3.035Z"/>
  <path fill="#fff" d="M314.351 145.794a3.278 3.278 0 0 0 3.27-3.285 3.276 3.276 0 0 0-3.289-3.265 3.277 3.277 0 0 0-3.271 3.284 3.278 3.278 0 0 0 3.29 3.266Z"/>
  <path fill="#061857" d="M314.341 146.036a3.524 3.524 0 0 1-3.522-3.517c0-1.94 1.58-3.518 3.522-3.518a3.524 3.524 0 0 1 3.522 3.518 3.524 3.524 0 0 1-3.522 3.517Zm0-6.553a3.04 3.04 0 0 0-3.038 3.036 3.04 3.04 0 0 0 3.038 3.035 3.04 3.04 0 0 0 3.038-3.035 3.04 3.04 0 0 0-3.038-3.036Z"/>
  <path fill="#fff" d="M314.351 155.355a3.277 3.277 0 0 0 3.27-3.284 3.278 3.278 0 0 0-3.289-3.266 3.278 3.278 0 0 0-3.271 3.285 3.276 3.276 0 0 0 3.29 3.265Z"/>
  <path fill="#061857" d="M314.341 155.598a3.524 3.524 0 0 1-3.522-3.518 3.524 3.524 0 0 1 3.522-3.517 3.524 3.524 0 0 1 3.522 3.517c0 1.94-1.58 3.518-3.522 3.518Zm0-6.553a3.04 3.04 0 0 0-3.038 3.035 3.04 3.04 0 0 0 3.038 3.036 3.04 3.04 0 0 0 3.038-3.036 3.04 3.04 0 0 0-3.038-3.035ZM314.341 128.29a.242.242 0 0 1-.242-.241v-27.892a.242.242 0 0 1 .484 0v27.892a.241.241 0 0 1-.242.241Z"/>
  <path fill="#fff" d="M68.363 77.762h184.245c4.632 0 8.393 3.755 8.393 8.38v99.532c0 4.625-3.761 8.381-8.393 8.381H68.363c-4.633 0-8.394-3.756-8.394-8.381V86.143c0-4.626 3.761-8.381 8.394-8.381Z"/>
  <path fill="#061857" d="M252.608 194.296H68.363c-4.762 0-8.636-3.868-8.636-8.622V86.143c0-4.755 3.874-8.623 8.636-8.623h184.245c4.761 0 8.635 3.868 8.635 8.623v99.531c0 4.754-3.874 8.622-8.635 8.622ZM68.363 78.003c-4.495 0-8.152 3.651-8.152 8.14v99.531c0 4.488 3.657 8.139 8.152 8.139h184.245c4.495 0 8.152-3.651 8.152-8.139V86.143c0-4.489-3.657-8.14-8.152-8.14H68.363Z"/>
  <path fill="#fff" d="M250.614 84.481H70.357a3.866 3.866 0 0 0-3.869 3.863v95.128a3.866 3.866 0 0 0 3.869 3.863h180.257a3.866 3.866 0 0 0 3.868-3.863V88.344a3.866 3.866 0 0 0-3.868-3.862Z"/>
  <path fill="#061857" d="M250.614 187.576H70.357a4.112 4.112 0 0 1-4.11-4.104V88.344a4.112 4.112 0 0 1 4.11-4.104h180.257a4.112 4.112 0 0 1 4.11 4.104v95.128a4.112 4.112 0 0 1-4.11 4.104ZM70.357 84.723c-2 0-3.627 1.624-3.627 3.621v95.128a3.629 3.629 0 0 0 3.627 3.622h180.257c2 0 3.627-1.625 3.627-3.622V88.344a3.628 3.628 0 0 0-3.627-3.621H70.357Z"/>
  <path fill="#fff" d="M273.683 216.374H47.288c-5.57 0-10.629-1.59-12.958-4.072l-3.255-3.468h258.821l-3.255 3.468c-2.329 2.482-7.389 4.072-12.958 4.072Z"/>
  <path fill="#061857" d="M273.683 216.615H47.288c-5.614 0-10.77-1.628-13.134-4.148l-3.256-3.468a.24.24 0 0 1 .177-.406h258.821a.242.242 0 0 1 .176.406l-3.255 3.468c-2.365 2.52-7.52 4.148-13.134 4.148Zm-242.05-7.54 2.873 3.062c2.278 2.427 7.295 3.995 12.782 3.995h226.395c5.486 0 10.503-1.568 12.781-3.995l2.874-3.062H31.632Z"/>
  <path fill="#fff" d="M289.887 208.872H31.084l37.74-15.015h183.322l37.741 15.015Z"/>
  <path fill="#061857" d="M289.887 209.114H31.084a.241.241 0 0 1-.09-.466l37.741-15.015a.228.228 0 0 1 .09-.017h183.321c.031 0 .061.005.09.017l37.74 15.015a.241.241 0 0 1-.089.466Zm-257.543-.483h256.283L252.1 194.098H68.87l-36.526 14.533Z"/>
  <path fill="#C4E3F7" d="M214.268 206.739H106.703l15.686-6.241h76.193l15.686 6.241Z"/>
  <path fill="#fff" d="M215.976 147.18c11.745-7.159 15.461-22.458 8.3-34.171-7.161-11.714-22.488-15.406-34.233-8.247-11.745 7.158-15.461 22.457-8.3 34.171 7.161 11.713 22.487 15.406 34.233 8.247Z"/>
  <path fill="#061857" d="M203.029 151.078a25.4 25.4 0 0 1-5.947-.71c-6.528-1.573-12.049-5.59-15.546-11.31-7.219-11.809-3.459-27.287 8.382-34.503 11.84-7.216 27.346-3.48 34.564 8.329 3.497 5.72 4.551 12.46 2.968 18.976-1.583 6.517-5.614 12.031-11.349 15.527-4.003 2.439-8.501 3.691-13.072 3.691Zm-.034-49.716a24.576 24.576 0 0 0-12.825 3.605c-11.613 7.078-15.301 22.258-8.221 33.839 3.429 5.61 8.844 9.55 15.247 11.093a24.565 24.565 0 0 0 18.653-2.924c5.625-3.429 9.579-8.837 11.131-15.228 1.553-6.392.519-13.001-2.91-18.612-4.637-7.584-12.759-11.773-21.075-11.773Z"/>
  <path fill="#CFF558" d="M203.082 154.663c12.963.069 24.758-8.719 27.977-21.843l-27.971-6.757s.046 23.844-.006 28.6Z"/>
  <path fill="#fff" d="M176.072 131.1c-1.396-7.087.183-14.342 4.131-20.148 5.425 3.715 22.112 15.179 22.112 15.179s-21.888 4.096-26.243 4.969Z"/>
  <path fill="#061857" d="M176.072 131.341a.248.248 0 0 1-.135-.04.243.243 0 0 1-.102-.155c-1.379-6.996.141-14.406 4.168-20.329a.243.243 0 0 1 .337-.064c5.363 3.673 21.945 15.065 22.112 15.179a.242.242 0 0 1-.093.437c-.218.04-21.936 4.105-26.24 4.968a.256.256 0 0 1-.047.004Zm4.195-20.052c-3.809 5.716-5.262 12.805-4.004 19.527 4.365-.866 22.021-4.175 25.436-4.815-2.736-1.88-16.41-11.272-21.432-14.712ZM224.102 174.267a2.857 2.857 0 0 0 2.859-2.855 2.857 2.857 0 0 0-2.859-2.854 2.857 2.857 0 0 0-2.859 2.854 2.857 2.857 0 0 0 2.859 2.855ZM215.757 174.267a2.857 2.857 0 0 0 2.859-2.855 2.857 2.857 0 0 0-2.859-2.854 2.857 2.857 0 0 0-2.859 2.854 2.857 2.857 0 0 0 2.859 2.855ZM207.413 174.267a2.857 2.857 0 0 0 2.859-2.855 2.857 2.857 0 0 0-2.859-2.854 2.857 2.857 0 0 0-2.859 2.854 2.857 2.857 0 0 0 2.859 2.855ZM200.317 171.645h-24.745a.24.24 0 0 1-.208-.364l15.925-26.878a.243.243 0 0 1 .332-.085.24.24 0 0 1 .085.33l-15.71 26.515h24.321a.241.241 0 0 1 0 .482Z"/>
  <path fill="#C4E3F7" d="M94.164 102.466h-7.87v38.104h7.87v-38.104ZM107.359 102.466h-7.87v38.104h7.87v-38.104ZM120.555 102.466h-7.871v38.104h7.871v-38.104ZM133.75 102.466h-7.871v38.104h7.871v-38.104ZM146.945 102.466h-7.871v38.104h7.871v-38.104ZM160.141 102.466h-7.871v38.104h7.871v-38.104Z"/>
  <path fill="#061857" d="M94.164 119.556h-7.87v15.961h7.87v-15.961ZM107.359 114.71h-7.87v20.807h7.87V114.71ZM120.555 107.52h-7.871v27.997h7.871V107.52ZM133.75 119.556h-7.871v15.961h7.871v-15.961ZM146.945 113.647h-7.871v21.87h7.871v-21.87ZM160.141 118.382h-7.871v17.135h7.871v-17.135Z"/>
  <path fill="#fff" d="M332.019 95.617v-55.34H234.49v55.34h97.529Z"/>
  <path fill="#061857" d="M332.019 95.858H234.49a.241.241 0 0 1-.241-.241v-55.34c0-.133.108-.24.241-.24h97.529c.133 0 .241.107.241.24v55.34a.241.241 0 0 1-.241.241Zm-97.287-.482h97.045V40.519h-97.045v54.857Z"/>
  <path fill="#CFF558" d="M262.626 90.047c12.094 0 21.898-9.79 21.898-21.865s-9.804-21.864-21.898-21.864c-12.093 0-21.897 9.789-21.897 21.864 0 12.076 9.804 21.865 21.897 21.865Z"/>
  <path fill="#061857" d="M266.424 45.628c7.818 1.318 14.636 6.803 17.225 14.82L262.682 67.2l3.742-21.572Z"/>
  <path fill="#fff" d="M267.848 77.163c5.041-2.88 6.79-9.294 3.906-14.327-2.884-5.034-9.308-6.78-14.349-3.901-5.041 2.88-6.79 9.294-3.907 14.328 2.884 5.033 9.308 6.78 14.35 3.9Z"/>
  <path fill="#C4E3F7" d="M295.465 63.417h-5.024v26.357h5.024V63.417ZM303.102 74.85h-5.024v14.924h5.024V74.849ZM310.738 56.414h-5.024v33.36h5.024v-33.36ZM318.374 63.417h-5.024v26.357h5.024V63.417ZM326.01 51.35h-5.024v38.424h5.024V51.35Z"/>
  <path fill="#fff" d="M296.162 66.653h-82.233a3.11 3.11 0 0 0-3.112 3.107v49.197a3.11 3.11 0 0 0 3.112 3.107h82.233a3.11 3.11 0 0 0 3.112-3.107V69.76a3.11 3.11 0 0 0-3.112-3.107Z"/>
  <path fill="#061857" d="M296.162 122.306h-82.233a3.356 3.356 0 0 1-3.354-3.349V69.76a3.355 3.355 0 0 1 3.354-3.349h82.233a3.355 3.355 0 0 1 3.354 3.349v49.197a3.356 3.356 0 0 1-3.354 3.349Zm-82.233-55.412a2.87 2.87 0 0 0-2.87 2.866v49.197a2.871 2.871 0 0 0 2.87 2.866h82.233a2.871 2.871 0 0 0 2.87-2.866V69.76a2.87 2.87 0 0 0-2.87-2.866h-82.233Z"/>
  <path fill="#061857" d="M299.274 76.09h-88.457a.242.242 0 0 1-.242-.242c0-.133.109-.241.242-.241h88.457c.133 0 .242.108.242.241a.242.242 0 0 1-.242.241ZM219.034 73.59a1.996 1.996 0 0 1-1.996-1.993 1.996 1.996 0 0 1 3.991 0 1.996 1.996 0 0 1-1.995 1.993Zm0-3.503c-.834 0-1.513.678-1.513 1.51a1.513 1.513 0 0 0 3.025 0c0-.832-.679-1.51-1.512-1.51ZM224.152 73.59c-1.1 0-1.996-.894-1.996-1.993a1.997 1.997 0 0 1 3.992 0 1.996 1.996 0 0 1-1.996 1.993Zm0-3.503c-.834 0-1.512.678-1.512 1.51a1.512 1.512 0 0 0 3.024 0c0-.832-.678-1.51-1.512-1.51ZM229.271 73.348a1.752 1.752 0 1 0 0-3.502 1.752 1.752 0 1 0 0 3.502Z"/>
  <path fill="#C4E3F7" d="M290.655 79.677h-65.387v34.817h65.387V79.677Z"/>
  <path fill="#061857" d="M289.567 119.17h-70.13a.241.241 0 0 1-.242-.241V85.457a.241.241 0 0 1 .483 0v33.231h69.889a.241.241 0 1 1 0 .482Z"/>
  <path fill="#061857" d="M228.556 117.236h-6.204a.242.242 0 0 1-.242-.241V94.503c0-.133.109-.241.242-.241h6.204c.134 0 .242.108.242.24v22.493a.241.241 0 0 1-.242.241Zm-5.962-.483h5.721V94.744h-5.721v22.009ZM238.323 117.236h-6.205a.241.241 0 0 1-.241-.241V104.91c0-.133.108-.241.241-.241h6.205c.133 0 .241.108.241.241v12.085a.241.241 0 0 1-.241.241Zm-5.963-.483h5.721v-11.602h-5.721v11.602ZM248.089 117.236h-6.205a.241.241 0 0 1-.241-.241v-16.788c0-.133.108-.241.241-.241h6.205c.133 0 .241.108.241.241v16.788a.241.241 0 0 1-.241.241Zm-5.963-.483h5.721v-16.304h-5.721v16.304ZM257.855 117.236h-6.205a.241.241 0 0 1-.241-.241V92.851c0-.133.108-.241.241-.241h6.205c.133 0 .241.108.241.241v24.144a.241.241 0 0 1-.241.241Zm-5.963-.483h5.721v-23.66h-5.721v23.66ZM267.464 117.236h-5.891a.241.241 0 0 1-.242-.241V87.8c0-.133.108-.24.242-.24h5.891c.134 0 .242.107.242.24v29.195a.241.241 0 0 1-.242.241Zm-5.65-.483h5.408V88.042h-5.408v28.711ZM277.386 117.236h-6.204a.242.242 0 0 1-.242-.241V86.251c0-.134.109-.242.242-.242h6.204c.134 0 .242.108.242.242v30.744a.241.241 0 0 1-.242.241Zm-5.962-.483h5.721V86.492h-5.721v30.261ZM287.152 117.236h-6.204a.242.242 0 0 1-.242-.241V90.08c0-.133.109-.241.242-.241h6.204c.134 0 .242.108.242.241v26.915a.241.241 0 0 1-.242.241Zm-5.962-.483h5.721V90.322h-5.721v26.431ZM106.919 206.664h-.001l-7.867-.03a.241.241 0 1 1 0-.482h.002l7.867.03a.24.24 0 1 1-.001.482Z"/>
  <path fill="#FC6E56" d="M161.965 237.694c-8.415-10.325-32.371-39.623-32.371-39.623l3.802-7.647c6.253-10.545-2.468-23.634-14.624-21.951l-28.831 3.993-12.84 1.955-31.133.885c-5.074 20.158 7.106 26.585 13.682 28.555 7.384 2.957 25.534 2.882 33.863 2.673a6.354 6.354 0 0 0 .05 6.186c3.56 6.238 11.102 16.222 14.969 21.226.958 1.239 2.926.812 3.284-.712l4.026-10.869 9.218 9.808c2.478 3.328 6.619 5.819 10.578 6.337l24.712 2.076c1.602.21 2.635-1.64 1.615-2.892Z"/>
  <path fill="#061857" d="M114.832 221.977a.246.246 0 0 1-.172-.071l-14.729-14.898-5.688-.008a.242.242 0 0 1 0-.483l5.79.008a.24.24 0 0 1 .171.072l14.8 14.97a.24.24 0 0 1-.172.41ZM133.754 231.853c-2.319 0-4.704-.144-7.068-.498a.24.24 0 0 1-.203-.274.242.242 0 0 1 .275-.203c12.548 1.879 25.752-2.213 25.884-2.255a.24.24 0 1 1 .146.46c-.108.034-8.932 2.77-19.034 2.77ZM129.108 197.41a.241.241 0 0 1-.188-.09l-8.447-10.543a20.527 20.527 0 0 0-17.59-7.633l-36.686 2.795a.241.241 0 1 1-.037-.481l36.686-2.795a21.007 21.007 0 0 1 18.004 7.812l8.447 10.543a.24.24 0 0 1-.038.339.238.238 0 0 1-.151.053Z"/>
  <path fill="#F3F3F3" d="m48.952 182.027 9.179-40.586s16.955-.344 22.912 1c0 0 3.067 25.051 3.373 30.982l-35.464 8.604Z"/>
  <path fill="#F3F3F3" d="M92.036 172.055s-5.056-28.816-10.993-29.614l.967 29.614h10.026Z"/>
  <path fill="#061857" d="M92.036 172.296H82.01a.241.241 0 0 1-.242-.233l-.447-13.462a.241.241 0 0 1 .483-.016l.44 13.229h9.503c-.543-2.984-5.328-28.382-10.737-29.134a.24.24 0 1 1 .066-.478c6.064.842 10.992 28.629 11.198 29.811a.24.24 0 0 1-.238.283Z"/>
  <path fill="#061857" d="M116.631 173.097h-45.96v-1.383c0-1.216.987-2.201 2.204-2.201h46.987l-.377 1.399a2.955 2.955 0 0 1-2.854 2.185Z"/>
  <path fill="#061857" d="M117.942 171.474H90.213a1.82 1.82 0 0 1-1.769-2.257l5.24-21.11a1.823 1.823 0 0 1 1.77-1.382h27.728a1.82 1.82 0 0 1 1.769 2.258l-5.24 21.109a1.823 1.823 0 0 1-1.769 1.382Z"/>
  <path fill="#fff" d="M108.619 155.781a.915.915 0 1 0-.18-1.822.915.915 0 0 0 .18 1.822Z"/>
  <path fill="#061857" d="m81.043 142.683-.025-.002-8.29-.843a.24.24 0 1 1 .05-.48l8.29.843a.242.242 0 0 1-.025.482Z"/>
  <path fill="#061857" d="M68.579 151.504a.368.368 0 0 1-.047-.003c-.363-.059-1.272-1.327-4.63-6.462-.96-1.47-1.953-2.988-2.147-3.197a.24.24 0 0 1 .128-.446c.203 0 .215 0 2.425 3.379 1.363 2.085 3.577 5.472 4.222 6.154.32-.636 1.167-3.094 1.881-5.356a.241.241 0 0 1 .432-.062c1.233 1.848 2.634 3.869 3.196 4.566.207-1.22.508-5.457.667-8.163a.24.24 0 0 1 .256-.226.24.24 0 0 1 .227.255c-.5 8.493-.78 8.698-.886 8.776a.282.282 0 0 1-.217.043c-.101-.025-.366-.092-3.366-4.565-.571 1.789-1.624 4.971-1.971 5.248a.27.27 0 0 1-.17.059Z"/>
  <path fill="#F3F3F3" d="M80.02 169.513s-5.058-8.655-11.97-6.094c-6.912 2.561-16.764 8.712-16.764 8.712s9.096-24.671 6.845-30.69c0 0-11.915 3.572-17.426 21.357-5.511 17.785 2.71 23.827 8.541 23.932 5.832.104 20.454-15.262 22.76-15.256l8.015-1.961Z"/>
  <path fill="#061857" d="M44.96 185.844a.241.241 0 0 1-.113-.028c-2.979-1.574-9.366-6.976-4.373-23.089 2.864-9.243 7.483-14.597 10.854-17.461 3.664-3.113 6.61-4.019 6.733-4.056a.234.234 0 0 1 .072-.01l6.63.059c.134.001.242.11.24.243 0 .134-.12.237-.243.24l-6.593-.059c-.336.11-3.162 1.087-6.548 3.97-3.314 2.822-7.858 8.099-10.683 17.216-4.886 15.769 1.265 21.002 4.137 22.52a.242.242 0 0 1-.114.455Z"/>
  <path fill="#061857" d="M62.59 178.852a.241.241 0 0 1-.154-.427c.86-.711 1.702-1.416 2.506-2.09 3.845-3.223 6.084-5.062 7.032-5.101l7.664-1.876c-.937-1.44-5.56-7.915-11.504-5.713-6.809 2.523-16.621 8.629-16.72 8.691a.244.244 0 0 1-.28-.018.24.24 0 0 1-.075-.27c.02-.052 1.924-5.231 3.75-11.333a.242.242 0 1 1 .464.138 221.56 221.56 0 0 1-3.524 10.711c2.234-1.361 10.33-6.19 16.217-8.371 7.02-2.602 12.212 6.11 12.264 6.198a.241.241 0 0 1-.151.356l-8.016 1.962a.277.277 0 0 1-.058.007h-.001c-.798 0-3.69 2.423-6.75 4.988-.806.676-1.648 1.381-2.51 2.093a.242.242 0 0 1-.154.055Z"/>
  <path fill="#061857" d="M73.808 170.473a.242.242 0 0 1-.229-.162 4.986 4.986 0 0 0-2.662-2.879.241.241 0 1 1 .194-.442 5.48 5.48 0 0 1 2.925 3.162.24.24 0 0 1-.228.321ZM76.327 169.968a.241.241 0 0 1-.232-.172 5.861 5.861 0 0 0-3.078-3.571.24.24 0 1 1 .205-.436 6.347 6.347 0 0 1 3.336 3.869.241.241 0 0 1-.231.31Z"/>
  <path fill="#061857" d="M70.67 173.097v-1.383c0-1.216.988-2.201 2.205-2.201h9.135l-11.34 3.584ZM47.678 174.816a.242.242 0 0 1-.136-.441l3.608-2.444a.242.242 0 0 1 .271.4l-3.607 2.444a.241.241 0 0 1-.136.041ZM68.05 174.134a.242.242 0 0 1-.224-.151l-3.56-8.822a.242.242 0 0 1 .449-.18l3.559 8.821a.242.242 0 0 1-.224.332ZM68.771 135.792s-1.81.814-2.414-.635c-1.081-2.596-3.685-3.297-4.701-6.215-1.017-2.917.127-9.766 3.176-8.879 0 0 2.16-3.805 5.083-4.693 2.922-.887 3.939 1.522 3.939 1.522s3.685-2.156 6.607-1.141c2.923 1.015 1.26 5.695 1.26 5.695s2.802.221 2.806 3.691c.006 3.733-4.603 5.747-7.526 6.762-2.922 1.014-8.23 3.893-8.23 3.893Z"/>
  <path fill="#F3F3F3" d="M68.746 131.416 64.763 141.5l5.88 4.145 2.11-4.047 2.42-6.915-6.425-3.267Z"/>
  <path fill="#061857" d="M70.641 145.887a.243.243 0 0 1-.139-.045l-5.88-4.145a.24.24 0 0 1-.085-.285l3.985-10.085a.242.242 0 0 1 .334-.126l6.426 3.267a.242.242 0 0 1 .119.295l-2.42 6.914a.217.217 0 0 1-.014.032l-2.111 4.048a.246.246 0 0 1-.215.13Zm-5.585-4.474 5.499 3.876 1.975-3.787 2.345-6.699-6.001-3.052-3.818 9.662Z"/>
  <path fill="#F3F3F3" d="M80.154 130.603c-.146 1.532-.575 3.068-1.465 4.325-.89 1.257-2.282 2.208-3.818 2.344-1.332.118-2.675-.382-3.72-1.213-1.047-.832-1.814-1.973-2.358-3.192-1.395.09-2.79-.872-3.199-2.207-.236-.77-.138-1.677.404-2.274.54-.597 1.564-.756 2.171-.226.346.302.521.767.88 1.055.4.32.973.36 1.46.202.488-.159.9-.491 1.257-.857a6.74 6.74 0 0 0 1.889-4.336c-.008.152.69.582.813.666.307.211.634.396.973.551a6.782 6.782 0 0 0 3.242.604c.296-.019.717-.174 1.005-.096.6.163.469 1.305.494 1.767.051.962.064 1.927-.028 2.887Z"/>
  <path fill="#061857" d="M74.487 137.53c-1.197 0-2.448-.456-3.487-1.283-.954-.758-1.748-1.811-2.36-3.133-1.459.015-2.848-.984-3.277-2.383-.283-.924-.109-1.885.455-2.507.657-.725 1.83-.839 2.51-.246.19.165.327.364.46.556.13.188.253.365.412.492.308.247.78.309 1.235.161.381-.124.75-.377 1.158-.796a6.51 6.51 0 0 0 1.82-4.179.245.245 0 0 1 .253-.23c.11.006.199.083.224.184.046.058.196.186.628.468l.087.057a6.503 6.503 0 0 0 4.062 1.113c.088-.006.198-.027.315-.05.247-.049.527-.104.769-.038.675.183.671 1.1.669 1.707 0 .107-.001.204.003.28.062 1.151.053 2.08-.028 2.923-.17 1.772-.677 3.267-1.509 4.441-.989 1.397-2.482 2.311-3.994 2.445-.134.012-.27.018-.405.018Zm-5.694-4.905c.095 0 .182.056.22.143.59 1.321 1.36 2.364 2.288 3.102 1.062.844 2.355 1.267 3.549 1.161 1.372-.121 2.733-.96 3.641-2.242.783-1.105 1.261-2.521 1.423-4.209.078-.819.087-1.724.026-2.851a5.797 5.797 0 0 1-.004-.308c.002-.432.005-1.153-.312-1.239-.132-.036-.353.007-.548.046-.127.024-.258.05-.378.058a7.038 7.038 0 0 1-3.358-.625 6.841 6.841 0 0 1-1.01-.572l-.077-.052a8.835 8.835 0 0 1-.403-.275 7.013 7.013 0 0 1-1.91 3.966c-.466.477-.897.769-1.356.918-.607.198-1.253.104-1.687-.243-.213-.171-.362-.386-.506-.594-.122-.176-.237-.342-.38-.467-.482-.42-1.356-.322-1.834.206-.444.489-.582 1.291-.352 2.042.376 1.224 1.673 2.118 2.952 2.036l.016-.001Z"/>
  <path fill="#061857" d="M68.746 131.657a.242.242 0 0 1-.238-.202 1.661 1.661 0 0 0-1.239-1.32.242.242 0 0 1 .109-.47 2.155 2.155 0 0 1 1.607 1.712.242.242 0 0 1-.239.28Z"/>
</svg>
