<svg xmlns="http://www.w3.org/2000/svg" fill="none" viewBox="0 0 200 189">
  <g clip-path="url(#clip0_123_8775)">
    <path fill="#061857" d="M103.02 98.488c0 24.995 21.71 45.256 48.49 45.256S200 123.483 200 98.488h-96.98ZM54.53 53.231c-26.78 0-48.49 20.262-48.49 45.256h96.98c0-24.994-21.71-45.256-48.49-45.256Z"/>
    <path fill="#061857" d="M151.51 53.232c0-24.995-21.71-45.256-48.49-45.256v90.512c26.78 0 48.49-20.262 48.49-45.256ZM54.53 143.744c0 24.995 21.71 45.256 48.49 45.256V98.488c-26.78 0-48.49 20.262-48.49 45.256Z"/>
    <path fill="#CFF558" d="M96.98 90.512c0 24.994 21.71 45.256 48.49 45.256s48.49-20.262 48.49-45.256H96.98ZM48.49 45.256C21.71 45.256 0 65.518 0 90.512h96.98c0-24.994-21.71-45.256-48.49-45.256ZM145.47 45.256C145.47 20.262 123.76 0 96.98 0v90.512c26.78 0 48.49-20.262 48.49-45.256ZM48.49 135.768c0 24.994 21.71 45.256 48.49 45.256V90.512c-26.78 0-48.49 20.262-48.49 45.256Z"/>
  </g>
  <defs>
    <clipPath id="clip0_123_8775">
      <path fill="#fff" d="M0 0h200v189H0z"/>
    </clipPath>
  </defs>
</svg>
