<svg xmlns="http://www.w3.org/2000/svg" fill="none" viewBox="0 0 176 184">
  <g clip-path="url(#clip0_123_8801)">
    <path fill="#061857" d="M148.828 99.42a75.304 75.304 0 0 0 1.475-19.105c-1.871-37.612-31.947-68.148-68.91-69.934C38.533 8.308 3.357 44.11 5.4 87.731c1.762 37.615 31.77 68.216 68.725 70.116a71.46 71.46 0 0 0 18.765-1.501c7.571-1.633 15.186 2.102 18.786 9.073 6.334 12.265 19.649 20.2 34.588 18.299 15.258-1.941 27.552-14.451 29.46-29.979 1.869-15.205-5.929-28.756-17.981-35.202a17.588 17.588 0 0 1-8.915-19.118Z"/>
    <path fill="#33A3FF" d="M143.512 89.125a75.213 75.213 0 0 0 1.475-19.105C143.116 32.408 113.041 1.872 76.077.086 33.218-1.986-1.957 33.816.086 77.437c1.761 37.615 31.769 68.216 68.725 70.116a71.46 71.46 0 0 0 18.764-1.501c7.571-1.633 15.187 2.102 18.787 9.073 6.334 12.265 19.648 20.2 34.588 18.299 15.258-1.941 27.551-14.451 29.46-29.979 1.868-15.205-5.929-28.756-17.981-35.202a17.588 17.588 0 0 1-8.916-19.118Z"/>
  </g>
  <defs>
    <clipPath id="clip0_123_8801">
      <path fill="#fff" d="M0 0h176v184H0z"/>
    </clipPath>
  </defs>
</svg>
