<svg xmlns="http://www.w3.org/2000/svg" fill="none" viewBox="0 0 276 115">
  <path fill="#061857" d="M41.416 114.781c21.837 0 39.603-16.497 39.603-36.775v-35.66c0-4.302 3.768-7.801 8.4-7.801 4.632 0 8.4 3.499 8.4 7.8v35.661c0 20.278 17.766 36.775 39.603 36.775 21.837 0 39.602-16.497 39.602-36.775v-35.66c0-4.302 3.769-7.801 8.401-7.801s8.4 3.499 8.4 7.8v35.661c0 20.278 17.766 36.775 39.603 36.775 21.836 0 39.602-16.497 39.602-36.775V20.058c0-8.002-6.985-14.488-15.601-14.488s-15.601 6.486-15.601 14.488v57.948c0 4.302-3.768 7.801-8.4 7.801-4.633 0-8.401-3.5-8.401-7.8V42.344c0-20.277-17.765-36.775-39.602-36.775-21.837 0-39.603 16.498-39.603 36.776v35.66c0 4.302-3.768 7.801-8.4 7.801-4.632 0-8.401-3.5-8.401-7.8V42.344c0-20.277-17.765-36.775-39.602-36.775-21.837 0-39.602 16.498-39.602 36.776v35.66c0 4.302-3.769 7.801-8.4 7.801-4.633 0-8.401-3.5-8.401-7.8v-57.95c0-8-6.985-14.487-15.601-14.487S1.814 12.056 1.814 20.058v57.948c0 20.278 17.766 36.775 39.602 36.775Z"/>
  <path fill="#0552CE" stroke="#061857" stroke-miterlimit="10" d="M40.2 109.767c21.837 0 39.603-16.498 39.603-36.775V37.33c0-4.302 3.768-7.801 8.4-7.801 4.632 0 8.4 3.5 8.4 7.8v35.662c0 20.277 17.766 36.775 39.603 36.775 21.837 0 39.602-16.498 39.602-36.775V37.33c0-4.302 3.769-7.801 8.401-7.801s8.4 3.5 8.4 7.8v35.662c0 20.277 17.766 36.775 39.603 36.775 21.837 0 39.602-16.498 39.602-36.775v-57.95c0-8-6.985-14.486-15.601-14.486s-15.601 6.486-15.601 14.487V72.99c0 4.302-3.768 7.801-8.4 7.801-4.632 0-8.401-3.499-8.401-7.8V37.33c0-20.278-17.765-36.775-39.602-36.775-21.837 0-39.602 16.497-39.602 36.775v35.66c0 4.302-3.769 7.801-8.401 7.801s-8.4-3.499-8.4-7.8V37.33c0-20.278-17.766-36.775-39.603-36.775-21.837 0-39.602 16.497-39.602 36.775v35.66c0 4.302-3.768 7.801-8.4 7.801-4.633 0-8.401-3.499-8.401-7.8v-57.95c0-8-6.985-14.486-15.6-14.486C7.582.556.597 7.042.597 15.043V72.99c0 20.278 17.766 36.776 39.602 36.776Z"/>
</svg>
