<svg xmlns="http://www.w3.org/2000/svg" fill="none" viewBox="0 0 204 183">
  <g clip-path="url(#clip0_123_8688)">
    <path fill="#061857" d="m200.747 87.948-21.942-5.502c-30.256-7.587-53.889-29.598-62.036-57.776l-5.908-20.436c-1.167-4.04-7.321-4.04-8.489 0L96.464 24.67c-8.146 28.178-31.78 50.19-62.035 57.776l-21.943 5.502c-4.337 1.088-4.337 6.82 0 7.907l21.943 5.502c30.255 7.587 53.889 29.598 62.035 57.777l5.908 20.436c1.168 4.039 7.322 4.039 8.489 0l5.908-20.436c8.147-28.179 31.78-50.19 62.036-57.777l21.942-5.502c4.338-1.088 4.338-6.819 0-7.907ZM10.046 24.868l5.486 1.375c7.564 1.897 13.472 7.4 15.509 14.445l1.477 5.108c.292 1.01 1.83 1.01 2.122 0l1.477-5.108c2.037-7.045 7.945-12.548 15.509-14.445l5.485-1.375a1.007 1.007 0 0 0 0-1.977l-5.485-1.375c-7.564-1.897-13.472-7.4-15.51-14.445L34.64 1.963c-.292-1.01-1.83-1.01-2.122 0L31.04 7.07c-2.037 7.045-7.945 12.548-15.51 14.445l-5.485 1.375a1.007 1.007 0 0 0 0 1.977Z"/>
    <path fill="#ABA0F9" stroke="#061857" stroke-miterlimit="10" d="m191.944 87.948-21.943-5.502c-30.256-7.587-53.889-29.598-62.035-57.776l-5.908-20.436c-1.168-4.04-7.322-4.04-8.49 0L87.662 24.67c-8.147 28.178-31.78 50.19-62.036 57.776L3.683 87.948c-4.338 1.088-4.338 6.82 0 7.907l21.942 5.502c30.256 7.587 53.89 29.598 62.035 57.777l5.908 20.436c1.168 4.039 7.322 4.039 8.49 0l5.908-20.436c8.146-28.179 31.779-50.19 62.035-57.777l21.943-5.502c4.337-1.088 4.337-6.819 0-7.907ZM2.107 24.063l5.485 1.376c7.564 1.896 13.473 7.4 15.51 14.444l1.476 5.109c.292 1.01 1.83 1.01 2.123 0l1.476-5.11c2.037-7.044 7.945-12.547 15.51-14.443l5.485-1.376a1.007 1.007 0 0 0 0-1.976l-5.486-1.376c-7.564-1.897-13.472-7.4-15.509-14.444l-1.476-5.11c-.292-1.01-1.83-1.01-2.123 0l-1.477 5.11C21.065 13.31 15.156 18.814 7.592 20.71l-5.485 1.376a1.007 1.007 0 0 0 0 1.976Z"/>
  </g>
  <defs>
    <clipPath id="clip0_123_8688">
      <path fill="#fff" d="M0 0h204v183H0z"/>
    </clipPath>
  </defs>
</svg>
