<svg xmlns="http://www.w3.org/2000/svg" fill="none" viewBox="0 0 352 267">
  <path fill="#F3F3F3" d="M56.744 23.755c2.167 0 3.923-1.994 3.923-4.455 0-2.46-1.756-4.455-3.923-4.455-2.166 0-3.923 1.994-3.923 4.455 0 2.46 1.757 4.455 3.923 4.455Z"/>
  <path fill="#0552CE" d="M56.744 24.075c-2.32 0-4.205-2.142-4.205-4.775 0-2.633 1.886-4.776 4.205-4.776 2.318 0 4.205 2.143 4.205 4.776 0 1.275-.438 2.474-1.232 3.376-.794.902-1.85 1.4-2.973 1.4Zm0-8.91c-2.008 0-3.641 1.855-3.641 4.135s1.633 4.135 3.64 4.135c.973 0 1.887-.43 2.575-1.211.688-.781 1.066-1.82 1.066-2.924 0-2.28-1.633-4.135-3.64-4.135Z"/>
  <path fill="#F3F3F3" d="M41.373 19.3c0 2.46 1.756 4.455 3.922 4.455 2.167 0 3.923-1.994 3.923-4.455 0-2.46-1.756-4.455-3.923-4.455-2.166 0-3.922 1.994-3.922 4.455Z"/>
  <path fill="#0552CE" d="M45.296 24.075c-2.318 0-4.205-2.142-4.205-4.775 0-2.633 1.887-4.776 4.205-4.776 2.319 0 4.205 2.143 4.205 4.776s-1.886 4.775-4.205 4.775Zm0-8.91c-2.007 0-3.64 1.855-3.64 4.135s1.633 4.135 3.64 4.135c2.008 0 3.64-1.855 3.64-4.135s-1.632-4.135-3.64-4.135Z"/>
  <path fill="#F3F3F3" d="M33.854 23.757c2.166-.004 3.92-2.002 3.916-4.463-.003-2.46-1.762-4.452-3.929-4.448-2.166.004-3.92 2.002-3.916 4.463.003 2.46 1.762 4.452 3.929 4.448Z"/>
  <path fill="#0552CE" d="M33.848 24.075c-2.319 0-4.205-2.142-4.205-4.775 0-2.633 1.886-4.776 4.205-4.776 2.318 0 4.205 2.143 4.205 4.776s-1.887 4.775-4.205 4.775Zm0-8.91c-2.008 0-3.641 1.855-3.641 4.135s1.633 4.135 3.64 4.135c2.008 0 3.641-1.855 3.641-4.135s-1.633-4.135-3.64-4.135ZM9.672 163.956c-.156 0-.282-.144-.282-.32V19.3c0-.177.126-.32.282-.32h16.152c.156 0 .282.143.282.32 0 .176-.126.32-.282.32H9.954v144.016c0 .176-.126.32-.282.32Z"/>
  <path fill="#F3F3F3" d="M238.785 242.106c2.257 0 4.086-2.078 4.086-4.641 0-2.564-1.829-4.642-4.086-4.642-2.258 0-4.087 2.078-4.087 4.642 0 2.563 1.829 4.641 4.087 4.641Z"/>
  <path fill="#0552CE" d="M238.785 242.427c-2.41 0-4.369-2.226-4.369-4.962 0-2.735 1.959-4.961 4.369-4.961 2.409 0 4.369 2.226 4.369 4.961 0 2.736-1.96 4.962-4.369 4.962Zm0-9.283c-2.098 0-3.805 1.939-3.805 4.321 0 2.383 1.707 4.322 3.805 4.322s3.804-1.939 3.804-4.322c0-2.382-1.706-4.321-3.804-4.321Z"/>
  <path fill="#F3F3F3" d="M250.711 242.106c2.257 0 4.087-2.078 4.087-4.641 0-2.564-1.83-4.642-4.087-4.642-2.257 0-4.087 2.078-4.087 4.642 0 2.563 1.83 4.641 4.087 4.641Z"/>
  <path fill="#0552CE" d="M250.71 242.427c-2.409 0-4.369-2.226-4.369-4.962 0-2.735 1.96-4.961 4.369-4.961s4.369 2.226 4.369 4.961c0 2.736-1.96 4.962-4.369 4.962Zm0-9.283c-2.098 0-3.804 1.939-3.804 4.321 0 2.383 1.706 4.322 3.804 4.322s3.805-1.939 3.805-4.322c0-2.382-1.707-4.321-3.805-4.321Z"/>
  <path fill="#F3F3F3" d="M262.638 242.106c2.257 0 4.086-2.078 4.086-4.641 0-2.564-1.829-4.642-4.086-4.642-2.257 0-4.087 2.078-4.087 4.642 0 2.563 1.83 4.641 4.087 4.641Z"/>
  <path fill="#0552CE" d="M262.637 242.427c-2.409 0-4.369-2.226-4.369-4.962 0-2.735 1.96-4.961 4.369-4.961s4.369 2.226 4.369 4.961c0 2.736-1.96 4.962-4.369 4.962Zm0-9.283c-2.098 0-3.805 1.939-3.805 4.321 0 2.383 1.707 4.322 3.805 4.322s3.805-1.939 3.805-4.322c0-2.382-1.707-4.321-3.805-4.321ZM287.823 237.785h-16.827c-.156 0-.283-.143-.283-.32 0-.176.127-.32.283-.32h16.545v-31.572c0-.177.126-.32.282-.32.156 0 .282.143.282.32v31.892c0 .177-.126.32-.282.32Z"/>
  <path fill="#F3F3F3" d="M245.598 15.864h-85.33v61.683h85.33V15.864Z"/>
  <path fill="#0552CE" d="M245.598 77.867h-85.33c-.156 0-.282-.144-.282-.32V15.863c0-.177.126-.32.282-.32h85.33c.156 0 .282.143.282.32v61.682c0 .177-.126.32-.282.32Zm-85.048-.64h84.766V16.183H160.55v61.042Z"/>
  <path fill="#0552CE" d="M191.831 26.171h-17.15c-.156 0-.282-.143-.282-.32 0-.176.126-.32.282-.32h17.15c.156 0 .282.144.282.32 0 .177-.126.32-.282.32ZM212.076 26.171h-17.149c-.156 0-.282-.143-.282-.32 0-.176.126-.32.282-.32h17.149c.156 0 .282.144.282.32 0 .177-.126.32-.282.32ZM227.262 26.171h-12.088c-.156 0-.282-.143-.282-.32 0-.176.126-.32.282-.32h12.088c.156 0 .282.144.282.32 0 .177-.126.32-.282.32ZM189.3 32.845h-14.619c-.156 0-.282-.143-.282-.32 0-.177.126-.32.282-.32H189.3c.156 0 .282.143.282.32 0 .177-.126.32-.282.32ZM207.016 32.845h-14.619c-.156 0-.282-.143-.282-.32 0-.177.126-.32.282-.32h14.619c.156 0 .282.143.282.32 0 .177-.126.32-.282.32ZM232.323 32.845h-22.211c-.156 0-.282-.143-.282-.32 0-.177.126-.32.282-.32h22.211c.156 0 .282.143.282.32 0 .177-.126.32-.282.32ZM186.769 39.52h-12.088c-.156 0-.282-.144-.282-.321 0-.177.126-.32.282-.32h12.088c.156 0 .282.143.282.32 0 .177-.126.32-.282.32ZM207.015 39.52h-17.149c-.156 0-.283-.144-.283-.321 0-.177.127-.32.283-.32h17.149c.156 0 .283.143.283.32 0 .177-.127.32-.283.32ZM222.2 39.52h-12.088c-.156 0-.282-.144-.282-.321 0-.177.126-.32.282-.32H222.2c.156 0 .282.143.282.32 0 .177-.126.32-.282.32ZM186.769 52.867h-12.088c-.156 0-.282-.144-.282-.32 0-.177.126-.32.282-.32h12.088c.156 0 .282.143.282.32 0 .176-.126.32-.282.32ZM207.015 52.867h-17.149c-.156 0-.283-.144-.283-.32 0-.177.127-.32.283-.32h17.149c.156 0 .283.143.283.32 0 .176-.127.32-.283.32ZM179.177 59.54h-4.496c-.156 0-.282-.144-.282-.32 0-.177.126-.32.282-.32h4.496c.156 0 .282.143.282.32 0 .176-.126.32-.282.32ZM219.529 59.54h-16.29c-.156 0-.282-.144-.282-.32 0-.177.126-.32.282-.32h16.29c.156 0 .282.143.282.32 0 .176-.126.32-.282.32ZM199.706 59.54h-17.432c-.156 0-.282-.144-.282-.32 0-.177.126-.32.282-.32h17.432c.156 0 .283.143.283.32 0 .176-.127.32-.283.32ZM191.831 66.213h-17.15c-.156 0-.282-.143-.282-.32 0-.176.126-.32.282-.32h17.15c.156 0 .282.144.282.32 0 .177-.126.32-.282.32ZM212.076 66.213h-17.149c-.156 0-.282-.143-.282-.32 0-.176.126-.32.282-.32h17.149c.156 0 .282.144.282.32 0 .177-.126.32-.282.32ZM232.324 66.213h-17.15c-.156 0-.282-.143-.282-.32 0-.176.126-.32.282-.32h17.15c.156 0 .282.144.282.32 0 .177-.126.32-.282.32Z"/>
  <path fill="#F3F3F3" d="m323.604 220.265-41.689-20.31v-83.729l41.689 2.688v101.351Z"/>
  <path fill="#0552CE" d="M323.605 220.584a.244.244 0 0 1-.111-.026l-41.69-20.31a.326.326 0 0 1-.171-.294v-83.729a.34.34 0 0 1 .089-.233.255.255 0 0 1 .209-.087l41.69 2.688c.15.01.266.15.266.32v101.351a.33.33 0 0 1-.127.267.257.257 0 0 1-.155.053Zm-41.407-20.841 41.125 20.035V119.215l-41.125-2.652v83.18Z"/>
  <path fill="#0552CE" d="M298.113 194.068a.265.265 0 0 1-.099-.02l-11.809-4.977a.321.321 0 0 1-.184-.3v-50.785c0-.093.036-.182.099-.243a.265.265 0 0 1 .226-.074l11.809 2.015c.138.023.24.158.24.316v53.747a.334.334 0 0 1-.121.263.26.26 0 0 1-.161.058Zm-11.527-5.519 11.244 4.738v-53.011l-11.244-1.918v50.191Z"/>
  <path fill="#F3F3F3" d="m318.446 161.959-16.725-4.171V140.14l16.725 2.816v19.003Z"/>
  <path fill="#0552CE" d="M318.446 162.279a.247.247 0 0 1-.06-.008l-16.725-4.17c-.129-.033-.222-.163-.222-.313v-17.649a.34.34 0 0 1 .098-.242.259.259 0 0 1 .226-.074l16.725 2.816c.138.023.24.158.24.316v19.004a.336.336 0 0 1-.105.249.264.264 0 0 1-.177.071Zm-16.442-4.748 16.16 4.03v-18.33l-16.16-2.721v17.021Z"/>
  <path fill="#C4E3F7" d="m318.446 202.316-16.725-7.047v-29.606l16.725 4.775v31.878Z"/>
  <path fill="#0552CE" d="m318.447 131.326-.029-.001-32.143-3.775c-.155-.018-.268-.176-.252-.352.016-.175.155-.304.31-.285l32.142 3.775c.156.018.268.176.252.351-.015.165-.138.287-.28.287Z"/>
  <path fill="#F3F3F3" d="m351.285 92.403-42.696 2.753V21.511L351.285.71v91.693Z"/>
  <path fill="#0552CE" d="M308.588 95.476a.266.266 0 0 1-.194-.087.343.343 0 0 1-.088-.233V21.511c0-.128.067-.244.171-.294L351.173.416a.254.254 0 0 1 .267.026c.079.06.127.16.127.268v91.693c0 .17-.117.31-.267.32l-42.696 2.753h-.016Zm.282-73.754v73.095l42.132-2.716V1.196L308.87 21.722Z"/>
  <path fill="#0552CE" d="M302.749 117.567c-.156 0-.282-.143-.282-.32V68.92c0-.147.088-.275.214-.31l5.84-1.633c.152-.042.304.063.342.234.037.172-.055.345-.207.388l-5.625 1.572v48.076c0 .177-.126.32-.282.32Z"/>
  <path fill="#CFF558" d="M301.377 117.158c0 2.64.611 4.836 1.371 4.907.767.072 1.394-2.045 1.394-4.729 0-2.683-.627-4.881-1.394-4.908-.76-.027-1.371 2.091-1.371 4.73Z"/>
  <path fill="#0552CE" d="M314.58 31.246c-.115 0-.223-.08-.265-.21-.054-.165.021-.35.167-.41l7.689-3.22c.146-.061.308.023.362.189.054.166-.021.35-.167.411l-7.689 3.22a.25.25 0 0 1-.097.02ZM323.728 27.415c-.115 0-.223-.08-.265-.21-.054-.165.021-.35.167-.41l8.508-3.563c.146-.061.309.023.363.19.054.165-.021.35-.167.41l-8.508 3.563a.25.25 0 0 1-.098.02ZM333.853 23.174c-.114 0-.222-.08-.264-.21-.054-.166.021-.35.167-.41l6.579-2.756c.146-.06.308.024.363.19.053.165-.021.35-.167.41l-6.58 2.756a.25.25 0 0 1-.098.02ZM314.58 39.487c-.119 0-.229-.086-.269-.22-.048-.168.032-.35.18-.404l6.514-2.43c.148-.055.307.036.356.204.049.168-.032.349-.18.404l-6.513 2.43a.25.25 0 0 1-.088.016ZM322.533 36.52c-.119 0-.229-.085-.268-.22-.048-.167.032-.348.18-.403l7.112-2.653c.147-.056.308.036.357.204.048.168-.032.349-.18.404l-7.113 2.653a.25.25 0 0 1-.088.016ZM331.223 33.28c-.119 0-.229-.086-.268-.22-.049-.169.032-.35.179-.405l12.097-4.512c.149-.055.308.036.356.204.049.168-.032.349-.18.404l-12.096 4.512a.25.25 0 0 1-.088.016ZM314.58 47.73c-.123 0-.236-.092-.271-.232-.044-.17.043-.348.192-.397l5.353-1.751c.151-.05.306.049.349.218.043.17-.043.348-.193.397l-5.352 1.751a.251.251 0 0 1-.078.013ZM321.355 45.511c-.123 0-.235-.091-.271-.231-.043-.17.043-.348.193-.397l8.291-2.713c.151-.05.306.05.349.219.044.17-.043.347-.193.396l-8.291 2.714a.247.247 0 0 1-.078.012ZM331.223 42.283c-.123 0-.236-.091-.271-.231-.044-.17.043-.347.192-.396l6.405-2.096c.151-.05.306.049.349.218.043.17-.043.348-.193.397l-6.404 2.096a.251.251 0 0 1-.078.012ZM314.579 64.214c-.13 0-.248-.104-.276-.255-.031-.173.067-.343.219-.379l5.353-1.262c.152-.036.301.076.333.249.032.173-.066.342-.219.378l-5.352 1.262a.25.25 0 0 1-.058.007ZM321.355 62.616c-.131 0-.248-.104-.276-.255-.032-.173.066-.342.219-.378l8.291-1.955c.151-.037.302.075.334.248.031.173-.067.342-.219.378l-8.292 1.955a.241.241 0 0 1-.057.007ZM314.579 72.455c-.135 0-.255-.11-.278-.267-.025-.174.078-.34.232-.369l1.954-.371c.153-.03.299.088.325.263.026.174-.078.339-.232.368l-1.954.372a.25.25 0 0 1-.047.004ZM327.758 69.95c-.135 0-.255-.11-.278-.267-.026-.174.078-.34.232-.369l8.418-1.6c.153-.029.299.089.324.263.026.174-.078.34-.231.369l-8.418 1.6a.257.257 0 0 1-.047.004ZM317.904 71.823c-.135 0-.255-.11-.278-.267-.026-.174.078-.34.232-.369l8.119-1.543c.153-.03.299.089.325.263.025.174-.078.34-.232.368l-8.119 1.544a.257.257 0 0 1-.047.004ZM314.579 80.698c-.14 0-.261-.118-.279-.28-.02-.176.089-.336.244-.358l7.689-1.11c.157-.023.296.102.316.277.019.175-.09.336-.245.358l-7.689 1.11a.242.242 0 0 1-.036.003ZM323.728 79.377c-.14 0-.262-.118-.28-.28-.019-.175.09-.335.244-.357l8.508-1.228c.158-.023.296.101.316.277.02.175-.09.335-.244.358l-8.508 1.227a.252.252 0 0 1-.036.003ZM333.853 77.916c-.14 0-.261-.118-.279-.28-.02-.175.089-.336.244-.358l9.465-1.366c.157-.023.296.102.315.277.02.175-.089.336-.244.358l-9.465 1.366a.242.242 0 0 1-.036.003Z"/>
  <path fill="#C4E3F7" d="m346.482 46.534-33.672 9.297V31.067l33.672-14.659v30.126Z"/>
  <path fill="#F3F3F3" d="M315.093 46.565a.382.382 0 0 1-.122-.02c-.224-.076-.351-.344-.284-.598 1-3.786 2.101-6.051 3.368-6.925 1.237-.852 2.132-.06 2.851.577.75.664 1.25 1.048 2.033.576 1.068-.643 1.755-2.29 2.419-3.882.771-1.847 1.499-3.592 2.854-3.77 1.112-.147 1.671.876 2.118 1.698.473.868.806 1.393 1.412 1.353.924-.059 1.636-1.324 2.538-2.926.89-1.58 1.898-3.37 3.492-4.721 1.416-1.201 2.935-1.75 4.518-1.63.233.018.409.247.394.511-.016.265-.222.464-.45.448-1.372-.105-2.706.38-3.955 1.44-1.47 1.246-2.435 2.958-3.285 4.47-.992 1.76-1.848 3.28-3.205 3.367-1.155.073-1.722-.97-2.179-1.807-.448-.822-.751-1.322-1.3-1.25-.889.118-1.519 1.628-2.186 3.228-.724 1.734-1.472 3.527-2.788 4.32-1.308.787-2.218-.02-2.95-.668-.758-.67-1.185-1-1.891-.513-.732.505-1.846 2.021-2.997 6.38-.055.208-.223.342-.405.342ZM5.715 242.736l32.393-15.782v-65.057l-32.393 2.089v78.75Z"/>
  <path fill="#0552CE" d="M5.715 243.056a.258.258 0 0 1-.155-.053.333.333 0 0 1-.127-.268v-78.749c0-.17.116-.31.266-.319l32.393-2.089a.259.259 0 0 1 .21.087c.056.06.088.144.088.232v65.057a.323.323 0 0 1-.171.294L5.826 243.03a.26.26 0 0 1-.111.026Zm.282-78.767v77.961l31.828-15.507v-64.507l-31.828 2.053Z"/>
  <path fill="#F3F3F3" d="m23.653 222.69-14.17 6.009v-54.263l14.17-1.477v49.731Z"/>
  <path fill="#0552CE" d="M9.483 229.019a.264.264 0 0 1-.161-.057.335.335 0 0 1-.121-.263v-54.263c0-.165.11-.303.256-.319l14.17-1.477a.26.26 0 0 1 .216.082.342.342 0 0 1 .092.237v49.73a.321.321 0 0 1-.183.3l-14.17 6.01a.264.264 0 0 1-.1.02Zm.282-54.291v53.509l13.605-5.77V173.31l-13.605 1.418ZM27.737 173.982c-.143 0-.266-.123-.28-.289-.016-.176.097-.332.252-.35l8.217-.924c.154-.018.293.11.308.286.016.176-.097.333-.253.351l-8.216.924-.028.002ZM27.737 180.094c-.139 0-.26-.116-.28-.276-.02-.175.087-.337.241-.361l8.217-1.293c.155-.025.297.098.318.273.022.176-.086.337-.24.361l-8.217 1.293a.262.262 0 0 1-.04.003ZM27.737 186.208c-.134 0-.253-.109-.277-.265-.028-.174.074-.34.228-.371l8.216-1.661c.156-.031.3.086.327.259.028.174-.075.341-.228.372l-8.216 1.66a.216.216 0 0 1-.05.006Z"/>
  <path fill="#F3F3F3" d="m.283 138.664 42.696 2.753V67.772L.283 46.97v91.693Z"/>
  <path fill="#0552CE" d="M42.979 141.736h-.016L.266 138.982c-.15-.009-.266-.149-.266-.319V46.97c0-.108.048-.209.127-.268.079-.06.18-.069.266-.027L43.09 67.476c.104.05.17.167.17.294v73.646a.343.343 0 0 1-.087.233.266.266 0 0 1-.194.087ZM.564 138.36l42.133 2.717V67.981L.564 47.456v90.905Z"/>
  <path fill="#0552CE" d="M36.987 77.506a.254.254 0 0 1-.098-.02l-7.689-3.22c-.146-.06-.22-.244-.167-.41.054-.166.217-.25.363-.19l7.689 3.22c.146.061.22.245.167.411-.043.13-.15.21-.265.21ZM27.839 73.675a.254.254 0 0 1-.098-.02l-8.508-3.562c-.146-.061-.22-.245-.167-.411.055-.166.217-.25.363-.19l8.508 3.563c.146.061.22.245.167.411-.042.13-.15.21-.265.21ZM17.714 69.434a.254.254 0 0 1-.098-.02l-6.58-2.755c-.146-.06-.22-.245-.166-.41.054-.167.217-.251.362-.19l6.58 2.755c.146.061.22.245.166.411-.042.13-.15.21-.264.21ZM36.988 85.747a.25.25 0 0 1-.088-.016l-6.514-2.43c-.148-.055-.229-.236-.18-.404.049-.168.208-.26.356-.204l6.514 2.43c.148.055.228.236.18.403-.04.135-.15.22-.268.22ZM29.033 82.78a.25.25 0 0 1-.088-.015l-7.113-2.653c-.148-.056-.228-.236-.18-.404.05-.168.209-.26.357-.204l7.112 2.652c.148.056.228.237.18.404-.04.135-.15.22-.268.22ZM20.345 79.54a.25.25 0 0 1-.088-.016L8.16 75.012c-.148-.055-.228-.236-.18-.404.05-.168.208-.26.357-.204l12.096 4.512c.148.055.229.236.18.404-.039.135-.15.22-.268.22ZM36.988 93.99a.254.254 0 0 1-.078-.013l-5.353-1.752c-.15-.049-.236-.226-.193-.396.043-.17.2-.268.35-.219l5.352 1.752c.15.049.236.226.193.396-.036.14-.149.232-.271.232ZM30.212 91.773a.253.253 0 0 1-.079-.013l-8.29-2.713c-.15-.05-.237-.227-.194-.396.044-.17.198-.269.35-.22l8.29 2.714c.15.05.237.227.194.397-.036.14-.149.231-.271.231ZM20.345 88.543a.25.25 0 0 1-.079-.013l-6.404-2.096c-.15-.049-.236-.226-.193-.396.044-.17.198-.268.35-.219l6.404 2.096c.15.05.236.227.193.396-.036.14-.149.232-.271.232ZM30.212 108.876a.229.229 0 0 1-.057-.007l-22.442-5.292c-.153-.036-.25-.205-.22-.378.032-.174.182-.285.334-.249l22.442 5.292c.153.036.251.206.22.379-.028.151-.146.255-.277.255ZM36.987 118.716a.25.25 0 0 1-.047-.005l-1.954-.371c-.154-.029-.258-.194-.232-.369.026-.174.172-.292.325-.262l1.954.371c.154.029.257.194.232.369-.023.156-.143.267-.278.267ZM23.81 116.211a.249.249 0 0 1-.048-.004l-16.039-3.049c-.153-.029-.257-.194-.231-.368.025-.175.17-.292.325-.263l16.038 3.048c.154.03.258.195.232.369-.023.156-.143.267-.278.267ZM27.84 125.638a.22.22 0 0 1-.036-.003l-19.591-2.827c-.155-.023-.264-.183-.244-.358.02-.176.16-.3.315-.277L27.875 125c.155.023.264.183.245.358-.019.162-.14.28-.28.28Z"/>
  <path fill="#C4E3F7" d="m5.085 92.794 33.673 9.297V77.327L5.085 62.668v30.126Z"/>
  <path fill="#0552CE" d="M8.736 92.429a.26.26 0 0 1-.17-.066.35.35 0 0 1-.054-.449L25.06 67.358a.271.271 0 0 1 .448 0l5.966 8.853 10.732-15.927c.095-.14.272-.167.395-.06a.35.35 0 0 1 .053.449l-10.956 16.26a.271.271 0 0 1-.449 0l-5.965-8.853L8.961 92.303a.272.272 0 0 1-.225.126Z"/>
  <path fill="#0552CE" d="m41.83 64.723-.54-.192 1.106-4.001-3.114 2.26-.304-.54 4.42-3.207-1.569 5.68ZM137.89 73.83h-10.451c-.156 0-.282-.143-.282-.32 0-.177.126-.32.282-.32h10.169V34.26c0-.176.126-.32.282-.32h20.815c.156 0 .282.144.282.32 0 .177-.126.32-.282.32h-20.533v38.93c0 .177-.126.32-.282.32Z"/>
  <path fill="#CFF558" d="M122.448 77.123c1.758 0 3.184-1.618 3.184-3.614 0-1.995-1.426-3.612-3.184-3.612-1.759 0-3.185 1.617-3.185 3.612 0 1.996 1.426 3.614 3.185 3.614ZM37.907 217.384c1.759-.003 3.183-1.623 3.18-3.618-.003-1.996-1.43-3.611-3.19-3.608-1.758.003-3.182 1.623-3.18 3.618.003 1.996 1.43 3.611 3.19 3.608Z"/>
  <path fill="#0552CE" d="M105.138 214.089H45.09c-.156 0-.282-.143-.282-.32 0-.176.126-.32.282-.32h60.048c.156 0 .282.144.282.32 0 .177-.126.32-.282.32ZM105.138 227.55H60.765c-.156 0-.283-.143-.283-.32 0-.176.127-.32.283-.32h44.373c.156 0 .282.144.282.32 0 .177-.126.32-.282.32ZM105.138 241.011H60.765c-.156 0-.283-.143-.283-.32 0-.177.127-.32.283-.32h44.373c.156 0 .282.143.282.32 0 .177-.126.32-.282.32ZM317.904 16.728c-.156 0-.282-.144-.282-.32V7.58h-89.077v8.285c0 .176-.126.32-.282.32-.156 0-.283-.143-.283-.32V7.26c0-.177.127-.32.283-.32h89.641c.156 0 .283.143.283.32v9.147c0 .177-.127.32-.283.32Z"/>
  <path fill="#F3F3F3" d="M92.658 102.386c10.662 0 19.306-9.783 19.306-21.851s-8.644-21.851-19.306-21.851c-10.663 0-19.307 9.783-19.307 21.85 0 12.069 8.644 21.852 19.307 21.852Z"/>
  <path fill="#0552CE" d="M92.658 102.705c-10.801 0-19.589-9.946-19.589-22.171 0-12.226 8.788-22.172 19.59-22.172 10.801 0 19.588 9.946 19.588 22.172 0 12.225-8.787 22.171-19.589 22.171Zm0-43.703c-10.49 0-19.024 9.66-19.024 21.532s8.534 21.531 19.024 21.531 19.025-9.66 19.025-21.531c0-11.873-8.535-21.532-19.025-21.532Z"/>
  <path fill="#C4E3F7" d="M114.286 74.54c-2.31-11.077-11.089-19.326-21.574-19.36V80.45s17.977-4.97 21.574-5.91Z"/>
  <path fill="#F3F3F3" d="M80.084 61.65c-4.535 3.848-7.428 9.575-8.183 15.753 5.107.774 20.835 3.127 20.835 3.127S82.158 64.815 80.084 61.65Z"/>
  <path fill="#0552CE" d="M92.736 80.85c-.012 0-.024 0-.037-.002 0 0-15.728-2.354-20.835-3.128a.277.277 0 0 1-.187-.123.35.35 0 0 1-.055-.238c.773-6.331 3.797-12.15 8.294-15.965a.256.256 0 0 1 .21-.06.28.28 0 0 1 .185.125c2.05 3.127 12.544 18.72 12.65 18.877.069.103.076.243.02.355a.278.278 0 0 1-.245.16ZM72.222 77.13c4.7.71 16.882 2.535 19.878 2.983-1.918-2.85-9.95-14.792-12.072-18.012-4.178 3.65-7.006 9.095-7.806 15.029Z"/>
  <path fill="#F3F3F3" d="M77.162 18.68h-9.599v27.41h9.599V18.68Z"/>
  <path fill="#0552CE" d="M77.16 46.411h-9.598c-.156 0-.282-.143-.282-.32v-27.41c0-.177.126-.32.282-.32h9.599c.156 0 .282.143.282.32v27.41c0 .177-.126.32-.282.32Zm-9.316-.64h9.035v-26.77h-9.035v26.77Z"/>
  <path fill="#F3F3F3" d="M67.564 30.065h-9.599V46.09h9.6V30.065Z"/>
  <path fill="#0552CE" d="M67.564 46.41h-9.599c-.156 0-.282-.143-.282-.32V30.065c0-.177.126-.32.282-.32h9.6c.155 0 .282.143.282.32V46.09c0 .177-.127.32-.283.32Zm-9.317-.64h9.035V30.385h-9.035V45.77Z"/>
  <path fill="#F3F3F3" d="M96.358 5.379h-9.6V46.09h9.6V5.38Z"/>
  <path fill="#0552CE" d="M96.358 46.41h-9.599c-.156 0-.282-.143-.282-.32V5.38c0-.177.126-.32.282-.32h9.599c.156 0 .282.143.282.32V46.09c0 .177-.126.32-.282.32Zm-9.317-.64h9.035V5.699H87.04V45.77Z"/>
  <path fill="#F3F3F3" d="M86.76 11.125h-9.6V46.09h9.6V11.125Z"/>
  <path fill="#0552CE" d="M86.76 46.41h-9.598c-.156 0-.283-.142-.283-.32V11.127c0-.177.127-.32.283-.32h9.598c.156 0 .282.143.282.32V46.09c0 .177-.126.32-.282.32Zm-9.316-.64h9.034V11.447h-9.034V45.77Z"/>
  <path fill="#F3F3F3" d="M115.554 27.457h-9.599V46.09h9.599V27.457Z"/>
  <path fill="#0552CE" d="M115.553 46.41h-9.598c-.156 0-.283-.143-.283-.32V27.457c0-.177.127-.32.283-.32h9.598c.156 0 .283.143.283.32V46.09c0 .177-.127.32-.283.32Zm-9.316-.64h9.034V27.777h-9.034V45.77Z"/>
  <path fill="#F3F3F3" d="M105.955 15.191h-9.599v30.9h9.599v-30.9Z"/>
  <path fill="#0552CE" d="M105.956 46.411h-9.599c-.156 0-.282-.143-.282-.32V15.192c0-.177.126-.32.282-.32h9.599c.156 0 .282.143.282.32v30.9c0 .176-.126.32-.282.32Zm-9.317-.64h9.035V15.512h-9.035v30.259Z"/>
  <path fill="#F3F3F3" d="M125.152 15.191h-9.599v30.9h9.599v-30.9Z"/>
  <path fill="#0552CE" d="M125.151 46.411h-9.598c-.156 0-.282-.143-.282-.32V15.192c0-.177.126-.32.282-.32h9.598c.156 0 .283.143.283.32v30.9c0 .176-.127.32-.283.32Zm-9.316-.64h9.034V15.512h-9.034v30.259Z"/>
  <path fill="#CFF558" d="M206.445 265.97c-.673-20.63-.891-23.037-1.221-35.15l-63.857-32.489-23.055 67.813 88.133-.174Z"/>
  <path fill="#0552CE" d="m176.1 266.35-.026-.001c-.155-.017-.269-.172-.255-.348l1.609-20.051c.013-.159.127-.283.267-.291.057-.003 5.742-.394 8.191-5.13.078-.152.251-.203.386-.114.134.09.179.286.1.438-2.335 4.516-7.237 5.3-8.403 5.424l-1.588 19.782c-.013.166-.136.291-.281.291Z"/>
  <path fill="#F3F3F3" d="M292.337 40.895c2.616.47 3.492 2.044 2.961 5.363-.234 1.464-1.721 2.53-1.961 3.99-.306 1.863.982 3.007 2.304 2.853 1.321-.154 5.402-5.775 5.388-8.077-.008-1.32-1.708-5.003-2.912-5.986 0 0-3.213-.078-4.253.66-1.04.739-1.262.96-1.262.96l-.265.237Z"/>
  <path fill="#0552CE" d="M295.403 53.434a2.32 2.32 0 0 1-1.802-.868c-.5-.617-.692-1.461-.542-2.378.132-.796.653-1.501 1.157-2.183.499-.675.97-1.312 1.049-1.973.22-1.849-.351-3.736-1.358-4.487-.523-.39-1.094-.393-1.652-.011-.134.09-.307.042-.387-.11-.081-.15-.038-.347.096-.439.747-.51 1.547-.501 2.253.025 1.179.88 1.855 3.028 1.607 5.108-.101.845-.647 1.584-1.176 2.298-.478.647-.93 1.259-1.034 1.89-.15.914.136 1.498.402 1.826.388.478.983.72 1.596.65 1.087-.126 5.148-5.547 5.134-7.756-.007-1.196-1.285-4.472-2.407-5.389a.348.348 0 0 1-.065-.446c.091-.144.267-.176.394-.073 1.299 1.06 2.634 4.554 2.642 5.903.015 2.436-4.142 8.224-5.641 8.398-.089.01-.178.015-.266.015Z"/>
  <path fill="#F3F3F3" d="M293.331 43.738c2.615.47 3.491 2.044 2.961 5.363-.235 1.465-1.721 2.532-1.961 3.99-.306 1.863.982 3.007 2.304 2.854 1.321-.154 5.401-5.775 5.387-8.077-.008-1.321-1.708-5.003-2.911-5.986 0 0-3.214-.078-4.254.66-1.039.739-1.261.96-1.261.96l-.265.236Z"/>
  <path fill="#0552CE" d="M296.397 56.279a2.316 2.316 0 0 1-1.801-.869c-.501-.616-.693-1.46-.542-2.377.131-.796.652-1.502 1.156-2.183.499-.675.97-1.312 1.049-1.974.228-1.906-.656-3.65-1.646-4.389-.397-.296-1.187-.708-2.014-.142-.134.09-.307.042-.388-.11-.08-.15-.037-.347.096-.439.799-.545 1.752-.489 2.616.156 1.348 1.005 2.127 3.066 1.895 5.01-.101.845-.647 1.584-1.175 2.299-.479.647-.931 1.258-1.034 1.89-.151.914.135 1.497.402 1.826.388.478.984.721 1.595.65 1.087-.127 5.148-5.547 5.134-7.757-.007-1.195-1.285-4.471-2.407-5.388a.348.348 0 0 1-.064-.447c.09-.143.267-.176.393-.072 1.299 1.06 2.634 4.553 2.642 5.903.016 2.435-4.142 8.223-5.641 8.398-.089.01-.178.015-.266.015Z"/>
  <path fill="#F3F3F3" d="M295.325 42.336c.615.39 1.988 2.315 2.309 2.99.468.983.892 2.127.777 3.37-.14 1.523-1.44 2.856-1.503 4.382-.081 1.949 1.375 2.91 2.704 2.542 1.328-.368 4.791-6.752 4.49-9.098-.172-1.346-.865-3.671-2.215-4.481l-6.562.295Z"/>
  <path fill="#0552CE" d="M299.048 56.017a2.3 2.3 0 0 1-1.576-.624c-.584-.547-.885-1.374-.845-2.33.044-1.053.626-2.26 1.189-3.427.302-.627.588-1.22.768-1.745.297-.864.096-1.813-.615-2.902-.124-.19-.249-.404-.378-.625-.695-1.191-1.26-2.013-2.19-1.72-.15.048-.305-.052-.347-.222-.042-.17.046-.347.196-.394 1.399-.44 2.181.903 2.811 1.982.124.211.243.416.362.598.824 1.262 1.055 2.445.687 3.516-.194.563-.488 1.173-.799 1.82-.532 1.103-1.083 2.244-1.12 3.149-.04.96.326 1.512.64 1.806.457.427 1.098.58 1.715.41 1.082-.3 4.845-6.84 4.549-9.15-.166-1.295-1.086-3.084-2.339-3.835-.137-.083-.19-.276-.117-.433.072-.156.243-.216.381-.133 1.411.846 2.447 2.856 2.634 4.31.319 2.493-3.435 9.437-4.974 9.863-.21.058-.422.086-.632.086Z"/>
  <path fill="#F3F3F3" d="m280.026 83.773 3.637-19.34s13.064 1.342 13.694 1.313c1.94-.09 7.778-8.882 5.355-10.713-2.423-1.83-4.907 3.467-6.059 3.157-.676-.182-3.639-1.063-4.64-1.76-.871-.606-2.486-1.688-2.34-2.834.066-.515.44-2.952 1.058-6.35.522-2.87 3.444-5.148 6.028-5.166 5.082-.036 9.81-.038 14.938-.038 1.42 0 2.41-1.204 2.478-1.886.157-1.564-.031-2.71-1.018-3.584-1.005-.89-2.652-1.208-5.042-1.219-6.557-.03-17.607-.044-26.553-.051-8.59-.007-16.306 5.946-19.454 15.006l-8.419 24.225 26.337 9.24Z"/>
  <path fill="#0552CE" d="M279.547 86.742a.258.258 0 0 1-.057-.006c-.153-.036-.251-.205-.219-.378l3.973-22.005c.029-.16.161-.268.303-.255 5.253.552 13.244 1.368 13.679 1.344 1.276-.058 4.853-4.817 5.626-7.943.273-1.105.173-1.845-.296-2.2-1.336-1.008-2.722.484-3.946 1.8-.807.87-1.445 1.558-2.022 1.403-.736-.198-3.695-1.084-4.723-1.8-.44-.305-2.627-1.91-2.432-3.438.066-.513.401-2.675 1.022-6.083.521-2.868 3.466-5.402 6.302-5.422 1.543-.01 3.105-.007 4.616-.003 3.453.008 7.025.017 10.587-.15.865-.041 1.49-.698 1.726-1.331.522-1.402.294-3.009-.529-3.739-.953-.844-2.849-.853-5.043-.863-6.693-.031-18.134-.045-26.552-.051h-.014c-8.526 0-16.052 5.809-19.178 14.803l-8.419 24.225c-.057.165-.221.246-.366.18-.145-.064-.216-.25-.159-.414l8.419-24.226c3.211-9.24 10.944-15.209 19.703-15.209h.014c8.419.007 19.86.02 26.554.052 2.298.01 4.283.02 5.388.999 1.034.916 1.329 2.805.702 4.492-.305.819-1.111 1.669-2.223 1.721-3.574.168-7.151.16-10.612.151a482.905 482.905 0 0 0-4.611.003c-2.592.019-5.28 2.314-5.753 4.912-.617 3.394-.951 5.538-1.015 6.044-.104.817 1.051 2.025 2.168 2.802.955.664 3.884 1.54 4.558 1.722.281.073.93-.626 1.504-1.244 1.239-1.334 2.937-3.16 4.646-1.868.479.361.959 1.159.528 2.905-.817 3.303-4.494 8.334-6.147 8.41-.612.026-11.344-1.093-13.503-1.32l-3.923 21.724c-.027.152-.145.256-.276.256Z"/>
  <path fill="#F3F3F3" d="M80.377 136.255s-3.183 20.397-12.773 30.578L39.599 144.2s-2.346 1.176-4.867-.564c-2.522-1.741-5.433-4.962-2.644-7.714 0 0-2.61-3.404 1.898-4.536 0 0-3.585-4.916 3.32-6.687l-6.911-6.541c-1.123-1.063-1.337-2.924-.493-4.278.815-1.305 2.358-1.722 3.604-.973l14.18 8.516s5.44-2.173 8.922.047c3.483 2.22 23.769 14.785 23.769 14.785Z"/>
  <path fill="#0552CE" d="M67.603 167.153a.259.259 0 0 1-.164-.059L39.558 144.56c-.582.238-2.7.919-4.974-.651-1.114-.769-3.723-2.82-3.906-5.263-.075-1.003.27-1.931 1.027-2.762-.303-.484-.879-1.602-.556-2.713.265-.911 1.06-1.577 2.365-1.983-.388-.68-1.037-2.124-.593-3.598.417-1.389 1.686-2.414 3.775-3.051l-6.483-6.136c-1.227-1.161-1.465-3.229-.542-4.708.893-1.432 2.6-1.893 3.966-1.072l14.072 8.452c.842-.315 5.728-1.993 9.036.116 3.442 2.193 23.563 14.657 23.766 14.783.137.084.187.279.112.434-.074.155-.246.212-.383.128-.203-.126-20.327-12.592-23.771-14.787-3.333-2.125-8.638-.046-8.691-.025a.25.25 0 0 1-.226-.019l-14.179-8.516c-1.118-.671-2.511-.295-3.242.876-.754 1.208-.559 2.898.443 3.847l6.911 6.541a.345.345 0 0 1 .093.32.303.303 0 0 1-.211.238c-2.21.567-3.527 1.504-3.912 2.786-.497 1.651.735 3.368.748 3.385a.355.355 0 0 1 .049.308.3.3 0 0 1-.206.209c-1.342.337-2.136.899-2.361 1.672-.32 1.102.606 2.328.615 2.34a.351.351 0 0 1-.028.452c-.75.74-1.097 1.557-1.032 2.429.112 1.492 1.472 3.275 3.637 4.77 2.357 1.627 4.584.555 4.607.544a.254.254 0 0 1 .277.033l28.005 22.633a.35.35 0 0 1 .067.447.274.274 0 0 1-.23.134Z"/>
  <path fill="#0552CE" d="M42.12 137.587a1.8 1.8 0 0 1-1.026-.309c-.613-.414-1.017-1.263-1.057-2.216-.034-.823.18-1.626.415-2.372 1.346-4.262 3.684-8.042 6.76-10.931.12-.113.297-.093.397.043a.35.35 0 0 1-.037.45c-2.998 2.816-5.276 6.5-6.589 10.654-.25.79-.41 1.454-.382 2.126.03.741.33 1.391.781 1.696.695.47 1.606.111 2.176-.338.412-.326.763-.733 1.135-1.164.247-.286.502-.582.777-.852 1.902-1.865 4.826-2.339 7.112-1.153.48.25.933.564 1.371.869.552.382 1.072.744 1.646.989.935.4 2.222.398 2.84-.548.093-.142.27-.172.395-.067a.35.35 0 0 1 .058.448c-.792 1.213-2.365 1.248-3.492.766-.624-.266-1.192-.661-1.741-1.043-.424-.294-.862-.598-1.312-.832-2.092-1.085-4.768-.651-6.507 1.056-.258.252-.505.538-.744.815-.373.433-.76.881-1.216 1.241-.46.363-1.108.672-1.76.672Z"/>
  <path fill="#0552CE" d="M42.586 128.388c-.04 0-.08-.01-.12-.03a31.632 31.632 0 0 1-5.188-3.44.348.348 0 0 1-.065-.446c.091-.144.267-.177.394-.074a31.172 31.172 0 0 0 5.098 3.38c.141.074.203.264.137.425a.283.283 0 0 1-.256.185ZM40.224 135.833a.25.25 0 0 1-.147-.048l-5.906-4.114c-.133-.092-.174-.29-.093-.44.082-.151.256-.198.389-.105l5.905 4.114c.133.092.175.29.093.44a.276.276 0 0 1-.24.153ZM41.642 142.074c-.824 0-1.62-.256-2.255-.497-2.656-1.01-5.092-2.745-7.047-5.018a.35.35 0 0 1 .005-.452.26.26 0 0 1 .399.005c1.892 2.201 4.251 3.881 6.822 4.858.726.276 1.676.573 2.582.424.9-.148 1.644-.759 1.894-1.558a1.957 1.957 0 0 0-.124-1.397c-.177-.358-.441-.595-.746-.667-.152-.037-.25-.207-.217-.38.032-.173.18-.283.334-.247.466.112.864.46 1.121.981.294.594.355 1.314.164 1.925-.32 1.019-1.24 1.795-2.345 1.977a3.64 3.64 0 0 1-.587.046Z"/>
  <path fill="#0552CE" d="M40.152 144.226c-.12 0-.233-.09-.27-.228-.045-.169.04-.348.189-.399.72-.248 1.305-.944 1.487-1.773.038-.172.19-.276.342-.233.152.042.243.216.206.388-.23 1.043-.964 1.919-1.872 2.231a.262.262 0 0 1-.082.014Z"/>
  <path fill="#061857" d="m217.951 146.88 37.588-11.457c10.155-1.694 18.602-9.725 21.841-20.766 3.776-12.873 4.302-26.79 5.409-43.044l-24.735-12.375-10.904 34.41s-40.863 9.622-56.528 10.481c-6.754.37-26.636 5.331-26.636 5.331l-22.664 49.301-13.297 72.381h77.308l12.618-84.262Z"/>
  <path fill="#061857" d="M130.282 123.166c10.681-10.131 37.69-14.139 37.792-14.01 8.538 10.914-1.225 32.574-10.694 42.452-4.48 4.674-15.457 19.71-25.365 29.468-10.977 10.811-24.516 15.295-37.312 7.465-14.882-9.106-30.519-21.88-34.81-27.111l14.145-29.677 32.139 19.071s18.212-22.068 24.105-27.658ZM218.071 146.782c-.123 0-.236-.093-.271-.235-.472-1.925-.118-4.121.925-5.732 1.042-1.611 2.784-2.653 4.546-2.719.143-.002.286.132.291.309.005.177-.117.325-.273.331-1.592.06-3.167 1.002-4.11 2.458-.942 1.456-1.262 3.442-.835 5.182.041.17-.047.347-.197.394a.246.246 0 0 1-.076.012Z"/>
  <path fill="#061857" d="M139.942 169.805a.247.247 0 0 1-.102-.022c-.146-.064-.217-.25-.161-.415.577-1.683.433-3.694-.378-5.25-.81-1.555-2.295-2.67-3.874-2.909-.154-.024-.263-.185-.242-.36.021-.175.162-.299.317-.275 1.747.265 3.389 1.498 4.285 3.219.896 1.72 1.056 3.946.418 5.807-.044.127-.15.205-.263.205Z"/>
  <path fill="#ABA0F9" d="M158.75 84.022c-1.122-1.495-2.061-3.197-2.357-4.982-.297-1.785.139-3.657 1.397-4.642-2.479-2.174-3.84-5.573-3.928-8.733-.116-4.188 1.727-7.228 2.57-8.515 3.355-5.123 7.24-4.866 15.251-9.567 8.893-5.219 9.45-8.674 12.091-7.862 7.684 2.36 2.564 31.504 2.193 33.183-.124.565-.562 1.784-1.478 2.52-.158.127-.377.197-.692.18-1.671-.085-3.382-.136-4.874.435-.674.259-1.339 3.388-1.597 4.125a69.537 69.537 0 0 0-2.527 9.23c-.333 1.652-.184 2.287-1.92 2.285-5.132-.007-10.705-3.097-14.129-7.657Z"/>
  <path fill="#F3F3F3" d="M176.718 102.162s-14.123-3.548-17.974 2.211c-3.851 5.76-2.891 11.252-2.891 11.252s4.206 10.088 19.476 12.64l3.312-10.949 5.857 6.165s4.253-8.261 1.631-16.131c-1.236-3.71-9.411-5.188-9.411-5.188Z"/>
  <path fill="#0552CE" d="M155.853 115.944c-.132 0-.25-.105-.276-.257-.04-.23-.94-5.701 2.943-11.508 3.915-5.855 17.676-2.477 18.26-2.33.152.038.248.209.214.381-.033.173-.185.282-.336.244-.139-.035-13.991-3.438-17.689 2.092-3.722 5.567-2.848 10.943-2.838 10.997.029.173-.07.341-.223.375a.257.257 0 0 1-.055.006Z"/>
  <path fill="#F3F3F3" d="m169.48 93.148-5.354 15.794s6.931 9.065 18.714 1.274l2.7-11.721s-9.127-10.496-16.06-5.347Z"/>
  <path fill="#0552CE" d="M173.629 113.676c-6.157 0-9.667-4.459-9.716-4.524a.351.351 0 0 1-.05-.325l5.354-15.794a.311.311 0 0 1 .109-.153c7.045-5.231 16.036 4.955 16.415 5.39a.35.35 0 0 1 .072.306l-2.7 11.721a.32.32 0 0 1-.131.196c-3.564 2.357-6.704 3.183-9.353 3.183Zm-9.176-4.806c.431.505 2.075 2.276 4.733 3.34 2.847 1.14 7.48 1.677 13.411-2.204l2.628-11.412c-1.059-1.158-9.273-9.75-15.514-5.234l-5.258 15.51Z"/>
  <path fill="#0552CE" d="M173.785 113.702c-.348 0-.701-.011-1.063-.037-7.56-.523-11.295-7.994-11.332-8.07-.075-.154-.026-.349.11-.435.136-.085.308-.03.384.125.035.072 3.628 7.24 10.872 7.741 7.28.503 11.395-4.451 11.436-4.501a.26.26 0 0 1 .399-.019c.114.12.121.323.015.453-.04.05-3.943 4.743-10.821 4.743Z"/>
  <path fill="#F3F3F3" d="M183.84 62.722s9.504 20.187 9.729 27.107c.298 9.183-12.469 18.059-20.441 5.894 0 0-9.062 1.644-10.07-5.653-.911-6.598 6.716-3.547 7.75-1.237l1.794-.368s-4.845-8.426-4.111-13.228c.734-4.801 15.349-12.515 15.349-12.515Z"/>
  <path fill="#0552CE" d="M182.428 101.993c-3.524 0-6.83-2.041-9.426-5.927-.916.138-5.197.63-7.969-1.654-1.243-1.025-2.002-2.47-2.254-4.292-.385-2.793.703-3.808 1.684-4.168 2.187-.802 5.575.98 6.487 2.526l1.189-.244c-.968-1.764-4.587-8.733-3.926-13.052.751-4.91 14.905-12.433 15.507-12.75.137-.073.298-.01.368.139.39.827 9.538 20.331 9.763 27.246.155 4.783-3.08 9.589-7.692 11.429-1.256.501-2.507.747-3.731.747Zm-9.301-6.59c.089 0 .173.047.227.129 3.349 5.11 7.949 6.972 12.618 5.11 4.314-1.721 7.459-6.364 7.315-10.8-.206-6.339-8.446-24.28-9.571-26.7-1.899 1.03-14.297 7.897-14.947 12.15-.707 4.624 4.021 12.915 4.069 12.998.051.09.06.203.022.301a.29.29 0 0 1-.208.189l-1.794.368c-.125.026-.246-.044-.302-.17-.613-1.37-3.965-3.133-5.919-2.416-1.123.411-1.56 1.575-1.3 3.459.228 1.647.909 2.95 2.027 3.872 2.859 2.358 7.671 1.522 7.719 1.513a.25.25 0 0 1 .044-.004Z"/>
  <path fill="#0552CE" d="M171.727 92.565a.257.257 0 0 1-.127-.035 4.275 4.275 0 0 0-3.537-.34c-.15.052-.307-.043-.353-.211-.045-.17.038-.348.187-.4a4.786 4.786 0 0 1 3.958.38c.139.08.195.272.125.43a.282.282 0 0 1-.253.176Z"/>
</svg>
