<svg xmlns="http://www.w3.org/2000/svg" fill="none" viewBox="0 0 199 197">
  <g clip-path="url(#clip0_123_8791)">
    <path fill="#061857" d="M179.701 85.413h-30.604l21.64-20.854c7.537-7.262 7.537-19.038 0-26.3-7.537-7.264-19.756-7.264-27.293 0l-21.64 20.853V29.62c0-10.271-8.641-18.598-19.299-18.598-10.659 0-19.3 8.327-19.3 18.598v29.492l-21.64-20.854c-7.536-7.263-19.756-7.263-27.292 0-7.537 7.263-7.537 19.039 0 26.301l21.64 20.855H25.309c-10.659 0-19.3 8.326-19.3 18.597 0 10.272 8.641 18.598 19.3 18.598h30.604l-21.64 20.854c-7.537 7.263-7.537 19.038 0 26.301 7.536 7.263 19.756 7.263 27.292 0l21.64-20.854v29.492c0 10.272 8.641 18.598 19.3 18.598 10.658 0 19.299-8.326 19.299-18.598V148.91l21.64 20.854c7.537 7.263 19.757 7.263 27.293 0 7.537-7.263 7.537-19.038 0-26.301l-21.64-20.854h30.604c10.658 0 19.299-8.327 19.299-18.598 0-10.271-8.641-18.597-19.299-18.597Z"/>
    <path fill="#FC6E56" d="M173.691 74.391h-30.604l21.64-20.854c7.537-7.263 7.537-19.038 0-26.301-7.536-7.263-19.756-7.263-27.292 0L115.794 48.09V18.598C115.794 8.326 107.154 0 96.495 0 85.836 0 77.196 8.326 77.196 18.598V48.09l-21.64-20.854c-7.537-7.263-19.757-7.263-27.293 0-7.537 7.263-7.537 19.038 0 26.301l21.64 20.854H19.3C8.641 74.391 0 82.718 0 92.99c0 10.271 8.64 18.598 19.299 18.598h30.604l-21.64 20.854c-7.537 7.263-7.537 19.038 0 26.301 7.537 7.263 19.756 7.263 27.293 0l21.64-20.854v29.492c0 10.271 8.64 18.598 19.299 18.598 10.659 0 19.299-8.327 19.299-18.598v-29.492l21.641 20.854c7.536 7.263 19.756 7.263 27.292 0 7.537-7.263 7.537-19.039 0-26.301l-21.64-20.855h30.604c10.659 0 19.299-8.326 19.299-18.597 0-10.272-8.64-18.598-19.299-18.598Z"/>
  </g>
  <defs>
    <clipPath id="clip0_123_8791">
      <path fill="#fff" d="M0 0h199v197H0z"/>
    </clipPath>
  </defs>
</svg>
