<svg xmlns="http://www.w3.org/2000/svg" fill="none" viewBox="0 0 329 247">
  <g clip-path="url(#clip0_123_9441)">
    <path fill="#0552CE" d="M233.783 0H33.899C15.501 0 .585 13.823.585 30.875v185.25C.585 233.177 15.501 247 33.9 247h199.884c18.399 0 33.314-13.823 33.314-30.875V30.875C267.097 13.823 252.182 0 233.783 0Z"/>
  </g>
  <g clip-path="url(#clip1_123_9441)">
    <path fill="#05143F" d="M310.731 166.358h-46.277a.243.243 0 1 1 0-.485h46.034V141.02a.243.243 0 0 1 .486 0v25.095a.243.243 0 0 1-.243.243Z"/>
    <path fill="#F3F3F3" d="M310.74 119.387a3.296 3.296 0 1 0-.02-6.591 3.296 3.296 0 0 0 .02 6.591Z"/>
    <path fill="#05143F" d="M310.731 119.633a3.543 3.543 0 0 1-3.539-3.539 3.542 3.542 0 0 1 3.539-3.539 3.542 3.542 0 0 1 3.538 3.539 3.543 3.543 0 0 1-3.538 3.539Zm0-6.593a3.057 3.057 0 0 0-3.053 3.054 3.056 3.056 0 0 0 3.053 3.053 3.057 3.057 0 0 0 3.053-3.053 3.057 3.057 0 0 0-3.053-3.054Z"/>
    <path fill="#F3F3F3" d="M310.74 129.006a3.296 3.296 0 1 0-.02-6.591 3.296 3.296 0 0 0 .02 6.591Z"/>
    <path fill="#05143F" d="M310.731 129.25a3.543 3.543 0 0 1-3.539-3.539 3.542 3.542 0 0 1 3.539-3.539 3.542 3.542 0 0 1 3.538 3.539 3.543 3.543 0 0 1-3.538 3.539Zm0-6.593a3.057 3.057 0 0 0-3.053 3.054 3.056 3.056 0 0 0 3.053 3.053 3.057 3.057 0 0 0 3.053-3.053 3.057 3.057 0 0 0-3.053-3.054Z"/>
    <path fill="#F3F3F3" d="M310.74 138.625a3.295 3.295 0 1 0-.017-6.59 3.295 3.295 0 0 0 .017 6.59Z"/>
    <path fill="#05143F" d="M310.731 138.869a3.543 3.543 0 0 1-3.539-3.539 3.543 3.543 0 0 1 3.539-3.539 3.543 3.543 0 0 1 3.538 3.539 3.543 3.543 0 0 1-3.538 3.539Zm0-6.592a3.056 3.056 0 0 0-3.053 3.053 3.056 3.056 0 0 0 3.053 3.053 3.056 3.056 0 0 0 3.053-3.053 3.056 3.056 0 0 0-3.053-3.053ZM310.731 111.398a.242.242 0 0 1-.243-.242v-28.06a.243.243 0 0 1 .486 0v28.06a.242.242 0 0 1-.243.242Z"/>
    <path fill="#F3F3F3" d="M63.572 60.566H248.7c4.655 0 8.434 3.778 8.434 8.432v100.127c0 4.653-3.779 8.431-8.434 8.431H63.571c-4.654 0-8.433-3.778-8.433-8.431V68.998c0-4.654 3.779-8.432 8.434-8.432Z"/>
    <path fill="#05143F" d="M248.701 177.8H63.571c-4.784 0-8.676-3.892-8.676-8.674V68.998c0-4.783 3.892-8.674 8.677-8.674H248.7c4.784 0 8.677 3.891 8.677 8.674v100.128c0 4.782-3.893 8.674-8.677 8.674ZM63.571 60.81c-4.516 0-8.19 3.673-8.19 8.188v100.128c0 4.515 3.674 8.188 8.19 8.188h185.13c4.516 0 8.191-3.673 8.191-8.188V68.998c0-4.515-3.675-8.188-8.191-8.188H63.571Z"/>
    <path fill="#F3F3F3" d="M246.697 67.326H65.575a3.887 3.887 0 0 0-3.887 3.886v95.698a3.887 3.887 0 0 0 3.887 3.886h181.122a3.887 3.887 0 0 0 3.888-3.886V71.212a3.887 3.887 0 0 0-3.888-3.886Z"/>
    <path fill="#05143F" d="M246.698 171.039H65.575a4.134 4.134 0 0 1-4.13-4.129V71.213a4.134 4.134 0 0 1 4.13-4.129h181.123a4.134 4.134 0 0 1 4.13 4.129v95.697a4.134 4.134 0 0 1-4.13 4.129ZM65.575 67.569a3.648 3.648 0 0 0-3.644 3.644v95.697a3.648 3.648 0 0 0 3.645 3.644h181.122a3.649 3.649 0 0 0 3.644-3.644V71.213a3.648 3.648 0 0 0-3.644-3.643H65.575Z"/>
    <path fill="#F3F3F3" d="M269.877 200.009H42.395c-5.595 0-10.68-1.6-13.02-4.096l-3.27-3.489h260.063l-3.271 3.489c-2.34 2.496-7.424 4.096-13.02 4.096Z"/>
    <path fill="#05143F" d="M269.877 200.252H42.396c-5.641 0-10.822-1.638-13.198-4.172l-3.27-3.49a.241.241 0 0 1 .177-.408h260.063a.242.242 0 0 1 .177.408l-3.271 3.49c-2.376 2.534-7.556 4.172-13.197 4.172Zm-243.212-7.585 2.888 3.08c2.288 2.442 7.33 4.019 12.843 4.019h227.481c5.513 0 10.554-1.577 12.843-4.019l2.888-3.08H26.665Z"/>
    <path fill="#F3F3F3" d="M286.159 192.463H26.114l37.921-15.106h184.202l37.922 15.106Z"/>
    <path fill="#05143F" d="M286.159 192.706H26.114a.242.242 0 0 1-.09-.468l37.922-15.106a.25.25 0 0 1 .09-.017h184.201c.031 0 .062.006.09.017l37.922 15.106a.242.242 0 0 1-.09.468Zm-258.78-.485h257.514l-36.702-14.62H64.082l-36.702 14.62Z"/>
    <path fill="#C4E3F7" d="M210.177 190.317H102.096l15.761-6.278h76.559l15.761 6.278Z"/>
    <path fill="#F3F3F3" d="M211.893 130.401c11.801-7.202 15.535-22.593 8.34-34.376-7.196-11.784-22.596-15.499-34.397-8.297-11.802 7.202-15.536 22.592-8.34 34.376 7.195 11.784 22.595 15.498 34.397 8.297Z"/>
    <path fill="#05143F" d="M198.885 134.322c-1.99 0-3.993-.236-5.976-.714-6.559-1.583-12.107-5.624-15.621-11.378-7.253-11.88-3.475-27.45 8.422-34.71 11.898-7.259 27.478-3.5 34.731 8.38 3.514 5.754 4.573 12.533 2.982 19.089-1.591 6.556-5.641 12.103-11.404 15.619-4.022 2.454-8.541 3.714-13.134 3.714Zm-.035-50.014c-4.403 0-8.86 1.17-12.887 3.627-11.668 7.12-15.374 22.391-8.26 34.042 3.446 5.644 8.887 9.606 15.32 11.159 6.434 1.552 13.09.507 18.743-2.942 5.652-3.449 9.625-8.89 11.185-15.319 1.56-6.43.521-13.079-2.925-18.723-4.659-7.63-12.82-11.844-21.176-11.844Z"/>
    <path fill="#BEE00F" d="M198.938 137.93c13.025.069 24.876-8.772 28.111-21.974l-28.105-6.798s.046 23.987-.006 28.772Z"/>
    <path fill="#F3F3F3" d="M171.798 114.225c-1.403-7.129.184-14.427 4.151-20.268a30324.74 30324.74 0 0 1 22.218 15.27s-21.993 4.121-26.369 4.998Z"/>
    <path fill="#05143F" d="M171.798 114.467a.246.246 0 0 1-.239-.196c-1.384-7.038.142-14.493 4.189-20.452a.241.241 0 0 1 .338-.064c5.389 3.695 22.051 15.155 22.219 15.271a.242.242 0 0 1-.093.438c-.22.041-22.042 4.131-26.366 4.998a.26.26 0 0 1-.048.005Zm4.216-20.172c-3.828 5.75-5.288 12.881-4.024 19.643 4.386-.871 22.127-4.2 25.558-4.843-2.75-1.892-16.488-11.34-21.534-14.8ZM220.059 157.65a2.872 2.872 0 1 0 0-5.744 2.872 2.872 0 0 0 0 5.744ZM211.674 157.65a2.873 2.873 0 1 0 0-5.746 2.873 2.873 0 0 0 0 5.746ZM203.289 157.65a2.872 2.872 0 1 0 .001-5.745 2.872 2.872 0 0 0-.001 5.745ZM196.159 155.013h-24.863a.24.24 0 0 1-.211-.122.24.24 0 0 1 .002-.244l16.001-27.04a.243.243 0 1 1 .418.248l-15.785 26.673h24.438a.243.243 0 1 1 0 .485Z"/>
    <path fill="#C4E3F7" d="M89.497 85.42h-7.909v38.332h7.91V85.42ZM102.755 85.42h-7.908v38.332h7.908V85.42ZM116.014 85.42h-7.909v38.332h7.909V85.42ZM129.273 85.42h-7.909v38.332h7.909V85.42ZM142.532 85.42h-7.909v38.332h7.909V85.42ZM155.79 85.42h-7.909v38.332h7.909V85.42Z"/>
    <path fill="#05143F" d="M89.497 102.611h-7.909v16.056h7.91v-16.056ZM102.755 97.736h-7.908v20.932h7.908V97.736ZM116.014 90.504h-7.909v28.165h7.909V90.504ZM129.273 102.611h-7.909v16.056h7.909v-16.056ZM142.532 96.666h-7.909v22.001h7.909V96.666ZM155.79 101.43h-7.909v17.238h7.909V101.43Z"/>
    <path fill="#F3F3F3" d="M328.493 78.528v-55.67h-97.996v55.67h97.996Z"/>
    <path fill="#05143F" d="M328.493 78.772h-97.996a.243.243 0 0 1-.243-.243V22.858c0-.134.109-.243.243-.243h97.996c.135 0 .243.109.243.243v55.671a.242.242 0 0 1-.243.243Zm-97.753-.486h97.511V23.101H230.74v55.185Z"/>
    <path fill="#CFF558" d="M258.768 72.926c12.151 0 22.002-9.847 22.002-21.995 0-12.148-9.851-21.995-22.002-21.995-12.152 0-22.003 9.847-22.003 21.995 0 12.148 9.851 21.995 22.003 21.995Z"/>
    <path fill="#05143F" d="M262.583 28.24c7.856 1.326 14.707 6.844 17.309 14.91l-21.068 6.792 3.759-21.702Z"/>
    <path fill="#F3F3F3" d="M264.014 59.966c5.066-2.897 6.823-9.35 3.926-14.414-2.898-5.064-9.353-6.82-14.419-3.924-5.065 2.897-6.822 9.35-3.925 14.414 2.898 5.063 9.353 6.82 14.418 3.924Z"/>
    <path fill="#C4E3F7" d="M291.764 46.137h-5.048V72.65h5.048V46.137ZM299.437 57.637h-5.048V72.65h5.048V57.637ZM307.11 39.092h-5.048V72.65h5.048v-33.56ZM314.783 46.137h-5.048V72.65h5.048V46.137ZM322.456 33.998h-5.048v38.653h5.048V33.998Z"/>
    <path fill="#F3F3F3" d="M292.465 49.39h-82.628a3.126 3.126 0 0 0-3.127 3.126v49.492c0 1.727 1.4 3.126 3.127 3.126h82.628a3.126 3.126 0 0 0 3.126-3.126V52.516c0-1.726-1.4-3.125-3.126-3.125Z"/>
    <path fill="#05143F" d="M292.465 105.378h-82.628a3.374 3.374 0 0 1-3.37-3.369V52.517a3.373 3.373 0 0 1 3.37-3.369h82.628a3.372 3.372 0 0 1 3.369 3.369v49.492a3.373 3.373 0 0 1-3.369 3.369Zm-82.628-55.744a2.887 2.887 0 0 0-2.884 2.883v49.492a2.887 2.887 0 0 0 2.884 2.883h82.628a2.887 2.887 0 0 0 2.884-2.883V52.517a2.887 2.887 0 0 0-2.884-2.883h-82.628Z"/>
    <path fill="#05143F" d="M295.592 58.884H206.71a.243.243 0 0 1 0-.486h88.882c.134 0 .242.11.242.243a.242.242 0 0 1-.242.243ZM214.966 56.37c-1.106 0-2.006-.899-2.006-2.004s.9-2.005 2.006-2.005c1.105 0 2.005.9 2.005 2.005s-.9 2.004-2.005 2.004Zm0-3.523c-.838 0-1.52.681-1.52 1.519a1.52 1.52 0 0 0 3.039 0 1.52 1.52 0 0 0-1.519-1.52ZM220.109 56.37c-1.106 0-2.005-.899-2.005-2.004s.899-2.005 2.005-2.005c1.105 0 2.005.9 2.005 2.005s-.9 2.004-2.005 2.004Zm0-3.523c-.838 0-1.52.681-1.52 1.519a1.52 1.52 0 0 0 3.039 0 1.52 1.52 0 0 0-1.519-1.52ZM225.252 56.127a1.762 1.762 0 1 0 0-3.524 1.762 1.762 0 0 0 0 3.524Z"/>
    <path fill="#C4E3F7" d="M286.931 62.494H221.23V97.52h65.701V62.494Z"/>
    <path fill="#05143F" d="M285.838 102.224h-70.467a.243.243 0 0 1-.243-.243V68.309a.243.243 0 0 1 .486 0v33.429h70.224a.243.243 0 0 1 0 .486Z"/>
    <path fill="#05143F" d="M224.535 100.278H218.3a.242.242 0 0 1-.242-.243V77.409c0-.134.108-.243.242-.243h6.235c.134 0 .242.109.242.243v22.626a.242.242 0 0 1-.242.243Zm-5.992-.486h5.749v-22.14h-5.749v22.14ZM234.347 100.277h-6.234a.242.242 0 0 1-.243-.242V87.878c0-.135.109-.243.243-.243h6.234c.134 0 .243.108.243.243v12.157a.242.242 0 0 1-.243.242Zm-5.991-.485h5.748V88.12h-5.748v11.672ZM244.16 100.278h-6.234a.243.243 0 0 1-.243-.243V83.147c0-.134.109-.243.243-.243h6.234c.134 0 .243.109.243.243v16.888a.243.243 0 0 1-.243.243Zm-5.991-.486h5.748V83.39h-5.748v16.402ZM253.973 100.278h-6.234a.243.243 0 0 1-.243-.243V75.747c0-.134.109-.243.243-.243h6.234c.134 0 .243.109.243.243v24.288a.243.243 0 0 1-.243.243Zm-5.991-.486h5.748V75.99h-5.748v23.802ZM263.629 100.279h-5.92a.243.243 0 0 1-.243-.243v-29.37c0-.133.109-.242.243-.242h5.92c.134 0 .243.108.243.243v29.369a.243.243 0 0 1-.243.243Zm-5.677-.486h5.434V70.909h-5.434v28.884ZM273.599 100.277h-6.235a.242.242 0 0 1-.242-.243V69.106c0-.134.108-.243.242-.243h6.235c.134 0 .242.109.242.243v30.928a.242.242 0 0 1-.242.243Zm-5.992-.485h5.749V69.349h-5.749v30.443ZM283.412 100.278h-6.235a.242.242 0 0 1-.242-.243V72.96c0-.134.108-.243.242-.243h6.235c.134 0 .242.109.242.243v27.075a.242.242 0 0 1-.242.243Zm-5.992-.486h5.749v-26.59h-5.749v26.59ZM102.312 190.242h-.001l-7.904-.03a.242.242 0 1 1 0-.485h.002l7.904.03a.242.242 0 1 1-.001.485Z"/>
    <path fill="#FC6E56" d="M157.624 221.458c-8.456-10.388-32.527-39.861-32.527-39.861l3.82-7.693c6.283-10.608-2.479-23.776-14.694-22.082l-28.97 4.016-12.901 1.968-31.283.889c-5.097 20.279 7.141 26.744 13.748 28.727 7.42 2.974 25.657 2.899 34.026 2.689a6.398 6.398 0 0 0 .05 6.223c3.577 6.275 11.156 16.319 15.041 21.353.962 1.246 2.94.816 3.3-.717l4.045-10.933 9.262 9.866c2.49 3.348 6.651 5.854 10.629 6.376l24.831 2.088c1.61.211 2.648-1.65 1.623-2.909Z"/>
    <path fill="#05143F" d="M110.264 205.647a.24.24 0 0 1-.173-.073l-14.8-14.986-5.715-.009a.243.243 0 1 1 0-.485l5.817.008c.065 0 .127.026.173.072l14.871 15.059a.244.244 0 0 1-.173.414ZM129.277 215.581c-2.33 0-4.726-.145-7.101-.501a.244.244 0 0 1-.205-.276.244.244 0 0 1 .277-.204c12.607 1.89 25.875-2.227 26.008-2.268a.243.243 0 1 1 .146.463c-.108.034-8.975 2.786-19.125 2.786ZM124.609 180.933a.244.244 0 0 1-.19-.092l-8.487-10.605a20.613 20.613 0 0 0-17.675-7.679l-36.862 2.812a.243.243 0 1 1-.037-.484l36.862-2.812a21.1 21.1 0 0 1 18.091 7.859l8.488 10.606a.244.244 0 0 1-.19.395Z"/>
    <path fill="#F3F3F3" d="m44.068 165.457 9.223-40.829s17.036-.347 23.022 1.006c0 0 3.081 25.201 3.389 31.167l-35.634 8.656Z"/>
    <path fill="#F3F3F3" d="M87.359 155.426s-5.081-28.988-11.046-29.791l.971 29.791H87.36Z"/>
    <path fill="#05143F" d="M87.359 155.667H77.285a.242.242 0 0 1-.243-.234l-.45-13.543a.243.243 0 0 1 .486-.016l.442 13.308h9.548c-.546-3.002-5.354-28.552-10.789-29.308a.243.243 0 0 1 .067-.481c6.093.847 11.044 28.8 11.252 29.99a.242.242 0 0 1-.24.284Z"/>
    <path fill="#05143F" d="M112.071 156.472h-46.18v-1.39c0-1.223.991-2.215 2.215-2.215h47.212l-.379 1.408a2.97 2.97 0 0 1-2.868 2.197Z"/>
    <path fill="#05143F" d="M113.388 154.841H85.527a1.831 1.831 0 0 1-1.778-2.272l5.266-21.235a1.832 1.832 0 0 1 1.778-1.391h27.861a1.832 1.832 0 0 1 1.778 2.272l-5.266 21.235a1.832 1.832 0 0 1-1.778 1.391Z"/>
    <path fill="#F3F3F3" d="M104.021 139.052a.92.92 0 1 0-.18-1.83.92.92 0 0 0 .18 1.83Z"/>
    <path fill="#05143F" d="m76.313 125.877-.025-.001-8.33-.849a.243.243 0 1 1 .05-.483l8.33.849a.243.243 0 0 1-.025.484Z"/>
    <path fill="#05143F" d="M63.788 134.751a.248.248 0 0 1-.046-.004c-.365-.058-1.278-1.334-4.652-6.5-.965-1.479-1.963-3.006-2.157-3.216a.242.242 0 0 1 .128-.449c.204 0 .216 0 2.436 3.399 1.37 2.098 3.595 5.505 4.243 6.191.32-.64 1.172-3.112 1.89-5.388a.242.242 0 0 1 .433-.062c1.24 1.859 2.648 3.892 3.212 4.593.208-1.227.51-5.489.67-8.211a.241.241 0 0 1 .257-.228.242.242 0 0 1 .228.256c-.502 8.544-.784 8.751-.89 8.829a.28.28 0 0 1-.218.044c-.102-.026-.368-.093-3.382-4.593-.574 1.8-1.631 5-1.98 5.28a.27.27 0 0 1-.172.059Z"/>
    <path fill="#F3F3F3" d="M75.286 152.869s-5.084-8.707-12.029-6.131c-6.944 2.576-16.844 8.765-16.844 8.765s9.14-24.82 6.878-30.874c0 0-11.972 3.593-17.51 21.485-5.537 17.891 2.723 23.969 8.583 24.075 5.86.105 20.551-15.354 22.868-15.347l8.054-1.973Z"/>
    <path fill="#05143F" d="M40.056 169.296a.243.243 0 0 1-.113-.028c-2.993-1.584-9.411-7.017-4.394-23.228 2.878-9.297 7.519-14.683 10.906-17.564 3.682-3.132 6.641-4.044 6.766-4.081a.236.236 0 0 1 .072-.01l6.662.059a.243.243 0 0 1 .241.245c-.001.134-.12.238-.245.241l-6.624-.059c-.337.11-3.178 1.094-6.58 3.993-3.33 2.839-7.895 8.148-10.734 17.32-4.91 15.863 1.271 21.128 4.157 22.655a.243.243 0 0 1-.114.457Z"/>
    <path fill="#05143F" d="M57.771 162.263a.242.242 0 0 1-.155-.43c.865-.715 1.71-1.424 2.519-2.102 3.863-3.242 6.113-5.092 7.065-5.132l7.701-1.887c-.942-1.448-5.586-7.962-11.56-5.747-6.841 2.538-16.7 8.681-16.8 8.743a.242.242 0 0 1-.356-.29c.019-.052 1.933-5.262 3.769-11.401a.243.243 0 1 1 .465.139 222.957 222.957 0 0 1-3.541 10.775c2.244-1.369 10.38-6.227 16.295-8.421 7.054-2.617 12.27 6.147 12.322 6.236a.242.242 0 0 1-.152.358l-8.053 1.973a.225.225 0 0 1-.059.007h-.001c-.802 0-3.707 2.438-6.783 5.019-.81.679-1.655 1.389-2.521 2.105a.244.244 0 0 1-.155.055Z"/>
    <path fill="#05143F" d="M69.043 153.833a.243.243 0 0 1-.23-.163 5.014 5.014 0 0 0-2.675-2.896.243.243 0 0 1 .195-.445 5.51 5.51 0 0 1 2.94 3.181.243.243 0 0 1-.23.323ZM71.574 153.325a.243.243 0 0 1-.233-.173 5.894 5.894 0 0 0-3.093-3.592.242.242 0 1 1 .207-.439 6.381 6.381 0 0 1 3.352 3.892.242.242 0 0 1-.233.312Z"/>
    <path fill="#05143F" d="M65.89 156.472v-1.39c0-1.223.992-2.215 2.216-2.215h9.178l-11.393 3.605ZM42.788 158.204a.243.243 0 0 1-.136-.444l3.625-2.458a.242.242 0 1 1 .272.401l-3.625 2.459a.244.244 0 0 1-.136.042ZM63.258 157.516a.242.242 0 0 1-.226-.152l-3.576-8.874a.243.243 0 0 1 .45-.182l3.577 8.875a.243.243 0 0 1-.225.333ZM63.983 118.944s-1.82.82-2.426-.638c-1.087-2.612-3.703-3.317-4.724-6.252-1.022-2.935.127-9.825 3.192-8.932 0 0 2.17-3.828 5.107-4.721 2.936-.894 3.957 1.53 3.957 1.53s3.703-2.168 6.64-1.147c2.936 1.02 1.265 5.728 1.265 5.728s2.815.223 2.82 3.714c.005 3.755-4.626 5.781-7.563 6.802-2.936 1.021-8.269 3.916-8.269 3.916Z"/>
    <path fill="#F3F3F3" d="m63.957 114.543-4.004 10.145 5.908 4.17 2.121-4.072 2.432-6.956-6.457-3.287Z"/>
    <path fill="#05143F" d="M65.861 129.099a.243.243 0 0 1-.14-.044l-5.908-4.17a.243.243 0 0 1-.086-.288l4.005-10.144a.24.24 0 0 1 .14-.138.24.24 0 0 1 .195.01l6.457 3.287c.109.055.16.182.12.297l-2.432 6.956a.276.276 0 0 1-.014.032l-2.121 4.071a.24.24 0 0 1-.216.131Zm-5.612-4.501 5.525 3.9 1.985-3.81 2.356-6.739-6.03-3.07-3.836 9.719Z"/>
    <path fill="#F3F3F3" d="M75.42 113.724c-.147 1.542-.578 3.087-1.473 4.351-.894 1.265-2.293 2.221-3.836 2.358-1.338.119-2.688-.384-3.738-1.22-1.051-.837-1.822-1.985-2.369-3.212-1.402.091-2.803-.876-3.214-2.219-.237-.775-.139-1.688.405-2.288.544-.601 1.572-.76 2.182-.227.348.303.524.772.884 1.061.402.322.978.362 1.468.203.49-.159.903-.493 1.263-.862a6.782 6.782 0 0 0 1.897-4.362c-.007.153.694.585.817.67.31.213.637.398.978.555a6.819 6.819 0 0 0 3.257.607c.298-.019.721-.175 1.01-.097.604.165.472 1.313.497 1.778.051.967.065 1.939-.028 2.904Z"/>
    <path fill="#05143F" d="M69.725 120.694c-1.203 0-2.459-.459-3.504-1.291-.958-.762-1.755-1.822-2.37-3.152-1.466.015-2.862-.99-3.293-2.397-.285-.93-.11-1.897.457-2.523.66-.728 1.839-.843 2.522-.247.19.167.329.366.462.559.131.189.255.368.414.496.31.248.785.31 1.24.162.384-.125.754-.379 1.165-.801a6.554 6.554 0 0 0 1.829-4.204.242.242 0 0 1 .479-.046c.046.058.197.186.63.47.04.025.07.045.088.058a6.4 6.4 0 0 0 .942.534 6.591 6.591 0 0 0 3.14.585c.088-.005.2-.027.316-.05.249-.049.53-.104.773-.038.679.184.675 1.106.672 1.717 0 .108-.001.205.003.282.062 1.158.053 2.092-.028 2.94-.17 1.783-.68 3.286-1.516 4.468-.994 1.405-2.494 2.325-4.013 2.46a4.6 4.6 0 0 1-.408.018Zm-5.72-4.935c.095 0 .182.056.221.144.593 1.329 1.366 2.378 2.298 3.12 1.067.849 2.366 1.275 3.566 1.169 1.379-.122 2.747-.966 3.66-2.256.785-1.112 1.266-2.537 1.429-4.234.078-.824.087-1.735.026-2.868a5.9 5.9 0 0 1-.004-.311c.002-.433.005-1.159-.314-1.246-.132-.036-.355.008-.55.046-.128.025-.26.051-.38.059a6.995 6.995 0 0 1-3.374-.629 6.814 6.814 0 0 1-1.015-.575l-.078-.052a9.497 9.497 0 0 1-.405-.277 7.06 7.06 0 0 1-1.92 3.99c-.467.48-.9.773-1.36.924-.611.198-1.26.104-1.696-.245-.214-.172-.364-.389-.51-.598-.121-.177-.237-.344-.381-.47-.484-.422-1.362-.323-1.843.207-.445.493-.584 1.299-.352 2.054.377 1.233 1.68 2.131 2.965 2.049l.016-.001Z"/>
    <path fill="#05143F" d="M63.957 114.786a.243.243 0 0 1-.24-.204 1.67 1.67 0 0 0-1.244-1.327.243.243 0 0 1 .11-.473c.815.188 1.479.896 1.614 1.722a.242.242 0 0 1-.24.282Z"/>
  </g>
  <defs>
    <clipPath id="clip0_123_9441">
      <path fill="#fff" d="M.585 0h266.512v247H.585z"/>
    </clipPath>
    <clipPath id="clip1_123_9441">
      <path fill="#fff" d="M25.862 22.615h302.874v201.768H25.862z"/>
    </clipPath>
  </defs>
</svg>
