<svg xmlns="http://www.w3.org/2000/svg" fill="none" viewBox="0 0 335 223">
  <path fill="#fff" d="M334.367 17.552h-28.288v28.212h28.288V17.552Z"/>
  <path fill="#05143F" d="M334.367 46.032h-28.288a.268.268 0 0 1-.269-.268V17.552c0-.148.12-.268.269-.268h28.288c.149 0 .269.12.269.268v28.212c0 .148-.12.268-.269.268Zm-28.019-.536h27.75V17.82h-27.75v27.676Z"/>
  <path fill="#CFF558" d="M310.728 31.648a4.572 4.572 0 0 0 4.568 4.576 4.578 4.578 0 0 0 4.387-3.228l5.316.011.002-1.247.993.002-.002 1.247 1.431.003.002-1.247.993.002-.003 1.247 1.297.003.006-2.966-10.147-.043a4.575 4.575 0 0 0-4.256-2.916 4.572 4.572 0 0 0-4.587 4.556Zm2.824-.656c.32.309.329.818.019 1.138a.808.808 0 0 1-1.141.019.803.803 0 0 1-.019-1.138.809.809 0 0 1 1.141-.02Z"/>
  <path fill="#fff" d="M334.367 56.91h-28.288v28.213h28.288V56.91Z"/>
  <path fill="#05143F" d="M334.367 85.39h-28.288a.268.268 0 0 1-.269-.267V56.91c0-.148.12-.268.269-.268h28.288c.149 0 .269.12.269.268v28.213c0 .148-.12.268-.269.268Zm-28.019-.536h27.75V57.18h-27.75v27.675Z"/>
  <path fill="#CFF558" d="M320.263 79.206c4.535-.023 8.193-3.707 8.171-8.23-.022-4.522-3.716-8.17-8.251-8.148-4.535.022-8.193 3.706-8.171 8.228.022 4.523 3.716 8.172 8.251 8.15Z"/>
  <path fill="#fff" d="M320.222 77.722a6.687 6.687 0 0 1-4.744-1.954 6.653 6.653 0 0 1-1.98-4.738c-.007-3.697 3.003-6.711 6.711-6.719 3.702-.013 6.731 2.995 6.738 6.692a6.648 6.648 0 0 1-1.96 4.745 6.687 6.687 0 0 1-4.751 1.974h-.014Zm.001-12.874h-.013c-3.411.007-6.181 2.78-6.174 6.181a6.122 6.122 0 0 0 1.821 4.359 6.196 6.196 0 0 0 4.378 1.797 6.154 6.154 0 0 0 4.371-1.815 6.118 6.118 0 0 0 1.804-4.366c-.007-3.397-2.782-6.156-6.187-6.156Z"/>
  <path fill="#fff" d="m319.811 76.102-.003-1.25c-.72-.012-1.466-.233-1.902-.542l.297-.83c.448.296 1.094.53 1.79.529.882-.002 1.477-.511 1.476-1.217-.002-.682-.487-1.102-1.407-1.472-1.268-.492-2.052-1.06-2.054-2.138-.002-1.029.729-1.81 1.872-1.999l-.003-1.25.77-.002.003 1.201c.745.024 1.255.22 1.616.43l-.309.819a3.01 3.01 0 0 0-1.566-.418c-.957.002-1.316.572-1.315 1.068.001.644.462.965 1.543 1.409 1.281.517 1.928 1.16 1.93 2.263.002.978-.679 1.896-1.958 2.11l.003 1.288-.783.001ZM334.367 96.27h-28.288v28.212h28.288V96.269Z"/>
  <path fill="#05143F" d="M334.367 124.75h-28.288a.268.268 0 0 1-.269-.268V96.269c0-.148.12-.268.269-.268h28.288c.149 0 .269.12.269.268v28.213c0 .148-.12.268-.269.268Zm-28.019-.537h27.75V96.538h-27.75v27.675Z"/>
  <path fill="#CFF558" d="M315.514 103.541s-2.07.112-2.221 2.14c-.151 2.027 0 11.599 0 11.599s11.744-.038 11.744 0v-12.951l-9.523-.788Z"/>
  <path fill="#CFF558" d="M325.037 117.548a.215.215 0 0 1-.045-.004c-.466-.026-8.582-.006-11.698.004a.27.27 0 0 1-.27-.264c-.006-.391-.149-9.607.001-11.623.133-1.79 1.676-2.345 2.474-2.388a.151.151 0 0 1 .037.001l9.523.788a.27.27 0 0 1 .247.267v12.951a.269.269 0 0 1-.269.268Zm-3.124-.558c1.633 0 2.443.007 2.855.024v-12.438l-9.256-.766c-.197.016-1.825.199-1.951 1.89-.134 1.804-.026 9.753-.003 11.311 4.019-.013 6.641-.021 8.355-.021Z"/>
  <path fill="#fff" d="M315.514 103.541s1.995.225 2.183 2.703h9.523s-.167-2.773-2.634-2.773c-1.77 0-9.072.07-9.072.07Z"/>
  <path fill="#CFF558" d="M327.22 106.512h-9.523a.268.268 0 0 1-.268-.248c-.169-2.215-1.874-2.448-1.947-2.457a.267.267 0 0 1 .029-.534c.073-.001 7.324-.07 9.075-.07 2.152 0 2.839 1.978 2.902 3.025a.267.267 0 0 1-.073.199.266.266 0 0 1-.195.085Zm-9.28-.537h8.975c-.114-.662-.57-2.236-2.329-2.236-1.304 0-5.668.039-7.832.059.519.385 1.04 1.047 1.186 2.177Z"/>
  <path fill="#fff" d="M323.159 108.314h-8.055a.268.268 0 1 1 0-.537h8.055a.27.27 0 0 1 0 .537ZM320.595 110.641h-5.491a.268.268 0 1 1 0-.536h5.491a.268.268 0 1 1 0 .536ZM323.159 110.641H321.8a.268.268 0 1 1 0-.536h1.359c.148 0 .269.12.269.268a.269.269 0 0 1-.269.268ZM321.837 112.968h-6.733a.268.268 0 1 1 0-.536h6.733a.268.268 0 1 1 0 .536ZM319.466 115.145h-4.362a.268.268 0 1 1 0-.536h4.362c.148 0 .269.12.269.268a.269.269 0 0 1-.269.268ZM251.772 164.945h-44.708l.137-119.185 21.811-25.785 22.76 26.227v118.743Z"/>
  <path fill="#05143F" d="M251.772 165.213h-44.708a.267.267 0 0 1-.268-.268l.137-119.185c0-.063.022-.125.063-.173l21.81-25.785a.27.27 0 0 1 .204-.095.25.25 0 0 1 .205.092l22.761 26.228a.269.269 0 0 1 .065.175v118.743c0 .148-.12.268-.269.268Zm-44.438-.536h44.169V46.302l-22.489-25.914-21.544 25.47-.136 118.819Z"/>
  <path fill="#fff" d="M207.311 164.945H72.241V44.669l24.02-18.049 111.05-.205v138.53Z"/>
  <path fill="#05143F" d="M207.311 165.213H72.241a.268.268 0 0 1-.268-.268V44.669c0-.084.04-.163.107-.214L96.1 26.406a.27.27 0 0 1 .161-.054l111.049-.205a.27.27 0 0 1 .27.268v138.53a.268.268 0 0 1-.269.268Zm-134.8-.536h134.531V26.684l-110.69.204-23.841 17.915v119.874Z"/>
  <path fill="#0552CE" d="M207.864 45.76H65.684l24.588-26.1H229.75l-21.885 26.1Z"/>
  <path fill="#fff" d="M158.858 164.981h-42.014V45.634l21.278-18.717 20.736 18.717V164.98Z"/>
  <path fill="#05143F" d="M158.858 165.249h-42.014a.268.268 0 0 1-.269-.268V45.634a.269.269 0 0 1 .538 0v119.079h41.476V45.633a.269.269 0 0 1 .538 0v119.348c0 .148-.12.268-.269.268Z"/>
  <path fill="#C4E3F7" d="M231.668 45.934h.308c4.68 0 8.479 3.79 8.479 8.456v24.445h-17.266V54.39c0-4.667 3.8-8.456 8.479-8.456Z"/>
  <path fill="#fff" d="M198.767 108.437h-30.114v56.544h30.114v-56.544Z"/>
  <path fill="#05143F" d="M198.767 165.249h-30.114a.269.269 0 0 1-.269-.268v-56.544c0-.148.121-.268.269-.268h30.114c.149 0 .269.12.269.268v56.544c0 .148-.12.268-.269.268Zm-29.845-.536h29.576v-56.008h-29.576v56.008Z"/>
  <path fill="#0552CE" d="m218.009 103.887-34.121-19.87-34.118 19.868c.918-.236 67.315-.233 68.239.002Z"/>
  <path fill="#fff" d="M215.598 165.008h-63.419v3.982h63.419v-3.982Z"/>
  <path fill="#05143F" d="M215.598 169.258h-63.419a.27.27 0 0 1-.269-.269v-3.981a.27.27 0 0 1 .269-.269h63.419a.27.27 0 0 1 .269.269v3.981a.27.27 0 0 1-.269.269Zm-63.15-.537h62.881v-3.445h-62.881v3.445Z"/>
  <path fill="#fff" d="M221.833 168.842h-75.89v3.982h75.89v-3.982Z"/>
  <path fill="#05143F" d="M221.833 173.092h-75.89a.269.269 0 0 1-.269-.268v-3.982c0-.148.121-.268.269-.268h75.89c.149 0 .269.12.269.268v3.982c0 .148-.12.268-.269.268Zm-75.621-.536h75.352v-3.446h-75.352v3.446Z"/>
  <path fill="#fff" d="M230.335 172.769h-92.894v3.982h92.894v-3.982Z"/>
  <path fill="#05143F" d="M230.335 177.019h-92.894a.269.269 0 0 1-.269-.268v-3.982c0-.148.121-.268.269-.268h92.894c.149 0 .269.12.269.268v3.982c0 .148-.12.268-.269.268Zm-92.625-.536h92.356v-3.446H137.71v3.446Z"/>
  <path fill="#C4E3F7" d="M194.516 115.586h-5.242v42.741h5.242v-42.741Z"/>
  <path fill="#F3F3F3" d="M153.715 103.849h10.81v1.881c0 .969-.788 1.756-1.76 1.756h-7.29c-.972 0-1.76-.787-1.76-1.756v-1.881Z"/>
  <path fill="#05143F" d="M162.765 107.754h-7.29a2.029 2.029 0 0 1-2.029-2.024v-1.881c0-.148.12-.268.269-.268h10.81c.149 0 .269.12.269.268v1.881c0 1.116-.91 2.024-2.029 2.024Zm-8.781-3.636v1.612c0 .82.669 1.488 1.491 1.488h7.29c.822 0 1.491-.668 1.491-1.488v-1.612h-10.272Z"/>
  <path fill="#F3F3F3" d="M164.525 165.015h-10.81v-2.064c0-.969.788-1.755 1.76-1.755h7.29c.972 0 1.76.786 1.76 1.755v2.064Z"/>
  <path fill="#05143F" d="M164.525 165.283h-10.81a.268.268 0 0 1-.269-.268v-2.064c0-1.116.91-2.023 2.029-2.023h7.29c1.119 0 2.029.907 2.029 2.023v2.064c0 .148-.12.268-.269.268Zm-10.541-.536h10.272v-1.796a1.49 1.49 0 0 0-1.491-1.487h-7.29a1.49 1.49 0 0 0-1.491 1.487v1.796Z"/>
  <path fill="#F3F3F3" d="M162.905 107.563h-7.57v53.685h7.57v-53.685Z"/>
  <path fill="#05143F" d="M162.905 161.516h-7.57a.268.268 0 0 1-.269-.268v-53.685c0-.148.12-.268.269-.268h7.57c.149 0 .269.12.269.268v53.685c0 .148-.12.268-.269.268Zm-7.301-.536h7.032v-53.149h-7.032v53.149Z"/>
  <path fill="#F3F3F3" d="M203.251 103.849h10.811v1.881a1.76 1.76 0 0 1-1.76 1.756h-7.291a1.76 1.76 0 0 1-1.76-1.756v-1.881Z"/>
  <path fill="#05143F" d="M212.302 107.754h-7.29a2.03 2.03 0 0 1-2.03-2.024v-1.881c0-.148.121-.268.269-.268h10.811c.149 0 .269.12.269.268v1.881c0 1.116-.91 2.024-2.029 2.024Zm-8.782-3.636v1.612c0 .82.669 1.488 1.492 1.488h7.29c.822 0 1.491-.668 1.491-1.488v-1.612H203.52Z"/>
  <path fill="#F3F3F3" d="M214.062 165.015h-10.811v-2.064c0-.969.789-1.755 1.76-1.755h7.291c.971 0 1.76.786 1.76 1.755v2.064Z"/>
  <path fill="#05143F" d="M214.062 165.283h-10.811a.269.269 0 0 1-.269-.268v-2.064c0-1.116.911-2.023 2.03-2.023h7.29c1.119 0 2.029.907 2.029 2.023v2.064c0 .148-.12.268-.269.268Zm-10.542-.536h10.273v-1.796a1.49 1.49 0 0 0-1.491-1.487h-7.29c-.823 0-1.492.667-1.492 1.487v1.796Z"/>
  <path fill="#F3F3F3" d="M212.442 107.563h-7.571v53.685h7.571v-53.685Z"/>
  <path fill="#05143F" d="M212.442 161.516h-7.57a.268.268 0 0 1-.269-.268v-53.685c0-.148.12-.268.269-.268h7.57c.148 0 .269.12.269.268v53.685a.269.269 0 0 1-.269.268Zm-7.302-.536h7.033v-53.149h-7.033v53.149Z"/>
  <path fill="#C4E3F7" d="M176.416 59.191h-7.696v3.895h7.696v-3.895ZM187.593 59.191h-7.696v3.895h7.696v-3.895ZM198.77 59.191h-7.696v3.895h7.696v-3.895ZM176.416 66.094h-7.696V79.94h7.696V66.094ZM187.593 66.094h-7.696V79.94h7.696V66.094ZM198.77 66.094h-7.696V79.94h7.696V66.094ZM89.47 59.191h-7.697v3.895h7.697v-3.895ZM100.647 59.191H92.95v3.895h7.697v-3.895ZM111.824 59.191h-7.697v3.895h7.697v-3.895ZM89.47 66.094h-7.697V79.94h7.697V66.094ZM100.647 66.094H92.95V79.94h7.697V66.094ZM111.824 66.094h-7.697V79.94h7.697V66.094ZM89.47 115.586h-7.697v15.586h7.697v-15.586ZM100.647 115.586H92.95v15.586h7.697v-15.586ZM111.824 115.586h-7.697v15.586h7.697v-15.586ZM89.47 134.18h-7.697v13.846h7.697V134.18ZM100.647 134.18H92.95v13.846h7.697V134.18ZM111.824 134.18h-7.697v13.846h7.697V134.18ZM137.067 46.126h.308c4.679 0 8.479 3.789 8.479 8.456v24.445h-17.266V54.582c0-4.667 3.799-8.456 8.479-8.456Z"/>
  <path fill="#fff" d="M148.633 57.189H127.2a.269.269 0 1 1 0-.536h21.433a.268.268 0 1 1 0 .536Z"/>
  <path fill="#fff" d="M139.668 57.189a.268.268 0 0 1-.269-.268 1.947 1.947 0 0 0-3.894 0 .268.268 0 1 1-.537 0 2.484 2.484 0 0 1 4.969 0 .269.269 0 0 1-.269.268Z"/>
  <path fill="#fff" d="M137.452 54.827a.269.269 0 0 1-.269-.268v-11.16a.269.269 0 0 1 .538 0v11.16c0 .148-.12.268-.269.268ZM139.104 55.44a.268.268 0 0 1-.19-.458l7.913-7.89a.269.269 0 0 1 .38.378l-7.913 7.892a.267.267 0 0 1-.19.079ZM135.849 55.558a.267.267 0 0 1-.19-.079l-7.913-7.891a.269.269 0 0 1 .38-.38l7.913 7.892a.268.268 0 0 1-.19.458ZM137.476 80.208a.268.268 0 0 1-.268-.268V56.982a.268.268 0 1 1 .537 0V79.94c0 .148-.12.268-.269.268Z"/>
  <path fill="#fff" d="M147.592 64.67h-20.463a.269.269 0 1 1 0-.535h20.463c.148 0 .269.12.269.268a.269.269 0 0 1-.269.268ZM147.592 72.153h-20.463a.269.269 0 1 1 0-.537h20.463a.269.269 0 1 1 0 .536ZM147.592 79.635h-20.463a.269.269 0 1 1 0-.537h20.463c.148 0 .269.12.269.268a.269.269 0 0 1-.269.269Z"/>
  <path fill="#C4E3F7" d="M231.546 46.126h.308c4.68 0 8.479 3.789 8.479 8.456v24.445h-17.266V54.582c0-4.667 3.799-8.456 8.479-8.456Z"/>
  <path fill="#fff" d="M243.113 57.189h-21.434a.269.269 0 1 1 0-.536h21.434a.269.269 0 1 1 0 .536Z"/>
  <path fill="#fff" d="M234.147 57.189a.269.269 0 0 1-.269-.268 1.946 1.946 0 0 0-3.893 0 .269.269 0 0 1-.538 0 2.484 2.484 0 0 1 4.969 0c0 .148-.12.268-.269.268Z"/>
  <path fill="#fff" d="M231.931 54.827a.269.269 0 0 1-.269-.268v-11.16a.269.269 0 0 1 .538 0v11.16c0 .148-.12.268-.269.268ZM233.584 55.44a.268.268 0 0 1-.191-.458l7.913-7.89a.27.27 0 0 1 .381 0 .268.268 0 0 1 0 .378l-7.913 7.892a.27.27 0 0 1-.19.079ZM230.328 55.558a.267.267 0 0 1-.19-.079l-7.913-7.891a.269.269 0 0 1 .38-.38l7.913 7.892a.268.268 0 0 1-.19.458ZM231.956 80.208a.268.268 0 0 1-.269-.268V56.982a.269.269 0 0 1 .538 0V79.94a.269.269 0 0 1-.269.268Z"/>
  <path fill="#fff" d="M242.071 64.67h-20.463a.269.269 0 1 1 0-.535h20.463a.268.268 0 1 1 0 .536ZM242.071 72.153h-20.463a.269.269 0 1 1 0-.537h20.463a.268.268 0 1 1 0 .537ZM242.071 79.635h-20.463a.269.269 0 1 1 0-.537h20.463a.268.268 0 1 1 0 .537Z"/>
  <path fill="#C4E3F7" d="M137.067 114.212h.308c4.679 0 8.479 3.789 8.479 8.455v24.446h-17.266v-24.446c0-4.667 3.799-8.455 8.479-8.455Z"/>
  <path fill="#fff" d="M148.633 125.275H127.2a.268.268 0 1 1 0-.536h21.433a.268.268 0 1 1 0 .536Z"/>
  <path fill="#fff" d="M139.668 125.275a.268.268 0 0 1-.269-.268 1.946 1.946 0 0 0-3.894 0 .268.268 0 0 1-.537 0 2.484 2.484 0 0 1 4.969 0 .269.269 0 0 1-.269.268Z"/>
  <path fill="#fff" d="M137.452 122.913a.269.269 0 0 1-.269-.268v-11.161a.269.269 0 0 1 .538 0v11.161c0 .148-.12.268-.269.268ZM139.104 123.526a.267.267 0 0 1-.19-.457l7.913-7.892a.269.269 0 0 1 .38.379l-7.913 7.892a.268.268 0 0 1-.19.078ZM135.849 123.644a.265.265 0 0 1-.19-.079l-7.913-7.891a.269.269 0 1 1 .38-.38l7.913 7.892a.267.267 0 0 1-.19.458ZM137.476 148.294a.268.268 0 0 1-.268-.268v-22.958a.268.268 0 0 1 .537 0v22.958c0 .148-.12.268-.269.268Z"/>
  <path fill="#fff" d="M147.592 132.757h-20.463a.269.269 0 1 1 0-.537h20.463a.27.27 0 0 1 0 .537ZM147.592 140.238h-20.463a.268.268 0 1 1 0-.536h20.463a.268.268 0 1 1 0 .536ZM147.592 147.72h-20.463a.269.269 0 0 1-.269-.268c0-.148.121-.268.269-.268h20.463c.148 0 .269.12.269.268a.269.269 0 0 1-.269.268Z"/>
  <path fill="#C4E3F7" d="M231.546 114.212h.308c4.68 0 8.479 3.789 8.479 8.455v24.446h-17.266v-24.446c0-4.667 3.799-8.455 8.479-8.455Z"/>
  <path fill="#fff" d="M243.113 125.275h-21.434a.268.268 0 1 1 0-.536h21.434a.268.268 0 1 1 0 .536Z"/>
  <path fill="#fff" d="M234.147 125.275a.269.269 0 0 1-.269-.268 1.946 1.946 0 0 0-3.893 0 .269.269 0 0 1-.538 0 2.484 2.484 0 0 1 4.969 0c0 .148-.12.268-.269.268Z"/>
  <path fill="#fff" d="M231.931 122.913a.269.269 0 0 1-.269-.268v-11.161a.269.269 0 0 1 .538 0v11.161c0 .148-.12.268-.269.268ZM233.584 123.526a.267.267 0 0 1-.191-.457l7.913-7.892a.27.27 0 0 1 .381 0 .267.267 0 0 1 0 .379l-7.913 7.892a.271.271 0 0 1-.19.078ZM230.328 123.644a.265.265 0 0 1-.19-.079l-7.913-7.891a.269.269 0 1 1 .38-.38l7.913 7.892a.267.267 0 0 1-.19.458ZM231.956 148.294a.268.268 0 0 1-.269-.268v-22.958a.269.269 0 0 1 .538 0v22.958a.269.269 0 0 1-.269.268Z"/>
  <path fill="#fff" d="M242.071 132.757h-20.463a.269.269 0 1 1 0-.537h20.463a.268.268 0 1 1 0 .537ZM242.071 140.238h-20.463a.268.268 0 1 1 0-.536h20.463a.268.268 0 1 1 0 .536ZM242.071 147.72h-20.463a.269.269 0 0 1-.269-.268c0-.148.121-.268.269-.268h20.463a.268.268 0 1 1 0 .536Z"/>
  <path fill="#05143F" d="M289.86 223a20.522 20.522 0 0 1-13.676-5.203l-24.697-21.985c-1.049-.934-1.389-2.328-.888-3.639.501-1.31 1.686-2.124 3.092-2.124h81.021a.268.268 0 1 1 0 .537h-81.021c-1.408 0-2.261.919-2.589 1.779-.329.859-.307 2.112.744 3.046l24.696 21.986a19.98 19.98 0 0 0 13.565 5.065l44.621-.542h.003a.268.268 0 0 1 .003.536l-44.621.542-.253.002ZM334.506 183.522h-91.093a15.034 15.034 0 0 1-10.006-3.806l-1.729-1.539a.268.268 0 0 1-.022-.379.27.27 0 0 1 .38-.022l1.729 1.54a14.496 14.496 0 0 0 9.648 3.67h91.093a.268.268 0 1 1 0 .536ZM334.731 165.183h-80.644a.27.27 0 0 1 0-.537h80.644a.268.268 0 1 1 0 .537Z"/>
  <path fill="#F3F3F3" d="M261.793 171.677c10.012 0 18.127-7.91 18.127-17.667 0-9.757-8.115-17.667-18.127-17.667-10.011 0-18.126 7.91-18.126 17.667 0 9.757 8.115 17.667 18.126 17.667Z"/>
  <path fill="#05143F" d="M261.793 171.945c-10.143 0-18.395-8.046-18.395-17.935s8.252-17.935 18.395-17.935c10.144 0 18.396 8.046 18.396 17.935s-8.252 17.935-18.396 17.935Zm0-35.334c-9.846 0-17.857 7.805-17.857 17.399 0 9.593 8.011 17.398 17.857 17.398 9.847 0 17.858-7.805 17.858-17.398 0-9.594-8.011-17.399-17.858-17.399Z"/>
  <path fill="#05143F" d="M261.63 175.36a.268.268 0 0 1-.269-.268V158.21a.268.268 0 1 1 .538 0v16.882c0 .148-.12.268-.269.268Z"/>
  <path fill="#05143F" d="M261.725 163.884a.268.268 0 0 1-.212-.433l2.663-3.415a.268.268 0 0 1 .377-.046c.117.09.138.259.047.376l-2.663 3.415a.27.27 0 0 1-.212.103Z"/>
  <path fill="#F3F3F3" d="M308.552 172.498c10.808 0 19.569-8.737 19.569-19.515 0-10.779-8.761-19.516-19.569-19.516-10.807 0-19.568 8.737-19.568 19.516 0 10.778 8.761 19.515 19.568 19.515Z"/>
  <path fill="#05143F" d="M308.552 172.767c-10.938 0-19.837-8.875-19.837-19.784 0-10.909 8.899-19.784 19.837-19.784 10.939 0 19.838 8.875 19.838 19.784 0 10.909-8.899 19.784-19.838 19.784Zm0-39.032c-10.642 0-19.299 8.635-19.299 19.248 0 10.613 8.657 19.247 19.299 19.247s19.3-8.634 19.3-19.247c0-10.614-8.658-19.248-19.3-19.248Z"/>
  <path fill="#05143F" d="M308.896 175.36a.268.268 0 0 1-.269-.268v-21.814a.268.268 0 1 1 .537 0v21.814c0 .148-.12.268-.268.268Z"/>
  <path fill="#05143F" d="M308.803 157.541a.268.268 0 0 1-.159-.052l-2.723-1.996a.269.269 0 0 1 .318-.432l2.723 1.995a.268.268 0 0 1-.159.485ZM308.914 166.686a.269.269 0 0 1-.168-.478l8.169-6.54a.27.27 0 0 1 .379.042.268.268 0 0 1-.042.377l-8.169 6.54a.27.27 0 0 1-.169.059ZM77.883 223l-.253-.002-77.363-.542a.269.269 0 0 1 .002-.536H.27l77.364.542.246.002c4.923 0 9.644-1.794 13.32-5.067l24.697-21.986c1.05-.934 1.072-2.187.743-3.046-.328-.86-1.181-1.779-2.589-1.779H.288a.268.268 0 1 1 0-.537h113.764c1.406 0 2.591.814 3.092 2.124.501 1.311.161 2.705-.888 3.639l-24.697 21.985A20.528 20.528 0 0 1 77.883 223ZM124.33 183.522H.494a.268.268 0 1 1 0-.536H124.33c3.563 0 6.99-1.304 9.648-3.67l1.729-1.54a.269.269 0 0 1 .358.401l-1.729 1.539a15.032 15.032 0 0 1-10.006 3.806ZM71.114 165.191H.478a.268.268 0 1 1 0-.536h70.636a.268.268 0 1 1 0 .536Z"/>
  <path fill="#F3F3F3" d="M76.818 171.677c10.011 0 18.127-7.91 18.127-17.667 0-9.757-8.116-17.667-18.127-17.667-10.01 0-18.126 7.91-18.126 17.667 0 9.757 8.115 17.667 18.126 17.667Z"/>
  <path fill="#05143F" d="M76.818 171.945c-10.143 0-18.395-8.046-18.395-17.935s8.252-17.935 18.395-17.935c10.144 0 18.396 8.046 18.396 17.935s-8.252 17.935-18.396 17.935Zm0-35.334c-9.846 0-17.857 7.805-17.857 17.399 0 9.593 8.01 17.398 17.857 17.398s17.858-7.805 17.858-17.398c0-9.594-8.01-17.399-17.858-17.399Z"/>
  <path fill="#05143F" d="M76.372 174.791a.268.268 0 0 1-.269-.268v-19.026a.268.268 0 0 1 .538 0v19.026c0 .148-.12.268-.269.268Z"/>
  <path fill="#05143F" d="M76.366 164.929a.269.269 0 0 1-.152-.49l4.922-3.355a.27.27 0 0 1 .374.07.267.267 0 0 1-.07.372l-4.922 3.356a.266.266 0 0 1-.152.047Z"/>
  <path fill="#F3F3F3" d="M30.06 172.498c10.807 0 19.568-8.737 19.568-19.515 0-10.779-8.761-19.516-19.568-19.516-10.808 0-19.57 8.737-19.57 19.516 0 10.778 8.762 19.515 19.57 19.515Z"/>
  <path fill="#05143F" d="M30.06 172.767c-10.939 0-19.838-8.875-19.838-19.784 0-10.909 8.899-19.784 19.837-19.784 10.94 0 19.838 8.875 19.838 19.784 0 10.909-8.899 19.784-19.837 19.784Zm0-39.032c-10.642 0-19.3 8.635-19.3 19.248 0 10.613 8.658 19.247 19.3 19.247 10.641 0 19.3-8.634 19.3-19.247 0-10.614-8.659-19.248-19.3-19.248Z"/>
  <path fill="#05143F" d="M29.641 175.315a.269.269 0 0 1-.269-.268v-27.142a.269.269 0 1 1 .538 0v27.142c0 .148-.12.268-.269.268Z"/>
  <path fill="#05143F" d="M29.508 165.861a.267.267 0 0 1-.135-.037l-10.018-5.839a.269.269 0 0 1 .271-.463l10.018 5.839a.268.268 0 0 1-.136.5ZM29.64 159.528a.268.268 0 0 1-.176-.471l5.632-4.814a.269.269 0 1 1 .35.407l-5.631 4.814a.27.27 0 0 1-.175.064ZM29.577 150.765a.267.267 0 0 1-.143-.041l-1.67-1.049a.268.268 0 1 1 .286-.454l1.67 1.049a.268.268 0 0 1-.143.495Z"/>
  <path fill="#fff" d="M2.172 14.63c1.04-2.407 3.788-4.778 7.432-6.074 4.578-1.628 9.11-1.071 11.112 1.147a17.615 17.615 0 0 1 3.57-2.446C29.23 4.685 34.48 4.74 36.81 7.193c1.732-1.632 3.862-3.12 6.304-4.32 8.362-4.108 17.19-3.289 19.718 1.83 1.435 2.905 1.307 6.571-1.27 9.948l-59.389-.02Z"/>
  <path fill="#05143F" d="m61.562 14.92-59.39-.022a.269.269 0 0 1-.247-.374c1.11-2.566 4.017-4.95 7.588-6.22 4.464-1.588 9.02-1.158 11.22 1.027a17.935 17.935 0 0 1 3.43-2.312c4.86-2.529 10.116-2.596 12.652-.199 1.779-1.639 3.856-3.047 6.18-4.188 8.48-4.167 17.488-3.29 20.078 1.953 1.624 3.29 1.152 7.018-1.297 10.229a.27.27 0 0 1-.214.106Zm-58.967-.558 58.833.021c2.25-3.019 2.676-6.497 1.162-9.561C60.131-.156 51.447-.923 43.232 3.113c-2.359 1.159-4.457 2.597-6.238 4.275a.27.27 0 0 1-.38-.01c-2.296-2.418-7.428-2.369-12.203.117a17.292 17.292 0 0 0-3.516 2.408.269.269 0 0 1-.38-.021c-1.98-2.194-6.43-2.635-10.82-1.073-3.26 1.16-5.935 3.263-7.1 5.553Z"/>
  <path fill="#FC6E56" d="M199.344 8.383a4.193 4.193 0 0 0 4.198-4.186A4.193 4.193 0 0 0 199.344.01a4.192 4.192 0 0 0-4.198 4.187 4.192 4.192 0 0 0 4.198 4.186ZM191.179 5.159a4.187 4.187 0 0 0-3.122-5.037 4.199 4.199 0 0 0-5.05 3.113 4.186 4.186 0 0 0 3.121 5.036 4.2 4.2 0 0 0 5.051-3.112ZM174.842 8.383a4.193 4.193 0 0 0 4.198-4.186A4.193 4.193 0 0 0 174.842.01a4.192 4.192 0 0 0-4.198 4.187 4.192 4.192 0 0 0 4.198 4.186Z"/>
  <path fill="#05143F" d="M320.843 15.819a.268.268 0 0 1-.269-.268V3.904H208.962a.268.268 0 1 1 0-.536h111.881c.148 0 .269.12.269.268v11.915a.269.269 0 0 1-.269.268ZM165.344 3.904h-52.272a.268.268 0 1 1 0-.536h52.272c.148 0 .269.12.269.268a.269.269 0 0 1-.269.268Z"/>
  <path fill="#fff" d="m28.995 65.658 37.576.013c.99-2.241 1.222-4.681.374-6.94-1.995-5.312-8.921-7.636-15.47-5.19-3.889 1.452-6.77 4.258-8.052 7.41-2.196-1.613-5.507-2.035-8.693-.846-2.864 1.07-4.913 3.206-5.735 5.553Z"/>
  <path fill="#05143F" d="m66.57 65.94-37.575-.014a.269.269 0 0 1-.254-.357c.887-2.531 3.091-4.667 5.895-5.715 3.046-1.137 6.332-.87 8.67.687 1.424-3.228 4.348-5.86 8.074-7.251 6.677-2.494 13.773-.096 15.817 5.347.834 2.222.703 4.692-.38 7.143a.269.269 0 0 1-.246.16Zm-37.186-.55 37.01.013c.961-2.267 1.065-4.538.3-6.578-1.94-5.165-8.725-7.422-15.126-5.033-3.703 1.384-6.581 4.03-7.895 7.26a.268.268 0 0 1-.41.115c-2.204-1.62-5.438-1.93-8.439-.81-2.522.942-4.529 2.806-5.44 5.033Z"/>
</svg>
