<svg xmlns="http://www.w3.org/2000/svg" fill="none" viewBox="0 0 286 191">
  <g clip-path="url(#clip0_164_7366)">
    <path fill="#fff" d="M219.335.23H78.525v96.68h140.81V.23Z"/>
    <path fill="#1088FF" d="M219.335 97.139H78.525a.23.23 0 0 1-.23-.23V.229a.23.23 0 0 1 .23-.229h140.81a.23.23 0 0 1 .229.23v96.679a.23.23 0 0 1-.229.23Zm-140.58-.46h140.35V.459H78.755v96.22Z"/>
    <path fill="#1088FF" d="M215.827 93.627H82.032a.23.23 0 0 1-.23-.23V3.742a.23.23 0 0 1 .23-.23h133.795a.23.23 0 0 1 .23.23v89.655a.23.23 0 0 1-.23.23Zm-133.565-.46h133.336V3.97H82.262v89.196Z"/>
    <path fill="#1088FF" d="M173.504 85.24H93.069a.23.23 0 0 1-.23-.23V14.003a.23.23 0 0 1 .23-.23h80.435a.23.23 0 0 1 .229.23V85.01a.23.23 0 0 1-.229.23Zm-80.206-.46h79.976V14.233H93.298V84.78Z"/>
    <path fill="#1088FF" d="M123.555 85.239a.23.23 0 0 1-.229-.23V37.03a.23.23 0 1 1 .459 0v47.978a.23.23 0 0 1-.23.23ZM173.503 37.124h-31.607a.23.23 0 0 1 0-.46h31.607a.23.23 0 1 1 0 .46ZM140.725 45.508a.23.23 0 0 1-.122-.035l-13.376-8.384a.23.23 0 0 1 .243-.39l13.377 8.384a.23.23 0 0 1-.122.425ZM114.108 45.508a.23.23 0 0 1-.122-.035l-13.376-8.384a.23.23 0 0 1 .243-.39l13.377 8.384a.23.23 0 0 1-.122.425Z"/>
    <path fill="#1088FF" d="M127.349 37.124h-13.241a.23.23 0 0 1 0-.46h13.241a.23.23 0 0 1 .229.23.23.23 0 0 1-.229.23ZM100.732 37.124h-7.663a.23.23 0 0 1 0-.46h7.663a.23.23 0 0 1 .229.23.23.23 0 0 1-.229.23ZM169.406 33.083h-21.738a.23.23 0 0 1-.23-.23V17.902a.23.23 0 0 1 .23-.23h21.738a.23.23 0 0 1 .23.23v14.951a.23.23 0 0 1-.23.23Zm-21.509-.46h21.28V18.133h-21.28v14.491Z"/>
    <path fill="#fff" d="M168.887 58.402h-20.7v19.771h20.7v-19.77Z"/>
    <path fill="#1088FF" d="M168.887 78.403h-20.7a.23.23 0 0 1-.23-.23V58.402a.23.23 0 0 1 .23-.23h20.7a.23.23 0 0 1 .23.23v19.77a.23.23 0 0 1-.23.23Zm-20.471-.46h20.242V58.632h-20.242v19.31Z"/>
    <path fill="#fff" d="M111.992 78.172c4.05 0 7.334-3.025 7.334-6.756 0-3.731-3.284-6.756-7.334-6.756s-7.334 3.025-7.334 6.756c0 3.731 3.284 6.756 7.334 6.756Z"/>
    <path fill="#1088FF" d="M111.992 78.4c-4.17 0-7.563-3.133-7.563-6.985 0-3.852 3.393-6.985 7.563-6.985s7.563 3.133 7.563 6.985c0 3.852-3.393 6.986-7.563 6.986Zm0-13.51c-3.917 0-7.104 2.927-7.104 6.525 0 3.599 3.187 6.526 7.104 6.526 3.917 0 7.104-2.927 7.104-6.526 0-3.598-3.187-6.526-7.104-6.526Z"/>
    <path fill="#fff" d="M158.537 49.504h-27.568V63.25h27.568V49.504Z"/>
    <path fill="#1088FF" d="M158.537 63.483h-27.568a.23.23 0 0 1-.229-.23V49.507a.23.23 0 0 1 .229-.23h27.568a.23.23 0 0 1 .229.23v13.746a.23.23 0 0 1-.229.23Zm-27.338-.46h27.108V49.737h-27.108v13.286Z"/>
    <path fill="#fff" d="M154.423 53.55h-19.34v9.702h19.34v-9.701Z"/>
    <path fill="#1088FF" d="M154.423 63.481h-19.34a.23.23 0 0 1-.229-.23v-9.7a.23.23 0 0 1 .229-.23h19.34a.23.23 0 0 1 .23.23v9.7a.23.23 0 0 1-.23.23Zm-19.11-.46h18.881V53.78h-18.881v9.242Z"/>
    <path fill="#fff" d="M151.525 21.824h-7.715v7.107h7.715v-7.107Z"/>
    <path fill="#1088FF" d="M151.525 29.16h-7.715a.23.23 0 0 1-.229-.23v-7.106c0-.127.102-.23.229-.23h7.715a.23.23 0 0 1 .229.23v7.106a.23.23 0 0 1-.229.23Zm-7.485-.46h7.255v-6.647h-7.255V28.7ZM126.671 16.102a.23.23 0 0 1-.229-.23v-3.744a.23.23 0 1 1 .459 0v3.744a.23.23 0 0 1-.23.23ZM104.658 16.102a.23.23 0 0 1-.229-.23v-3.744a.23.23 0 1 1 .459 0v3.744a.23.23 0 0 1-.23.23Z"/>
    <path fill="#C4E3F7" d="M207.046 14.004h-26.745v13.825h26.745V14.004Z"/>
    <path fill="#fff" d="m211.167 54.625-29.028 26.788v95.151h58.057V81.413l-29.029-26.788Z"/>
    <path fill="#fff" d="M211.167 61.723 182.139 88.51v91.692h58.057V88.51l-29.029-26.787Z"/>
    <path fill="#1088FF" d="M240.196 180.431h-58.057a.23.23 0 0 1-.23-.23V88.51a.23.23 0 0 1 .074-.17l29.029-26.787a.23.23 0 0 1 .311 0l29.029 26.788a.23.23 0 0 1 .074.169V180.2a.23.23 0 0 1-.23.23Zm-57.828-.46h57.599v-91.36l-28.8-26.576-28.799 26.576v91.36Z"/>
    <path fill="#1088FF" d="M242.184 83.631a.228.228 0 0 1-.156-.061l-30.861-28.632-30.71 28.481a.23.23 0 0 1-.312-.337l30.866-28.626a.23.23 0 0 1 .312 0l31.017 28.777a.23.23 0 0 1-.156.398Z"/>
    <path fill="#C4E3F7" d="M219.69 83.402h-17.044v24.258h17.044V83.402Z"/>
    <path fill="#fff" d="M282.608 117.324h-42.412v62.875h42.412v-62.875Z"/>
    <path fill="#1088FF" d="M282.608 180.428h-42.412a.23.23 0 0 1-.229-.23v-62.874a.23.23 0 0 1 .229-.23h42.412a.23.23 0 0 1 .23.23v62.874a.23.23 0 0 1-.23.23Zm-42.182-.46h41.953v-62.415h-41.953v62.415Z"/>
    <path fill="#fff" d="M240.196 100.605h28.695l16.88 16.893h-45.575v-16.893Z"/>
    <path fill="#1088FF" d="M285.771 117.727h-45.575a.23.23 0 0 1-.229-.23v-16.892a.23.23 0 0 1 .229-.23h28.695a.23.23 0 0 1 .162.067l16.88 16.893a.23.23 0 0 1-.162.392Zm-45.345-.46h44.79l-16.42-16.432h-28.37v16.432Z"/>
    <path fill="#C4E3F7" d="M273.609 126.418H249.07v36.143h24.539v-36.143Z"/>
    <path fill="#fff" d="M139.875 180.199h42.412v-62.874h-42.412v62.874Z"/>
    <path fill="#1088FF" d="M182.287 180.428h-42.412a.23.23 0 0 1-.229-.23v-62.874a.23.23 0 0 1 .229-.23h42.412a.23.23 0 0 1 .229.23v62.874a.23.23 0 0 1-.229.23Zm-42.182-.46h41.952v-62.415h-41.952v62.415Z"/>
    <path fill="#fff" d="M182.287 100.605h-28.694l-16.88 16.893h45.574v-16.893Z"/>
    <path fill="#1088FF" d="M182.287 117.727h-45.574a.229.229 0 0 1-.162-.392l16.879-16.893a.23.23 0 0 1 .163-.067h28.694a.23.23 0 0 1 .23.23v16.892a.23.23 0 0 1-.23.23Zm-45.02-.46h44.79v-16.432h-28.369l-16.421 16.432Z"/>
    <path fill="#C4E3F7" d="M148.874 162.562h24.54V126.42h-24.54v36.142Z"/>
    <path fill="#1088FF" d="M225.797 180.428h-29.259a.228.228 0 0 1-.229-.229v-53.782c0-.127.102-.229.229-.229h29.259c.126 0 .229.102.229.229v53.782a.229.229 0 0 1-.229.229Zm-29.029-.459h28.799v-53.322h-28.799v53.322ZM25.69 92.93c-2.687-1.622-5.48-3.634-6.333-6.658-.831-2.948.421-6.073 1.971-8.714 6.002-10.227 16.535-17.057 27.537-21.455 3.716-1.485 7.546-2.747 11.014-4.745 2.808-1.619 5.331-3.694 8.124-5.34 2.9-1.708 6.146-2.953 9.509-3.062 3.363-.108 6.852 1.024 9.157 3.478 2.577 2.743 3.37 7.027 1.948 10.513 3.753.499 6.693 4.013 7.133 7.779.44 3.765-1.31 7.569-4.027 10.21-1.402 1.362-3.105 2.533-3.903 4.32-.938 2.103-.397 4.538.159 6.774l2.345 9.434c.398 1.603.714 3.534-.448 4.705-.579.583-1.406.829-2.198 1.047-8.822 2.425-18.385 4.415-27.575 4.371-7.092-.035-14.933-3.523-21.403-6.144a91.95 91.95 0 0 1-13.01-6.512Z"/>
    <path fill="#fff" d="m59 76.477-12.558 25.445s-10.239-1.488-7.177 2.034c5.262 6.056 25.97 18.505 33.313 18.031 11.615-.749 9.451-13.904.796-17.989l-6.203-.951 7.895-21.256L59 76.477Z"/>
    <path fill="#1088FF" d="M72.163 122.23c-7.74.001-27.798-12.056-33.071-18.124-.596-.685-.769-1.269-.514-1.736.846-1.553 6.511-.867 7.732-.699l12.485-25.297a.23.23 0 0 1 .277-.116l16.066 5.314a.23.23 0 0 1 .143.298l-7.797 20.992 5.925.908c.022.004.043.01.063.02 4.918 2.321 8.08 7.766 7.201 12.396-.674 3.545-3.618 5.742-8.08 6.03a6.663 6.663 0 0 1-.43.014Zm-29.846-20.389c-1.63 0-3.033.192-3.337.749-.152.281.002.689.458 1.215 2.54 2.923 8.896 7.51 15.816 11.415 7.623 4.301 14.093 6.745 17.31 6.538 4.298-.278 7.017-2.287 7.658-5.658.84-4.424-2.195-9.637-6.915-11.88l-6.17-.946a.23.23 0 0 1-.181-.307l7.812-21.033-15.65-5.177-12.47 25.266a.23.23 0 0 1-.239.126 30.29 30.29 0 0 0-4.092-.308Z"/>
    <path fill="#fff" d="M83.185 67.745c-.367-1.998-.949-3.949-1.606-5.868-.317-.924-.707-3.315-2.017-3.3-.627.007-1.39.564-1.978.773-.74.263-1.504.461-2.279.596a14.29 14.29 0 0 1-4.628.043 13.7 13.7 0 0 1-2.286-.558c-.296-.1-1.956-.572-2.029-.884.77 3.308.288 6.89-1.326 9.878-.512.949-1.155 1.86-2.05 2.46-.894.602-2.078.85-3.071.43-.891-.376-1.512-1.22-2.387-1.633-1.534-.725-3.512.185-4.264 1.707-.752 1.522-.428 3.418.493 4.843 1.596 2.472 4.97 3.62 7.742 2.635 1.802 2.16 6.774 12.545 14.705 11.26 9.553-1.547 7.566-19.19 6.98-22.382Z"/>
    <path fill="#1088FF" d="M74.844 90.468c-5.943 0-10.038-6.244-12.314-9.712-.452-.69-.819-1.25-1.11-1.62-2.822.917-6.244-.283-7.856-2.78-1.052-1.629-1.246-3.572-.506-5.07.848-1.715 2.982-2.562 4.568-1.812.447.211.826.523 1.192.825.388.32.755.621 1.186.804.85.36 1.945.203 2.855-.409.74-.497 1.368-1.253 1.976-2.379a14.028 14.028 0 0 0 1.304-9.717.23.23 0 0 1 .44-.127c.08.095.44.289 1.683.677l.203.064c.723.245 1.48.43 2.248.55a13.993 13.993 0 0 0 6.794-.63c.192-.068.41-.179.642-.297.467-.237.95-.483 1.41-.488 1.26-.011 1.744 1.722 2.065 2.871.064.23.12.43.172.584.783 2.286 1.296 4.161 1.615 5.9.023.13 2.25 13.135-2.22 19.48-1.252 1.775-2.917 2.842-4.95 3.172a8.723 8.723 0 0 1-1.397.114ZM61.5 78.636a.23.23 0 0 1 .176.082c.321.385.726 1.002 1.24 1.784 2.392 3.647 6.845 10.435 13.253 9.397 1.907-.31 3.47-1.313 4.647-2.983 4.362-6.192 2.168-19.003 2.144-19.131-.315-1.717-.822-3.57-1.597-5.835-.057-.167-.114-.372-.18-.609-.283-1.01-.709-2.536-1.608-2.536h-.01c-.353.004-.787.225-1.207.439a6.118 6.118 0 0 1-.696.32 14.457 14.457 0 0 1-7.018.65 13.95 13.95 0 0 1-2.326-.567 10.36 10.36 0 0 0-.192-.061c-.649-.203-1.106-.365-1.417-.51.597 3.19.072 6.604-1.47 9.457-.644 1.194-1.32 2.001-2.123 2.542-1.037.697-2.298.87-3.29.45-.492-.208-.902-.545-1.298-.872-.361-.297-.702-.578-1.096-.764-1.345-.636-3.233.126-3.961 1.6-.659 1.333-.47 3.146.48 4.617 1.531 2.371 4.814 3.488 7.472 2.543a.23.23 0 0 1 .077-.013Z"/>
    <path fill="#fff" d="M56.818 73.696c1.546-.078 3.094.853 3.752 2.255l-3.752-2.255Z"/>
    <path fill="#1088FF" d="M60.57 76.18a.23.23 0 0 1-.208-.132c-.62-1.323-2.075-2.196-3.532-2.123a.23.23 0 0 1-.023-.46c1.637-.08 3.273.9 3.97 2.387a.23.23 0 0 1-.207.328Z"/>
    <path fill="#FC6E56" d="M7.106 173.576c-6.394-13.643-5.117-3.549-5.069-18.618.024-7.473 10.028-36.164 14.394-42.227 4.724-6.562 12.801-9.971 20.793-11.175 3.22-.485 7.272.136 7.272.136S59 111.724 73.374 104c3.98-.644 8.074.947 11.216 3.474 3.142 2.527 5.466 5.915 7.584 9.347 6.474 10.49 11.448 21.857 15.43 33.524 1.409 4.127 6.722 14.587 6.273 18.925-.508 4.908-1.227 9.088-4.848 12.437-1.171 1.084-5.636 3.307-6.608 4.123-1.848 1.553-5.588 1.072-7.979.742-13.152-1.811-42.142-6.674-44.834-4.491-4.053 3.289-39.781-2.7-42.502-8.505Z"/>
    <path fill="#1088FF" d="M35.999 152.34a.23.23 0 0 1-.227-.268l3.267-19.743a.23.23 0 0 1 .453.075l-3.267 19.743a.23.23 0 0 1-.226.193ZM91.49 152.262a.23.23 0 0 1-.227-.197c-.759-5.285-3.604-18.235-5.544-23.609a.23.23 0 0 1 .431-.156c1.95 5.398 4.806 18.396 5.567 23.699a.23.23 0 0 1-.194.261l-.033.002ZM80.362 170.042a.23.23 0 0 1-.07-.449l3.39-1.082a.23.23 0 0 1 .14.438l-3.39 1.082a.211.211 0 0 1-.07.011Z"/>
    <path fill="#FC6E56" d="M54.741 189.346S0 191.753 0 168.545c0-5.3 1.03-11.931 2.41-16.897l64.292 7.059-11.96 30.639Z"/>
    <path fill="#1088FF" d="M20.736 158.937a.23.23 0 0 1-.004-.46l40.339-.766a.234.234 0 0 1 .234.226.23.23 0 0 1-.226.234l-40.339.766h-.004Z"/>
    <path fill="#fff" d="M49.63 185.572c-.41 2.769 4.95 3.773 4.95 3.773h16.61l24.735-3.181s1.93-31.889-33.039-28.036c0 0-10.552 9.185-13.255 27.444Z"/>
    <path fill="#1088FF" d="M77.707 186.517a.23.23 0 0 1-.227-.264c.26-1.785-.158-3.769-1.178-5.586-.854-1.522-2.117-2.957-3.861-4.386-.333-.273-.691-.554-1.096-.731a.23.23 0 0 1 .184-.421c.458.2.845.503 1.203.796 1.789 1.466 3.088 2.944 3.97 4.516 1.07 1.906 1.507 3.993 1.232 5.879a.23.23 0 0 1-.227.197ZM85.703 186.059a.23.23 0 0 1-.227-.198c-.3-2.118-.732-4.597-1.657-6.915-.957-2.399-2.362-4.359-4.064-5.667a.23.23 0 1 1 .28-.364c1.767 1.358 3.223 3.384 4.21 5.861.943 2.363 1.381 4.875 1.685 7.02a.23.23 0 0 1-.227.263ZM92.107 186.06c-.009 0-.018 0-.027-.002a.23.23 0 0 1-.201-.255c1.08-9.055-4.845-14.689-4.905-14.745a.23.23 0 0 1-.012-.325.229.229 0 0 1 .325-.011c.061.057 6.155 5.851 5.048 15.136a.23.23 0 0 1-.228.202ZM57.903 49.161c-2.56 2.708-20.431-5.815-12.504-15.323 7.928-9.508 22.888 4.339 12.504 15.323Z"/>
    <path fill="#1088FF" d="M156.326 190.999H66.104c-.534 0-1.069-.137-1.509-.44a2.61 2.61 0 0 1-.982-3.072c1.064-2.232 3.263-3.018 6.514-3.018h92.119l-1.195 3.251a5.044 5.044 0 0 1-4.725 3.279Z"/>
    <path fill="#1088FF" d="M156.837 190.999c1.805 0 3.427-1.1 4.095-2.777l15.972-40.109a3.455 3.455 0 0 0-3.208-4.734h-55.45a7.89 7.89 0 0 0-7.436 5.258l-14.992 42.362h61.019Z"/>
    <path fill="#fff" d="M158.135 185.093H103.16a.23.23 0 0 1 0-.46h54.975a.23.23 0 0 1 0 .46Z"/>
    <path fill="#1088FF" d="M277.11 33.003h-97.038a.23.23 0 1 1 0-.46h97.038a.23.23 0 0 1 .229.23.23.23 0 0 1-.229.23ZM277.11 40.495h-38.719a.23.23 0 1 1 0-.46h38.719a.23.23 0 0 1 .229.23.23.23 0 0 1-.229.23ZM277.11 47.99h-38.719a.23.23 0 1 1 0-.459h38.719a.23.23 0 0 1 .229.23.23.23 0 0 1-.229.23Z"/>
  </g>
  <defs>
    <clipPath id="clip0_164_7366">
      <path fill="#fff" d="M0 0h286v191H0z"/>
    </clipPath>
  </defs>
</svg>
