<svg xmlns="http://www.w3.org/2000/svg" fill="none" viewBox="0 0 794 555">
  <g clip-path="url(#clip0_2_2)">
    <path fill="#FC6E56" d="M408.5 213C228.293 213 30 271.571 30 384s198.293 171 378.5 171S787 496.429 787 384 588.707 213 408.5 213Z"/>
  </g>
  <g clip-path="url(#clip1_2_2)">
    <path fill="#fff" d="M792.501 41.637h-67.049v66.925h67.049V41.637Z"/>
    <path fill="#05143F" d="M792.5 109.197h-67.048a.637.637 0 0 1-.638-.636V41.636c0-.352.286-.636.638-.636H792.5c.352 0 .638.285.638.636v66.925a.637.637 0 0 1-.638.636Zm-66.411-1.272h65.774V42.272h-65.774v65.653Z"/>
    <path fill="#CFF558" d="M736.472 75.076c-.013 5.981 4.835 10.84 10.827 10.853a10.851 10.851 0 0 0 10.397-7.656l12.599.027.006-2.96 2.354.005-.006 2.96 3.391.007.007-2.96 2.353.005-.006 2.96 3.072.006.015-7.036-24.05-.103c-1.57-4.037-5.486-6.907-10.086-6.916-5.993-.013-10.861 4.826-10.873 10.808Zm6.693-1.558c.759.733.78 1.942.045 2.7a1.914 1.914 0 0 1-2.704.045 1.906 1.906 0 0 1-.046-2.7 1.916 1.916 0 0 1 2.705-.045Z"/>
    <path fill="#fff" d="M792.501 135.004h-67.049v66.925h67.049v-66.925Z"/>
    <path fill="#05143F" d="M792.5 202.565h-67.048a.638.638 0 0 1-.638-.637v-66.925c0-.351.286-.636.638-.636H792.5c.352 0 .638.285.638.636v66.925a.638.638 0 0 1-.638.637Zm-66.411-1.273h65.774V135.64h-65.774v65.652Z"/>
    <path fill="#CFF558" d="M759.071 187.891c10.748-.052 19.419-8.791 19.366-19.52-.052-10.728-8.807-19.383-19.556-19.331-10.748.052-19.419 8.792-19.366 19.52.052 10.729 8.808 19.384 19.556 19.331Z"/>
    <path fill="#fff" d="M758.974 184.371a15.846 15.846 0 0 1-11.245-4.636 15.789 15.789 0 0 1-4.691-11.238c-.018-8.77 7.118-15.92 15.906-15.938 8.773-.031 15.953 7.104 15.97 15.874a15.782 15.782 0 0 1-4.645 11.256 15.849 15.849 0 0 1-11.261 4.682h-.034Zm.002-30.54h-.03c-8.085.017-14.65 6.595-14.633 14.664a14.523 14.523 0 0 0 4.316 10.339c2.775 2.758 6.486 4.261 10.377 4.265a14.589 14.589 0 0 0 10.36-4.307 14.528 14.528 0 0 0 4.274-10.356c-.017-8.059-6.593-14.605-14.664-14.605Z"/>
    <path fill="#fff" d="m757.999 180.529-.006-2.967c-1.708-.026-3.475-.552-4.508-1.284l.703-1.97c1.062.703 2.594 1.258 4.243 1.254 2.09-.004 3.501-1.211 3.497-2.886-.003-1.616-1.153-2.613-3.334-3.49-3.006-1.17-4.863-2.518-4.869-5.074-.004-2.439 1.729-4.294 4.437-4.74l-.006-2.968 1.825-.004.006 2.851c1.767.055 2.975.523 3.83 1.02l-.732 1.941a7.132 7.132 0 0 0-3.712-.991c-2.267.004-3.118 1.358-3.116 2.533.003 1.528 1.094 2.29 3.658 3.343 3.035 1.228 4.57 2.753 4.575 5.368.005 2.321-1.61 4.499-4.642 5.005l.006 3.056-1.855.003ZM792.501 228.369h-67.049v66.925h67.049v-66.925Z"/>
    <path fill="#05143F" d="M792.5 295.932h-67.048a.638.638 0 0 1-.638-.637v-66.924c0-.352.286-.637.638-.637H792.5c.352 0 .638.285.638.637v66.924a.638.638 0 0 1-.638.637Zm-66.411-1.273h65.774v-65.652h-65.774v65.652Z"/>
    <path fill="#CFF558" d="M747.815 245.619s-4.907.267-5.264 5.076c-.357 4.808 0 27.515 0 27.515s27.834-.089 27.834 0v-30.721l-22.57-1.87Z"/>
    <path fill="#CFF558" d="M770.385 278.846a.745.745 0 0 1-.106-.008c-1.105-.064-20.339-.015-27.726.008a.638.638 0 0 1-.639-.626c-.015-.928-.353-22.79.001-27.573.315-4.244 3.974-5.561 5.865-5.663a.504.504 0 0 1 .087.001l22.571 1.87c.33.027.584.303.584.634v30.721a.636.636 0 0 1-.637.636Zm-7.403-1.323c3.87 0 5.79.017 6.766.056v-29.504l-21.938-1.818c-.467.038-4.326.473-4.624 4.484-.317 4.279-.061 23.135-.007 26.831a7155.36 7155.36 0 0 1 19.803-.049Z"/>
    <path fill="#fff" d="M747.814 245.619s4.729.534 5.175 6.411h22.57s-.394-6.577-6.243-6.577c-4.193 0-21.502.166-21.502.166Z"/>
    <path fill="#CFF558" d="M775.559 252.667h-22.57a.636.636 0 0 1-.635-.588c-.399-5.254-4.442-5.806-4.614-5.827a.638.638 0 0 1-.56-.668.635.635 0 0 1 .628-.6c.174-.002 17.36-.166 21.508-.166 5.102 0 6.731 4.694 6.879 7.175a.635.635 0 0 1-.636.674Zm-21.994-1.272h21.272c-.27-1.571-1.35-5.304-5.521-5.304-3.089 0-13.433.091-18.562.138 1.229.914 2.464 2.485 2.811 5.166Z"/>
    <path fill="#fff" d="M765.935 256.942h-19.092a.636.636 0 1 1 0-1.272h19.092a.636.636 0 1 1 0 1.272ZM759.858 262.462h-13.015a.637.637 0 1 1 0-1.273h13.015a.638.638 0 1 1 0 1.273ZM765.935 262.462h-3.221a.637.637 0 1 1 0-1.273h3.221a.637.637 0 1 1 0 1.273ZM762.802 267.983h-15.959a.636.636 0 1 1 0-1.272h15.959a.637.637 0 1 1 0 1.272ZM757.182 273.147h-10.339a.636.636 0 1 1 0-1.272h10.339a.637.637 0 1 1 0 1.272ZM596.738 391.283H490.773l.325-282.731 51.694-61.167 53.946 62.216v281.682Z"/>
    <path fill="#05143F" d="M596.739 391.92H490.774a.637.637 0 0 1-.637-.637l.325-282.731a.63.63 0 0 1 .15-.409l51.694-61.168a.637.637 0 0 1 .483-.226.593.593 0 0 1 .486.22l53.946 62.216c.1.116.155.264.155.416v281.682a.637.637 0 0 1-.637.637Zm-105.327-1.273h104.689V109.839l-53.302-61.474-51.063 60.421-.324 281.861Z"/>
    <path fill="#fff" d="M491.357 391.282H171.224V105.963l56.93-42.815 263.203-.486v328.62Z"/>
    <path fill="#05143F" d="M491.358 391.92H171.224a.637.637 0 0 1-.637-.636v-285.32c0-.2.094-.387.254-.508l56.931-42.815a.637.637 0 0 1 .382-.128l263.203-.486a.64.64 0 0 1 .638.637v328.62a.637.637 0 0 1-.637.636Zm-319.496-1.273h318.859V63.301l-262.352.484-56.507 42.497v284.365Z"/>
    <path fill="#0552CE" d="M492.67 108.553H155.683l58.276-61.916h330.579l-51.868 61.916Z"/>
    <path fill="#fff" d="M376.517 391.367h-99.579V108.251l50.432-44.4 49.147 44.4v283.116Z"/>
    <path fill="#05143F" d="M376.517 392.004h-99.58a.637.637 0 0 1-.637-.637V108.251a.637.637 0 0 1 1.275 0v282.48h98.305v-282.48a.637.637 0 0 1 1.274 0v283.116a.637.637 0 0 1-.637.637Z"/>
    <path fill="#C4E3F7" d="M549.088 108.965h.731c11.091 0 20.096 8.988 20.096 20.059v57.988h-40.923v-57.988c0-11.071 9.005-20.059 20.096-20.059Z"/>
    <path fill="#fff" d="M471.107 257.234h-71.374v134.134h71.374V257.234Z"/>
    <path fill="#05143F" d="M471.108 392.004h-71.374a.637.637 0 0 1-.637-.636V257.234c0-.352.285-.636.637-.636h71.374c.352 0 .638.284.638.636v134.134a.637.637 0 0 1-.638.636Zm-70.737-1.273h70.1V257.87h-70.1v132.861Z"/>
    <path fill="#0552CE" d="m516.714 246.439-80.871-47.132-2.54 1.48-78.325 45.65c2.176-.56 159.546-.553 161.736.002Z"/>
    <path fill="#fff" d="M510.998 391.432H360.687v9.445h150.311v-9.445Z"/>
    <path fill="#05143F" d="M510.999 401.513H360.687a.636.636 0 0 1-.637-.636v-9.446c0-.352.285-.636.637-.636h150.312c.352 0 .637.284.637.636v9.446a.636.636 0 0 1-.637.636Zm-149.674-1.272h149.037v-8.174H361.325v8.174Z"/>
    <path fill="#fff" d="M525.778 400.527H345.907v9.446h179.871v-9.446Z"/>
    <path fill="#05143F" d="M525.779 410.609H345.908a.637.637 0 0 1-.637-.636v-9.446c0-.352.285-.636.637-.636h179.871c.352 0 .637.284.637.636v9.446a.637.637 0 0 1-.637.636Zm-179.234-1.273h178.596v-8.173H346.545v8.173Z"/>
    <path fill="#fff" d="M545.929 409.842H325.757v9.446h220.172v-9.446Z"/>
    <path fill="#05143F" d="M545.929 419.925H325.757a.637.637 0 0 1-.638-.636v-9.446c0-.351.286-.636.638-.636h220.172c.352 0 .637.285.637.636v9.446a.636.636 0 0 1-.637.636Zm-219.535-1.272h218.898v-8.174H326.394v8.174Z"/>
    <path fill="#C4E3F7" d="M461.031 274.193h-12.423v101.389h12.423V274.193Z"/>
    <path fill="#F3F3F3" d="M364.327 246.352h25.623v4.461a4.17 4.17 0 0 1-4.172 4.165h-17.279a4.17 4.17 0 0 1-4.172-4.165v-4.461Z"/>
    <path fill="#05143F" d="M385.778 255.614h-17.279a4.811 4.811 0 0 1-4.81-4.801v-4.462c0-.352.286-.636.638-.636h25.623c.352 0 .637.284.637.636v4.462a4.81 4.81 0 0 1-4.809 4.801Zm-20.814-8.627v3.826a3.535 3.535 0 0 0 3.535 3.528h17.279a3.534 3.534 0 0 0 3.534-3.528v-3.826h-24.348Z"/>
    <path fill="#F3F3F3" d="M389.949 391.447h-25.623v-4.896a4.17 4.17 0 0 1 4.172-4.164h17.279a4.17 4.17 0 0 1 4.172 4.164v4.896Z"/>
    <path fill="#05143F" d="M389.95 392.084h-25.623a.637.637 0 0 1-.638-.636v-4.896c0-2.647 2.158-4.8 4.81-4.8h17.279a4.81 4.81 0 0 1 4.809 4.8v4.896a.636.636 0 0 1-.637.636Zm-24.986-1.272h24.348v-4.26a3.535 3.535 0 0 0-3.534-3.528h-17.279a3.536 3.536 0 0 0-3.535 3.528v4.26Z"/>
    <path fill="#F3F3F3" d="M386.11 255.16h-17.943v127.351h17.943V255.16Z"/>
    <path fill="#05143F" d="M386.11 383.149h-17.943a.638.638 0 0 1-.638-.637v-127.35c0-.352.286-.637.638-.637h17.943c.352 0 .637.285.637.637v127.35a.637.637 0 0 1-.637.637Zm-17.306-1.273h16.668V255.798h-16.668v126.078Z"/>
    <path fill="#F3F3F3" d="M481.736 246.352h25.623v4.461a4.17 4.17 0 0 1-4.171 4.165h-17.28a4.17 4.17 0 0 1-4.172-4.165v-4.461Z"/>
    <path fill="#05143F" d="M503.187 255.614h-17.279a4.81 4.81 0 0 1-4.809-4.801v-4.462c0-.352.285-.636.637-.636h25.623c.352 0 .637.284.637.636v4.462a4.81 4.81 0 0 1-4.809 4.801Zm-20.814-8.627v3.826a3.535 3.535 0 0 0 3.535 3.528h17.279a3.534 3.534 0 0 0 3.534-3.528v-3.826h-24.348Z"/>
    <path fill="#F3F3F3" d="M507.359 391.447h-25.623v-4.896a4.17 4.17 0 0 1 4.172-4.164h17.28a4.17 4.17 0 0 1 4.171 4.164v4.896Z"/>
    <path fill="#05143F" d="M507.359 392.084h-25.623a.636.636 0 0 1-.637-.636v-4.896a4.81 4.81 0 0 1 4.809-4.8h17.279a4.81 4.81 0 0 1 4.809 4.8v4.896a.636.636 0 0 1-.637.636Zm-24.986-1.272h24.348v-4.26a3.535 3.535 0 0 0-3.534-3.528h-17.279a3.536 3.536 0 0 0-3.535 3.528v4.26Z"/>
    <path fill="#F3F3F3" d="M503.519 255.16h-17.943v127.351h17.943V255.16Z"/>
    <path fill="#05143F" d="M503.519 383.149h-17.943a.638.638 0 0 1-.638-.637v-127.35c0-.352.286-.637.638-.637h17.943c.352 0 .637.285.637.637v127.35a.637.637 0 0 1-.637.637Zm-17.306-1.273h16.668V255.798h-16.668v126.078Z"/>
    <path fill="#C4E3F7" d="M418.132 140.414h-18.241v9.239h18.241v-9.239ZM444.623 140.414h-18.241v9.239h18.241v-9.239ZM471.114 140.414h-18.241v9.239h18.241v-9.239ZM418.132 156.787h-18.241v32.846h18.241v-32.846ZM444.623 156.787h-18.241v32.846h18.241v-32.846ZM471.114 156.787h-18.241v32.846h18.241v-32.846ZM212.057 140.414h-18.242v9.239h18.242v-9.239ZM238.548 140.414h-18.241v9.239h18.241v-9.239ZM265.039 140.414h-18.241v9.239h18.241v-9.239ZM212.057 156.787h-18.242v32.846h18.242v-32.846ZM238.548 156.787h-18.241v32.846h18.241v-32.846ZM265.039 156.787h-18.241v32.846h18.241v-32.846ZM212.057 274.193h-18.242v36.972h18.242v-36.972ZM238.548 274.193h-18.241v36.972h18.241v-36.972ZM265.039 274.193h-18.241v36.972h18.241v-36.972ZM212.057 318.301h-18.242v32.846h18.242v-32.846ZM238.548 318.301h-18.241v32.846h18.241v-32.846ZM265.039 318.301h-18.241v32.846h18.241v-32.846ZM324.868 109.42h.731c11.092 0 20.096 8.988 20.096 20.059v57.989h-40.923v-57.989c0-11.071 9.005-20.059 20.096-20.059Z"/>
    <path fill="#fff" d="M352.283 135.663h-50.8a.637.637 0 1 1 0-1.272h50.8a.636.636 0 1 1 0 1.272Z"/>
    <path fill="#fff" d="M331.034 135.664a.637.637 0 0 1-.638-.636 4.614 4.614 0 0 0-9.228 0 .636.636 0 1 1-1.274 0c0-3.241 2.641-5.878 5.888-5.878s5.889 2.637 5.889 5.878a.636.636 0 0 1-.637.636Z"/>
    <path fill="#fff" d="M325.782 130.059a.637.637 0 0 1-.637-.636v-26.474a.637.637 0 1 1 1.274 0v26.474a.637.637 0 0 1-.637.636ZM329.698 131.517a.636.636 0 0 1-.451-1.087l18.755-18.72a.637.637 0 0 1 .901.899l-18.754 18.721a.64.64 0 0 1-.451.187ZM321.982 131.795a.638.638 0 0 1-.451-.186l-18.754-18.72a.636.636 0 1 1 .901-.9l18.755 18.72a.636.636 0 0 1-.451 1.086ZM325.84 190.271a.637.637 0 0 1-.638-.636v-54.462a.637.637 0 0 1 1.275 0v54.462a.637.637 0 0 1-.637.636Z"/>
    <path fill="#fff" d="M349.815 153.413h-48.5a.637.637 0 1 1 0-1.272h48.5a.636.636 0 1 1 0 1.272ZM349.815 171.161h-48.5a.636.636 0 1 1 0-1.272h48.5a.636.636 0 1 1 0 1.272ZM349.815 188.909h-48.5a.636.636 0 1 1 0-1.272h48.5a.636.636 0 1 1 0 1.272Z"/>
    <path fill="#C4E3F7" d="M548.798 109.42h.731c11.091 0 20.096 8.988 20.096 20.059v57.989h-40.923v-57.989c0-11.071 9.005-20.059 20.096-20.059Z"/>
    <path fill="#fff" d="M576.214 135.663h-50.8a.637.637 0 1 1 0-1.272h50.8a.636.636 0 1 1 0 1.272Z"/>
    <path fill="#fff" d="M554.963 135.664a.636.636 0 0 1-.637-.636 4.615 4.615 0 0 0-9.228 0 .637.637 0 0 1-1.275 0c0-3.241 2.642-5.878 5.889-5.878 3.247 0 5.889 2.637 5.889 5.878a.637.637 0 0 1-.638.636Z"/>
    <path fill="#fff" d="M549.712 130.059a.637.637 0 0 1-.638-.636v-26.474a.638.638 0 0 1 1.275 0v26.474a.637.637 0 0 1-.637.636ZM553.628 131.517a.638.638 0 0 1-.451-1.087l18.755-18.72a.637.637 0 0 1 .901.899l-18.755 18.721a.635.635 0 0 1-.45.187ZM545.912 131.795a.638.638 0 0 1-.451-.186l-18.755-18.72a.636.636 0 0 1 0-.9.64.64 0 0 1 .902 0l18.754 18.72a.636.636 0 0 1-.45 1.086ZM549.769 190.271a.637.637 0 0 1-.637-.636v-54.462a.637.637 0 0 1 1.275 0v54.462a.637.637 0 0 1-.638.636Z"/>
    <path fill="#fff" d="M573.745 153.413h-48.5a.637.637 0 1 1 0-1.272h48.5a.636.636 0 1 1 0 1.272ZM573.745 171.161h-48.5a.637.637 0 1 1 0-1.272h48.5a.636.636 0 1 1 0 1.272ZM573.745 188.909h-48.5a.637.637 0 1 1 0-1.272h48.5a.636.636 0 1 1 0 1.272Z"/>
    <path fill="#C4E3F7" d="M324.868 270.932h.731c11.092 0 20.096 8.988 20.096 20.059v57.988h-40.923v-57.988c0-11.071 9.005-20.059 20.096-20.059Z"/>
    <path fill="#fff" d="M352.283 297.177h-50.8a.637.637 0 1 1 0-1.273h50.8a.637.637 0 1 1 0 1.273Z"/>
    <path fill="#fff" d="M331.034 297.177a.638.638 0 0 1-.638-.637 4.614 4.614 0 0 0-9.228 0 .637.637 0 1 1-1.274 0c0-3.241 2.641-5.878 5.888-5.878s5.889 2.637 5.889 5.878a.637.637 0 0 1-.637.637Z"/>
    <path fill="#fff" d="M325.782 291.573a.636.636 0 0 1-.637-.636v-26.475a.637.637 0 0 1 1.274 0v26.475a.636.636 0 0 1-.637.636ZM329.698 293.028a.636.636 0 0 1-.451-1.086l18.755-18.72a.637.637 0 0 1 .901.899l-18.754 18.721a.638.638 0 0 1-.451.186ZM321.982 293.307a.638.638 0 0 1-.451-.186L302.777 274.4a.637.637 0 0 1 .901-.899l18.755 18.72a.636.636 0 0 1-.451 1.086ZM325.84 351.783a.638.638 0 0 1-.638-.637v-54.461a.637.637 0 0 1 1.275 0v54.461a.637.637 0 0 1-.637.637Z"/>
    <path fill="#fff" d="M349.815 314.925h-48.5a.637.637 0 1 1 0-1.273h48.5a.637.637 0 1 1 0 1.273ZM349.815 332.673h-48.5a.637.637 0 1 1 0-1.273h48.5a.637.637 0 1 1 0 1.273ZM349.815 350.421h-48.5a.637.637 0 1 1 0-1.273h48.5a.637.637 0 1 1 0 1.273Z"/>
    <path fill="#C4E3F7" d="M548.798 270.932h.731c11.091 0 20.096 8.988 20.096 20.059v57.988h-40.923v-57.988c0-11.071 9.005-20.059 20.096-20.059Z"/>
    <path fill="#fff" d="M576.214 297.177h-50.8a.637.637 0 1 1 0-1.273h50.8a.637.637 0 1 1 0 1.273Z"/>
    <path fill="#fff" d="M554.963 297.177a.637.637 0 0 1-.637-.637 4.614 4.614 0 0 0-9.228 0 .637.637 0 1 1-1.275 0c0-3.241 2.642-5.878 5.889-5.878 3.247 0 5.889 2.637 5.889 5.878a.638.638 0 0 1-.638.637Z"/>
    <path fill="#fff" d="M549.712 291.573a.637.637 0 0 1-.638-.636v-26.475a.637.637 0 0 1 1.275 0v26.475a.636.636 0 0 1-.637.636ZM553.628 293.028a.637.637 0 0 1-.451-1.086l18.755-18.72a.637.637 0 0 1 .901.899l-18.755 18.721a.634.634 0 0 1-.45.186ZM545.912 293.307a.638.638 0 0 1-.451-.186L526.706 274.4a.638.638 0 0 1 .902-.899l18.754 18.72a.636.636 0 0 1-.45 1.086ZM549.769 351.783a.637.637 0 0 1-.637-.637v-54.461a.637.637 0 0 1 1.275 0v54.461a.638.638 0 0 1-.638.637Z"/>
    <path fill="#fff" d="M573.745 314.925h-48.5a.637.637 0 1 1 0-1.273h48.5a.637.637 0 1 1 0 1.273ZM573.745 332.673h-48.5a.637.637 0 1 1 0-1.273h48.5a.637.637 0 1 1 0 1.273ZM573.745 350.421h-48.5a.637.637 0 1 1 0-1.273h48.5a.637.637 0 1 1 0 1.273Z"/>
    <path fill="#05143F" d="M687.012 529a48.624 48.624 0 0 1-32.416-12.343l-58.534-52.154c-2.486-2.215-3.293-5.522-2.105-8.63 1.188-3.108 3.996-5.039 7.328-5.039h192.033a.637.637 0 1 1 0 1.272H601.285c-3.336 0-5.357 2.181-6.137 4.22-.779 2.04-.725 5.011 1.763 7.228l58.534 52.153a47.338 47.338 0 0 0 32.151 12.016l105.759-1.286h.007a.637.637 0 0 1 .008 1.272l-105.758 1.287c-.2.002-.401.004-.6.004ZM792.83 435.35H576.925a35.613 35.613 0 0 1-23.716-9.028l-4.099-3.652a.637.637 0 0 1 .849-.95l4.099 3.652a34.331 34.331 0 0 0 22.867 8.706H792.83a.636.636 0 1 1 0 1.272ZM793.363 391.845H602.224a.637.637 0 1 1 0-1.273h191.139a.637.637 0 1 1 0 1.273Z"/>
    <path fill="#F3F3F3" d="M620.489 407.25c23.728 0 42.964-18.763 42.964-41.909 0-23.146-19.236-41.909-42.964-41.909-23.727 0-42.963 18.763-42.963 41.909 0 23.146 19.236 41.909 42.963 41.909Z"/>
    <path fill="#05143F" d="M620.489 407.888c-24.041 0-43.6-19.086-43.6-42.546 0-23.459 19.559-42.545 43.6-42.545 24.042 0 43.601 19.086 43.601 42.545 0 23.46-19.559 42.546-43.601 42.546Zm0-83.819c-23.338 0-42.326 18.515-42.326 41.273 0 22.758 18.988 41.273 42.326 41.273s42.326-18.515 42.326-41.273c0-22.758-18.987-41.273-42.326-41.273Z"/>
    <path fill="#05143F" d="M620.102 415.989a.637.637 0 0 1-.637-.637v-40.048a.637.637 0 0 1 1.275 0v40.048a.638.638 0 0 1-.638.637Z"/>
    <path fill="#05143F" d="M620.328 388.766a.634.634 0 0 1-.503-1.027l6.311-8.1a.637.637 0 0 1 1.007.781l-6.312 8.1a.639.639 0 0 1-.503.246Z"/>
    <path fill="#F3F3F3" d="M731.315 409.2c25.615 0 46.381-20.727 46.381-46.295 0-25.569-20.766-46.296-46.381-46.296-25.615 0-46.38 20.727-46.38 46.296 0 25.568 20.765 46.295 46.38 46.295Z"/>
    <path fill="#05143F" d="M731.315 409.838c-25.926 0-47.018-21.054-47.018-46.932 0-25.878 21.092-46.931 47.018-46.931 25.926 0 47.018 21.053 47.018 46.931 0 25.878-21.093 46.932-47.018 46.932Zm0-92.591c-25.223 0-45.743 20.483-45.743 45.659s20.52 45.659 45.743 45.659c25.223 0 45.743-20.483 45.743-45.659 0-25.177-20.52-45.659-45.743-45.659Z"/>
    <path fill="#05143F" d="M732.129 415.989a.637.637 0 0 1-.638-.636v-51.748a.637.637 0 0 1 1.275 0v51.748a.636.636 0 0 1-.637.636Z"/>
    <path fill="#05143F" d="M731.909 373.718a.638.638 0 0 1-.377-.123l-6.455-4.733a.636.636 0 1 1 .755-1.026l6.455 4.734a.636.636 0 0 1-.378 1.148ZM732.173 395.412a.636.636 0 0 1-.399-1.133l19.363-15.515a.636.636 0 1 1 .798.993l-19.363 15.515a.639.639 0 0 1-.399.14ZM184.593 529c-.199 0-.399-.002-.599-.004L.634 527.709a.636.636 0 0 1 .003-1.272h.005l183.365 1.286a47.35 47.35 0 0 0 32.154-12.016l58.534-52.153c2.488-2.217 2.542-5.188 1.763-7.228-.78-2.039-2.801-4.22-6.137-4.22H.681a.636.636 0 1 1 0-1.272h269.64c3.332 0 6.14 1.931 7.328 5.039 1.188 3.108.381 6.415-2.105 8.63l-58.534 52.154A48.627 48.627 0 0 1 184.593 529ZM294.681 435.35H1.17a.636.636 0 1 1 0-1.272H294.68a34.335 34.335 0 0 0 22.866-8.705l4.099-3.652a.637.637 0 1 1 .849.949l-4.099 3.652a35.608 35.608 0 0 1-23.715 9.028ZM168.551 391.866H1.134a.636.636 0 1 1 0-1.272h167.417a.636.636 0 1 1 0 1.272Z"/>
    <path fill="#F3F3F3" d="M182.07 407.25c23.728 0 42.964-18.763 42.964-41.909 0-23.146-19.236-41.909-42.964-41.909-23.727 0-42.963 18.763-42.963 41.909 0 23.146 19.236 41.909 42.963 41.909Z"/>
    <path fill="#05143F" d="M182.071 407.888c-24.041 0-43.6-19.086-43.6-42.546 0-23.459 19.559-42.545 43.6-42.545 24.042 0 43.601 19.086 43.601 42.545 0 23.46-19.559 42.546-43.601 42.546Zm0-83.819c-23.338 0-42.326 18.515-42.326 41.273 0 22.758 18.988 41.273 42.326 41.273 23.339 0 42.326-18.515 42.326-41.273 0-22.758-18.987-41.273-42.326-41.273Z"/>
    <path fill="#05143F" d="M181.013 414.64a.637.637 0 0 1-.637-.636v-45.133a.637.637 0 1 1 1.275 0v45.133a.637.637 0 0 1-.638.636Z"/>
    <path fill="#05143F" d="M180.999 391.244a.636.636 0 0 1-.36-1.161l11.667-7.96a.638.638 0 0 1 .72 1.05l-11.667 7.96a.64.64 0 0 1-.36.111Z"/>
    <path fill="#F3F3F3" d="M71.246 409.2c25.615 0 46.38-20.727 46.38-46.295 0-25.569-20.765-46.296-46.38-46.296-25.615 0-46.38 20.727-46.38 46.296 0 25.568 20.764 46.295 46.38 46.295Z"/>
    <path fill="#05143F" d="M71.246 409.838c-25.926 0-47.018-21.054-47.018-46.932 0-25.878 21.092-46.931 47.018-46.931 25.925 0 47.018 21.053 47.018 46.931 0 25.878-21.093 46.932-47.018 46.932Zm0-92.591c-25.223 0-45.744 20.483-45.744 45.659s20.52 45.659 45.744 45.659c25.223 0 45.743-20.483 45.743-45.659 0-25.177-20.52-45.659-45.743-45.659Z"/>
    <path fill="#05143F" d="M70.254 415.881a.636.636 0 0 1-.638-.636v-64.386a.636.636 0 0 1 1.275 0v64.386a.636.636 0 0 1-.637.636Z"/>
    <path fill="#05143F" d="M69.938 393.456a.634.634 0 0 1-.32-.087l-23.743-13.851a.636.636 0 1 1 .643-1.099L70.26 392.27a.636.636 0 0 1-.322 1.186ZM70.25 378.432a.636.636 0 0 1-.415-1.118l13.347-11.42a.637.637 0 0 1 .83.966l-13.347 11.419a.634.634 0 0 1-.415.153ZM70.103 357.644a.636.636 0 0 1-.34-.097l-3.96-2.489a.636.636 0 1 1 .68-1.078l3.96 2.489a.636.636 0 0 1-.34 1.175Z"/>
    <path fill="#fff" d="M5.15 34.706c2.465-5.71 8.977-11.333 17.613-14.408 10.852-3.862 21.593-2.541 26.336 2.72 2.419-2.155 5.265-4.134 8.465-5.802 11.714-6.103 24.158-5.972 29.68-.151 4.105-3.873 9.152-7.404 14.941-10.25 19.818-9.745 40.742-7.8 46.735 4.343 3.4 6.89 3.096 15.587-3.009 23.599l-140.762-.05Z"/>
    <path fill="#05143F" d="m145.911 35.392-140.762-.05a.637.637 0 0 1-.585-.888c2.628-6.088 9.52-11.742 17.984-14.755 10.58-3.768 21.378-2.748 26.59 2.436 2.422-2.09 5.154-3.933 8.13-5.484 11.52-6 23.977-6.158 29.99-.471 4.215-3.889 9.139-7.23 14.645-9.937 20.101-9.884 41.45-7.806 47.589 4.632 3.851 7.805 2.73 16.65-3.074 24.266a.638.638 0 0 1-.507.251ZM6.151 34.07l139.442.05c5.335-7.161 6.343-15.412 2.755-22.682-5.828-11.809-26.41-13.628-45.882-4.053-5.59 2.748-10.564 6.16-14.785 10.141a.638.638 0 0 1-.9-.024c-5.442-5.736-17.605-5.62-28.922.277-3.075 1.602-5.88 3.524-8.335 5.712a.637.637 0 0 1-.899-.05c-4.692-5.203-15.24-6.25-25.648-2.544-7.724 2.75-14.066 7.74-16.825 13.173Z"/>
    <path fill="#FC6E56" d="M472.474 19.887c5.495 0 9.95-4.447 9.95-9.932s-4.455-9.932-9.95-9.932c-5.495 0-9.95 4.447-9.95 9.932s4.455 9.932 9.95 9.932ZM453.122 12.238c1.263-5.339-2.049-10.688-7.398-11.948-5.348-1.26-10.707 2.046-11.969 7.384-1.263 5.338 2.049 10.687 7.397 11.948 5.349 1.26 10.708-2.046 11.97-7.384ZM414.401 19.887c5.495 0 9.95-4.447 9.95-9.932s-4.455-9.932-9.95-9.932c-5.495 0-9.95 4.447-9.95 9.932s4.455 9.932 9.95 9.932Z"/>
    <path fill="#05143F" d="M760.445 37.527a.636.636 0 0 1-.637-.637V9.263H495.27a.636.636 0 1 1 0-1.273h265.175c.352 0 .638.285.638.636V36.89a.637.637 0 0 1-.638.637ZM391.889 9.263H267.997a.637.637 0 1 1 0-1.273h123.892a.637.637 0 1 1 0 1.273Z"/>
    <path fill="#fff" d="m68.722 155.753 89.061.033c2.348-5.318 2.897-11.106.887-16.464-4.728-12.602-21.145-18.115-36.669-12.312-9.214 3.444-16.042 10.101-19.081 17.578-5.205-3.827-13.054-4.828-20.604-2.006-6.788 2.537-11.645 7.605-13.594 13.171Z"/>
    <path fill="#05143F" d="m157.783 156.422-89.062-.033a.638.638 0 0 1-.601-.846c2.103-6.004 7.326-11.071 13.972-13.556 7.22-2.699 15.007-2.064 20.548 1.629 3.375-7.658 10.306-13.9 19.138-17.202 15.826-5.916 32.645-.226 37.488 12.685 1.978 5.271 1.667 11.131-.9 16.944a.638.638 0 0 1-.583.379Zm-88.139-1.304 87.72.032c2.278-5.378 2.525-10.765.709-15.605-4.598-12.253-20.679-17.608-35.849-11.939-8.778 3.282-15.599 9.559-18.714 17.222a.636.636 0 0 1-.969.273c-5.226-3.843-12.89-4.58-20.002-1.923-5.979 2.235-10.736 6.658-12.895 11.94Z"/>
  </g>
  <defs>
    <clipPath id="clip0_2_2">
      <path fill="#fff" d="M30 213h757v342H30z"/>
    </clipPath>
    <clipPath id="clip1_2_2">
      <path fill="#fff" d="M0 0h794v529H0z"/>
    </clipPath>
  </defs>
</svg>
