<svg xmlns="http://www.w3.org/2000/svg" fill="none" viewBox="0 0 357 225">
  <path fill="#C4E3F7" d="M302.851 45.408C289.86 18.66 262.258.128 230.303 0c-39.987-.16-73.163 28.557-79.434 66.337-25.456.35-45.956 20.82-45.962 46.111-.005 25.573 20.946 46.387 46.796 46.49l147.543.587c31.89.127 57.747-25.345 57.754-56.893.006-30.358-23.928-55.275-54.149-57.225Z"/>
  <path fill="#fff" d="M165.26 42.495H96.753v115.239h68.507V42.494Z"/>
  <path fill="#05143F" d="M165.259 158.003H96.753a.269.269 0 0 1-.27-.269V42.494a.27.27 0 0 1 .27-.268h68.506c.149 0 .27.12.27.269v115.239a.27.27 0 0 1-.27.269Zm-68.236-.538h67.967V42.764H97.022v114.701Z"/>
  <path fill="#C4E3F7" d="M108.444 52.099h-7.832v7.882h7.832V52.1ZM135.153 52.099h-7.832v7.882h7.832V52.1ZM148.507 52.099h-7.831v7.882h7.831V52.1ZM161.862 52.099h-7.832v7.882h7.832V52.1ZM108.444 62.18h-7.832v7.883h7.832V62.18ZM121.798 62.18h-7.831v7.883h7.831V62.18ZM135.153 62.18h-7.832v7.883h7.832V62.18ZM148.507 62.18h-7.831v7.883h7.831V62.18ZM108.444 72.262h-7.832v7.882h7.832v-7.882ZM121.798 72.262h-7.831v7.882h7.831v-7.882ZM148.507 72.262h-7.831v7.882h7.831v-7.882ZM161.862 72.262h-7.832v7.882h7.832v-7.882ZM108.444 82.343h-7.832v7.883h7.832v-7.883ZM135.153 82.343h-7.832v7.883h7.832v-7.883ZM148.507 82.343h-7.831v7.883h7.831v-7.883ZM161.862 82.343h-7.832v7.883h7.832v-7.883ZM108.444 92.424h-7.832v7.883h7.832v-7.883ZM121.798 92.424h-7.831v7.883h7.831v-7.883ZM135.153 92.424h-7.832v7.883h7.832v-7.883ZM148.507 92.424h-7.831v7.883h7.831v-7.883ZM161.862 92.424h-7.832v7.883h7.832v-7.883ZM108.444 102.506h-7.832v7.882h7.832v-7.882ZM121.798 102.506h-7.831v7.882h7.831v-7.882ZM135.153 102.506h-7.832v7.882h7.832v-7.882ZM148.507 102.506h-7.831v7.882h7.831v-7.882ZM161.862 102.506h-7.832v7.882h7.832v-7.882ZM108.444 112.396h-7.832v7.882h7.832v-7.882ZM121.798 112.396h-7.831v7.882h7.831v-7.882ZM135.153 112.396h-7.832v7.882h7.832v-7.882ZM148.507 112.396h-7.831v7.882h7.831v-7.882ZM161.862 112.396h-7.832v7.882h7.832v-7.882ZM108.444 122.286h-7.832v7.882h7.832v-7.882ZM121.798 122.286h-7.831v7.882h7.831v-7.882ZM135.153 122.286h-7.832v7.882h7.832v-7.882ZM148.507 122.286h-7.831v7.882h7.831v-7.882ZM161.862 122.286h-7.832v7.882h7.832v-7.882ZM108.444 132.176h-7.832v7.882h7.832v-7.882ZM121.798 132.176h-7.831v7.882h7.831v-7.882ZM135.153 132.176h-7.832v7.882h7.832v-7.882ZM148.507 132.176h-7.831v7.882h7.831v-7.882ZM161.862 132.176h-7.832v7.882h7.832v-7.882ZM108.444 142.065h-7.832v7.883h7.832v-7.883ZM121.798 142.065h-7.831v7.883h7.831v-7.883ZM135.153 142.065h-7.832v7.883h7.832v-7.883ZM148.507 142.065h-7.831v7.883h7.831v-7.883ZM161.862 142.065h-7.832v7.883h7.832v-7.883Z"/>
  <path fill="#fff" d="M305.23 31.508V17.76h-57.719v13.748h-9.455v125.765h76.628V31.508h-9.454Z"/>
  <path fill="#05143F" d="M314.684 157.542h-76.628a.27.27 0 0 1-.269-.269V31.507a.27.27 0 0 1 .269-.268h9.186v-13.48c0-.148.12-.268.269-.268h57.719c.149 0 .269.12.269.269v13.479h9.185c.149 0 .27.12.27.268v125.766a.27.27 0 0 1-.27.269Zm-76.358-.538h76.089V31.777h-9.185a.27.27 0 0 1-.27-.27V18.03h-57.18v13.479c0 .148-.12.268-.269.268h-9.185v125.228Z"/>
  <path fill="#05143F" d="M250.803 59.623h-8.767a.269.269 0 1 1 0-.537h8.498V42.119h-8.498a.269.269 0 1 1 0-.538h8.767c.149 0 .269.12.269.27v17.504c0 .148-.12.269-.269.269ZM265.753 59.623h-8.767a.27.27 0 0 1-.27-.268V41.85a.27.27 0 0 1 .539 0v17.236h8.228v-6.573a.27.27 0 0 1 .539 0v6.842a.27.27 0 0 1-.269.269ZM275.362 59.623h-3.427a.269.269 0 0 1-.269-.268V41.85c0-.148.12-.269.269-.269h8.767c.149 0 .269.12.269.27v12.078a.269.269 0 1 1-.538 0V42.12h-8.228v16.967h3.157a.27.27 0 1 1 0 .538ZM295.651 59.623h-8.766a.27.27 0 0 1-.27-.268V41.85a.27.27 0 0 1 .27-.269h3.14a.27.27 0 1 1 0 .538h-2.871v16.967h8.228V55.03a.27.27 0 0 1 .539 0v4.324a.27.27 0 0 1-.27.269ZM310.601 59.623h-8.767a.269.269 0 0 1-.269-.268V51.41a.269.269 0 1 1 .538 0v7.675h8.228V41.85a.27.27 0 0 1 .539 0v17.505c0 .148-.12.269-.269.269ZM250.803 82.01h-8.767a.269.269 0 0 1-.269-.269V64.237a.27.27 0 0 1 .539 0v17.235h8.228v-8.969a.269.269 0 1 1 .538 0v9.238c0 .15-.12.27-.269.27ZM260.857 82.01h-3.871a.27.27 0 0 1-.27-.269V64.237a.27.27 0 0 1 .27-.269h8.767a.27.27 0 0 1 0 .538h-8.498v16.966h3.602a.27.27 0 0 1 0 .538ZM280.702 82.01h-3.921a.269.269 0 1 1 0-.538h3.652V64.506h-4.598a.269.269 0 1 1 0-.538h4.867c.149 0 .269.12.269.27V81.74c0 .15-.12.27-.269.27ZM295.651 82.01a.269.269 0 0 1-.269-.269V64.506h-8.228v7.997a.27.27 0 0 1-.539 0v-8.266a.27.27 0 0 1 .27-.269h8.766c.149 0 .27.12.27.269v17.504a.27.27 0 0 1-.27.27ZM305.162 82.01h-3.328a.269.269 0 0 1-.269-.269V64.237c0-.149.12-.269.269-.269h8.767a.269.269 0 1 1 0 .538h-8.498v16.966h3.059a.27.27 0 0 1 0 .538ZM250.803 104.397h-8.767a.268.268 0 0 1-.269-.269V86.624c0-.149.12-.269.269-.269h8.767c.149 0 .269.12.269.269v17.504c0 .149-.12.269-.269.269Zm-8.497-.538h8.228V86.893h-8.228v16.966ZM265.753 104.397h-8.767a.27.27 0 0 1-.27-.269V86.624a.27.27 0 0 1 .27-.269h8.767a.27.27 0 0 1 .269.269v17.504a.27.27 0 0 1-.269.269Zm-8.498-.538h8.228V86.893h-8.228v16.966ZM271.935 100.004a.269.269 0 0 1-.269-.27v-13.11c0-.149.12-.269.269-.269h8.767a.269.269 0 1 1 0 .538h-8.497v12.842a.27.27 0 0 1-.27.269ZM295.651 104.397h-8.766a.27.27 0 0 1-.27-.269V86.624a.27.27 0 0 1 .27-.269h8.766c.149 0 .27.12.27.269v17.504a.27.27 0 0 1-.27.269Zm-8.497-.538h8.228V86.893h-8.228v16.966ZM310.601 104.397h-8.767a.268.268 0 0 1-.269-.269v-7.227a.269.269 0 1 1 .538 0v6.958h8.228V86.624a.27.27 0 0 1 .539 0v17.504c0 .149-.12.269-.269.269ZM73.467 110.206a.269.269 0 0 1-.27-.269V57.55c0-.149.121-.27.27-.27h20.79a.269.269 0 1 1 0 .539h-20.52v52.118c0 .149-.12.269-.27.269ZM210.245 154.094a.27.27 0 0 1-.27-.269V47.161a.27.27 0 0 1 .27-.27h25.542a.27.27 0 1 1 0 .539h-25.273v106.395a.27.27 0 0 1-.269.269ZM207.722 57.19h-14.505a.27.27 0 0 1-.27-.27V29.17h-30.995v10.75a.269.269 0 1 1-.538 0V28.902c0-.15.12-.27.269-.27h31.534c.149 0 .269.12.269.27v27.75h14.236a.27.27 0 1 1 0 .537Z"/>
  <path fill="#05143F" d="M189.433 37.146a.27.27 0 0 1-.27-.27V32.26a.27.27 0 0 1 .539 0v4.617a.27.27 0 0 1-.269.269ZM189.433 46.809a.27.27 0 0 1-.27-.27v-4.616a.27.27 0 0 1 .539 0v4.617a.27.27 0 0 1-.269.269ZM189.433 56.472a.27.27 0 0 1-.27-.269v-4.617a.27.27 0 0 1 .539 0v4.617a.27.27 0 0 1-.269.269ZM184.593 46.809a.269.269 0 0 1-.269-.27v-4.616a.27.27 0 1 1 .539 0v4.617a.27.27 0 0 1-.27.269ZM184.593 56.472a.269.269 0 0 1-.269-.269v-4.617a.27.27 0 1 1 .539 0v4.617a.27.27 0 0 1-.27.269ZM184.593 66.135a.269.269 0 0 1-.269-.27V61.25a.27.27 0 1 1 .539 0v4.617a.27.27 0 0 1-.27.269ZM179.754 56.472a.27.27 0 0 1-.27-.269v-4.617a.27.27 0 0 1 .539 0v4.617a.27.27 0 0 1-.269.269ZM179.754 66.135a.27.27 0 0 1-.27-.27V61.25a.27.27 0 0 1 .539 0v4.617a.27.27 0 0 1-.269.269ZM179.754 75.798a.27.27 0 0 1-.27-.269v-4.617a.27.27 0 0 1 .539 0v4.617a.27.27 0 0 1-.269.269ZM174.914 46.809a.269.269 0 0 1-.269-.27v-4.616a.269.269 0 1 1 .538 0v4.617c0 .149-.12.269-.269.269ZM174.914 56.472a.269.269 0 0 1-.269-.269v-4.617a.269.269 0 1 1 .538 0v4.617c0 .149-.12.269-.269.269ZM189.433 86.007a.27.27 0 0 1-.27-.269v-4.617a.27.27 0 0 1 .539 0v4.617a.27.27 0 0 1-.269.27ZM199.367 86.007a.27.27 0 0 1-.27-.269v-4.617a.27.27 0 0 1 .539 0v4.617c0 .149-.12.27-.269.27ZM184.593 86.007a.269.269 0 0 1-.269-.269v-4.617a.27.27 0 0 1 .539 0v4.617a.27.27 0 0 1-.27.27ZM194.325 86.007a.269.269 0 0 1-.269-.269v-4.617a.269.269 0 1 1 .538 0v4.617c0 .149-.12.27-.269.27ZM179.754 86.007a.27.27 0 0 1-.27-.269v-4.617a.27.27 0 0 1 .539 0v4.617a.27.27 0 0 1-.269.27ZM174.914 86.007a.269.269 0 0 1-.269-.269v-4.617a.269.269 0 1 1 .538 0v4.617c0 .149-.12.27-.269.27ZM174.914 66.135a.269.269 0 0 1-.269-.27V61.25a.269.269 0 1 1 .538 0v4.617c0 .149-.12.269-.269.269Z"/>
  <path fill="#FC6E56" d="M221.29 52.218h-5.63v19.44h5.63v-19.44ZM232.551 52.218h-5.63v19.44h5.63v-19.44ZM221.29 80.323h-5.63v19.44h5.63v-19.44ZM232.551 108.429h-5.63v19.439h5.63v-19.439Z"/>
  <path fill="#0552CE" d="m281.941 155.312-12.843.019-.021-14.401-26.769.011.011 7.033-13.671 4.885-.018-11.889-6.513.01.013 8.616-23.436.011-.013-8.617-24.326.02.202 14.785-23.61.016-.255-14.782-78.05.062.044 28.802 262.854-.236c-.024-15.907-12.961-28.784-28.894-28.76l-24.727.014.022 14.401Z"/>
  <path fill="#0552CE" d="M.28 155.468c.04 26.284 21.415 47.558 47.743 47.519 26.328-.04 47.639-21.379 47.599-47.663-.04-26.284-21.415-47.56-47.743-47.52-26.327.04-47.638 21.38-47.598 47.664Zm39.449-.06c.01 6.009-4.863 10.887-10.881 10.896-6.019.009-10.906-4.854-10.915-10.863-.009-6.008 4.863-10.887 10.882-10.896 6.018-.009 10.905 4.855 10.914 10.863Z"/>
  <path fill="#CFF558" d="M158.554 194.119c0 10.131-3.007 11.639-6.716 11.639s-6.716-1.508-6.716-11.639c0-10.132 3.007-26.315 6.716-26.315s6.716 16.183 6.716 26.315Z"/>
  <path fill="#05143F" d="M151.838 206.027c-4.193 0-6.986-2.025-6.986-11.908 0-9.128 2.721-26.584 6.986-26.584s6.986 17.456 6.986 26.584c0 9.883-2.793 11.908-6.986 11.908Zm0-37.954c-3.198 0-6.447 15.154-6.447 26.046 0 10.491 3.328 11.37 6.447 11.37s6.447-.879 6.447-11.37c0-10.892-3.249-26.046-6.447-26.046Z"/>
  <path fill="#CFF558" d="M191.681 187.026c0 12.856-3.816 14.77-8.523 14.77s-8.522-1.914-8.522-14.77 3.815-33.391 8.522-33.391c4.707 0 8.523 20.535 8.523 33.391Z"/>
  <path fill="#CFF558" d="M183.158 202.065c-5.277 0-8.792-2.558-8.792-15.039 0-6.461.983-14.931 2.503-21.576 1.261-5.513 3.376-12.084 6.289-12.084s5.028 6.571 6.289 12.084c1.521 6.645 2.503 15.115 2.503 21.576 0 12.481-3.514 15.039-8.792 15.039Zm0-48.161c-1.967 0-4.067 4.252-5.763 11.666-1.513 6.609-2.49 15.031-2.49 21.456 0 13.38 4.26 14.501 8.253 14.501 3.993 0 8.253-1.121 8.253-14.501 0-6.425-.977-14.847-2.489-21.456-1.696-7.414-3.797-11.666-5.764-11.666ZM229.661 182.087c0 14.753-4.378 16.949-9.78 16.949-5.402 0-9.781-2.196-9.781-16.949 0-14.754 4.379-38.32 9.781-38.32 5.401 0 9.78 23.566 9.78 38.32Z"/>
  <path fill="#CFF558" d="M219.881 199.305c-6.032 0-10.05-2.928-10.05-17.218 0-7.413 1.127-17.129 2.871-24.753 1.183-5.167 3.687-13.836 7.179-13.836 3.491 0 5.996 8.669 7.179 13.836 1.744 7.624 2.871 17.34 2.871 24.753 0 14.29-4.018 17.218-10.05 17.218Zm0-55.269c-2.277 0-4.702 4.891-6.653 13.418-1.736 7.588-2.858 17.257-2.858 24.633 0 15.391 4.909 16.68 9.511 16.68 4.602 0 9.511-1.289 9.511-16.68 0-7.376-1.122-17.045-2.858-24.633-1.951-8.527-4.376-13.418-6.653-13.418Z"/>
  <path fill="#FC6E56" d="M45.727 224.999a4.202 4.202 0 0 0 4.206-4.199 4.202 4.202 0 0 0-4.206-4.198 4.202 4.202 0 0 0-4.205 4.198 4.202 4.202 0 0 0 4.205 4.199ZM58.967 224.887a4.199 4.199 0 1 0-1.932-8.173 4.198 4.198 0 1 0 1.932 8.173ZM70.275 224.999a4.202 4.202 0 0 0 4.205-4.199 4.202 4.202 0 0 0-4.205-4.198 4.202 4.202 0 0 0-4.206 4.198 4.202 4.202 0 0 0 4.206 4.199Z"/>
  <path fill="#05143F" d="M260.204 221.069H78.876a.269.269 0 1 1 0-.538h181.328a.27.27 0 0 1 0 .538ZM34.645 221.069H.27a.269.269 0 1 1 0-.538h34.376a.27.27 0 0 1 0 .538Z"/>
  <path fill="#05143F" d="M152.039 220.76a.27.27 0 0 1-.269-.269v-25.717a.27.27 0 0 1 .539 0v25.717a.27.27 0 0 1-.27.269ZM183.413 220.76a.27.27 0 0 1-.269-.269v-43.38a.27.27 0 0 1 .539 0v43.38a.27.27 0 0 1-.27.269ZM220.174 220.76a.27.27 0 0 1-.27-.269v-53.797a.27.27 0 0 1 .539 0v53.797a.27.27 0 0 1-.269.269Z"/>
  <path fill="#05143F" d="M151.833 199.741a.268.268 0 0 1-.19-.078l-1.757-1.755a.269.269 0 1 1 .381-.38l1.757 1.754a.27.27 0 0 1-.191.459ZM183.262 190.894a.266.266 0 0 1-.181-.07l-4.049-3.661a.269.269 0 1 1 .361-.399l4.049 3.661c.111.1.119.27.019.38a.267.267 0 0 1-.199.089ZM183.524 182.544a.265.265 0 0 1-.19-.079.267.267 0 0 1 0-.38l2.444-2.44a.269.269 0 1 1 .381.38l-2.444 2.44a.269.269 0 0 1-.191.079ZM220.008 174.781a.267.267 0 0 1-.184-.073l-2.296-2.144a.269.269 0 1 1 .368-.393l2.296 2.144a.27.27 0 0 1-.184.466ZM220.234 183.373a.27.27 0 0 1-.159-.487l5.15-3.713a.27.27 0 0 1 .316.436l-5.15 3.713a.265.265 0 0 1-.157.051ZM219.886 193.9a.271.271 0 0 1-.153-.048l-6.749-4.654a.269.269 0 1 1 .306-.443l6.749 4.654a.27.27 0 0 1-.153.491Z"/>
  <path fill="#CFF558" d="M268.932 185.631c0 13.392-3.975 15.385-8.879 15.385-4.903 0-8.878-1.993-8.878-15.385 0-13.393 3.975-34.785 8.878-34.785 4.904 0 8.879 21.392 8.879 34.785Z"/>
  <path fill="#CFF558" d="M260.054 201.285c-5.491 0-9.148-2.662-9.148-15.655 0-6.73 1.023-15.551 2.607-22.474 1.075-4.697 3.354-12.579 6.541-12.579 3.186 0 5.465 7.882 6.54 12.579 1.584 6.923 2.607 15.744 2.607 22.474 0 12.993-3.657 15.655-9.147 15.655Zm0-50.17c-2.055 0-4.247 4.433-6.016 12.161-1.575 6.886-2.593 15.661-2.593 22.354 0 13.949 4.444 15.117 8.609 15.117s8.608-1.168 8.608-15.117c0-6.693-1.018-15.467-2.594-22.354-1.768-7.728-3.96-12.161-6.014-12.161Z"/>
  <path fill="#05143F" d="M260.319 220.76a.27.27 0 0 1-.269-.269v-48.834a.27.27 0 0 1 .539 0v48.834a.27.27 0 0 1-.27.269Z"/>
  <path fill="#05143F" d="M260.374 186.823a.27.27 0 0 1-.159-.487l4.675-3.371a.269.269 0 0 1 .316.436l-4.675 3.371a.272.272 0 0 1-.157.051ZM114.595 25.55a.268.268 0 0 1-.228-.126c-2.436-3.854-7.315-6.519-13.054-7.13a.27.27 0 0 1-.233-.202C98.774 8.775 89.85 2.27 79.38 2.27c-8.528 0-16.414 4.544-20.092 11.578a.269.269 0 0 1-.424.07c-2.755-2.62-6.39-4.063-10.237-4.063-6.57 0-12.379 4.301-14.127 10.459a.269.269 0 1 1-.518-.146c1.813-6.39 7.835-10.85 14.645-10.85 3.866 0 7.527 1.406 10.35 3.97C62.813 6.255 70.78 1.73 79.38 1.73c5.196 0 10.278 1.643 14.31 4.626 3.925 2.903 6.713 6.955 7.866 11.424 5.82.665 10.77 3.407 13.266 7.356a.27.27 0 0 1-.228.412Z"/>
  <path fill="#05143F" d="M114.608 25.544H11.213a.269.269 0 1 1 0-.538h103.395a.27.27 0 1 1 0 .538ZM55.632 71.38H4.122a.27.27 0 1 1 0-.539h51.51a.269.269 0 1 1 0 .538Z"/>
  <path fill="#05143F" d="M55.633 71.374a.27.27 0 0 1-.243-.152c-.565-1.168-1.737-2.21-3.302-2.936a.27.27 0 0 1-.153-.207c-.391-2.77-3.21-4.86-6.557-4.86-.892 0-1.757.146-2.572.434a.27.27 0 0 1-.336-.142c-1.45-3.2-5.152-5.349-9.213-5.349-4.615 0-8.668 2.757-9.639 6.555a.268.268 0 0 1-.33.193 12.95 12.95 0 0 0-3.328-.427c-3.829 0-7.304 1.655-8.648 4.118a.27.27 0 0 1-.473-.257c1.435-2.631 5.1-4.399 9.121-4.399 1.097 0 2.175.128 3.207.38 1.144-3.899 5.337-6.7 10.09-6.7 4.175 0 7.998 2.177 9.6 5.443a8.264 8.264 0 0 1 2.52-.387c3.557 0 6.566 2.216 7.07 5.178 1.611.776 2.826 1.883 3.428 3.129a.269.269 0 0 1-.242.386Z"/>
</svg>
