<svg xmlns="http://www.w3.org/2000/svg" fill="none" viewBox="0 0 94 94">
  <path fill="#061857" d="m91.788 83.172-13.53-13.53c4.78-6.536 7.634-14.567 7.634-23.284 0-21.834-17.7-39.534-39.534-39.534S6.824 24.524 6.824 46.358s17.7 39.535 39.534 39.535c8.717 0 16.748-2.855 23.283-7.634l13.53 13.53a4.444 4.444 0 0 0 6.285 0l2.332-2.332a4.444 4.444 0 0 0 0-6.285Z"/>
  <path fill="#061857" d="M86.314 93.846a5.18 5.18 0 0 1-3.679-1.521L69.561 79.25c-6.845 4.843-14.854 7.4-23.204 7.4-22.217 0-40.291-18.075-40.291-40.293 0-22.216 18.074-40.292 40.291-40.292 22.218 0 40.295 18.076 40.295 40.292 0 8.35-2.557 16.357-7.402 23.204l13.074 13.073a5.208 5.208 0 0 1 0 7.357l-2.331 2.333a5.18 5.18 0 0 1-3.679 1.52ZM69.641 77.5c.196 0 .388.075.536.222l13.53 13.53a3.691 3.691 0 0 0 5.214 0l2.33-2.332a3.691 3.691 0 0 0 0-5.213l-13.53-13.529a.76.76 0 0 1-.077-.983c4.902-6.699 7.491-14.595 7.491-22.837 0-21.381-17.395-38.775-38.778-38.775-21.379 0-38.775 17.394-38.775 38.775 0 21.38 17.396 38.777 38.776 38.777 8.242 0 16.14-2.59 22.836-7.488a.755.755 0 0 1 .447-.147Z"/>
  <path fill="#FC6E56" d="m85.722 77.106-23.009-23.01-8.617 8.617 23.009 23.01a4.444 4.444 0 0 0 6.285 0l2.332-2.332a4.444 4.444 0 0 0 0-6.285Z"/>
  <path fill="#061857" d="M80.248 87.78a5.183 5.183 0 0 1-3.679-1.521L53.561 63.25a.758.758 0 0 1 0-1.072l8.616-8.618a.78.78 0 0 1 1.072 0l23.009 23.008a5.165 5.165 0 0 1 1.522 3.68 5.16 5.16 0 0 1-1.522 3.678l-2.331 2.333a5.183 5.183 0 0 1-3.679 1.52ZM55.17 62.713l22.472 22.472a3.692 3.692 0 0 0 5.214 0l2.33-2.332a3.66 3.66 0 0 0 1.079-2.606 3.66 3.66 0 0 0-1.079-2.607L62.713 55.168l-7.544 7.546Z"/>
  <path fill="#F3F3F3" d="M40.292 79.826c21.834 0 39.534-17.7 39.534-39.534S62.126.758 40.292.758.758 18.458.758 40.292s17.7 39.534 39.534 39.534Z"/>
  <path fill="#061857" d="M40.291 80.585C18.074 80.585 0 62.509 0 40.292 0 18.076 18.074 0 40.291 0 62.51 0 80.586 18.076 80.586 40.292c0 22.217-18.077 40.293-40.295 40.293Zm0-79.068c-21.38 0-38.775 17.394-38.775 38.775 0 21.38 17.396 38.777 38.775 38.777 21.382 0 38.778-17.396 38.778-38.777S61.673 1.517 40.291 1.517Z"/>
  <path fill="#C4E3F7" d="M66.562 40.292c0 14.509-11.761 26.27-26.27 26.27-14.508 0-26.27-11.761-26.27-26.27 0-14.508 11.761-26.27 26.27-26.27 14.51 0 26.27 11.762 26.27 26.27Z"/>
  <path fill="#061857" d="M40.291 67.321c-14.904 0-27.027-12.124-27.027-27.03 0-14.902 12.123-27.027 27.027-27.027 14.905 0 27.028 12.125 27.028 27.028 0 14.904-12.123 27.03-27.028 27.03Zm0-52.54c-14.066 0-25.51 11.444-25.51 25.51 0 14.069 11.444 25.514 25.51 25.514 14.067 0 25.511-11.445 25.511-25.513 0-14.067-11.444-25.511-25.51-25.511Z"/>
  <path fill="#061857" d="M20.088 46.358c0-14.508 11.761-26.27 26.27-26.27 5.705 0 10.97 1.838 15.277 4.927-4.767-6.647-12.54-10.993-21.343-10.993-14.509 0-26.27 11.762-26.27 26.27 0 8.804 4.346 16.576 10.993 21.343-3.089-4.307-4.927-9.572-4.927-15.277Z"/>
  <path fill="#061857" d="M25.013 62.394a.76.76 0 0 1-.44-.142c-7.083-5.079-11.31-13.288-11.31-21.96 0-14.903 12.124-27.028 27.029-27.028 8.672 0 16.882 4.228 21.96 11.31.215.3.183.716-.08.977a.765.765 0 0 1-.978.08c-4.366-3.13-9.496-4.784-14.837-4.784-14.066 0-25.51 11.444-25.51 25.51 0 5.338 1.652 10.469 4.782 14.837a.756.756 0 0 1-.616 1.2Zm15.278-47.613c-14.066 0-25.51 11.444-25.51 25.51 0 6.654 2.635 13.019 7.214 17.743a26.76 26.76 0 0 1-2.665-11.676c0-14.903 12.123-27.028 27.028-27.028 4.08 0 8.047.91 11.675 2.664-4.724-4.578-11.09-7.213-17.742-7.213Z"/>
</svg>
