<svg xmlns="http://www.w3.org/2000/svg" fill="none" viewBox="0 0 92 92">
  <path fill="#061857" d="M91.256 53.626V44.32a3.208 3.208 0 0 0-2.446-3.116l-7.59-1.855c-1.019-.249-1.883-.956-2.263-1.933-.194-.498-.4-.99-.618-1.475-.423-.945-.318-2.044.22-2.928l4.077-6.715a3.208 3.208 0 0 0-.474-3.934l-6.58-6.58a3.208 3.208 0 0 0-3.933-.474l-6.715 4.078c-.885.537-1.984.642-2.929.219a31.658 31.658 0 0 0-1.475-.618c-.976-.38-1.684-1.244-1.933-2.262l-1.854-7.591a3.208 3.208 0 0 0-3.117-2.447h-9.305a3.208 3.208 0 0 0-3.117 2.447l-1.855 7.59c-.248 1.019-.956 1.883-1.932 2.263-.498.194-.99.4-1.475.618-.945.423-2.044.318-2.929-.22l-6.715-4.077a3.208 3.208 0 0 0-3.933.474l-6.58 6.58a3.209 3.209 0 0 0-.473 3.933l4.077 6.715c.537.885.642 1.984.219 2.929-.218.485-.424.977-.618 1.475-.38.977-1.244 1.684-2.262 1.933l-7.59 1.855A3.208 3.208 0 0 0 6.69 44.32v9.306a3.208 3.208 0 0 0 2.446 3.116l7.59 1.855c1.02.249 1.883.956 2.263 1.933.194.498.4.99.618 1.475.423.945.318 2.044-.22 2.929l-4.077 6.714a3.209 3.209 0 0 0 .474 3.934l6.58 6.58a3.208 3.208 0 0 0 3.933.473l6.715-4.077c.885-.537 1.984-.642 2.929-.22.485.218.977.425 1.475.618.976.38 1.684 1.245 1.932 2.263l1.855 7.59a3.208 3.208 0 0 0 3.117 2.447h9.305a3.208 3.208 0 0 0 3.117-2.446l1.854-7.591c.25-1.018.957-1.882 1.933-2.263.498-.193.99-.4 1.475-.617.945-.423 2.044-.318 2.929.219l6.715 4.077a3.207 3.207 0 0 0 3.933-.473l6.58-6.58a3.208 3.208 0 0 0 .474-3.934l-4.078-6.715c-.537-.884-.642-1.983-.219-2.928.218-.486.424-.977.618-1.475.38-.977 1.244-1.684 2.262-1.933l7.59-1.855a3.208 3.208 0 0 0 2.447-3.116Z"/>
  <path fill="#061857" d="M53.626 92H44.32a3.943 3.943 0 0 1-3.838-3.013l-1.856-7.591c-.197-.81-.752-1.464-1.48-1.747-.509-.198-1.011-.41-1.507-.631-.712-.317-1.542-.246-2.24.175l-6.715 4.079a3.941 3.941 0 0 1-4.843-.584l-6.583-6.58a3.944 3.944 0 0 1-.583-4.846l4.079-6.714c.424-.7.491-1.536.174-2.238-.22-.498-.432-1-.63-1.51-.284-.73-.938-1.283-1.748-1.482l-7.59-1.854a3.942 3.942 0 0 1-3.014-3.838V44.32a3.94 3.94 0 0 1 3.014-3.838l7.59-1.855c.81-.198 1.463-.75 1.745-1.481.2-.51.413-1.013.633-1.51.317-.701.25-1.539-.174-2.237l-4.08-6.715a3.949 3.949 0 0 1 .584-4.846l6.583-6.58a3.935 3.935 0 0 1 4.843-.581l6.716 4.075c.694.422 1.527.493 2.235.177.5-.224 1.002-.434 1.51-.632.729-.283 1.284-.936 1.481-1.748l1.856-7.59a3.943 3.943 0 0 1 3.838-3.012h9.306a3.943 3.943 0 0 1 3.839 3.012l1.855 7.59c.198.812.752 1.465 1.481 1.748.508.198 1.013.408 1.51.632.7.312 1.536.25 2.235-.176l6.716-4.078a3.947 3.947 0 0 1 4.847.584l6.58 6.58a3.947 3.947 0 0 1 .583 4.844L79.195 33.4c-.427.7-.493 1.538-.177 2.237.22.497.433 1 .63 1.51.285.729.938 1.282 1.748 1.481l7.59 1.855A3.94 3.94 0 0 1 92 44.32v9.306a3.942 3.942 0 0 1-3.014 3.838l-7.59 1.854c-.81.2-1.463.754-1.745 1.483-.2.509-.412 1.011-.633 1.508-.317.701-.25 1.537.177 2.239l4.077 6.714a3.943 3.943 0 0 1-.584 4.845l-6.58 6.581a3.945 3.945 0 0 1-4.846.584l-6.716-4.078c-.7-.427-1.536-.487-2.235-.178-.497.223-1.002.435-1.51.633-.729.283-1.283.937-1.481 1.747l-1.855 7.591A3.943 3.943 0 0 1 53.626 92Zm-18.92-14.666a3.78 3.78 0 0 1 1.54.326c.476.212.955.414 1.44.604 1.178.459 2.07 1.497 2.386 2.778l1.856 7.591a2.456 2.456 0 0 0 2.392 1.88h9.306a2.457 2.457 0 0 0 2.393-1.88l1.855-7.591c.316-1.28 1.208-2.32 2.387-2.778.485-.19.967-.39 1.44-.604 1.15-.513 2.503-.413 3.618.263L72.035 82c.973.595 2.218.44 3.023-.363l6.579-6.581A2.457 2.457 0 0 0 82 72.035l-4.077-6.715c-.68-1.12-.778-2.474-.264-3.62.215-.474.415-.953.607-1.44.459-1.178 1.495-2.071 2.776-2.385l7.59-1.854a2.46 2.46 0 0 0 1.881-2.395V44.32a2.46 2.46 0 0 0-1.881-2.395l-7.59-1.855c-1.28-.312-2.317-1.203-2.78-2.384a27.927 27.927 0 0 0-.603-1.44c-.514-1.148-.415-2.5.264-3.62L82 25.913a2.46 2.46 0 0 0-.363-3.023l-6.58-6.58a2.46 2.46 0 0 0-3.022-.364l-6.716 4.079c-1.118.677-2.471.778-3.618.26a31.395 31.395 0 0 0-1.44-.602c-1.179-.458-2.07-1.497-2.387-2.778l-1.855-7.59a2.457 2.457 0 0 0-2.393-1.88H44.32a2.457 2.457 0 0 0-2.392 1.88l-1.856 7.59c-.316 1.281-1.208 2.32-2.386 2.778-.485.19-.964.39-1.443.604-1.139.513-2.495.417-3.616-.262l-6.715-4.077a2.454 2.454 0 0 0-3.02.363l-6.583 6.58a2.462 2.462 0 0 0-.363 3.023l4.08 6.713c.676 1.117.775 2.47.261 3.62-.214.473-.415.954-.607 1.44-.459 1.182-1.498 2.073-2.775 2.384l-7.59 1.855a2.46 2.46 0 0 0-1.882 2.395v9.306a2.46 2.46 0 0 0 1.882 2.395l7.59 1.854c1.28.314 2.316 1.205 2.778 2.386.19.486.39.965.604 1.44.514 1.147.418 2.5-.261 3.62l-4.08 6.714a2.458 2.458 0 0 0 .363 3.02l6.583 6.582a2.453 2.453 0 0 0 3.02.363l6.715-4.078a4.028 4.028 0 0 1 2.08-.588Z"/>
  <path fill="#F3F3F3" d="M85.31 47.68v-9.306a3.208 3.208 0 0 0-2.447-3.117l-7.59-1.855c-1.018-.249-1.882-.956-2.263-1.933-.194-.498-.4-.99-.617-1.475-.424-.945-.319-2.043.219-2.928l4.077-6.715a3.208 3.208 0 0 0-.473-3.934l-6.58-6.58a3.208 3.208 0 0 0-3.934-.473l-6.715 4.077c-.884.537-1.983.642-2.928.22a31.814 31.814 0 0 0-1.475-.619c-.977-.38-1.684-1.244-1.933-2.262l-1.855-7.59A3.208 3.208 0 0 0 47.68.742h-9.306a3.208 3.208 0 0 0-3.116 2.446l-1.855 7.59c-.249 1.02-.956 1.883-1.933 2.263-.498.194-.99.4-1.475.618-.945.423-2.044.319-2.928-.219l-6.715-4.077a3.208 3.208 0 0 0-3.934.473l-6.58 6.58a3.209 3.209 0 0 0-.473 3.934l4.077 6.715c.537.885.643 1.983.22 2.928-.218.486-.425.977-.618 1.475-.38.977-1.245 1.684-2.263 1.933l-7.59 1.855a3.208 3.208 0 0 0-2.447 3.117v9.305a3.208 3.208 0 0 0 2.447 3.116l7.59 1.855c1.018.25 1.882.957 2.263 1.933.193.498.4.99.617 1.475.424.945.319 2.044-.219 2.93l-4.077 6.714a3.208 3.208 0 0 0 .473 3.933l6.58 6.58a3.208 3.208 0 0 0 3.934.474l6.715-4.077c.884-.538 1.983-.643 2.928-.22.485.218.977.424 1.475.618.977.38 1.684 1.244 1.933 2.262l1.855 7.591a3.208 3.208 0 0 0 3.116 2.446h9.306a3.208 3.208 0 0 0 3.116-2.446l1.855-7.59c.249-1.019.956-1.883 1.933-2.263.498-.194.99-.4 1.475-.618.945-.423 2.044-.318 2.928.22l6.715 4.077a3.208 3.208 0 0 0 3.933-.474l6.58-6.58a3.207 3.207 0 0 0 .474-3.933l-4.077-6.715c-.538-.885-.642-1.984-.22-2.929.218-.485.425-.977.618-1.475.38-.976 1.245-1.684 2.263-1.932l7.59-1.856a3.208 3.208 0 0 0 2.447-3.116Z"/>
  <path fill="#061857" d="M47.68 86.053h-9.306a3.944 3.944 0 0 1-3.84-3.012l-1.854-7.592c-.198-.81-.753-1.463-1.481-1.746-.508-.2-1.01-.41-1.507-.632-.708-.313-1.54-.245-2.239.176l-6.716 4.078a3.946 3.946 0 0 1-4.843-.584l-6.582-6.58a3.942 3.942 0 0 1-.584-4.845l4.08-6.715c.423-.7.49-1.536.174-2.237-.22-.498-.433-1-.63-1.51-.285-.73-.938-1.283-1.748-1.483l-7.59-1.853A3.942 3.942 0 0 1 0 47.679v-9.306a3.94 3.94 0 0 1 3.014-3.837l7.59-1.856c.81-.197 1.463-.75 1.745-1.48.2-.51.412-1.014.633-1.51.317-.702.25-1.54-.175-2.238l-4.08-6.714a3.949 3.949 0 0 1 .585-4.846l6.582-6.58a3.941 3.941 0 0 1 4.843-.582l6.716 4.075c.697.424 1.53.492 2.236.177.5-.223 1.002-.434 1.51-.631.728-.283 1.283-.937 1.48-1.748l1.856-7.59A3.944 3.944 0 0 1 38.374 0h9.306a3.944 3.944 0 0 1 3.838 3.013l1.855 7.59c.198.811.753 1.465 1.482 1.748.508.197 1.013.408 1.51.631.699.314 1.532.248 2.235-.175l6.716-4.079a3.946 3.946 0 0 1 4.846.584l6.58 6.58a3.946 3.946 0 0 1 .583 4.844l-4.077 6.716c-.426.7-.493 1.538-.176 2.238.22.496.432 1 .63 1.51.284.728.938 1.282 1.748 1.48l7.59 1.856a3.94 3.94 0 0 1 3.013 3.837v9.306a3.942 3.942 0 0 1-3.014 3.839l-7.59 1.853c-.81.2-1.463.754-1.745 1.483-.2.51-.412 1.012-.632 1.508-.317.701-.25 1.538.176 2.24l4.077 6.714a3.942 3.942 0 0 1-.583 4.844l-6.58 6.581a3.945 3.945 0 0 1-4.846.584L58.6 73.247c-.703-.427-1.536-.487-2.236-.177-.496.222-1.001.434-1.51.633-.728.283-1.283.936-1.48 1.746l-1.856 7.592a3.943 3.943 0 0 1-3.838 3.012ZM28.76 71.387c.525 0 1.051.11 1.539.327.476.212.955.414 1.44.604 1.179.458 2.07 1.497 2.387 2.777l1.855 7.591a2.457 2.457 0 0 0 2.393 1.88h9.306a2.457 2.457 0 0 0 2.392-1.88l1.856-7.59c.316-1.281 1.208-2.32 2.386-2.778.485-.19.967-.39 1.44-.604 1.15-.516 2.503-.417 3.618.262l6.716 4.077a2.457 2.457 0 0 0 3.023-.363l6.58-6.58a2.457 2.457 0 0 0 .362-3.022l-4.076-6.714c-.68-1.121-.778-2.475-.265-3.62.215-.475.416-.954.608-1.44.458-1.179 1.495-2.072 2.775-2.386l7.59-1.853a2.46 2.46 0 0 0 1.882-2.396v-9.306a2.46 2.46 0 0 0-1.882-2.394l-7.59-1.856c-1.28-.312-2.317-1.203-2.779-2.383a27.41 27.41 0 0 0-.604-1.44c-.513-1.15-.415-2.5.265-3.62l4.076-6.715a2.46 2.46 0 0 0-.362-3.022l-6.58-6.58A2.462 2.462 0 0 0 66.088 10l-6.716 4.078c-1.117.678-2.47.776-3.617.261a31.583 31.583 0 0 0-1.44-.602c-1.18-.459-2.071-1.497-2.387-2.779l-1.856-7.59a2.457 2.457 0 0 0-2.392-1.88h-9.306a2.457 2.457 0 0 0-2.393 1.88l-1.855 7.59c-.317 1.282-1.208 2.32-2.387 2.779-.485.188-.964.39-1.443.604-1.138.512-2.494.418-3.615-.263L19.965 10a2.45 2.45 0 0 0-3.02.363l-6.582 6.58A2.462 2.462 0 0 0 10 19.967l4.08 6.713c.676 1.116.774 2.47.26 3.62-.214.473-.414.953-.606 1.44-.46 1.182-1.498 2.073-2.776 2.383l-7.59 1.856a2.46 2.46 0 0 0-1.881 2.394v9.306a2.46 2.46 0 0 0 1.881 2.396l7.59 1.853c1.28.314 2.317 1.206 2.779 2.386.189.486.389.965.604 1.441.514 1.146.418 2.5-.262 3.618L10 66.088a2.457 2.457 0 0 0 .364 3.021l6.582 6.581a2.453 2.453 0 0 0 3.02.363l6.716-4.078a4.028 4.028 0 0 1 2.079-.588Z"/>
  <path fill="#CFF558" d="M43.027 64.112c11.645 0 21.085-9.44 21.085-21.086 0-11.645-9.44-21.086-21.085-21.086-11.645 0-21.086 9.44-21.086 21.086 0 11.646 9.44 21.086 21.086 21.086Z"/>
  <path fill="#061857" d="M43.028 64.855c-12.035 0-21.83-9.792-21.83-21.83 0-12.036 9.795-21.829 21.83-21.829 12.036 0 21.83 9.793 21.83 21.83 0 12.037-9.795 21.83-21.83 21.83Zm0-42.172c-11.217 0-20.342 9.126-20.342 20.343 0 11.216 9.125 20.343 20.342 20.343 11.217 0 20.343-9.126 20.343-20.343s-9.126-20.343-20.343-20.343Z"/>
  <path fill="#fff" d="M43.027 54.957c6.589 0 11.93-5.342 11.93-11.93 0-6.59-5.341-11.931-11.93-11.931-6.59 0-11.93 5.341-11.93 11.93 0 6.59 5.34 11.931 11.93 11.931Z"/>
  <path fill="#061857" d="M43.028 55.7c-6.989 0-12.674-5.685-12.674-12.674s5.685-12.674 12.674-12.674 12.674 5.685 12.674 12.674c0 6.99-5.685 12.674-12.674 12.674Zm0-23.862c-6.17 0-11.188 5.02-11.188 11.188 0 6.169 5.018 11.188 11.188 11.188 6.17 0 11.187-5.02 11.187-11.188 0-6.169-5.017-11.188-11.187-11.188Z"/>
  <path fill="#061857" d="M37.043 48.973c0-6.59 5.342-11.93 11.93-11.93 1.754 0 3.406.4 4.906 1.078-1.874-4.135-6.016-7.025-10.852-7.025-6.59 0-11.93 5.341-11.93 11.93 0 4.836 2.89 8.978 7.025 10.852-.68-1.5-1.08-3.151-1.08-4.905Z"/>
  <path fill="#061857" d="M38.121 54.622a.737.737 0 0 1-.308-.067c-4.53-2.055-7.459-6.58-7.459-11.53 0-6.988 5.685-12.673 12.674-12.673 4.95 0 9.475 2.93 11.527 7.463a.743.743 0 0 1-.984.983 11.093 11.093 0 0 0-4.596-1.013c-6.17 0-11.188 5.019-11.188 11.188 0 1.57.34 3.118 1.01 4.599a.744.744 0 0 1-.676 1.05Zm4.907-22.784c-6.17 0-11.188 5.02-11.188 11.188 0 3.72 1.876 7.17 4.905 9.23a12.33 12.33 0 0 1-.444-3.284c0-6.988 5.684-12.674 12.674-12.674 1.106 0 2.206.15 3.284.448-2.062-3.03-5.511-4.908-9.23-4.908Z"/>
</svg>
