<svg xmlns="http://www.w3.org/2000/svg" fill="none" viewBox="0 0 99 80">
  <path fill="#061857" d="M60.927 11.266c-.237 2.992-2.629 5.416-5.343 5.416H24.73c-2.714 0-5.106 2.425-5.343 5.417L15.296 73.66c-.237 2.99 1.77 5.416 4.483 5.416h67.409c2.714 0 5.106-2.425 5.343-5.416l4.95-62.395c.238-2.991-1.77-5.416-4.483-5.416H66.27c-2.713 0-5.105 2.425-5.343 5.416Z"/>
  <path fill="#061857" d="M87.188 79.727H19.78c-1.476 0-2.817-.636-3.777-1.79-.965-1.16-1.423-2.699-1.295-4.334l4.09-51.562c.263-3.313 2.923-6.008 5.931-6.008h30.856c2.412 0 4.544-2.165 4.756-4.824.263-3.313 2.923-6.01 5.93-6.01h26.727c1.477 0 2.817.636 3.777 1.79.965 1.16 1.424 2.7 1.295 4.334l-4.952 62.395c-.263 3.313-2.922 6.01-5.93 6.01ZM24.729 17.332c-2.411 0-4.544 2.164-4.756 4.823l-4.09 51.563c-.101 1.265.251 2.452.988 3.34a3.727 3.727 0 0 0 2.909 1.37h67.408c2.411 0 4.544-2.165 4.755-4.825l4.952-62.394c.101-1.265-.251-2.453-.988-3.341a3.726 3.726 0 0 0-2.909-1.369H66.271c-2.41 0-4.544 2.165-4.755 4.824-.263 3.313-2.923 6.01-5.93 6.01H24.728Z"/>
  <path fill="#FC6E56" d="M56.21 6.066c-.236 2.992-2.629 5.417-5.342 5.417H20.013c-2.713 0-5.105 2.425-5.343 5.416l-4.09 51.562c-.238 2.991 1.77 5.416 4.483 5.416H82.47c2.714 0 5.106-2.425 5.343-5.416l4.95-62.395c.238-2.99-1.77-5.416-4.483-5.416H61.553c-2.713 0-5.105 2.425-5.342 5.416Z"/>
  <path fill="#061857" d="M82.471 74.528H15.063c-1.476 0-2.817-.637-3.777-1.79-.965-1.16-1.423-2.7-1.294-4.334l4.09-51.563c.263-3.313 2.922-6.008 5.93-6.008H50.87c2.41 0 4.544-2.164 4.755-4.823.263-3.314 2.923-6.01 5.93-6.01h26.728c1.476 0 2.816.636 3.777 1.79.965 1.16 1.423 2.699 1.294 4.334l-4.951 62.394c-.263 3.313-2.923 6.01-5.931 6.01ZM20.012 12.133c-2.411 0-4.544 2.163-4.755 4.823l-4.09 51.562c-.102 1.266.25 2.453.987 3.341a3.727 3.727 0 0 0 2.909 1.369h67.408c2.411 0 4.544-2.165 4.756-4.824L92.178 6.01c.102-1.266-.25-2.453-.988-3.342A3.726 3.726 0 0 0 88.282 1.3H61.555c-2.411 0-4.544 2.164-4.756 4.824-.263 3.313-2.923 6.009-5.93 6.009H20.012Z"/>
  <path fill="#061857" d="m90.41 10.316-63.162-.244c-1.571-.006-2.884 1.316-3.021 3.041L19.71 70.038c-.154 1.948 1.238 3.622 3.011 3.622h63.181c1.567 0 2.874-1.32 3.01-3.04l4.498-56.682c.154-1.943-1.231-3.615-3-3.622Z"/>
  <path fill="#061857" d="M85.903 74.31H22.72c-1.009 0-1.981-.47-2.663-1.29-.681-.82-1.022-1.929-.935-3.038l4.517-56.926c.161-2.04 1.74-3.634 3.6-3.634h.01l63.162.243c1.009.004 1.976.478 2.655 1.3.68.819 1.018 1.923.93 3.03L89.5 70.676c-.163 2.072-1.711 3.635-3.597 3.635ZM27.239 10.722c-1.252 0-2.317 1.075-2.425 2.448l-4.516 56.927c-.06.758.163 1.484.631 2.045.465.561 1.1.87 1.792.87h63.181c1.272 0 2.313-1.053 2.424-2.448l4.497-56.682a2.833 2.833 0 0 0-.626-2.041c-.465-.561-1.101-.872-1.79-.875l-63.16-.243h-.008Z"/>
  <path fill="#F3F3F3" d="M88.052 7.716 24.89 7.472c-1.572-.006-2.884 1.316-3.022 3.042l-4.516 56.925c-.155 1.947 1.238 3.622 3.01 3.622h63.182c1.567 0 2.874-1.32 3.01-3.042l4.498-56.681c.154-1.942-1.231-3.615-3-3.622Z"/>
  <path fill="#061857" d="M83.544 71.71H20.363c-1.01 0-1.981-.47-2.663-1.29-.682-.82-1.023-1.928-.935-3.038l4.516-56.926c.162-2.04 1.741-3.634 3.6-3.634h.011l63.162.243c1.008.004 1.976.478 2.655 1.3.68.82 1.018 1.924.93 3.03l-4.497 56.681c-.164 2.072-1.712 3.635-3.598 3.635ZM24.881 8.123c-1.253 0-2.317 1.074-2.425 2.447l-4.517 56.927c-.06.758.164 1.484.631 2.045.466.561 1.101.87 1.793.87h63.181c1.272 0 2.313-1.052 2.423-2.448l4.498-56.682a2.833 2.833 0 0 0-.626-2.04c-.466-.562-1.101-.873-1.79-.875l-63.161-.244h-.007Z"/>
  <path fill="#F3F3F3" d="M85.694 5.116 22.53 4.872c-1.57-.005-2.884 1.317-3.02 3.042l-4.517 56.925c-.155 1.947 1.237 3.622 3.01 3.622h63.182c1.567 0 2.874-1.32 3.01-3.041l4.498-56.682c.154-1.942-1.232-3.615-3-3.622Z"/>
  <path fill="#061857" d="M81.186 69.111H18.004c-1.009 0-1.98-.471-2.662-1.291-.682-.82-1.023-1.928-.935-3.038l4.516-56.926c.161-2.045 1.711-3.687 3.611-3.634l63.161.244c1.01.004 1.977.477 2.656 1.299.68.82 1.018 1.924.93 3.03l-4.498 56.682c-.163 2.071-1.71 3.634-3.597 3.634ZM22.523 5.522c-1.253 0-2.317 1.074-2.425 2.447L15.58 64.897c-.06.757.164 1.483.631 2.044.465.561 1.101.87 1.792.87h63.182c1.271 0 2.312-1.052 2.423-2.447L88.107 8.68a2.834 2.834 0 0 0-.627-2.04c-.465-.562-1.1-.873-1.79-.875l-63.16-.244h-.007Z"/>
  <path fill="#F3F3F3" d="m83.335 2.517-63.162-.244c-1.571-.006-2.884 1.316-3.021 3.041l-4.517 56.925c-.154 1.947 1.238 3.622 3.01 3.622h63.182c1.567 0 2.875-1.32 3.011-3.041l4.497-56.682c.155-1.942-1.231-3.615-3-3.621Z"/>
  <path fill="#061857" d="M78.828 66.511H15.646c-1.01 0-1.98-.47-2.663-1.29-.681-.82-1.022-1.929-.935-3.039l4.517-56.925c.16-2.045 1.739-3.656 3.61-3.635l63.162.244c1.009.004 1.976.477 2.655 1.299.68.82 1.018 1.924.931 3.031l-4.498 56.68c-.163 2.073-1.711 3.635-3.597 3.635ZM20.164 2.922c-1.253 0-2.317 1.074-2.425 2.447l-4.516 56.928c-.06.757.164 1.484.63 2.045.466.56 1.102.87 1.793.87h63.182c1.271 0 2.312-1.053 2.422-2.448l4.498-56.682a2.831 2.831 0 0 0-.626-2.041c-.465-.562-1.1-.873-1.79-.875l-63.16-.244h-.008Z"/>
  <path fill="#FC6E56" d="M82.471 73.877H15.063c-2.714 0-5.372-2.425-5.937-5.416L.814 24.807c-.565-2.992 1.177-5.417 3.89-5.417h67.409c2.713 0 5.371 2.425 5.936 5.417l8.312 43.654c.565 2.991-1.176 5.416-3.89 5.416Z"/>
  <path fill="#061857" d="M82.471 74.528H15.063c-2.973 0-5.893-2.662-6.515-5.934L.236 24.94c-.313-1.665-.004-3.233.866-4.415.85-1.151 2.128-1.784 3.602-1.784h67.408c2.976 0 5.898 2.662 6.515 5.934l8.312 43.653c.313 1.663.007 3.23-.864 4.412-.85 1.153-2.13 1.788-3.604 1.788ZM4.704 20.04c-1.113 0-2.066.464-2.686 1.305-.644.873-.868 2.055-.626 3.33l8.312 43.653c.511 2.702 2.915 4.9 5.359 4.9h67.408c1.112 0 2.066-.465 2.688-1.308.645-.872.866-2.054.624-3.326L77.47 24.94c-.509-2.702-2.913-4.9-5.359-4.9H4.704Z"/>
</svg>
