<svg xmlns="http://www.w3.org/2000/svg" fill="none" viewBox="0 0 88 97">
  <path fill="#061857" d="M80.99 65.617h-2.53c2.655 0 4.808-1.969 4.808-4.397V4.957c0-2.427-2.153-4.396-4.809-4.396H16.91a4.982 4.982 0 0 0-3.568 1.474L5.973 8.769l6.127 7.306V61.22c0 2.428 2.153 4.397 4.81 4.397h-2.532c-3.533 0-6.396 2.617-6.396 5.847v12.393c0 3.229 2.863 5.847 6.396 5.847H73.85l4.245 5.06 7.296-6.673-.004-.004c1.226-1.066 2-2.562 2-4.23V71.464c0-3.23-2.864-5.847-6.397-5.847Z"/>
  <path fill="#061857" d="m78.095 95.326-.04-.001a.634.634 0 0 1-.447-.218l-4.06-4.842h-59.17c-3.866 0-7.01-2.875-7.01-6.409V71.463c0-3.274 2.7-5.981 6.17-6.361-1.25-.91-2.053-2.313-2.053-3.882V16.265L5.487 9.11a.525.525 0 0 1 .053-.738l7.368-6.735C13.92.605 15.385 0 16.91 0h61.55c2.99 0 5.422 2.224 5.422 4.958V61.22c0 1.57-.803 2.972-2.053 3.882 3.473.38 6.171 3.088 6.171 6.361v12.393c0 1.735-.753 3.358-2.122 4.578a.807.807 0 0 1-.053.053l-7.296 6.675a.643.643 0 0 1-.434.164ZM14.378 66.178c-3.188 0-5.783 2.37-5.783 5.285v12.393c0 2.915 2.595 5.287 5.783 5.287H73.85c.192 0 .372.081.487.219l3.818 4.553 6.74-6.164a.445.445 0 0 1 .069-.072c1.165-1.012 1.808-2.37 1.808-3.823V71.463c0-2.914-2.595-5.285-5.782-5.285h-2.53c-.338 0-.614-.251-.614-.561 0-.31.276-.562.614-.562 2.312 0 4.194-1.72 4.194-3.835V4.958c0-2.115-1.882-3.836-4.194-3.836H16.91A4.314 4.314 0 0 0 13.8 2.41L6.79 8.82l5.796 6.915a.532.532 0 0 1 .127.34V61.22c0 2.114 1.883 3.835 4.197 3.835.339 0 .614.251.614.561 0 .31-.275.562-.614.562h-2.532Z"/>
  <path fill="#F3F3F3" d="M69.444 7.296H11.19c-3.566 0-6.457 2.642-6.457 5.902v53.251c0 3.26 2.891 5.902 6.457 5.902h58.255c3.566 0 6.457-2.642 6.457-5.902V13.198c0-3.26-2.89-5.902-6.457-5.902Z"/>
  <path fill="#061857" d="M71.092 72.912H9.542c-2.99 0-5.424-2.224-5.424-4.957V11.692c0-2.733 2.434-4.958 5.425-4.958h61.55c2.99 0 5.422 2.225 5.422 4.958v56.263c0 2.733-2.432 4.957-5.423 4.957ZM9.542 7.857c-2.314 0-4.196 1.721-4.196 3.835v56.263c0 2.114 1.882 3.835 4.197 3.835h61.55c2.311 0 4.194-1.72 4.194-3.835V11.692c0-2.114-1.883-3.835-4.195-3.835H9.542Z"/>
  <path fill="#F3F3F3" d="M71.432 72.351H9.202c-4.743 0-8.588 3.515-8.588 7.85v8.387c0 4.336 3.845 7.85 8.588 7.85h62.23c4.742 0 8.587-3.514 8.587-7.85v-8.387c0-4.335-3.845-7.85-8.587-7.85Z"/>
  <path fill="#061857" d="M73.623 97H7.01C3.144 97 0 94.125 0 90.59V78.199c0-3.533 3.144-6.408 7.01-6.408h66.612c3.866 0 7.01 2.875 7.01 6.408V90.59c0 3.534-3.144 6.409-7.01 6.409ZM7.01 72.912c-3.187 0-5.782 2.371-5.782 5.286V90.59c0 2.914 2.595 5.286 5.782 5.286h66.612c3.188 0 5.782-2.372 5.782-5.286V78.198c0-2.915-2.594-5.286-5.781-5.286H7.01Z"/>
  <path fill="#061857" d="M14.71 82.056V77.38H9.592v4.676h5.116Z"/>
  <path fill="#061857" d="M14.709 82.618H9.593c-.338 0-.614-.251-.614-.562V77.38c0-.31.276-.561.614-.561h5.116c.338 0 .614.25.614.561v4.677c0 .31-.276.562-.614.562Zm-4.502-1.123h3.888V77.94h-3.888v3.555ZM14.71 91.41v-4.677H9.592v4.677h5.116Z"/>
  <path fill="#061857" d="M14.709 91.97H9.593c-.338 0-.614-.25-.614-.56v-4.676c0-.31.276-.562.614-.562h5.116c.338 0 .614.251.614.562v4.676c0 .31-.276.56-.614.56Zm-4.502-1.122h3.888v-3.553h-3.888v3.553ZM37.579 90.194H24.686c-.68 0-1.228-.502-1.228-1.123 0-.62.549-1.122 1.228-1.122h12.893c.678 0 1.227.502 1.227 1.123 0 .62-.548 1.122-1.227 1.122ZM67.869 90.194H42.85c-.678 0-1.228-.502-1.228-1.123 0-.62.55-1.122 1.228-1.122h25.019c.679 0 1.228.502 1.228 1.123 0 .62-.55 1.122-1.228 1.122Z"/>
  <path fill="#C4E3F7" d="M63.46 12.767H17.174c-3.566 0-6.457 2.642-6.457 5.902v42.31c0 3.259 2.89 5.901 6.457 5.901H63.46c3.565 0 6.456-2.642 6.456-5.902v-42.31c0-3.259-2.89-5.901-6.456-5.901Z"/>
  <path fill="#061857" d="M65.106 67.442h-49.58c-2.99 0-5.422-2.224-5.422-4.958v-45.32c0-2.735 2.432-4.959 5.423-4.959h49.58c2.99 0 5.424 2.224 5.424 4.958v45.32c0 2.735-2.434 4.959-5.425 4.959Zm-49.58-54.114c-2.311 0-4.194 1.72-4.194 3.835v45.32c0 2.115 1.883 3.836 4.194 3.836h49.58c2.314 0 4.197-1.72 4.197-3.835v-45.32c0-2.115-1.883-3.836-4.197-3.836h-49.58Z"/>
  <path fill="#061857" d="M67.563 64.635h-49.58c-2.657 0-4.81-1.968-4.81-4.396V14.918c0-.632.152-1.23.414-1.773-1.688.683-2.87 2.222-2.87 4.018v45.32c0 2.429 2.153 4.397 4.81 4.397h49.58c1.965 0 3.648-1.08 4.395-2.624a5.16 5.16 0 0 1-1.94.38Z"/>
  <path fill="#061857" d="M65.106 67.442h-49.58c-2.99 0-5.422-2.224-5.422-4.958v-45.32c0-1.96 1.269-3.738 3.233-4.532a.658.658 0 0 1 .683.116c.18.163.23.411.127.623a3.573 3.573 0 0 0-.36 1.547v45.32c0 2.115 1.883 3.836 4.195 3.836h49.58c.578 0 1.146-.111 1.693-.33a.653.653 0 0 1 .681.115c.18.165.23.413.127.624-.868 1.798-2.813 2.959-4.957 2.959Zm-52.52-53.008c-.787.708-1.254 1.686-1.254 2.73v45.32c0 2.114 1.883 3.835 4.194 3.835h49.58c1.142 0 2.211-.426 2.986-1.146a5.625 5.625 0 0 1-.53.024h-49.58c-2.99 0-5.422-2.224-5.422-4.958v-45.32c0-.163.01-.325.026-.485Z"/>
</svg>
