<svg xmlns="http://www.w3.org/2000/svg" xml:space="preserve" style="fill-rule:evenodd;clip-rule:evenodd;stroke-linejoin:round;stroke-miterlimit:2" viewBox="0 0 24 24"><path d="M0 0h24v24H0z" style="fill:#1e435b"/><path d="M14.616 6.759h2.497l-.239.871h-2.44c-.486 2.368-1.29 5.483-2.412 9.347-.879 3.001-1.837 4.977-2.876 5.927C8.361 23.635 7.552 24 6.72 24c-.524 0-.94-.136-1.248-.409-.309-.264-.464-.59-.464-.977 0-.343.108-.625.323-.845.224-.22.477-.33.757-.33.243 0 .454.079.631.238.187.158.281.325.281.501a.712.712 0 0 1-.195.502c-.094.105-.141.189-.141.251 0 .07.033.132.099.185a.354.354 0 0 0 .252.092c.181.001.36-.044.519-.132.28-.15.556-.431.827-.845.271-.413.552-1.192.842-2.337.056-.193.458-2.019 1.206-5.478.066-.308.641-2.57 1.725-6.786H9.651l.211-.871c.925-.061 1.505-.127 1.739-.198.239-.076.449-.224.603-.422.243-.3.523-.889.842-1.769.682-1.866 1.337-3.063 1.963-3.592C15.626.259 16.314 0 17.071 0c.58 0 1.042.145 1.388.436.356.29.533.638.533 1.042 0 .308-.093.555-.28.74a.928.928 0 0 1-.674.277.952.952 0 0 1-.631-.224c-.168-.159-.252-.33-.252-.515a.83.83 0 0 1 .154-.449c.103-.167.154-.286.154-.356A.318.318 0 0 0 17.337.7c-.084-.062-.206-.093-.364-.093-.3 0-.571.106-.814.317a2.06 2.06 0 0 0-.645 1.109c-.253 1.065-.552 2.64-.898 4.726" style="fill:salmon;fill-rule:nonzero" transform="translate(1.36 1.36) scale(.8866)"/></svg>